%FSLAX45Y45*%
G04 Gerber Fmt 4.5, Leading zero omitted, Abs format (unit mm)*
G04 Created by KiCad (PCBNEW 4.0.7-e2-6376~61~ubuntu18.04.1) date Wed Aug  1 14:15:46 2018*
%MOMM*%
%LPD*%
G01*
G04 APERTURE LIST*
%ADD10C,0.127000*%
%ADD11C,0.200000*%
%ADD12C,0.300000*%
G04 APERTURE END LIST*
D10*
D11*
X16780750Y-6779500D02*
X16810750Y-6809500D01*
X16810750Y-6779500D02*
X16780750Y-6809500D01*
X16837900Y-6519150D02*
X16867900Y-6549150D01*
X16867900Y-6519150D02*
X16837900Y-6549150D01*
X17390350Y-6633450D02*
X17420350Y-6663450D01*
X17420350Y-6633450D02*
X17390350Y-6663450D01*
X18184100Y-6633450D02*
X18214100Y-6663450D01*
X18214100Y-6633450D02*
X18184100Y-6663450D01*
X15336200Y-9220200D02*
G75*
G03X15336200Y-9220200I-20000J0D01*
G01*
X15336200Y-9525000D02*
G75*
G03X15336200Y-9525000I-20000J0D01*
G01*
X15336200Y-9842500D02*
G75*
G03X15336200Y-9842500I-20000J0D01*
G01*
X15374300Y-6896100D02*
G75*
G03X15374300Y-6896100I-20000J0D01*
G01*
X15641000Y-7600950D02*
G75*
G03X15641000Y-7600950I-20000J0D01*
G01*
X15647350Y-7937500D02*
G75*
G03X15647350Y-7937500I-20000J0D01*
G01*
X15736250Y-8191500D02*
G75*
G03X15736250Y-8191500I-20000J0D01*
G01*
X15742600Y-8509000D02*
G75*
G03X15742600Y-8509000I-20000J0D01*
G01*
X15755300Y-9042400D02*
G75*
G03X15755300Y-9042400I-20000J0D01*
G01*
X15755300Y-9385300D02*
G75*
G03X15755300Y-9385300I-20000J0D01*
G01*
X15780700Y-8674100D02*
G75*
G03X15780700Y-8674100I-20000J0D01*
G01*
X15806100Y-7848600D02*
G75*
G03X15806100Y-7848600I-20000J0D01*
G01*
X15806100Y-9842500D02*
G75*
G03X15806100Y-9842500I-20000J0D01*
G01*
X15907700Y-9042400D02*
G75*
G03X15907700Y-9042400I-20000J0D01*
G01*
X16047400Y-8686800D02*
G75*
G03X16047400Y-8686800I-20000J0D01*
G01*
X16060100Y-9385300D02*
G75*
G03X16060100Y-9385300I-20000J0D01*
G01*
X16085500Y-8515350D02*
G75*
G03X16085500Y-8515350I-20000J0D01*
G01*
X16091850Y-9823450D02*
G75*
G03X16091850Y-9823450I-20000J0D01*
G01*
X16225200Y-7467600D02*
G75*
G03X16225200Y-7467600I-20000J0D01*
G01*
X16237900Y-8686800D02*
G75*
G03X16237900Y-8686800I-20000J0D01*
G01*
X16263300Y-9055100D02*
G75*
G03X16263300Y-9055100I-20000J0D01*
G01*
X16263300Y-9385300D02*
G75*
G03X16263300Y-9385300I-20000J0D01*
G01*
X16517300Y-7124700D02*
G75*
G03X16517300Y-7124700I-20000J0D01*
G01*
X16530000Y-8699500D02*
G75*
G03X16530000Y-8699500I-20000J0D01*
G01*
X16530000Y-9055100D02*
G75*
G03X16530000Y-9055100I-20000J0D01*
G01*
X16542700Y-9385300D02*
G75*
G03X16542700Y-9385300I-20000J0D01*
G01*
X16593500Y-6616700D02*
G75*
G03X16593500Y-6616700I-20000J0D01*
G01*
X16593500Y-7480300D02*
G75*
G03X16593500Y-7480300I-20000J0D01*
G01*
X16593500Y-9842500D02*
G75*
G03X16593500Y-9842500I-20000J0D01*
G01*
X16631600Y-8585200D02*
G75*
G03X16631600Y-8585200I-20000J0D01*
G01*
X16663350Y-7734300D02*
G75*
G03X16663350Y-7734300I-20000J0D01*
G01*
X16676050Y-6477000D02*
G75*
G03X16676050Y-6477000I-20000J0D01*
G01*
X16707800Y-8128000D02*
G75*
G03X16707800Y-8128000I-20000J0D01*
G01*
X16707800Y-8483600D02*
G75*
G03X16707800Y-8483600I-20000J0D01*
G01*
X16714150Y-8680450D02*
G75*
G03X16714150Y-8680450I-20000J0D01*
G01*
X16784000Y-7848600D02*
G75*
G03X16784000Y-7848600I-20000J0D01*
G01*
X16796700Y-7480300D02*
G75*
G03X16796700Y-7480300I-20000J0D01*
G01*
X16822100Y-9055100D02*
G75*
G03X16822100Y-9055100I-20000J0D01*
G01*
X16822100Y-9385300D02*
G75*
G03X16822100Y-9385300I-20000J0D01*
G01*
X16911000Y-7747000D02*
G75*
G03X16911000Y-7747000I-20000J0D01*
G01*
X16923700Y-6477000D02*
G75*
G03X16923700Y-6477000I-20000J0D01*
G01*
X16951100Y-9840500D02*
G75*
G03X16951100Y-9840500I-20000J0D01*
G01*
X16955450Y-8451850D02*
G75*
G03X16955450Y-8451850I-20000J0D01*
G01*
X16961800Y-8166100D02*
G75*
G03X16961800Y-8166100I-20000J0D01*
G01*
X16980850Y-6813550D02*
G75*
G03X16980850Y-6813550I-20000J0D01*
G01*
X16993550Y-6375400D02*
G75*
G03X16993550Y-6375400I-20000J0D01*
G01*
X17076100Y-9055100D02*
G75*
G03X17076100Y-9055100I-20000J0D01*
G01*
X17076100Y-9372600D02*
G75*
G03X17076100Y-9372600I-20000J0D01*
G01*
X17114200Y-6343650D02*
G75*
G03X17114200Y-6343650I-20000J0D01*
G01*
X17114200Y-6845300D02*
G75*
G03X17114200Y-6845300I-20000J0D01*
G01*
X17139600Y-6604000D02*
G75*
G03X17139600Y-6604000I-20000J0D01*
G01*
X17190400Y-6337300D02*
G75*
G03X17190400Y-6337300I-20000J0D01*
G01*
X17190400Y-7861300D02*
G75*
G03X17190400Y-7861300I-20000J0D01*
G01*
X17260250Y-6838950D02*
G75*
G03X17260250Y-6838950I-20000J0D01*
G01*
X17266600Y-7232650D02*
G75*
G03X17266600Y-7232650I-20000J0D01*
G01*
X17292000Y-6007100D02*
G75*
G03X17292000Y-6007100I-20000J0D01*
G01*
X17330100Y-9423400D02*
G75*
G03X17330100Y-9423400I-20000J0D01*
G01*
X17342800Y-8153400D02*
G75*
G03X17342800Y-8153400I-20000J0D01*
G01*
X17355500Y-7480300D02*
G75*
G03X17355500Y-7480300I-20000J0D01*
G01*
X17412650Y-6419850D02*
G75*
G03X17412650Y-6419850I-20000J0D01*
G01*
X17431700Y-6731000D02*
G75*
G03X17431700Y-6731000I-20000J0D01*
G01*
X17609500Y-9404350D02*
G75*
G03X17609500Y-9404350I-20000J0D01*
G01*
X17673000Y-6864350D02*
G75*
G03X17673000Y-6864350I-20000J0D01*
G01*
X17736500Y-9855200D02*
G75*
G03X17736500Y-9855200I-20000J0D01*
G01*
X17749200Y-8153400D02*
G75*
G03X17749200Y-8153400I-20000J0D01*
G01*
X17819050Y-6286500D02*
G75*
G03X17819050Y-6286500I-20000J0D01*
G01*
X17831750Y-9404350D02*
G75*
G03X17831750Y-9404350I-20000J0D01*
G01*
X17863500Y-7461250D02*
G75*
G03X17863500Y-7461250I-20000J0D01*
G01*
X17882550Y-7334250D02*
G75*
G03X17882550Y-7334250I-20000J0D01*
G01*
X17914300Y-8077200D02*
G75*
G03X17914300Y-8077200I-20000J0D01*
G01*
X17927000Y-8955500D02*
G75*
G03X17927000Y-8955500I-20000J0D01*
G01*
X17939700Y-7099300D02*
G75*
G03X17939700Y-7099300I-20000J0D01*
G01*
X17952400Y-6731000D02*
G75*
G03X17952400Y-6731000I-20000J0D01*
G01*
X17958750Y-7473950D02*
G75*
G03X17958750Y-7473950I-20000J0D01*
G01*
X17965100Y-6280150D02*
G75*
G03X17965100Y-6280150I-20000J0D01*
G01*
X17977800Y-7353300D02*
G75*
G03X17977800Y-7353300I-20000J0D01*
G01*
X17977800Y-8356600D02*
G75*
G03X17977800Y-8356600I-20000J0D01*
G01*
X18028600Y-7219950D02*
G75*
G03X18028600Y-7219950I-20000J0D01*
G01*
X18066700Y-8153400D02*
G75*
G03X18066700Y-8153400I-20000J0D01*
G01*
X18079400Y-9766300D02*
G75*
G03X18079400Y-9766300I-20000J0D01*
G01*
X18155600Y-6286500D02*
G75*
G03X18155600Y-6286500I-20000J0D01*
G01*
X18155600Y-8750300D02*
G75*
G03X18155600Y-8750300I-20000J0D01*
G01*
X18168300Y-6121400D02*
G75*
G03X18168300Y-6121400I-20000J0D01*
G01*
X18269900Y-9029700D02*
G75*
G03X18269900Y-9029700I-20000J0D01*
G01*
X18301650Y-9690100D02*
G75*
G03X18301650Y-9690100I-20000J0D01*
G01*
X18346100Y-9550400D02*
G75*
G03X18346100Y-9550400I-20000J0D01*
G01*
X18358800Y-8077200D02*
G75*
G03X18358800Y-8077200I-20000J0D01*
G01*
X18371500Y-8407400D02*
G75*
G03X18371500Y-8407400I-20000J0D01*
G01*
X18371500Y-9245600D02*
G75*
G03X18371500Y-9245600I-20000J0D01*
G01*
X18384200Y-7194550D02*
G75*
G03X18384200Y-7194550I-20000J0D01*
G01*
X18384200Y-7283450D02*
G75*
G03X18384200Y-7283450I-20000J0D01*
G01*
X18568350Y-7194550D02*
G75*
G03X18568350Y-7194550I-20000J0D01*
G01*
X18568350Y-7531100D02*
G75*
G03X18568350Y-7531100I-20000J0D01*
G01*
X18574700Y-7874000D02*
G75*
G03X18574700Y-7874000I-20000J0D01*
G01*
X18582700Y-9025000D02*
G75*
G03X18582700Y-9025000I-20000J0D01*
G01*
X18587400Y-9512300D02*
G75*
G03X18587400Y-9512300I-20000J0D01*
G01*
X18676300Y-9772650D02*
G75*
G03X18676300Y-9772650I-20000J0D01*
G01*
X18752500Y-7194550D02*
G75*
G03X18752500Y-7194550I-20000J0D01*
G01*
X18943000Y-7175500D02*
G75*
G03X18943000Y-7175500I-20000J0D01*
G01*
X18943000Y-9779000D02*
G75*
G03X18943000Y-9779000I-20000J0D01*
G01*
X19209700Y-9321800D02*
G75*
G03X19209700Y-9321800I-20000J0D01*
G01*
X15633700Y-7368900D02*
X15633700Y-7413900D01*
X15611200Y-7391400D02*
X15656200Y-7391400D01*
X15773400Y-7610200D02*
X15773400Y-7655200D01*
X15750900Y-7632700D02*
X15795900Y-7632700D01*
X17945100Y-7648300D02*
X17945100Y-7693300D01*
X17922600Y-7670800D02*
X17967600Y-7670800D01*
X18224500Y-7635600D02*
X18224500Y-7680600D01*
X18202000Y-7658100D02*
X18247000Y-7658100D01*
X18554700Y-7661000D02*
X18554700Y-7706000D01*
X18532200Y-7683500D02*
X18577200Y-7683500D01*
X17485264Y-9877264D02*
X17485264Y-9844736D01*
X17452736Y-9844736D01*
X17452736Y-9877264D01*
X17485264Y-9877264D01*
X18361264Y-9877264D02*
X18361264Y-9844736D01*
X18328736Y-9844736D01*
X18328736Y-9877264D01*
X18361264Y-9877264D01*
X15004110Y-6628460D02*
X15042210Y-6590360D01*
X15004110Y-6552260D01*
X14966010Y-6590360D01*
X15004110Y-6628460D01*
X15004110Y-6882460D02*
X15042210Y-6844360D01*
X15004110Y-6806260D01*
X14966010Y-6844360D01*
X15004110Y-6882460D01*
X15004110Y-7136460D02*
X15042210Y-7098360D01*
X15004110Y-7060260D01*
X14966010Y-7098360D01*
X15004110Y-7136460D01*
X15004110Y-7390460D02*
X15042210Y-7352360D01*
X15004110Y-7314260D01*
X14966010Y-7352360D01*
X15004110Y-7390460D01*
X15004110Y-7644460D02*
X15042210Y-7606360D01*
X15004110Y-7568260D01*
X14966010Y-7606360D01*
X15004110Y-7644460D01*
X15004110Y-7898460D02*
X15042210Y-7860360D01*
X15004110Y-7822260D01*
X14966010Y-7860360D01*
X15004110Y-7898460D01*
X15004110Y-8152460D02*
X15042210Y-8114360D01*
X15004110Y-8076260D01*
X14966010Y-8114360D01*
X15004110Y-8152460D01*
X15004110Y-8406460D02*
X15042210Y-8368360D01*
X15004110Y-8330260D01*
X14966010Y-8368360D01*
X15004110Y-8406460D01*
X15004110Y-8660460D02*
X15042210Y-8622360D01*
X15004110Y-8584260D01*
X14966010Y-8622360D01*
X15004110Y-8660460D01*
X15004110Y-8914460D02*
X15042210Y-8876360D01*
X15004110Y-8838260D01*
X14966010Y-8876360D01*
X15004110Y-8914460D01*
X15004110Y-9168460D02*
X15042210Y-9130360D01*
X15004110Y-9092260D01*
X14966010Y-9130360D01*
X15004110Y-9168460D01*
X15004110Y-9422460D02*
X15042210Y-9384360D01*
X15004110Y-9346260D01*
X14966010Y-9384360D01*
X15004110Y-9422460D01*
X15004110Y-9676460D02*
X15042210Y-9638360D01*
X15004110Y-9600260D01*
X14966010Y-9638360D01*
X15004110Y-9676460D01*
X18506110Y-5970460D02*
X18544210Y-5932360D01*
X18506110Y-5894260D01*
X18468010Y-5932360D01*
X18506110Y-5970460D01*
X18506110Y-6224460D02*
X18544210Y-6186360D01*
X18506110Y-6148260D01*
X18468010Y-6186360D01*
X18506110Y-6224460D01*
X18506110Y-6478460D02*
X18544210Y-6440360D01*
X18506110Y-6402260D01*
X18468010Y-6440360D01*
X18506110Y-6478460D01*
X19068110Y-6628460D02*
X19106210Y-6590360D01*
X19068110Y-6552260D01*
X19030010Y-6590360D01*
X19068110Y-6628460D01*
X19068110Y-6882460D02*
X19106210Y-6844360D01*
X19068110Y-6806260D01*
X19030010Y-6844360D01*
X19068110Y-6882460D01*
X19068110Y-7136460D02*
X19106210Y-7098360D01*
X19068110Y-7060260D01*
X19030010Y-7098360D01*
X19068110Y-7136460D01*
X19068110Y-7390460D02*
X19106210Y-7352360D01*
X19068110Y-7314260D01*
X19030010Y-7352360D01*
X19068110Y-7390460D01*
X19068110Y-7644460D02*
X19106210Y-7606360D01*
X19068110Y-7568260D01*
X19030010Y-7606360D01*
X19068110Y-7644460D01*
X19068110Y-7898460D02*
X19106210Y-7860360D01*
X19068110Y-7822260D01*
X19030010Y-7860360D01*
X19068110Y-7898460D01*
X19068110Y-8152460D02*
X19106210Y-8114360D01*
X19068110Y-8076260D01*
X19030010Y-8114360D01*
X19068110Y-8152460D01*
X19068110Y-8406460D02*
X19106210Y-8368360D01*
X19068110Y-8330260D01*
X19030010Y-8368360D01*
X19068110Y-8406460D01*
X19068110Y-8660460D02*
X19106210Y-8622360D01*
X19068110Y-8584260D01*
X19030010Y-8622360D01*
X19068110Y-8660460D01*
X19068110Y-8914460D02*
X19106210Y-8876360D01*
X19068110Y-8838260D01*
X19030010Y-8876360D01*
X19068110Y-8914460D01*
X19068110Y-9168460D02*
X19106210Y-9130360D01*
X19068110Y-9092260D01*
X19030010Y-9130360D01*
X19068110Y-9168460D01*
X19068110Y-9422460D02*
X19106210Y-9384360D01*
X19068110Y-9346260D01*
X19030010Y-9384360D01*
X19068110Y-9422460D01*
X19068110Y-9676460D02*
X19106210Y-9638360D01*
X19068110Y-9600260D01*
X19030010Y-9638360D01*
X19068110Y-9676460D01*
X19322110Y-6628460D02*
X19360210Y-6590360D01*
X19322110Y-6552260D01*
X19284010Y-6590360D01*
X19322110Y-6628460D01*
X19322110Y-6882460D02*
X19360210Y-6844360D01*
X19322110Y-6806260D01*
X19284010Y-6844360D01*
X19322110Y-6882460D01*
X19322110Y-7136460D02*
X19360210Y-7098360D01*
X19322110Y-7060260D01*
X19284010Y-7098360D01*
X19322110Y-7136460D01*
X19322110Y-7390460D02*
X19360210Y-7352360D01*
X19322110Y-7314260D01*
X19284010Y-7352360D01*
X19322110Y-7390460D01*
X19322110Y-7644460D02*
X19360210Y-7606360D01*
X19322110Y-7568260D01*
X19284010Y-7606360D01*
X19322110Y-7644460D01*
X19322110Y-7898460D02*
X19360210Y-7860360D01*
X19322110Y-7822260D01*
X19284010Y-7860360D01*
X19322110Y-7898460D01*
X19322110Y-8152460D02*
X19360210Y-8114360D01*
X19322110Y-8076260D01*
X19284010Y-8114360D01*
X19322110Y-8152460D01*
X19322110Y-8406460D02*
X19360210Y-8368360D01*
X19322110Y-8330260D01*
X19284010Y-8368360D01*
X19322110Y-8406460D01*
X19322110Y-8660460D02*
X19360210Y-8622360D01*
X19322110Y-8584260D01*
X19284010Y-8622360D01*
X19322110Y-8660460D01*
X19322110Y-8914460D02*
X19360210Y-8876360D01*
X19322110Y-8838260D01*
X19284010Y-8876360D01*
X19322110Y-8914460D01*
X19322110Y-9168460D02*
X19360210Y-9130360D01*
X19322110Y-9092260D01*
X19284010Y-9130360D01*
X19322110Y-9168460D01*
X19322110Y-9422460D02*
X19360210Y-9384360D01*
X19322110Y-9346260D01*
X19284010Y-9384360D01*
X19322110Y-9422460D01*
X19322110Y-9676460D02*
X19360210Y-9638360D01*
X19322110Y-9600260D01*
X19284010Y-9638360D01*
X19322110Y-9676460D01*
X15380500Y-7506500D02*
X15480500Y-7606500D01*
X15480500Y-7506500D02*
X15380500Y-7606500D01*
X15480500Y-7556500D02*
G75*
G03X15480500Y-7556500I-50000J0D01*
G01*
X15380500Y-7760500D02*
X15480500Y-7860500D01*
X15480500Y-7760500D02*
X15380500Y-7860500D01*
X15480500Y-7810500D02*
G75*
G03X15480500Y-7810500I-50000J0D01*
G01*
X15380500Y-8014500D02*
X15480500Y-8114500D01*
X15480500Y-8014500D02*
X15380500Y-8114500D01*
X15480500Y-8064500D02*
G75*
G03X15480500Y-8064500I-50000J0D01*
G01*
X15634500Y-5855500D02*
X15734500Y-5955500D01*
X15734500Y-5855500D02*
X15634500Y-5955500D01*
X15734500Y-5905500D02*
G75*
G03X15734500Y-5905500I-50000J0D01*
G01*
X15837700Y-7227100D02*
X15937700Y-7327100D01*
X15937700Y-7227100D02*
X15837700Y-7327100D01*
X15937700Y-7277100D02*
G75*
G03X15937700Y-7277100I-50000J0D01*
G01*
X15888500Y-5855500D02*
X15988500Y-5955500D01*
X15988500Y-5855500D02*
X15888500Y-5955500D01*
X15988500Y-5905500D02*
G75*
G03X15988500Y-5905500I-50000J0D01*
G01*
X16142500Y-5855500D02*
X16242500Y-5955500D01*
X16242500Y-5855500D02*
X16142500Y-5955500D01*
X16242500Y-5905500D02*
G75*
G03X16242500Y-5905500I-50000J0D01*
G01*
X18682500Y-7316000D02*
X18782500Y-7416000D01*
X18782500Y-7316000D02*
X18682500Y-7416000D01*
X18782500Y-7366000D02*
G75*
G03X18782500Y-7366000I-50000J0D01*
G01*
X18682500Y-7570000D02*
X18782500Y-7670000D01*
X18782500Y-7570000D02*
X18682500Y-7670000D01*
X18782500Y-7620000D02*
G75*
G03X18782500Y-7620000I-50000J0D01*
G01*
X18682500Y-7824000D02*
X18782500Y-7924000D01*
X18782500Y-7824000D02*
X18682500Y-7924000D01*
X18782500Y-7874000D02*
G75*
G03X18782500Y-7874000I-50000J0D01*
G01*
X18682500Y-8078000D02*
X18782500Y-8178000D01*
X18782500Y-8078000D02*
X18682500Y-8178000D01*
X18782500Y-8128000D02*
G75*
G03X18782500Y-8128000I-50000J0D01*
G01*
X15000110Y-5850360D02*
X15300110Y-6150360D01*
X15300110Y-5850360D02*
X15000110Y-6150360D01*
X15150110Y-5850360D02*
X15150110Y-6150360D01*
X15000110Y-6000360D02*
X15300110Y-6000360D01*
X15000110Y-10050360D02*
X15300110Y-10350360D01*
X15300110Y-10050360D02*
X15000110Y-10350360D01*
X15150110Y-10050360D02*
X15150110Y-10350360D01*
X15000110Y-10200360D02*
X15300110Y-10200360D01*
X19000110Y-5850360D02*
X19300110Y-6150360D01*
X19300110Y-5850360D02*
X19000110Y-6150360D01*
X19150110Y-5850360D02*
X19150110Y-6150360D01*
X19000110Y-6000360D02*
X19300110Y-6000360D01*
X19000110Y-10050360D02*
X19300110Y-10350360D01*
X19300110Y-10050360D02*
X19000110Y-10350360D01*
X19150110Y-10050360D02*
X19150110Y-10350360D01*
X19000110Y-10200360D02*
X19300110Y-10200360D01*
D12*
X271429Y-465714D02*
X271429Y-165714D01*
X342857Y-165714D01*
X385714Y-180000D01*
X414286Y-208571D01*
X428571Y-237143D01*
X442857Y-294286D01*
X442857Y-337143D01*
X428571Y-394286D01*
X414286Y-422857D01*
X385714Y-451429D01*
X342857Y-465714D01*
X271429Y-465714D01*
X571429Y-465714D02*
X571429Y-265714D01*
X571429Y-322857D02*
X585714Y-294286D01*
X600000Y-280000D01*
X628571Y-265714D01*
X657143Y-265714D01*
X757143Y-465714D02*
X757143Y-265714D01*
X757143Y-165714D02*
X742857Y-180000D01*
X757143Y-194286D01*
X771429Y-180000D01*
X757143Y-165714D01*
X757143Y-194286D01*
X942857Y-465714D02*
X914286Y-451429D01*
X900000Y-422857D01*
X900000Y-165714D01*
X1100000Y-465714D02*
X1071429Y-451429D01*
X1057143Y-422857D01*
X1057143Y-165714D01*
X1442857Y-465714D02*
X1442857Y-165714D01*
X1542857Y-380000D01*
X1642857Y-165714D01*
X1642857Y-465714D01*
X1914286Y-465714D02*
X1914286Y-308571D01*
X1900000Y-280000D01*
X1871429Y-265714D01*
X1814286Y-265714D01*
X1785714Y-280000D01*
X1914286Y-451429D02*
X1885714Y-465714D01*
X1814286Y-465714D01*
X1785714Y-451429D01*
X1771429Y-422857D01*
X1771429Y-394286D01*
X1785714Y-365714D01*
X1814286Y-351429D01*
X1885714Y-351429D01*
X1914286Y-337143D01*
X2057143Y-265714D02*
X2057143Y-565714D01*
X2057143Y-280000D02*
X2085714Y-265714D01*
X2142857Y-265714D01*
X2171429Y-280000D01*
X2185714Y-294286D01*
X2200000Y-322857D01*
X2200000Y-408571D01*
X2185714Y-437143D01*
X2171429Y-451429D01*
X2142857Y-465714D01*
X2085714Y-465714D01*
X2057143Y-451429D01*
X2328572Y-437143D02*
X2342857Y-451429D01*
X2328572Y-465714D01*
X2314286Y-451429D01*
X2328572Y-437143D01*
X2328572Y-465714D01*
X2328572Y-280000D02*
X2342857Y-294286D01*
X2328572Y-308571D01*
X2314286Y-294286D01*
X2328572Y-280000D01*
X2328572Y-308571D01*
X-30000Y-945000D02*
X0Y-975000D01*
X0Y-945000D02*
X-30000Y-975000D01*
X328571Y-795714D02*
X357143Y-795714D01*
X385714Y-810000D01*
X400000Y-824286D01*
X414286Y-852857D01*
X428571Y-910000D01*
X428571Y-981429D01*
X414286Y-1038571D01*
X400000Y-1067143D01*
X385714Y-1081429D01*
X357143Y-1095714D01*
X328571Y-1095714D01*
X300000Y-1081429D01*
X285714Y-1067143D01*
X271429Y-1038571D01*
X257143Y-981429D01*
X257143Y-910000D01*
X271429Y-852857D01*
X285714Y-824286D01*
X300000Y-810000D01*
X328571Y-795714D01*
X557143Y-1067143D02*
X571429Y-1081429D01*
X557143Y-1095714D01*
X542857Y-1081429D01*
X557143Y-1067143D01*
X557143Y-1095714D01*
X671429Y-795714D02*
X857143Y-795714D01*
X757143Y-910000D01*
X800000Y-910000D01*
X828571Y-924286D01*
X842857Y-938571D01*
X857143Y-967143D01*
X857143Y-1038571D01*
X842857Y-1067143D01*
X828571Y-1081429D01*
X800000Y-1095714D01*
X714286Y-1095714D01*
X685714Y-1081429D01*
X671429Y-1067143D01*
X1042857Y-795714D02*
X1071429Y-795714D01*
X1100000Y-810000D01*
X1114286Y-824286D01*
X1128571Y-852857D01*
X1142857Y-910000D01*
X1142857Y-981429D01*
X1128571Y-1038571D01*
X1114286Y-1067143D01*
X1100000Y-1081429D01*
X1071429Y-1095714D01*
X1042857Y-1095714D01*
X1014286Y-1081429D01*
X1000000Y-1067143D01*
X985714Y-1038571D01*
X971429Y-981429D01*
X971429Y-910000D01*
X985714Y-852857D01*
X1000000Y-824286D01*
X1014286Y-810000D01*
X1042857Y-795714D01*
X1271429Y-1095714D02*
X1271429Y-895714D01*
X1271429Y-924286D02*
X1285714Y-910000D01*
X1314286Y-895714D01*
X1357143Y-895714D01*
X1385714Y-910000D01*
X1400000Y-938571D01*
X1400000Y-1095714D01*
X1400000Y-938571D02*
X1414286Y-910000D01*
X1442857Y-895714D01*
X1485714Y-895714D01*
X1514286Y-910000D01*
X1528571Y-938571D01*
X1528571Y-1095714D01*
X1671429Y-1095714D02*
X1671429Y-895714D01*
X1671429Y-924286D02*
X1685714Y-910000D01*
X1714286Y-895714D01*
X1757143Y-895714D01*
X1785714Y-910000D01*
X1800000Y-938571D01*
X1800000Y-1095714D01*
X1800000Y-938571D02*
X1814286Y-910000D01*
X1842857Y-895714D01*
X1885714Y-895714D01*
X1914286Y-910000D01*
X1928571Y-938571D01*
X1928571Y-1095714D01*
X2514286Y-781429D02*
X2257143Y-1167143D01*
X2900000Y-795714D02*
X2928571Y-795714D01*
X2957143Y-810000D01*
X2971428Y-824286D01*
X2985714Y-852857D01*
X3000000Y-910000D01*
X3000000Y-981429D01*
X2985714Y-1038571D01*
X2971428Y-1067143D01*
X2957143Y-1081429D01*
X2928571Y-1095714D01*
X2900000Y-1095714D01*
X2871428Y-1081429D01*
X2857143Y-1067143D01*
X2842857Y-1038571D01*
X2828571Y-981429D01*
X2828571Y-910000D01*
X2842857Y-852857D01*
X2857143Y-824286D01*
X2871428Y-810000D01*
X2900000Y-795714D01*
X3128571Y-1067143D02*
X3142857Y-1081429D01*
X3128571Y-1095714D01*
X3114286Y-1081429D01*
X3128571Y-1067143D01*
X3128571Y-1095714D01*
X3328571Y-795714D02*
X3357143Y-795714D01*
X3385714Y-810000D01*
X3400000Y-824286D01*
X3414286Y-852857D01*
X3428571Y-910000D01*
X3428571Y-981429D01*
X3414286Y-1038571D01*
X3400000Y-1067143D01*
X3385714Y-1081429D01*
X3357143Y-1095714D01*
X3328571Y-1095714D01*
X3300000Y-1081429D01*
X3285714Y-1067143D01*
X3271428Y-1038571D01*
X3257143Y-981429D01*
X3257143Y-910000D01*
X3271428Y-852857D01*
X3285714Y-824286D01*
X3300000Y-810000D01*
X3328571Y-795714D01*
X3714286Y-1095714D02*
X3542857Y-1095714D01*
X3628571Y-1095714D02*
X3628571Y-795714D01*
X3600000Y-838571D01*
X3571428Y-867143D01*
X3542857Y-881429D01*
X3828571Y-824286D02*
X3842857Y-810000D01*
X3871428Y-795714D01*
X3942857Y-795714D01*
X3971428Y-810000D01*
X3985714Y-824286D01*
X4000000Y-852857D01*
X4000000Y-881429D01*
X3985714Y-924286D01*
X3814286Y-1095714D01*
X4000000Y-1095714D01*
X4114286Y-795714D02*
X4114286Y-852857D01*
X4228571Y-795714D02*
X4228571Y-852857D01*
X4671429Y-1210000D02*
X4657143Y-1195714D01*
X4628571Y-1152857D01*
X4614286Y-1124286D01*
X4600000Y-1081429D01*
X4585714Y-1010000D01*
X4585714Y-952857D01*
X4600000Y-881429D01*
X4614286Y-838571D01*
X4628571Y-810000D01*
X4657143Y-767143D01*
X4671429Y-752857D01*
X4914286Y-895714D02*
X4914286Y-1095714D01*
X4842857Y-781429D02*
X4771429Y-995714D01*
X4957143Y-995714D01*
X5300000Y-1095714D02*
X5300000Y-795714D01*
X5428571Y-1095714D02*
X5428571Y-938571D01*
X5414286Y-910000D01*
X5385714Y-895714D01*
X5342857Y-895714D01*
X5314286Y-910000D01*
X5300000Y-924286D01*
X5614286Y-1095714D02*
X5585714Y-1081429D01*
X5571429Y-1067143D01*
X5557143Y-1038571D01*
X5557143Y-952857D01*
X5571429Y-924286D01*
X5585714Y-910000D01*
X5614286Y-895714D01*
X5657143Y-895714D01*
X5685714Y-910000D01*
X5700000Y-924286D01*
X5714286Y-952857D01*
X5714286Y-1038571D01*
X5700000Y-1067143D01*
X5685714Y-1081429D01*
X5657143Y-1095714D01*
X5614286Y-1095714D01*
X5885714Y-1095714D02*
X5857143Y-1081429D01*
X5842857Y-1052857D01*
X5842857Y-795714D01*
X6114286Y-1081429D02*
X6085714Y-1095714D01*
X6028571Y-1095714D01*
X6000000Y-1081429D01*
X5985714Y-1052857D01*
X5985714Y-938571D01*
X6000000Y-910000D01*
X6028571Y-895714D01*
X6085714Y-895714D01*
X6114286Y-910000D01*
X6128571Y-938571D01*
X6128571Y-967143D01*
X5985714Y-995714D01*
X6242857Y-1081429D02*
X6271429Y-1095714D01*
X6328571Y-1095714D01*
X6357143Y-1081429D01*
X6371429Y-1052857D01*
X6371429Y-1038571D01*
X6357143Y-1010000D01*
X6328571Y-995714D01*
X6285714Y-995714D01*
X6257143Y-981429D01*
X6242857Y-952857D01*
X6242857Y-938571D01*
X6257143Y-910000D01*
X6285714Y-895714D01*
X6328571Y-895714D01*
X6357143Y-910000D01*
X6471428Y-1210000D02*
X6485714Y-1195714D01*
X6514286Y-1152857D01*
X6528571Y-1124286D01*
X6542857Y-1081429D01*
X6557143Y-1010000D01*
X6557143Y-952857D01*
X6542857Y-881429D01*
X6528571Y-838571D01*
X6514286Y-810000D01*
X6485714Y-767143D01*
X6471428Y-752857D01*
X0Y-1356000D02*
G75*
G03X0Y-1356000I-20000J0D01*
G01*
X328571Y-1191714D02*
X357143Y-1191714D01*
X385714Y-1206000D01*
X400000Y-1220286D01*
X414286Y-1248857D01*
X428571Y-1306000D01*
X428571Y-1377429D01*
X414286Y-1434571D01*
X400000Y-1463143D01*
X385714Y-1477429D01*
X357143Y-1491714D01*
X328571Y-1491714D01*
X300000Y-1477429D01*
X285714Y-1463143D01*
X271429Y-1434571D01*
X257143Y-1377429D01*
X257143Y-1306000D01*
X271429Y-1248857D01*
X285714Y-1220286D01*
X300000Y-1206000D01*
X328571Y-1191714D01*
X557143Y-1463143D02*
X571429Y-1477429D01*
X557143Y-1491714D01*
X542857Y-1477429D01*
X557143Y-1463143D01*
X557143Y-1491714D01*
X828571Y-1291714D02*
X828571Y-1491714D01*
X757143Y-1177429D02*
X685714Y-1391714D01*
X871428Y-1391714D01*
X1042857Y-1191714D02*
X1071429Y-1191714D01*
X1100000Y-1206000D01*
X1114286Y-1220286D01*
X1128571Y-1248857D01*
X1142857Y-1306000D01*
X1142857Y-1377429D01*
X1128571Y-1434571D01*
X1114286Y-1463143D01*
X1100000Y-1477429D01*
X1071429Y-1491714D01*
X1042857Y-1491714D01*
X1014286Y-1477429D01*
X1000000Y-1463143D01*
X985714Y-1434571D01*
X971429Y-1377429D01*
X971429Y-1306000D01*
X985714Y-1248857D01*
X1000000Y-1220286D01*
X1014286Y-1206000D01*
X1042857Y-1191714D01*
X1271429Y-1491714D02*
X1271429Y-1291714D01*
X1271429Y-1320286D02*
X1285714Y-1306000D01*
X1314286Y-1291714D01*
X1357143Y-1291714D01*
X1385714Y-1306000D01*
X1400000Y-1334571D01*
X1400000Y-1491714D01*
X1400000Y-1334571D02*
X1414286Y-1306000D01*
X1442857Y-1291714D01*
X1485714Y-1291714D01*
X1514286Y-1306000D01*
X1528571Y-1334571D01*
X1528571Y-1491714D01*
X1671429Y-1491714D02*
X1671429Y-1291714D01*
X1671429Y-1320286D02*
X1685714Y-1306000D01*
X1714286Y-1291714D01*
X1757143Y-1291714D01*
X1785714Y-1306000D01*
X1800000Y-1334571D01*
X1800000Y-1491714D01*
X1800000Y-1334571D02*
X1814286Y-1306000D01*
X1842857Y-1291714D01*
X1885714Y-1291714D01*
X1914286Y-1306000D01*
X1928571Y-1334571D01*
X1928571Y-1491714D01*
X2514286Y-1177429D02*
X2257143Y-1563143D01*
X2900000Y-1191714D02*
X2928571Y-1191714D01*
X2957143Y-1206000D01*
X2971428Y-1220286D01*
X2985714Y-1248857D01*
X3000000Y-1306000D01*
X3000000Y-1377429D01*
X2985714Y-1434571D01*
X2971428Y-1463143D01*
X2957143Y-1477429D01*
X2928571Y-1491714D01*
X2900000Y-1491714D01*
X2871428Y-1477429D01*
X2857143Y-1463143D01*
X2842857Y-1434571D01*
X2828571Y-1377429D01*
X2828571Y-1306000D01*
X2842857Y-1248857D01*
X2857143Y-1220286D01*
X2871428Y-1206000D01*
X2900000Y-1191714D01*
X3128571Y-1463143D02*
X3142857Y-1477429D01*
X3128571Y-1491714D01*
X3114286Y-1477429D01*
X3128571Y-1463143D01*
X3128571Y-1491714D01*
X3328571Y-1191714D02*
X3357143Y-1191714D01*
X3385714Y-1206000D01*
X3400000Y-1220286D01*
X3414286Y-1248857D01*
X3428571Y-1306000D01*
X3428571Y-1377429D01*
X3414286Y-1434571D01*
X3400000Y-1463143D01*
X3385714Y-1477429D01*
X3357143Y-1491714D01*
X3328571Y-1491714D01*
X3300000Y-1477429D01*
X3285714Y-1463143D01*
X3271428Y-1434571D01*
X3257143Y-1377429D01*
X3257143Y-1306000D01*
X3271428Y-1248857D01*
X3285714Y-1220286D01*
X3300000Y-1206000D01*
X3328571Y-1191714D01*
X3714286Y-1491714D02*
X3542857Y-1491714D01*
X3628571Y-1491714D02*
X3628571Y-1191714D01*
X3600000Y-1234571D01*
X3571428Y-1263143D01*
X3542857Y-1277429D01*
X3971428Y-1191714D02*
X3914286Y-1191714D01*
X3885714Y-1206000D01*
X3871428Y-1220286D01*
X3842857Y-1263143D01*
X3828571Y-1320286D01*
X3828571Y-1434571D01*
X3842857Y-1463143D01*
X3857143Y-1477429D01*
X3885714Y-1491714D01*
X3942857Y-1491714D01*
X3971428Y-1477429D01*
X3985714Y-1463143D01*
X4000000Y-1434571D01*
X4000000Y-1363143D01*
X3985714Y-1334571D01*
X3971428Y-1320286D01*
X3942857Y-1306000D01*
X3885714Y-1306000D01*
X3857143Y-1320286D01*
X3842857Y-1334571D01*
X3828571Y-1363143D01*
X4114286Y-1191714D02*
X4114286Y-1248857D01*
X4228571Y-1191714D02*
X4228571Y-1248857D01*
X4671429Y-1606000D02*
X4657143Y-1591714D01*
X4628571Y-1548857D01*
X4614286Y-1520286D01*
X4600000Y-1477429D01*
X4585714Y-1406000D01*
X4585714Y-1348857D01*
X4600000Y-1277429D01*
X4614286Y-1234571D01*
X4628571Y-1206000D01*
X4657143Y-1163143D01*
X4671429Y-1148857D01*
X4942857Y-1491714D02*
X4771429Y-1491714D01*
X4857143Y-1491714D02*
X4857143Y-1191714D01*
X4828571Y-1234571D01*
X4800000Y-1263143D01*
X4771429Y-1277429D01*
X5128571Y-1191714D02*
X5157143Y-1191714D01*
X5185714Y-1206000D01*
X5200000Y-1220286D01*
X5214286Y-1248857D01*
X5228571Y-1306000D01*
X5228571Y-1377429D01*
X5214286Y-1434571D01*
X5200000Y-1463143D01*
X5185714Y-1477429D01*
X5157143Y-1491714D01*
X5128571Y-1491714D01*
X5100000Y-1477429D01*
X5085714Y-1463143D01*
X5071429Y-1434571D01*
X5057143Y-1377429D01*
X5057143Y-1306000D01*
X5071429Y-1248857D01*
X5085714Y-1220286D01*
X5100000Y-1206000D01*
X5128571Y-1191714D01*
X5514286Y-1491714D02*
X5342857Y-1491714D01*
X5428571Y-1491714D02*
X5428571Y-1191714D01*
X5400000Y-1234571D01*
X5371429Y-1263143D01*
X5342857Y-1277429D01*
X5871428Y-1491714D02*
X5871428Y-1191714D01*
X6000000Y-1491714D02*
X6000000Y-1334571D01*
X5985714Y-1306000D01*
X5957143Y-1291714D01*
X5914286Y-1291714D01*
X5885714Y-1306000D01*
X5871428Y-1320286D01*
X6185714Y-1491714D02*
X6157143Y-1477429D01*
X6142857Y-1463143D01*
X6128571Y-1434571D01*
X6128571Y-1348857D01*
X6142857Y-1320286D01*
X6157143Y-1306000D01*
X6185714Y-1291714D01*
X6228571Y-1291714D01*
X6257143Y-1306000D01*
X6271428Y-1320286D01*
X6285714Y-1348857D01*
X6285714Y-1434571D01*
X6271428Y-1463143D01*
X6257143Y-1477429D01*
X6228571Y-1491714D01*
X6185714Y-1491714D01*
X6457143Y-1491714D02*
X6428571Y-1477429D01*
X6414286Y-1448857D01*
X6414286Y-1191714D01*
X6685714Y-1477429D02*
X6657143Y-1491714D01*
X6600000Y-1491714D01*
X6571429Y-1477429D01*
X6557143Y-1448857D01*
X6557143Y-1334571D01*
X6571429Y-1306000D01*
X6600000Y-1291714D01*
X6657143Y-1291714D01*
X6685714Y-1306000D01*
X6700000Y-1334571D01*
X6700000Y-1363143D01*
X6557143Y-1391714D01*
X6814286Y-1477429D02*
X6842857Y-1491714D01*
X6900000Y-1491714D01*
X6928571Y-1477429D01*
X6942857Y-1448857D01*
X6942857Y-1434571D01*
X6928571Y-1406000D01*
X6900000Y-1391714D01*
X6857143Y-1391714D01*
X6828571Y-1377429D01*
X6814286Y-1348857D01*
X6814286Y-1334571D01*
X6828571Y-1306000D01*
X6857143Y-1291714D01*
X6900000Y-1291714D01*
X6928571Y-1306000D01*
X7042857Y-1606000D02*
X7057143Y-1591714D01*
X7085714Y-1548857D01*
X7100000Y-1520286D01*
X7114286Y-1477429D01*
X7128571Y-1406000D01*
X7128571Y-1348857D01*
X7114286Y-1277429D01*
X7100000Y-1234571D01*
X7085714Y-1206000D01*
X7057143Y-1163143D01*
X7042857Y-1148857D01*
X-22500Y-1729500D02*
X-22500Y-1774500D01*
X-45000Y-1752000D02*
X0Y-1752000D01*
X328571Y-1587714D02*
X357143Y-1587714D01*
X385714Y-1602000D01*
X400000Y-1616286D01*
X414286Y-1644857D01*
X428571Y-1702000D01*
X428571Y-1773429D01*
X414286Y-1830571D01*
X400000Y-1859143D01*
X385714Y-1873429D01*
X357143Y-1887714D01*
X328571Y-1887714D01*
X300000Y-1873429D01*
X285714Y-1859143D01*
X271429Y-1830571D01*
X257143Y-1773429D01*
X257143Y-1702000D01*
X271429Y-1644857D01*
X285714Y-1616286D01*
X300000Y-1602000D01*
X328571Y-1587714D01*
X557143Y-1859143D02*
X571429Y-1873429D01*
X557143Y-1887714D01*
X542857Y-1873429D01*
X557143Y-1859143D01*
X557143Y-1887714D01*
X828571Y-1687714D02*
X828571Y-1887714D01*
X757143Y-1573429D02*
X685714Y-1787714D01*
X871428Y-1787714D01*
X1128571Y-1587714D02*
X985714Y-1587714D01*
X971429Y-1730571D01*
X985714Y-1716286D01*
X1014286Y-1702000D01*
X1085714Y-1702000D01*
X1114286Y-1716286D01*
X1128571Y-1730571D01*
X1142857Y-1759143D01*
X1142857Y-1830571D01*
X1128571Y-1859143D01*
X1114286Y-1873429D01*
X1085714Y-1887714D01*
X1014286Y-1887714D01*
X985714Y-1873429D01*
X971429Y-1859143D01*
X1271429Y-1887714D02*
X1271429Y-1687714D01*
X1271429Y-1716286D02*
X1285714Y-1702000D01*
X1314286Y-1687714D01*
X1357143Y-1687714D01*
X1385714Y-1702000D01*
X1400000Y-1730571D01*
X1400000Y-1887714D01*
X1400000Y-1730571D02*
X1414286Y-1702000D01*
X1442857Y-1687714D01*
X1485714Y-1687714D01*
X1514286Y-1702000D01*
X1528571Y-1730571D01*
X1528571Y-1887714D01*
X1671429Y-1887714D02*
X1671429Y-1687714D01*
X1671429Y-1716286D02*
X1685714Y-1702000D01*
X1714286Y-1687714D01*
X1757143Y-1687714D01*
X1785714Y-1702000D01*
X1800000Y-1730571D01*
X1800000Y-1887714D01*
X1800000Y-1730571D02*
X1814286Y-1702000D01*
X1842857Y-1687714D01*
X1885714Y-1687714D01*
X1914286Y-1702000D01*
X1928571Y-1730571D01*
X1928571Y-1887714D01*
X2514286Y-1573429D02*
X2257143Y-1959143D01*
X2900000Y-1587714D02*
X2928571Y-1587714D01*
X2957143Y-1602000D01*
X2971428Y-1616286D01*
X2985714Y-1644857D01*
X3000000Y-1702000D01*
X3000000Y-1773429D01*
X2985714Y-1830571D01*
X2971428Y-1859143D01*
X2957143Y-1873429D01*
X2928571Y-1887714D01*
X2900000Y-1887714D01*
X2871428Y-1873429D01*
X2857143Y-1859143D01*
X2842857Y-1830571D01*
X2828571Y-1773429D01*
X2828571Y-1702000D01*
X2842857Y-1644857D01*
X2857143Y-1616286D01*
X2871428Y-1602000D01*
X2900000Y-1587714D01*
X3128571Y-1859143D02*
X3142857Y-1873429D01*
X3128571Y-1887714D01*
X3114286Y-1873429D01*
X3128571Y-1859143D01*
X3128571Y-1887714D01*
X3328571Y-1587714D02*
X3357143Y-1587714D01*
X3385714Y-1602000D01*
X3400000Y-1616286D01*
X3414286Y-1644857D01*
X3428571Y-1702000D01*
X3428571Y-1773429D01*
X3414286Y-1830571D01*
X3400000Y-1859143D01*
X3385714Y-1873429D01*
X3357143Y-1887714D01*
X3328571Y-1887714D01*
X3300000Y-1873429D01*
X3285714Y-1859143D01*
X3271428Y-1830571D01*
X3257143Y-1773429D01*
X3257143Y-1702000D01*
X3271428Y-1644857D01*
X3285714Y-1616286D01*
X3300000Y-1602000D01*
X3328571Y-1587714D01*
X3714286Y-1887714D02*
X3542857Y-1887714D01*
X3628571Y-1887714D02*
X3628571Y-1587714D01*
X3600000Y-1630571D01*
X3571428Y-1659143D01*
X3542857Y-1673429D01*
X3885714Y-1716286D02*
X3857143Y-1702000D01*
X3842857Y-1687714D01*
X3828571Y-1659143D01*
X3828571Y-1644857D01*
X3842857Y-1616286D01*
X3857143Y-1602000D01*
X3885714Y-1587714D01*
X3942857Y-1587714D01*
X3971428Y-1602000D01*
X3985714Y-1616286D01*
X4000000Y-1644857D01*
X4000000Y-1659143D01*
X3985714Y-1687714D01*
X3971428Y-1702000D01*
X3942857Y-1716286D01*
X3885714Y-1716286D01*
X3857143Y-1730571D01*
X3842857Y-1744857D01*
X3828571Y-1773429D01*
X3828571Y-1830571D01*
X3842857Y-1859143D01*
X3857143Y-1873429D01*
X3885714Y-1887714D01*
X3942857Y-1887714D01*
X3971428Y-1873429D01*
X3985714Y-1859143D01*
X4000000Y-1830571D01*
X4000000Y-1773429D01*
X3985714Y-1744857D01*
X3971428Y-1730571D01*
X3942857Y-1716286D01*
X4114286Y-1587714D02*
X4114286Y-1644857D01*
X4228571Y-1587714D02*
X4228571Y-1644857D01*
X4671429Y-2002000D02*
X4657143Y-1987714D01*
X4628571Y-1944857D01*
X4614286Y-1916286D01*
X4600000Y-1873429D01*
X4585714Y-1802000D01*
X4585714Y-1744857D01*
X4600000Y-1673429D01*
X4614286Y-1630571D01*
X4628571Y-1602000D01*
X4657143Y-1559143D01*
X4671429Y-1544857D01*
X4928571Y-1587714D02*
X4785714Y-1587714D01*
X4771429Y-1730571D01*
X4785714Y-1716286D01*
X4814286Y-1702000D01*
X4885714Y-1702000D01*
X4914286Y-1716286D01*
X4928571Y-1730571D01*
X4942857Y-1759143D01*
X4942857Y-1830571D01*
X4928571Y-1859143D01*
X4914286Y-1873429D01*
X4885714Y-1887714D01*
X4814286Y-1887714D01*
X4785714Y-1873429D01*
X4771429Y-1859143D01*
X5300000Y-1887714D02*
X5300000Y-1587714D01*
X5428571Y-1887714D02*
X5428571Y-1730571D01*
X5414286Y-1702000D01*
X5385714Y-1687714D01*
X5342857Y-1687714D01*
X5314286Y-1702000D01*
X5300000Y-1716286D01*
X5614286Y-1887714D02*
X5585714Y-1873429D01*
X5571429Y-1859143D01*
X5557143Y-1830571D01*
X5557143Y-1744857D01*
X5571429Y-1716286D01*
X5585714Y-1702000D01*
X5614286Y-1687714D01*
X5657143Y-1687714D01*
X5685714Y-1702000D01*
X5700000Y-1716286D01*
X5714286Y-1744857D01*
X5714286Y-1830571D01*
X5700000Y-1859143D01*
X5685714Y-1873429D01*
X5657143Y-1887714D01*
X5614286Y-1887714D01*
X5885714Y-1887714D02*
X5857143Y-1873429D01*
X5842857Y-1844857D01*
X5842857Y-1587714D01*
X6114286Y-1873429D02*
X6085714Y-1887714D01*
X6028571Y-1887714D01*
X6000000Y-1873429D01*
X5985714Y-1844857D01*
X5985714Y-1730571D01*
X6000000Y-1702000D01*
X6028571Y-1687714D01*
X6085714Y-1687714D01*
X6114286Y-1702000D01*
X6128571Y-1730571D01*
X6128571Y-1759143D01*
X5985714Y-1787714D01*
X6242857Y-1873429D02*
X6271429Y-1887714D01*
X6328571Y-1887714D01*
X6357143Y-1873429D01*
X6371429Y-1844857D01*
X6371429Y-1830571D01*
X6357143Y-1802000D01*
X6328571Y-1787714D01*
X6285714Y-1787714D01*
X6257143Y-1773429D01*
X6242857Y-1744857D01*
X6242857Y-1730571D01*
X6257143Y-1702000D01*
X6285714Y-1687714D01*
X6328571Y-1687714D01*
X6357143Y-1702000D01*
X6471428Y-2002000D02*
X6485714Y-1987714D01*
X6514286Y-1944857D01*
X6528571Y-1916286D01*
X6542857Y-1873429D01*
X6557143Y-1802000D01*
X6557143Y-1744857D01*
X6542857Y-1673429D01*
X6528571Y-1630571D01*
X6514286Y-1602000D01*
X6485714Y-1559143D01*
X6471428Y-1544857D01*
X-6736Y-2164264D02*
X-6736Y-2131736D01*
X-39264Y-2131736D01*
X-39264Y-2164264D01*
X-6736Y-2164264D01*
X328571Y-1983714D02*
X357143Y-1983714D01*
X385714Y-1998000D01*
X400000Y-2012286D01*
X414286Y-2040857D01*
X428571Y-2098000D01*
X428571Y-2169429D01*
X414286Y-2226571D01*
X400000Y-2255143D01*
X385714Y-2269429D01*
X357143Y-2283714D01*
X328571Y-2283714D01*
X300000Y-2269429D01*
X285714Y-2255143D01*
X271429Y-2226571D01*
X257143Y-2169429D01*
X257143Y-2098000D01*
X271429Y-2040857D01*
X285714Y-2012286D01*
X300000Y-1998000D01*
X328571Y-1983714D01*
X557143Y-2255143D02*
X571429Y-2269429D01*
X557143Y-2283714D01*
X542857Y-2269429D01*
X557143Y-2255143D01*
X557143Y-2283714D01*
X828571Y-2083714D02*
X828571Y-2283714D01*
X757143Y-1969429D02*
X685714Y-2183714D01*
X871428Y-2183714D01*
X1114286Y-1983714D02*
X1057143Y-1983714D01*
X1028571Y-1998000D01*
X1014286Y-2012286D01*
X985714Y-2055143D01*
X971429Y-2112286D01*
X971429Y-2226571D01*
X985714Y-2255143D01*
X1000000Y-2269429D01*
X1028571Y-2283714D01*
X1085714Y-2283714D01*
X1114286Y-2269429D01*
X1128571Y-2255143D01*
X1142857Y-2226571D01*
X1142857Y-2155143D01*
X1128571Y-2126571D01*
X1114286Y-2112286D01*
X1085714Y-2098000D01*
X1028571Y-2098000D01*
X1000000Y-2112286D01*
X985714Y-2126571D01*
X971429Y-2155143D01*
X1271429Y-2283714D02*
X1271429Y-2083714D01*
X1271429Y-2112286D02*
X1285714Y-2098000D01*
X1314286Y-2083714D01*
X1357143Y-2083714D01*
X1385714Y-2098000D01*
X1400000Y-2126571D01*
X1400000Y-2283714D01*
X1400000Y-2126571D02*
X1414286Y-2098000D01*
X1442857Y-2083714D01*
X1485714Y-2083714D01*
X1514286Y-2098000D01*
X1528571Y-2126571D01*
X1528571Y-2283714D01*
X1671429Y-2283714D02*
X1671429Y-2083714D01*
X1671429Y-2112286D02*
X1685714Y-2098000D01*
X1714286Y-2083714D01*
X1757143Y-2083714D01*
X1785714Y-2098000D01*
X1800000Y-2126571D01*
X1800000Y-2283714D01*
X1800000Y-2126571D02*
X1814286Y-2098000D01*
X1842857Y-2083714D01*
X1885714Y-2083714D01*
X1914286Y-2098000D01*
X1928571Y-2126571D01*
X1928571Y-2283714D01*
X2514286Y-1969429D02*
X2257143Y-2355143D01*
X2900000Y-1983714D02*
X2928571Y-1983714D01*
X2957143Y-1998000D01*
X2971428Y-2012286D01*
X2985714Y-2040857D01*
X3000000Y-2098000D01*
X3000000Y-2169429D01*
X2985714Y-2226571D01*
X2971428Y-2255143D01*
X2957143Y-2269429D01*
X2928571Y-2283714D01*
X2900000Y-2283714D01*
X2871428Y-2269429D01*
X2857143Y-2255143D01*
X2842857Y-2226571D01*
X2828571Y-2169429D01*
X2828571Y-2098000D01*
X2842857Y-2040857D01*
X2857143Y-2012286D01*
X2871428Y-1998000D01*
X2900000Y-1983714D01*
X3128571Y-2255143D02*
X3142857Y-2269429D01*
X3128571Y-2283714D01*
X3114286Y-2269429D01*
X3128571Y-2255143D01*
X3128571Y-2283714D01*
X3328571Y-1983714D02*
X3357143Y-1983714D01*
X3385714Y-1998000D01*
X3400000Y-2012286D01*
X3414286Y-2040857D01*
X3428571Y-2098000D01*
X3428571Y-2169429D01*
X3414286Y-2226571D01*
X3400000Y-2255143D01*
X3385714Y-2269429D01*
X3357143Y-2283714D01*
X3328571Y-2283714D01*
X3300000Y-2269429D01*
X3285714Y-2255143D01*
X3271428Y-2226571D01*
X3257143Y-2169429D01*
X3257143Y-2098000D01*
X3271428Y-2040857D01*
X3285714Y-2012286D01*
X3300000Y-1998000D01*
X3328571Y-1983714D01*
X3714286Y-2283714D02*
X3542857Y-2283714D01*
X3628571Y-2283714D02*
X3628571Y-1983714D01*
X3600000Y-2026571D01*
X3571428Y-2055143D01*
X3542857Y-2069429D01*
X3885714Y-2112286D02*
X3857143Y-2098000D01*
X3842857Y-2083714D01*
X3828571Y-2055143D01*
X3828571Y-2040857D01*
X3842857Y-2012286D01*
X3857143Y-1998000D01*
X3885714Y-1983714D01*
X3942857Y-1983714D01*
X3971428Y-1998000D01*
X3985714Y-2012286D01*
X4000000Y-2040857D01*
X4000000Y-2055143D01*
X3985714Y-2083714D01*
X3971428Y-2098000D01*
X3942857Y-2112286D01*
X3885714Y-2112286D01*
X3857143Y-2126571D01*
X3842857Y-2140857D01*
X3828571Y-2169429D01*
X3828571Y-2226571D01*
X3842857Y-2255143D01*
X3857143Y-2269429D01*
X3885714Y-2283714D01*
X3942857Y-2283714D01*
X3971428Y-2269429D01*
X3985714Y-2255143D01*
X4000000Y-2226571D01*
X4000000Y-2169429D01*
X3985714Y-2140857D01*
X3971428Y-2126571D01*
X3942857Y-2112286D01*
X4114286Y-1983714D02*
X4114286Y-2040857D01*
X4228571Y-1983714D02*
X4228571Y-2040857D01*
X4671429Y-2398000D02*
X4657143Y-2383714D01*
X4628571Y-2340857D01*
X4614286Y-2312286D01*
X4600000Y-2269429D01*
X4585714Y-2198000D01*
X4585714Y-2140857D01*
X4600000Y-2069429D01*
X4614286Y-2026571D01*
X4628571Y-1998000D01*
X4657143Y-1955143D01*
X4671429Y-1940857D01*
X4771429Y-2012286D02*
X4785714Y-1998000D01*
X4814286Y-1983714D01*
X4885714Y-1983714D01*
X4914286Y-1998000D01*
X4928571Y-2012286D01*
X4942857Y-2040857D01*
X4942857Y-2069429D01*
X4928571Y-2112286D01*
X4757143Y-2283714D01*
X4942857Y-2283714D01*
X5300000Y-2283714D02*
X5300000Y-1983714D01*
X5428571Y-2283714D02*
X5428571Y-2126571D01*
X5414286Y-2098000D01*
X5385714Y-2083714D01*
X5342857Y-2083714D01*
X5314286Y-2098000D01*
X5300000Y-2112286D01*
X5614286Y-2283714D02*
X5585714Y-2269429D01*
X5571429Y-2255143D01*
X5557143Y-2226571D01*
X5557143Y-2140857D01*
X5571429Y-2112286D01*
X5585714Y-2098000D01*
X5614286Y-2083714D01*
X5657143Y-2083714D01*
X5685714Y-2098000D01*
X5700000Y-2112286D01*
X5714286Y-2140857D01*
X5714286Y-2226571D01*
X5700000Y-2255143D01*
X5685714Y-2269429D01*
X5657143Y-2283714D01*
X5614286Y-2283714D01*
X5885714Y-2283714D02*
X5857143Y-2269429D01*
X5842857Y-2240857D01*
X5842857Y-1983714D01*
X6114286Y-2269429D02*
X6085714Y-2283714D01*
X6028571Y-2283714D01*
X6000000Y-2269429D01*
X5985714Y-2240857D01*
X5985714Y-2126571D01*
X6000000Y-2098000D01*
X6028571Y-2083714D01*
X6085714Y-2083714D01*
X6114286Y-2098000D01*
X6128571Y-2126571D01*
X6128571Y-2155143D01*
X5985714Y-2183714D01*
X6242857Y-2269429D02*
X6271429Y-2283714D01*
X6328571Y-2283714D01*
X6357143Y-2269429D01*
X6371429Y-2240857D01*
X6371429Y-2226571D01*
X6357143Y-2198000D01*
X6328571Y-2183714D01*
X6285714Y-2183714D01*
X6257143Y-2169429D01*
X6242857Y-2140857D01*
X6242857Y-2126571D01*
X6257143Y-2098000D01*
X6285714Y-2083714D01*
X6328571Y-2083714D01*
X6357143Y-2098000D01*
X6471428Y-2398000D02*
X6485714Y-2383714D01*
X6514286Y-2340857D01*
X6528571Y-2312286D01*
X6542857Y-2269429D01*
X6557143Y-2198000D01*
X6557143Y-2140857D01*
X6542857Y-2069429D01*
X6528571Y-2026571D01*
X6514286Y-1998000D01*
X6485714Y-1955143D01*
X6471428Y-1940857D01*
X-38100Y-2582100D02*
X0Y-2544000D01*
X-38100Y-2505900D01*
X-76200Y-2544000D01*
X-38100Y-2582100D01*
X328571Y-2379714D02*
X357143Y-2379714D01*
X385714Y-2394000D01*
X400000Y-2408286D01*
X414286Y-2436857D01*
X428571Y-2494000D01*
X428571Y-2565429D01*
X414286Y-2622571D01*
X400000Y-2651143D01*
X385714Y-2665429D01*
X357143Y-2679714D01*
X328571Y-2679714D01*
X300000Y-2665429D01*
X285714Y-2651143D01*
X271429Y-2622571D01*
X257143Y-2565429D01*
X257143Y-2494000D01*
X271429Y-2436857D01*
X285714Y-2408286D01*
X300000Y-2394000D01*
X328571Y-2379714D01*
X557143Y-2651143D02*
X571429Y-2665429D01*
X557143Y-2679714D01*
X542857Y-2665429D01*
X557143Y-2651143D01*
X557143Y-2679714D01*
X671429Y-2379714D02*
X871428Y-2379714D01*
X742857Y-2679714D01*
X1114286Y-2379714D02*
X1057143Y-2379714D01*
X1028571Y-2394000D01*
X1014286Y-2408286D01*
X985714Y-2451143D01*
X971429Y-2508286D01*
X971429Y-2622571D01*
X985714Y-2651143D01*
X1000000Y-2665429D01*
X1028571Y-2679714D01*
X1085714Y-2679714D01*
X1114286Y-2665429D01*
X1128571Y-2651143D01*
X1142857Y-2622571D01*
X1142857Y-2551143D01*
X1128571Y-2522571D01*
X1114286Y-2508286D01*
X1085714Y-2494000D01*
X1028571Y-2494000D01*
X1000000Y-2508286D01*
X985714Y-2522571D01*
X971429Y-2551143D01*
X1271429Y-2679714D02*
X1271429Y-2479714D01*
X1271429Y-2508286D02*
X1285714Y-2494000D01*
X1314286Y-2479714D01*
X1357143Y-2479714D01*
X1385714Y-2494000D01*
X1400000Y-2522571D01*
X1400000Y-2679714D01*
X1400000Y-2522571D02*
X1414286Y-2494000D01*
X1442857Y-2479714D01*
X1485714Y-2479714D01*
X1514286Y-2494000D01*
X1528571Y-2522571D01*
X1528571Y-2679714D01*
X1671429Y-2679714D02*
X1671429Y-2479714D01*
X1671429Y-2508286D02*
X1685714Y-2494000D01*
X1714286Y-2479714D01*
X1757143Y-2479714D01*
X1785714Y-2494000D01*
X1800000Y-2522571D01*
X1800000Y-2679714D01*
X1800000Y-2522571D02*
X1814286Y-2494000D01*
X1842857Y-2479714D01*
X1885714Y-2479714D01*
X1914286Y-2494000D01*
X1928571Y-2522571D01*
X1928571Y-2679714D01*
X2514286Y-2365429D02*
X2257143Y-2751143D01*
X2900000Y-2379714D02*
X2928571Y-2379714D01*
X2957143Y-2394000D01*
X2971428Y-2408286D01*
X2985714Y-2436857D01*
X3000000Y-2494000D01*
X3000000Y-2565429D01*
X2985714Y-2622571D01*
X2971428Y-2651143D01*
X2957143Y-2665429D01*
X2928571Y-2679714D01*
X2900000Y-2679714D01*
X2871428Y-2665429D01*
X2857143Y-2651143D01*
X2842857Y-2622571D01*
X2828571Y-2565429D01*
X2828571Y-2494000D01*
X2842857Y-2436857D01*
X2857143Y-2408286D01*
X2871428Y-2394000D01*
X2900000Y-2379714D01*
X3128571Y-2651143D02*
X3142857Y-2665429D01*
X3128571Y-2679714D01*
X3114286Y-2665429D01*
X3128571Y-2651143D01*
X3128571Y-2679714D01*
X3328571Y-2379714D02*
X3357143Y-2379714D01*
X3385714Y-2394000D01*
X3400000Y-2408286D01*
X3414286Y-2436857D01*
X3428571Y-2494000D01*
X3428571Y-2565429D01*
X3414286Y-2622571D01*
X3400000Y-2651143D01*
X3385714Y-2665429D01*
X3357143Y-2679714D01*
X3328571Y-2679714D01*
X3300000Y-2665429D01*
X3285714Y-2651143D01*
X3271428Y-2622571D01*
X3257143Y-2565429D01*
X3257143Y-2494000D01*
X3271428Y-2436857D01*
X3285714Y-2408286D01*
X3300000Y-2394000D01*
X3328571Y-2379714D01*
X3528571Y-2379714D02*
X3714286Y-2379714D01*
X3614286Y-2494000D01*
X3657143Y-2494000D01*
X3685714Y-2508286D01*
X3700000Y-2522571D01*
X3714286Y-2551143D01*
X3714286Y-2622571D01*
X3700000Y-2651143D01*
X3685714Y-2665429D01*
X3657143Y-2679714D01*
X3571428Y-2679714D01*
X3542857Y-2665429D01*
X3528571Y-2651143D01*
X3900000Y-2379714D02*
X3928571Y-2379714D01*
X3957143Y-2394000D01*
X3971428Y-2408286D01*
X3985714Y-2436857D01*
X4000000Y-2494000D01*
X4000000Y-2565429D01*
X3985714Y-2622571D01*
X3971428Y-2651143D01*
X3957143Y-2665429D01*
X3928571Y-2679714D01*
X3900000Y-2679714D01*
X3871428Y-2665429D01*
X3857143Y-2651143D01*
X3842857Y-2622571D01*
X3828571Y-2565429D01*
X3828571Y-2494000D01*
X3842857Y-2436857D01*
X3857143Y-2408286D01*
X3871428Y-2394000D01*
X3900000Y-2379714D01*
X4114286Y-2379714D02*
X4114286Y-2436857D01*
X4228571Y-2379714D02*
X4228571Y-2436857D01*
X4671429Y-2794000D02*
X4657143Y-2779714D01*
X4628571Y-2736857D01*
X4614286Y-2708286D01*
X4600000Y-2665429D01*
X4585714Y-2594000D01*
X4585714Y-2536857D01*
X4600000Y-2465429D01*
X4614286Y-2422571D01*
X4628571Y-2394000D01*
X4657143Y-2351143D01*
X4671429Y-2336857D01*
X4914286Y-2479714D02*
X4914286Y-2679714D01*
X4842857Y-2365429D02*
X4771429Y-2579714D01*
X4957143Y-2579714D01*
X5057143Y-2408286D02*
X5071429Y-2394000D01*
X5100000Y-2379714D01*
X5171429Y-2379714D01*
X5200000Y-2394000D01*
X5214286Y-2408286D01*
X5228571Y-2436857D01*
X5228571Y-2465429D01*
X5214286Y-2508286D01*
X5042857Y-2679714D01*
X5228571Y-2679714D01*
X5585714Y-2679714D02*
X5585714Y-2379714D01*
X5714286Y-2679714D02*
X5714286Y-2522571D01*
X5700000Y-2494000D01*
X5671428Y-2479714D01*
X5628571Y-2479714D01*
X5600000Y-2494000D01*
X5585714Y-2508286D01*
X5900000Y-2679714D02*
X5871428Y-2665429D01*
X5857143Y-2651143D01*
X5842857Y-2622571D01*
X5842857Y-2536857D01*
X5857143Y-2508286D01*
X5871428Y-2494000D01*
X5900000Y-2479714D01*
X5942857Y-2479714D01*
X5971428Y-2494000D01*
X5985714Y-2508286D01*
X6000000Y-2536857D01*
X6000000Y-2622571D01*
X5985714Y-2651143D01*
X5971428Y-2665429D01*
X5942857Y-2679714D01*
X5900000Y-2679714D01*
X6171428Y-2679714D02*
X6142857Y-2665429D01*
X6128571Y-2636857D01*
X6128571Y-2379714D01*
X6400000Y-2665429D02*
X6371429Y-2679714D01*
X6314286Y-2679714D01*
X6285714Y-2665429D01*
X6271429Y-2636857D01*
X6271429Y-2522571D01*
X6285714Y-2494000D01*
X6314286Y-2479714D01*
X6371429Y-2479714D01*
X6400000Y-2494000D01*
X6414286Y-2522571D01*
X6414286Y-2551143D01*
X6271429Y-2579714D01*
X6528571Y-2665429D02*
X6557143Y-2679714D01*
X6614286Y-2679714D01*
X6642857Y-2665429D01*
X6657143Y-2636857D01*
X6657143Y-2622571D01*
X6642857Y-2594000D01*
X6614286Y-2579714D01*
X6571429Y-2579714D01*
X6542857Y-2565429D01*
X6528571Y-2536857D01*
X6528571Y-2522571D01*
X6542857Y-2494000D01*
X6571429Y-2479714D01*
X6614286Y-2479714D01*
X6642857Y-2494000D01*
X6757143Y-2794000D02*
X6771429Y-2779714D01*
X6800000Y-2736857D01*
X6814286Y-2708286D01*
X6828571Y-2665429D01*
X6842857Y-2594000D01*
X6842857Y-2536857D01*
X6828571Y-2465429D01*
X6814286Y-2422571D01*
X6800000Y-2394000D01*
X6771429Y-2351143D01*
X6757143Y-2336857D01*
X-100000Y-2890000D02*
X0Y-2990000D01*
X0Y-2890000D02*
X-100000Y-2990000D01*
X0Y-2940000D02*
G75*
G03X0Y-2940000I-50000J0D01*
G01*
X428571Y-3075714D02*
X257143Y-3075714D01*
X342857Y-3075714D02*
X342857Y-2775714D01*
X314286Y-2818571D01*
X285714Y-2847143D01*
X257143Y-2861429D01*
X557143Y-3047143D02*
X571429Y-3061429D01*
X557143Y-3075714D01*
X542857Y-3061429D01*
X557143Y-3047143D01*
X557143Y-3075714D01*
X757143Y-2775714D02*
X785714Y-2775714D01*
X814286Y-2790000D01*
X828571Y-2804286D01*
X842857Y-2832857D01*
X857143Y-2890000D01*
X857143Y-2961429D01*
X842857Y-3018571D01*
X828571Y-3047143D01*
X814286Y-3061429D01*
X785714Y-3075714D01*
X757143Y-3075714D01*
X728571Y-3061429D01*
X714286Y-3047143D01*
X700000Y-3018571D01*
X685714Y-2961429D01*
X685714Y-2890000D01*
X700000Y-2832857D01*
X714286Y-2804286D01*
X728571Y-2790000D01*
X757143Y-2775714D01*
X1042857Y-2775714D02*
X1071429Y-2775714D01*
X1100000Y-2790000D01*
X1114286Y-2804286D01*
X1128571Y-2832857D01*
X1142857Y-2890000D01*
X1142857Y-2961429D01*
X1128571Y-3018571D01*
X1114286Y-3047143D01*
X1100000Y-3061429D01*
X1071429Y-3075714D01*
X1042857Y-3075714D01*
X1014286Y-3061429D01*
X1000000Y-3047143D01*
X985714Y-3018571D01*
X971429Y-2961429D01*
X971429Y-2890000D01*
X985714Y-2832857D01*
X1000000Y-2804286D01*
X1014286Y-2790000D01*
X1042857Y-2775714D01*
X1271429Y-3075714D02*
X1271429Y-2875714D01*
X1271429Y-2904286D02*
X1285714Y-2890000D01*
X1314286Y-2875714D01*
X1357143Y-2875714D01*
X1385714Y-2890000D01*
X1400000Y-2918571D01*
X1400000Y-3075714D01*
X1400000Y-2918571D02*
X1414286Y-2890000D01*
X1442857Y-2875714D01*
X1485714Y-2875714D01*
X1514286Y-2890000D01*
X1528571Y-2918571D01*
X1528571Y-3075714D01*
X1671429Y-3075714D02*
X1671429Y-2875714D01*
X1671429Y-2904286D02*
X1685714Y-2890000D01*
X1714286Y-2875714D01*
X1757143Y-2875714D01*
X1785714Y-2890000D01*
X1800000Y-2918571D01*
X1800000Y-3075714D01*
X1800000Y-2918571D02*
X1814286Y-2890000D01*
X1842857Y-2875714D01*
X1885714Y-2875714D01*
X1914286Y-2890000D01*
X1928571Y-2918571D01*
X1928571Y-3075714D01*
X2514286Y-2761429D02*
X2257143Y-3147143D01*
X2900000Y-2775714D02*
X2928571Y-2775714D01*
X2957143Y-2790000D01*
X2971428Y-2804286D01*
X2985714Y-2832857D01*
X3000000Y-2890000D01*
X3000000Y-2961429D01*
X2985714Y-3018571D01*
X2971428Y-3047143D01*
X2957143Y-3061429D01*
X2928571Y-3075714D01*
X2900000Y-3075714D01*
X2871428Y-3061429D01*
X2857143Y-3047143D01*
X2842857Y-3018571D01*
X2828571Y-2961429D01*
X2828571Y-2890000D01*
X2842857Y-2832857D01*
X2857143Y-2804286D01*
X2871428Y-2790000D01*
X2900000Y-2775714D01*
X3128571Y-3047143D02*
X3142857Y-3061429D01*
X3128571Y-3075714D01*
X3114286Y-3061429D01*
X3128571Y-3047143D01*
X3128571Y-3075714D01*
X3328571Y-2775714D02*
X3357143Y-2775714D01*
X3385714Y-2790000D01*
X3400000Y-2804286D01*
X3414286Y-2832857D01*
X3428571Y-2890000D01*
X3428571Y-2961429D01*
X3414286Y-3018571D01*
X3400000Y-3047143D01*
X3385714Y-3061429D01*
X3357143Y-3075714D01*
X3328571Y-3075714D01*
X3300000Y-3061429D01*
X3285714Y-3047143D01*
X3271428Y-3018571D01*
X3257143Y-2961429D01*
X3257143Y-2890000D01*
X3271428Y-2832857D01*
X3285714Y-2804286D01*
X3300000Y-2790000D01*
X3328571Y-2775714D01*
X3528571Y-2775714D02*
X3714286Y-2775714D01*
X3614286Y-2890000D01*
X3657143Y-2890000D01*
X3685714Y-2904286D01*
X3700000Y-2918571D01*
X3714286Y-2947143D01*
X3714286Y-3018571D01*
X3700000Y-3047143D01*
X3685714Y-3061429D01*
X3657143Y-3075714D01*
X3571428Y-3075714D01*
X3542857Y-3061429D01*
X3528571Y-3047143D01*
X3857143Y-3075714D02*
X3914286Y-3075714D01*
X3942857Y-3061429D01*
X3957143Y-3047143D01*
X3985714Y-3004286D01*
X4000000Y-2947143D01*
X4000000Y-2832857D01*
X3985714Y-2804286D01*
X3971428Y-2790000D01*
X3942857Y-2775714D01*
X3885714Y-2775714D01*
X3857143Y-2790000D01*
X3842857Y-2804286D01*
X3828571Y-2832857D01*
X3828571Y-2904286D01*
X3842857Y-2932857D01*
X3857143Y-2947143D01*
X3885714Y-2961429D01*
X3942857Y-2961429D01*
X3971428Y-2947143D01*
X3985714Y-2932857D01*
X4000000Y-2904286D01*
X4114286Y-2775714D02*
X4114286Y-2832857D01*
X4228571Y-2775714D02*
X4228571Y-2832857D01*
X4671429Y-3190000D02*
X4657143Y-3175714D01*
X4628571Y-3132857D01*
X4614286Y-3104286D01*
X4600000Y-3061429D01*
X4585714Y-2990000D01*
X4585714Y-2932857D01*
X4600000Y-2861429D01*
X4614286Y-2818571D01*
X4628571Y-2790000D01*
X4657143Y-2747143D01*
X4671429Y-2732857D01*
X4942857Y-3075714D02*
X4771429Y-3075714D01*
X4857143Y-3075714D02*
X4857143Y-2775714D01*
X4828571Y-2818571D01*
X4800000Y-2847143D01*
X4771429Y-2861429D01*
X5228571Y-3075714D02*
X5057143Y-3075714D01*
X5142857Y-3075714D02*
X5142857Y-2775714D01*
X5114286Y-2818571D01*
X5085714Y-2847143D01*
X5057143Y-2861429D01*
X5585714Y-3075714D02*
X5585714Y-2775714D01*
X5714286Y-3075714D02*
X5714286Y-2918571D01*
X5700000Y-2890000D01*
X5671428Y-2875714D01*
X5628571Y-2875714D01*
X5600000Y-2890000D01*
X5585714Y-2904286D01*
X5900000Y-3075714D02*
X5871428Y-3061429D01*
X5857143Y-3047143D01*
X5842857Y-3018571D01*
X5842857Y-2932857D01*
X5857143Y-2904286D01*
X5871428Y-2890000D01*
X5900000Y-2875714D01*
X5942857Y-2875714D01*
X5971428Y-2890000D01*
X5985714Y-2904286D01*
X6000000Y-2932857D01*
X6000000Y-3018571D01*
X5985714Y-3047143D01*
X5971428Y-3061429D01*
X5942857Y-3075714D01*
X5900000Y-3075714D01*
X6171428Y-3075714D02*
X6142857Y-3061429D01*
X6128571Y-3032857D01*
X6128571Y-2775714D01*
X6400000Y-3061429D02*
X6371429Y-3075714D01*
X6314286Y-3075714D01*
X6285714Y-3061429D01*
X6271429Y-3032857D01*
X6271429Y-2918571D01*
X6285714Y-2890000D01*
X6314286Y-2875714D01*
X6371429Y-2875714D01*
X6400000Y-2890000D01*
X6414286Y-2918571D01*
X6414286Y-2947143D01*
X6271429Y-2975714D01*
X6528571Y-3061429D02*
X6557143Y-3075714D01*
X6614286Y-3075714D01*
X6642857Y-3061429D01*
X6657143Y-3032857D01*
X6657143Y-3018571D01*
X6642857Y-2990000D01*
X6614286Y-2975714D01*
X6571429Y-2975714D01*
X6542857Y-2961429D01*
X6528571Y-2932857D01*
X6528571Y-2918571D01*
X6542857Y-2890000D01*
X6571429Y-2875714D01*
X6614286Y-2875714D01*
X6642857Y-2890000D01*
X6757143Y-3190000D02*
X6771429Y-3175714D01*
X6800000Y-3132857D01*
X6814286Y-3104286D01*
X6828571Y-3061429D01*
X6842857Y-2990000D01*
X6842857Y-2932857D01*
X6828571Y-2861429D01*
X6814286Y-2818571D01*
X6800000Y-2790000D01*
X6771429Y-2747143D01*
X6757143Y-2732857D01*
X-300000Y-3186000D02*
X0Y-3486000D01*
X0Y-3186000D02*
X-300000Y-3486000D01*
X-150000Y-3186000D02*
X-150000Y-3486000D01*
X-300000Y-3336000D02*
X0Y-3336000D01*
X242857Y-3171714D02*
X428571Y-3171714D01*
X328571Y-3286000D01*
X371429Y-3286000D01*
X400000Y-3300286D01*
X414286Y-3314571D01*
X428571Y-3343143D01*
X428571Y-3414571D01*
X414286Y-3443143D01*
X400000Y-3457429D01*
X371429Y-3471714D01*
X285714Y-3471714D01*
X257143Y-3457429D01*
X242857Y-3443143D01*
X557143Y-3443143D02*
X571429Y-3457429D01*
X557143Y-3471714D01*
X542857Y-3457429D01*
X557143Y-3443143D01*
X557143Y-3471714D01*
X757143Y-3171714D02*
X785714Y-3171714D01*
X814286Y-3186000D01*
X828571Y-3200286D01*
X842857Y-3228857D01*
X857143Y-3286000D01*
X857143Y-3357429D01*
X842857Y-3414571D01*
X828571Y-3443143D01*
X814286Y-3457429D01*
X785714Y-3471714D01*
X757143Y-3471714D01*
X728571Y-3457429D01*
X714286Y-3443143D01*
X700000Y-3414571D01*
X685714Y-3357429D01*
X685714Y-3286000D01*
X700000Y-3228857D01*
X714286Y-3200286D01*
X728571Y-3186000D01*
X757143Y-3171714D01*
X1042857Y-3171714D02*
X1071429Y-3171714D01*
X1100000Y-3186000D01*
X1114286Y-3200286D01*
X1128571Y-3228857D01*
X1142857Y-3286000D01*
X1142857Y-3357429D01*
X1128571Y-3414571D01*
X1114286Y-3443143D01*
X1100000Y-3457429D01*
X1071429Y-3471714D01*
X1042857Y-3471714D01*
X1014286Y-3457429D01*
X1000000Y-3443143D01*
X985714Y-3414571D01*
X971429Y-3357429D01*
X971429Y-3286000D01*
X985714Y-3228857D01*
X1000000Y-3200286D01*
X1014286Y-3186000D01*
X1042857Y-3171714D01*
X1271429Y-3471714D02*
X1271429Y-3271714D01*
X1271429Y-3300286D02*
X1285714Y-3286000D01*
X1314286Y-3271714D01*
X1357143Y-3271714D01*
X1385714Y-3286000D01*
X1400000Y-3314571D01*
X1400000Y-3471714D01*
X1400000Y-3314571D02*
X1414286Y-3286000D01*
X1442857Y-3271714D01*
X1485714Y-3271714D01*
X1514286Y-3286000D01*
X1528571Y-3314571D01*
X1528571Y-3471714D01*
X1671429Y-3471714D02*
X1671429Y-3271714D01*
X1671429Y-3300286D02*
X1685714Y-3286000D01*
X1714286Y-3271714D01*
X1757143Y-3271714D01*
X1785714Y-3286000D01*
X1800000Y-3314571D01*
X1800000Y-3471714D01*
X1800000Y-3314571D02*
X1814286Y-3286000D01*
X1842857Y-3271714D01*
X1885714Y-3271714D01*
X1914286Y-3286000D01*
X1928571Y-3314571D01*
X1928571Y-3471714D01*
X2514286Y-3157429D02*
X2257143Y-3543143D01*
X2900000Y-3171714D02*
X2928571Y-3171714D01*
X2957143Y-3186000D01*
X2971428Y-3200286D01*
X2985714Y-3228857D01*
X3000000Y-3286000D01*
X3000000Y-3357429D01*
X2985714Y-3414571D01*
X2971428Y-3443143D01*
X2957143Y-3457429D01*
X2928571Y-3471714D01*
X2900000Y-3471714D01*
X2871428Y-3457429D01*
X2857143Y-3443143D01*
X2842857Y-3414571D01*
X2828571Y-3357429D01*
X2828571Y-3286000D01*
X2842857Y-3228857D01*
X2857143Y-3200286D01*
X2871428Y-3186000D01*
X2900000Y-3171714D01*
X3128571Y-3443143D02*
X3142857Y-3457429D01*
X3128571Y-3471714D01*
X3114286Y-3457429D01*
X3128571Y-3443143D01*
X3128571Y-3471714D01*
X3428571Y-3471714D02*
X3257143Y-3471714D01*
X3342857Y-3471714D02*
X3342857Y-3171714D01*
X3314286Y-3214571D01*
X3285714Y-3243143D01*
X3257143Y-3257429D01*
X3714286Y-3471714D02*
X3542857Y-3471714D01*
X3628571Y-3471714D02*
X3628571Y-3171714D01*
X3600000Y-3214571D01*
X3571428Y-3243143D01*
X3542857Y-3257429D01*
X3885714Y-3300286D02*
X3857143Y-3286000D01*
X3842857Y-3271714D01*
X3828571Y-3243143D01*
X3828571Y-3228857D01*
X3842857Y-3200286D01*
X3857143Y-3186000D01*
X3885714Y-3171714D01*
X3942857Y-3171714D01*
X3971428Y-3186000D01*
X3985714Y-3200286D01*
X4000000Y-3228857D01*
X4000000Y-3243143D01*
X3985714Y-3271714D01*
X3971428Y-3286000D01*
X3942857Y-3300286D01*
X3885714Y-3300286D01*
X3857143Y-3314571D01*
X3842857Y-3328857D01*
X3828571Y-3357429D01*
X3828571Y-3414571D01*
X3842857Y-3443143D01*
X3857143Y-3457429D01*
X3885714Y-3471714D01*
X3942857Y-3471714D01*
X3971428Y-3457429D01*
X3985714Y-3443143D01*
X4000000Y-3414571D01*
X4000000Y-3357429D01*
X3985714Y-3328857D01*
X3971428Y-3314571D01*
X3942857Y-3300286D01*
X4114286Y-3171714D02*
X4114286Y-3228857D01*
X4228571Y-3171714D02*
X4228571Y-3228857D01*
X4671429Y-3586000D02*
X4657143Y-3571714D01*
X4628571Y-3528857D01*
X4614286Y-3500286D01*
X4600000Y-3457429D01*
X4585714Y-3386000D01*
X4585714Y-3328857D01*
X4600000Y-3257429D01*
X4614286Y-3214571D01*
X4628571Y-3186000D01*
X4657143Y-3143143D01*
X4671429Y-3128857D01*
X4914286Y-3271714D02*
X4914286Y-3471714D01*
X4842857Y-3157429D02*
X4771429Y-3371714D01*
X4957143Y-3371714D01*
X5300000Y-3471714D02*
X5300000Y-3171714D01*
X5428571Y-3471714D02*
X5428571Y-3314571D01*
X5414286Y-3286000D01*
X5385714Y-3271714D01*
X5342857Y-3271714D01*
X5314286Y-3286000D01*
X5300000Y-3300286D01*
X5614286Y-3471714D02*
X5585714Y-3457429D01*
X5571429Y-3443143D01*
X5557143Y-3414571D01*
X5557143Y-3328857D01*
X5571429Y-3300286D01*
X5585714Y-3286000D01*
X5614286Y-3271714D01*
X5657143Y-3271714D01*
X5685714Y-3286000D01*
X5700000Y-3300286D01*
X5714286Y-3328857D01*
X5714286Y-3414571D01*
X5700000Y-3443143D01*
X5685714Y-3457429D01*
X5657143Y-3471714D01*
X5614286Y-3471714D01*
X5885714Y-3471714D02*
X5857143Y-3457429D01*
X5842857Y-3428857D01*
X5842857Y-3171714D01*
X6114286Y-3457429D02*
X6085714Y-3471714D01*
X6028571Y-3471714D01*
X6000000Y-3457429D01*
X5985714Y-3428857D01*
X5985714Y-3314571D01*
X6000000Y-3286000D01*
X6028571Y-3271714D01*
X6085714Y-3271714D01*
X6114286Y-3286000D01*
X6128571Y-3314571D01*
X6128571Y-3343143D01*
X5985714Y-3371714D01*
X6242857Y-3457429D02*
X6271429Y-3471714D01*
X6328571Y-3471714D01*
X6357143Y-3457429D01*
X6371429Y-3428857D01*
X6371429Y-3414571D01*
X6357143Y-3386000D01*
X6328571Y-3371714D01*
X6285714Y-3371714D01*
X6257143Y-3357429D01*
X6242857Y-3328857D01*
X6242857Y-3314571D01*
X6257143Y-3286000D01*
X6285714Y-3271714D01*
X6328571Y-3271714D01*
X6357143Y-3286000D01*
X6471428Y-3586000D02*
X6485714Y-3571714D01*
X6514286Y-3528857D01*
X6528571Y-3500286D01*
X6542857Y-3457429D01*
X6557143Y-3386000D01*
X6557143Y-3328857D01*
X6542857Y-3257429D01*
X6528571Y-3214571D01*
X6514286Y-3186000D01*
X6485714Y-3143143D01*
X6471428Y-3128857D01*
M02*
