M48
;DRILL file {KiCad 4.0.7-e2-6376~61~ubuntu18.04.1} date Wed Aug  1 14:15:44 2018
;FORMAT={-:-/ absolute / metric / decimal}
FMAT,2
METRIC,TZ
T1C0.300
T2C0.400
T3C0.450
T4C0.460
T5C0.762
T6C1.000
T7C3.000
%
G90
G05
M71
T1
X167.957Y-67.945
X168.529Y-65.341
X174.053Y-66.484
X181.991Y-66.484
T2
X153.162Y-92.202
X153.162Y-95.25
X153.162Y-98.425
X153.543Y-68.961
X156.21Y-76.01
X156.273Y-79.375
X157.162Y-81.915
X157.226Y-85.09
X157.353Y-90.424
X157.353Y-93.853
X157.607Y-86.741
X157.861Y-78.486
X157.861Y-98.425
X158.877Y-90.424
X160.274Y-86.868
X160.401Y-93.853
X160.655Y-85.153
X160.719Y-98.234
X162.052Y-74.676
X162.179Y-86.868
X162.433Y-90.551
X162.433Y-93.853
X164.973Y-71.247
X165.1Y-86.995
X165.1Y-90.551
X165.227Y-93.853
X165.735Y-66.167
X165.735Y-74.803
X165.735Y-98.425
X166.116Y-85.852
X166.433Y-77.343
X166.56Y-64.77
X166.878Y-81.28
X166.878Y-84.836
X166.941Y-86.804
X167.64Y-78.486
X167.767Y-74.803
X168.021Y-90.551
X168.021Y-93.853
X168.91Y-77.47
X169.037Y-64.77
X169.311Y-98.405
X169.355Y-84.519
X169.418Y-81.661
X169.608Y-68.135
X169.736Y-63.754
X170.561Y-90.551
X170.561Y-93.726
X170.942Y-63.436
X170.942Y-68.453
X171.196Y-66.04
X171.704Y-63.373
X171.704Y-78.613
X172.403Y-68.389
X172.466Y-72.326
X172.72Y-60.071
X173.101Y-94.234
X173.228Y-81.534
X173.355Y-74.803
X173.927Y-64.198
X174.117Y-67.31
X175.895Y-94.043
X176.53Y-68.644
X177.165Y-98.552
X177.292Y-81.534
X177.99Y-62.865
X178.117Y-94.043
X178.435Y-74.612
X178.625Y-73.343
X178.943Y-80.772
X179.07Y-89.555
X179.197Y-70.993
X179.324Y-67.31
X179.387Y-74.739
X179.451Y-62.801
X179.578Y-73.533
X179.578Y-83.566
X180.086Y-72.2
X180.467Y-81.534
X180.594Y-97.663
X181.356Y-62.865
X181.356Y-87.503
X181.483Y-61.214
X182.499Y-90.297
X182.816Y-96.901
X183.261Y-95.504
X183.388Y-80.772
X183.515Y-84.074
X183.515Y-92.456
X183.642Y-71.945
X183.642Y-72.834
X185.483Y-71.945
X185.483Y-75.311
X185.547Y-78.74
X185.627Y-90.25
X185.674Y-95.123
X186.563Y-97.727
X187.325Y-71.945
X189.23Y-71.755
X189.23Y-97.79
X191.897Y-93.218
T3
X156.337Y-73.914
X157.734Y-76.327
X179.451Y-76.708
X182.245Y-76.581
X185.547Y-76.835
T4
X174.69Y-98.61
X183.45Y-98.61
T5
X150.041Y-65.904
X150.041Y-68.444
X150.041Y-70.984
X150.041Y-73.524
X150.041Y-76.064
X150.041Y-78.604
X150.041Y-81.144
X150.041Y-83.684
X150.041Y-86.224
X150.041Y-88.764
X150.041Y-91.304
X150.041Y-93.844
X150.041Y-96.384
X185.061Y-59.324
X185.061Y-61.864
X185.061Y-64.404
X190.681Y-65.904
X190.681Y-68.444
X190.681Y-70.984
X190.681Y-73.524
X190.681Y-76.064
X190.681Y-78.604
X190.681Y-81.144
X190.681Y-83.684
X190.681Y-86.224
X190.681Y-88.764
X190.681Y-91.304
X190.681Y-93.844
X190.681Y-96.384
X193.221Y-65.904
X193.221Y-68.444
X193.221Y-70.984
X193.221Y-73.524
X193.221Y-76.064
X193.221Y-78.604
X193.221Y-81.144
X193.221Y-83.684
X193.221Y-86.224
X193.221Y-88.764
X193.221Y-91.304
X193.221Y-93.844
X193.221Y-96.384
T6
X154.305Y-75.565
X154.305Y-78.105
X154.305Y-80.645
X156.845Y-59.055
X158.877Y-72.771
X159.385Y-59.055
X161.925Y-59.055
X187.325Y-73.66
X187.325Y-76.2
X187.325Y-78.74
X187.325Y-81.28
T7
X151.501Y-60.004
X151.501Y-102.004
X191.501Y-60.004
X191.501Y-102.004
T0
M30
