G04 #@! TF.FileFunction,Copper,L2,Bot,Signal*
%FSLAX46Y46*%
G04 Gerber Fmt 4.6, Leading zero omitted, Abs format (unit mm)*
G04 Created by KiCad (PCBNEW 4.0.7-e2-6376~61~ubuntu18.04.1) date Fri Jul  6 09:43:53 2018*
%MOMM*%
%LPD*%
G01*
G04 APERTURE LIST*
%ADD10C,0.100000*%
%ADD11R,1.700000X1.700000*%
%ADD12O,1.700000X1.700000*%
%ADD13R,2.420000X5.080000*%
%ADD14C,0.970000*%
%ADD15R,0.460000X0.890000*%
%ADD16C,4.000000*%
%ADD17C,1.524000*%
%ADD18C,0.600000*%
%ADD19C,0.650000*%
%ADD20C,0.300000*%
%ADD21C,0.250000*%
%ADD22C,0.254000*%
G04 APERTURE END LIST*
D10*
D11*
X156845000Y-59055000D03*
D12*
X159385000Y-59055000D03*
X161925000Y-59055000D03*
D11*
X158877000Y-72771000D03*
X154305000Y-80645000D03*
D12*
X154305000Y-78105000D03*
X154305000Y-75565000D03*
D11*
X187325000Y-81280000D03*
D12*
X187325000Y-78740000D03*
X187325000Y-76200000D03*
X187325000Y-73660000D03*
D13*
X174690000Y-102050000D03*
X183450000Y-102050000D03*
D14*
X174690000Y-98610000D03*
X183450000Y-98610000D03*
D15*
X174690000Y-99060000D03*
X183450000Y-99060000D03*
D16*
X191501100Y-60003600D03*
D17*
X150041100Y-65903600D03*
X150041100Y-68443600D03*
X150041100Y-70983600D03*
X150041100Y-73523600D03*
X150041100Y-76063600D03*
X150041100Y-78603600D03*
X150041100Y-81143600D03*
X150041100Y-83683600D03*
X150041100Y-86223600D03*
X150041100Y-88763600D03*
X150041100Y-91303600D03*
X150041100Y-93843600D03*
X150041100Y-96383600D03*
X193221100Y-96383600D03*
X190681100Y-96383600D03*
X193221100Y-93843600D03*
X190681100Y-93843600D03*
X193221100Y-91303600D03*
X190681100Y-91303600D03*
X193221100Y-88763600D03*
X190681100Y-88763600D03*
X193221100Y-86223600D03*
X190681100Y-86223600D03*
X193221100Y-83683600D03*
X190681100Y-83683600D03*
X193221100Y-81143600D03*
X190681100Y-81143600D03*
X193221100Y-78603600D03*
X190681100Y-78603600D03*
X193221100Y-76063600D03*
X190681100Y-76063600D03*
X193221100Y-73523600D03*
X190681100Y-73523600D03*
X193221100Y-70983600D03*
X190681100Y-70983600D03*
X193221100Y-68443600D03*
X190681100Y-68443600D03*
X193221100Y-65903600D03*
X190681100Y-65903600D03*
X185061100Y-59323600D03*
X185061100Y-61863600D03*
X185061100Y-64403600D03*
D16*
X151501100Y-60003600D03*
X151501100Y-102003600D03*
X191501100Y-102003600D03*
D18*
X178943000Y-73406000D03*
X178943000Y-75057000D03*
X166878000Y-77597000D03*
X168783000Y-77597000D03*
X157099000Y-86741000D03*
X165608000Y-86868000D03*
X163703000Y-86868000D03*
X160147000Y-86741000D03*
X180467000Y-81534000D03*
X183515000Y-92456000D03*
X164973000Y-71247000D03*
X177292000Y-81534000D03*
X173228000Y-81534000D03*
X179324000Y-67310000D03*
X179197000Y-70993000D03*
X183261000Y-95504000D03*
X178943000Y-80772000D03*
X183515000Y-84074000D03*
X181483000Y-61214000D03*
X172720000Y-60071000D03*
X172466000Y-69977000D03*
X162433000Y-90551000D03*
X158877000Y-90424000D03*
X157353000Y-90424000D03*
X157353000Y-93853000D03*
X160401000Y-93853000D03*
X162433000Y-93853000D03*
X165227000Y-93853000D03*
X168021000Y-93853000D03*
X170561000Y-93726000D03*
X170561000Y-90551000D03*
X168021000Y-90551000D03*
X165100000Y-90551000D03*
X153162000Y-92202000D03*
X153162000Y-95250000D03*
X153162000Y-98425000D03*
X157861000Y-98425000D03*
X160718500Y-98234500D03*
X165735000Y-98425000D03*
X169311000Y-98405000D03*
X179070000Y-89555000D03*
X170307000Y-63246000D03*
X171704000Y-63246000D03*
X191897000Y-93218000D03*
X173355000Y-74803000D03*
X165735000Y-66167000D03*
X171704000Y-68326000D03*
X172847000Y-64765000D03*
X169418000Y-68326000D03*
X167767000Y-74803000D03*
X165735000Y-74803000D03*
X162052000Y-74676000D03*
X153543000Y-68961000D03*
D19*
X157734000Y-76327000D03*
X179451000Y-76708000D03*
X156337000Y-73914000D03*
X185547000Y-76835000D03*
X182245000Y-76581000D03*
D18*
X169418000Y-81661000D03*
X182499000Y-90297000D03*
X185674000Y-95123000D03*
X179578000Y-83566000D03*
X166116000Y-85852000D03*
X173990000Y-67056000D03*
X175133000Y-68580000D03*
X189230000Y-71755000D03*
X166941500Y-86804500D03*
X166878000Y-81280000D03*
X166878000Y-84836000D03*
X181356000Y-87503000D03*
X185627000Y-90250000D03*
X160782000Y-79502000D03*
X183388000Y-80772000D03*
X167894000Y-67437000D03*
X177292000Y-61722000D03*
X167767000Y-66167000D03*
X167132000Y-60452000D03*
D20*
X160274000Y-86868000D02*
X163703000Y-86868000D01*
X160147000Y-86741000D02*
X160274000Y-86868000D01*
D21*
X165227000Y-70993000D02*
X179197000Y-70993000D01*
X164973000Y-71247000D02*
X165227000Y-70993000D01*
X173228000Y-81534000D02*
X177292000Y-81534000D01*
X179324000Y-70866000D02*
X179324000Y-67310000D01*
X179197000Y-70993000D02*
X179324000Y-70866000D01*
X183515000Y-84074000D02*
X183515000Y-92456000D01*
X183515000Y-92456000D02*
X183515000Y-95250000D01*
X183515000Y-95250000D02*
X183261000Y-95504000D01*
X184140600Y-96383600D02*
X190681100Y-96383600D01*
X183261000Y-95504000D02*
X184140600Y-96383600D01*
X183515000Y-84074000D02*
X180975000Y-81534000D01*
X179705000Y-81534000D02*
X178943000Y-80772000D01*
X180975000Y-81534000D02*
X180467000Y-81534000D01*
X180467000Y-81534000D02*
X179705000Y-81534000D01*
X187325000Y-81280000D02*
X187325000Y-82677000D01*
X185928000Y-84074000D02*
X183515000Y-84074000D01*
X187325000Y-82677000D02*
X185928000Y-84074000D01*
X180213000Y-59944000D02*
X181483000Y-61214000D01*
X172847000Y-59944000D02*
X180213000Y-59944000D01*
X172720000Y-60071000D02*
X172847000Y-59944000D01*
X190681100Y-93843600D02*
X190681100Y-96383600D01*
D20*
X171704000Y-68326000D02*
X172339000Y-68326000D01*
X172466000Y-68453000D02*
X172466000Y-69977000D01*
X172339000Y-68326000D02*
X172466000Y-68453000D01*
X157353000Y-93853000D02*
X157353000Y-90424000D01*
X162433000Y-93853000D02*
X160401000Y-93853000D01*
X168021000Y-93853000D02*
X165227000Y-93853000D01*
X170561000Y-90551000D02*
X170561000Y-93726000D01*
X165100000Y-90551000D02*
X168021000Y-90551000D01*
X153162000Y-98425000D02*
X153162000Y-95250000D01*
X160528000Y-98425000D02*
X157861000Y-98425000D01*
X160718500Y-98234500D02*
X160528000Y-98425000D01*
X169291000Y-98425000D02*
X165735000Y-98425000D01*
X169311000Y-98405000D02*
X169291000Y-98425000D01*
X183450000Y-102050000D02*
X183450000Y-98610000D01*
X174690000Y-102050000D02*
X183450000Y-102050000D01*
X183319000Y-98610000D02*
X179070000Y-94361000D01*
X179070000Y-94361000D02*
X179070000Y-89555000D01*
X183319000Y-98610000D02*
X183450000Y-98610000D01*
X171704000Y-63246000D02*
X170307000Y-63246000D01*
X191897000Y-93218000D02*
X191897000Y-97917000D01*
X191897000Y-97917000D02*
X191204000Y-98610000D01*
X191204000Y-98610000D02*
X183450000Y-98610000D01*
X174690000Y-98610000D02*
X183450000Y-98610000D01*
X167767000Y-74803000D02*
X173355000Y-74803000D01*
X165735000Y-66167000D02*
X164338000Y-66167000D01*
X162052000Y-68453000D02*
X162052000Y-74676000D01*
X164338000Y-66167000D02*
X162052000Y-68453000D01*
X165735000Y-66167000D02*
X165735000Y-62865000D01*
X165735000Y-62865000D02*
X161925000Y-59055000D01*
X190681100Y-73523600D02*
X190681100Y-73587100D01*
X190681100Y-73587100D02*
X191897000Y-74803000D01*
X191897000Y-79927700D02*
X190681100Y-81143600D01*
X191897000Y-74803000D02*
X191897000Y-79927700D01*
X190681100Y-91303600D02*
X190890400Y-91303600D01*
X190890400Y-91303600D02*
X192024000Y-90170000D01*
X192024000Y-87420700D02*
X193221100Y-86223600D01*
X192024000Y-90170000D02*
X192024000Y-87420700D01*
X166751000Y-68326000D02*
X169418000Y-68326000D01*
X165735000Y-67310000D02*
X166751000Y-68326000D01*
X165735000Y-66167000D02*
X165735000Y-67310000D01*
X169418000Y-68326000D02*
X171704000Y-68326000D01*
X172847000Y-67183000D02*
X171704000Y-68326000D01*
X172847000Y-67183000D02*
X172847000Y-64765000D01*
X165735000Y-74803000D02*
X167767000Y-74803000D01*
X154305000Y-75565000D02*
X155956000Y-75565000D01*
X155956000Y-75565000D02*
X156845000Y-74676000D01*
X156845000Y-74676000D02*
X162052000Y-74676000D01*
X150041100Y-68443600D02*
X153025600Y-68443600D01*
X153025600Y-68443600D02*
X153543000Y-68961000D01*
X179070000Y-76327000D02*
X157734000Y-76327000D01*
X179451000Y-76708000D02*
X179070000Y-76327000D01*
X159385000Y-59055000D02*
X159131000Y-59055000D01*
X159131000Y-59055000D02*
X156337000Y-61849000D01*
X156337000Y-61849000D02*
X156337000Y-73914000D01*
X185547000Y-76835000D02*
X185293000Y-76581000D01*
X185293000Y-76581000D02*
X182245000Y-76581000D01*
D21*
X170434000Y-82677000D02*
X169418000Y-81661000D01*
X181102000Y-82677000D02*
X170434000Y-82677000D01*
X182499000Y-84074000D02*
X181102000Y-82677000D01*
X182499000Y-90297000D02*
X182499000Y-84074000D01*
X193221100Y-83683600D02*
X192922400Y-83683600D01*
X192922400Y-83683600D02*
X191643000Y-84963000D01*
X191643000Y-84963000D02*
X186563000Y-84963000D01*
X186563000Y-84963000D02*
X185801000Y-85725000D01*
X185801000Y-85725000D02*
X185801000Y-88392000D01*
X185801000Y-88392000D02*
X184658000Y-89535000D01*
X184658000Y-89535000D02*
X184658000Y-94107000D01*
X184658000Y-94107000D02*
X185674000Y-95123000D01*
X179578000Y-84709000D02*
X179578000Y-83566000D01*
X178435000Y-85852000D02*
X179578000Y-84709000D01*
X166116000Y-85852000D02*
X178435000Y-85852000D01*
D20*
X173990000Y-67437000D02*
X173990000Y-67056000D01*
X175133000Y-68580000D02*
X173990000Y-67437000D01*
D21*
X190681100Y-83683600D02*
X190617600Y-83683600D01*
X190617600Y-83683600D02*
X189230000Y-82296000D01*
X189230000Y-82296000D02*
X189230000Y-71755000D01*
X167005000Y-86868000D02*
X166941500Y-86804500D01*
X166878000Y-84836000D02*
X166878000Y-81280000D01*
X181356000Y-87503000D02*
X167640000Y-87503000D01*
X167640000Y-87503000D02*
X167005000Y-86868000D01*
X191941700Y-92583000D02*
X193221100Y-91303600D01*
X187960000Y-92583000D02*
X191941700Y-92583000D01*
X185627000Y-90250000D02*
X187960000Y-92583000D01*
X182118000Y-79502000D02*
X160782000Y-79502000D01*
X183388000Y-80772000D02*
X182118000Y-79502000D01*
X176149000Y-62611000D02*
X176403000Y-62611000D01*
X168402000Y-66929000D02*
X167894000Y-67437000D01*
X168402000Y-62738000D02*
X168402000Y-66929000D01*
X168529000Y-62611000D02*
X168402000Y-62738000D01*
X176149000Y-62611000D02*
X168529000Y-62611000D01*
X176403000Y-62611000D02*
X177292000Y-61722000D01*
X167767000Y-61087000D02*
X167767000Y-66167000D01*
X167132000Y-60452000D02*
X167767000Y-61087000D01*
D22*
G36*
X194310000Y-57149650D02*
X194310000Y-65134166D01*
X194201313Y-65102992D01*
X193400705Y-65903600D01*
X194201313Y-66704208D01*
X194310000Y-66673034D01*
X194310000Y-67557019D01*
X194013470Y-67259971D01*
X193821373Y-67180205D01*
X193952243Y-67125997D01*
X194021708Y-66883813D01*
X193221100Y-66083205D01*
X192420492Y-66883813D01*
X192489957Y-67125997D01*
X192630418Y-67176109D01*
X192430797Y-67258590D01*
X192037471Y-67651230D01*
X191951151Y-67859112D01*
X191866110Y-67653297D01*
X191473470Y-67259971D01*
X191265588Y-67173651D01*
X191471403Y-67088610D01*
X191864729Y-66695970D01*
X191944495Y-66503873D01*
X191998703Y-66634743D01*
X192240887Y-66704208D01*
X193041495Y-65903600D01*
X192240887Y-65102992D01*
X191998703Y-65172457D01*
X191948591Y-65312918D01*
X191866110Y-65113297D01*
X191676532Y-64923387D01*
X192420492Y-64923387D01*
X193221100Y-65723995D01*
X194021708Y-64923387D01*
X193952243Y-64681203D01*
X193428798Y-64494456D01*
X192873732Y-64522238D01*
X192489957Y-64681203D01*
X192420492Y-64923387D01*
X191676532Y-64923387D01*
X191473470Y-64719971D01*
X190960200Y-64506843D01*
X190404439Y-64506358D01*
X189890797Y-64718590D01*
X189497471Y-65111230D01*
X189284343Y-65624500D01*
X189283858Y-66180261D01*
X189496090Y-66693903D01*
X189888730Y-67087229D01*
X190096612Y-67173549D01*
X189890797Y-67258590D01*
X189497471Y-67651230D01*
X189284343Y-68164500D01*
X189283858Y-68720261D01*
X189496090Y-69233903D01*
X189888730Y-69627229D01*
X190096612Y-69713549D01*
X189890797Y-69798590D01*
X189497471Y-70191230D01*
X189284343Y-70704500D01*
X189284242Y-70820047D01*
X189044833Y-70819838D01*
X188701057Y-70961883D01*
X188437808Y-71224673D01*
X188295162Y-71568201D01*
X188294838Y-71940167D01*
X188436883Y-72283943D01*
X188470000Y-72317118D01*
X188470000Y-72754109D01*
X188206358Y-72464817D01*
X187681892Y-72218514D01*
X187452000Y-72339181D01*
X187452000Y-73533000D01*
X187472000Y-73533000D01*
X187472000Y-73787000D01*
X187452000Y-73787000D01*
X187452000Y-73807000D01*
X187198000Y-73807000D01*
X187198000Y-73787000D01*
X186004845Y-73787000D01*
X185883524Y-74016890D01*
X186053355Y-74426924D01*
X186443642Y-74855183D01*
X186586553Y-74922298D01*
X186245853Y-75149946D01*
X185923946Y-75631715D01*
X185865089Y-75927609D01*
X185738794Y-75875167D01*
X185622307Y-75875065D01*
X185593407Y-75855755D01*
X185293000Y-75796000D01*
X182817831Y-75796000D01*
X182789507Y-75767626D01*
X182436794Y-75621167D01*
X182054882Y-75620833D01*
X181701914Y-75766677D01*
X181431626Y-76036493D01*
X181285167Y-76389206D01*
X181284833Y-76771118D01*
X181430677Y-77124086D01*
X181700493Y-77394374D01*
X182053206Y-77540833D01*
X182435118Y-77541167D01*
X182788086Y-77395323D01*
X182817460Y-77366000D01*
X184727683Y-77366000D01*
X184732677Y-77378086D01*
X185002493Y-77648374D01*
X185355206Y-77794833D01*
X185737118Y-77795167D01*
X186090086Y-77649323D01*
X186360374Y-77379507D01*
X186377580Y-77338071D01*
X186575026Y-77470000D01*
X186245853Y-77689946D01*
X185923946Y-78171715D01*
X185810907Y-78740000D01*
X185923946Y-79308285D01*
X186245853Y-79790054D01*
X186287452Y-79817850D01*
X186239683Y-79826838D01*
X186023559Y-79965910D01*
X185878569Y-80178110D01*
X185827560Y-80430000D01*
X185827560Y-82130000D01*
X185871838Y-82365317D01*
X186010910Y-82581441D01*
X186209836Y-82717362D01*
X185613198Y-83314000D01*
X184077463Y-83314000D01*
X184045327Y-83281808D01*
X183701799Y-83139162D01*
X183654923Y-83139121D01*
X181512401Y-80996599D01*
X181265839Y-80831852D01*
X181042957Y-80787518D01*
X180997327Y-80741808D01*
X180653799Y-80599162D01*
X180281833Y-80598838D01*
X179972467Y-80726665D01*
X179878122Y-80632320D01*
X179878162Y-80586833D01*
X179743944Y-80262000D01*
X181803198Y-80262000D01*
X182452878Y-80911680D01*
X182452838Y-80957167D01*
X182594883Y-81300943D01*
X182857673Y-81564192D01*
X183201201Y-81706838D01*
X183573167Y-81707162D01*
X183916943Y-81565117D01*
X184180192Y-81302327D01*
X184322838Y-80958799D01*
X184323162Y-80586833D01*
X184181117Y-80243057D01*
X183918327Y-79979808D01*
X183574799Y-79837162D01*
X183527923Y-79837121D01*
X182655401Y-78964599D01*
X182408839Y-78799852D01*
X182118000Y-78742000D01*
X161344463Y-78742000D01*
X161312327Y-78709808D01*
X160968799Y-78567162D01*
X160596833Y-78566838D01*
X160253057Y-78708883D01*
X159989808Y-78971673D01*
X159847162Y-79315201D01*
X159846838Y-79687167D01*
X159988883Y-80030943D01*
X160251673Y-80294192D01*
X160595201Y-80436838D01*
X160967167Y-80437162D01*
X161310943Y-80295117D01*
X161344118Y-80262000D01*
X178142367Y-80262000D01*
X178008162Y-80585201D01*
X178007864Y-80927669D01*
X177822327Y-80741808D01*
X177478799Y-80599162D01*
X177106833Y-80598838D01*
X176763057Y-80740883D01*
X176729882Y-80774000D01*
X173790463Y-80774000D01*
X173758327Y-80741808D01*
X173414799Y-80599162D01*
X173042833Y-80598838D01*
X172699057Y-80740883D01*
X172435808Y-81003673D01*
X172293162Y-81347201D01*
X172292838Y-81719167D01*
X172374581Y-81917000D01*
X170748802Y-81917000D01*
X170353122Y-81521320D01*
X170353162Y-81475833D01*
X170211117Y-81132057D01*
X169948327Y-80868808D01*
X169604799Y-80726162D01*
X169232833Y-80725838D01*
X168889057Y-80867883D01*
X168625808Y-81130673D01*
X168483162Y-81474201D01*
X168482838Y-81846167D01*
X168624883Y-82189943D01*
X168887673Y-82453192D01*
X169231201Y-82595838D01*
X169278077Y-82595879D01*
X169896599Y-83214401D01*
X170143161Y-83379148D01*
X170434000Y-83437000D01*
X178643112Y-83437000D01*
X178642838Y-83751167D01*
X178784883Y-84094943D01*
X178818000Y-84128118D01*
X178818000Y-84394198D01*
X178120198Y-85092000D01*
X167784103Y-85092000D01*
X167812838Y-85022799D01*
X167813162Y-84650833D01*
X167671117Y-84307057D01*
X167638000Y-84273882D01*
X167638000Y-81842463D01*
X167670192Y-81810327D01*
X167812838Y-81466799D01*
X167813162Y-81094833D01*
X167671117Y-80751057D01*
X167408327Y-80487808D01*
X167064799Y-80345162D01*
X166692833Y-80344838D01*
X166349057Y-80486883D01*
X166085808Y-80749673D01*
X165943162Y-81093201D01*
X165942838Y-81465167D01*
X166084883Y-81808943D01*
X166118000Y-81842118D01*
X166118000Y-84273537D01*
X166085808Y-84305673D01*
X165943162Y-84649201D01*
X165942929Y-84916849D01*
X165930833Y-84916838D01*
X165587057Y-85058883D01*
X165323808Y-85321673D01*
X165181162Y-85665201D01*
X165180838Y-86037167D01*
X165322883Y-86380943D01*
X165585673Y-86644192D01*
X165929201Y-86786838D01*
X166006515Y-86786905D01*
X166006338Y-86989667D01*
X166148383Y-87333443D01*
X166411173Y-87596692D01*
X166754701Y-87739338D01*
X166801577Y-87739379D01*
X167102599Y-88040401D01*
X167349161Y-88205148D01*
X167640000Y-88263000D01*
X180793537Y-88263000D01*
X180825673Y-88295192D01*
X181169201Y-88437838D01*
X181541167Y-88438162D01*
X181739000Y-88356419D01*
X181739000Y-89734537D01*
X181706808Y-89766673D01*
X181564162Y-90110201D01*
X181563838Y-90482167D01*
X181705883Y-90825943D01*
X181968673Y-91089192D01*
X182312201Y-91231838D01*
X182684167Y-91232162D01*
X182755000Y-91202894D01*
X182755000Y-91893537D01*
X182722808Y-91925673D01*
X182580162Y-92269201D01*
X182579838Y-92641167D01*
X182721883Y-92984943D01*
X182755000Y-93018118D01*
X182755000Y-94701403D01*
X182732057Y-94710883D01*
X182468808Y-94973673D01*
X182326162Y-95317201D01*
X182325838Y-95689167D01*
X182467883Y-96032943D01*
X182730673Y-96296192D01*
X183074201Y-96438838D01*
X183121077Y-96438879D01*
X183603199Y-96921001D01*
X183849760Y-97085748D01*
X184140600Y-97143600D01*
X189483569Y-97143600D01*
X189496090Y-97173903D01*
X189888730Y-97567229D01*
X190402000Y-97780357D01*
X190957761Y-97780842D01*
X191471403Y-97568610D01*
X191864729Y-97175970D01*
X191951049Y-96968088D01*
X192036090Y-97173903D01*
X192428730Y-97567229D01*
X192942000Y-97780357D01*
X193497761Y-97780842D01*
X194011403Y-97568610D01*
X194310000Y-97270534D01*
X194310000Y-104902000D01*
X185218084Y-104902000D01*
X185295000Y-104716309D01*
X185295000Y-102525434D01*
X188865643Y-102525434D01*
X189265953Y-103494258D01*
X190006543Y-104236142D01*
X190974667Y-104638142D01*
X192022934Y-104639057D01*
X192991758Y-104238747D01*
X193733642Y-103498157D01*
X194135642Y-102530033D01*
X194136557Y-101481766D01*
X193736247Y-100512942D01*
X192995657Y-99771058D01*
X192027533Y-99369058D01*
X190979266Y-99368143D01*
X190010442Y-99768453D01*
X189268558Y-100509043D01*
X188866558Y-101477167D01*
X188865643Y-102525434D01*
X185295000Y-102525434D01*
X185295000Y-102335750D01*
X185136250Y-102177000D01*
X183577000Y-102177000D01*
X183577000Y-102197000D01*
X183323000Y-102197000D01*
X183323000Y-102177000D01*
X181763750Y-102177000D01*
X181605000Y-102335750D01*
X181605000Y-104716309D01*
X181681916Y-104902000D01*
X176458084Y-104902000D01*
X176535000Y-104716309D01*
X176535000Y-102335750D01*
X176376250Y-102177000D01*
X174817000Y-102177000D01*
X174817000Y-102197000D01*
X174563000Y-102197000D01*
X174563000Y-102177000D01*
X173003750Y-102177000D01*
X172845000Y-102335750D01*
X172845000Y-104716309D01*
X172921916Y-104902000D01*
X148463337Y-104902000D01*
X148469624Y-102525434D01*
X148865643Y-102525434D01*
X149265953Y-103494258D01*
X150006543Y-104236142D01*
X150974667Y-104638142D01*
X152022934Y-104639057D01*
X152991758Y-104238747D01*
X153733642Y-103498157D01*
X154135642Y-102530033D01*
X154136557Y-101481766D01*
X153736247Y-100512942D01*
X152995657Y-99771058D01*
X152062774Y-99383691D01*
X172845000Y-99383691D01*
X172845000Y-101764250D01*
X173003750Y-101923000D01*
X174563000Y-101923000D01*
X174563000Y-101903000D01*
X174817000Y-101903000D01*
X174817000Y-101923000D01*
X176376250Y-101923000D01*
X176535000Y-101764250D01*
X176535000Y-99383691D01*
X181605000Y-99383691D01*
X181605000Y-101764250D01*
X181763750Y-101923000D01*
X183323000Y-101923000D01*
X183323000Y-101903000D01*
X183577000Y-101903000D01*
X183577000Y-101923000D01*
X185136250Y-101923000D01*
X185295000Y-101764250D01*
X185295000Y-99383691D01*
X185198327Y-99150302D01*
X185019699Y-98971673D01*
X184786310Y-98875000D01*
X184542129Y-98875000D01*
X184583149Y-98751436D01*
X184551018Y-98307032D01*
X184442768Y-98045692D01*
X184229200Y-98010405D01*
X184101315Y-98138290D01*
X184039699Y-98076673D01*
X183872838Y-98007557D01*
X184049595Y-97830800D01*
X184014308Y-97617232D01*
X183591436Y-97476851D01*
X183147032Y-97508982D01*
X182885692Y-97617232D01*
X182850405Y-97830800D01*
X183027162Y-98007557D01*
X182860301Y-98076673D01*
X182798685Y-98138290D01*
X182670800Y-98010405D01*
X182457232Y-98045692D01*
X182316851Y-98468564D01*
X182346237Y-98875000D01*
X182113690Y-98875000D01*
X181880301Y-98971673D01*
X181701673Y-99150302D01*
X181605000Y-99383691D01*
X176535000Y-99383691D01*
X176438327Y-99150302D01*
X176259699Y-98971673D01*
X176026310Y-98875000D01*
X175782129Y-98875000D01*
X175823149Y-98751436D01*
X175791018Y-98307032D01*
X175682768Y-98045692D01*
X175469200Y-98010405D01*
X175341315Y-98138290D01*
X175279699Y-98076673D01*
X175112838Y-98007557D01*
X175289595Y-97830800D01*
X175254308Y-97617232D01*
X174831436Y-97476851D01*
X174387032Y-97508982D01*
X174125692Y-97617232D01*
X174090405Y-97830800D01*
X174267162Y-98007557D01*
X174100301Y-98076673D01*
X174038685Y-98138290D01*
X173910800Y-98010405D01*
X173697232Y-98045692D01*
X173556851Y-98468564D01*
X173586237Y-98875000D01*
X173353690Y-98875000D01*
X173120301Y-98971673D01*
X172941673Y-99150302D01*
X172845000Y-99383691D01*
X152062774Y-99383691D01*
X152027533Y-99369058D01*
X150979266Y-99368143D01*
X150010442Y-99768453D01*
X149268558Y-100509043D01*
X148866558Y-101477167D01*
X148865643Y-102525434D01*
X148469624Y-102525434D01*
X148552336Y-71260261D01*
X148643858Y-71260261D01*
X148856090Y-71773903D01*
X149248730Y-72167229D01*
X149456612Y-72253549D01*
X149250797Y-72338590D01*
X148857471Y-72731230D01*
X148644343Y-73244500D01*
X148643858Y-73800261D01*
X148856090Y-74313903D01*
X149248730Y-74707229D01*
X149456612Y-74793549D01*
X149250797Y-74878590D01*
X148857471Y-75271230D01*
X148644343Y-75784500D01*
X148643858Y-76340261D01*
X148856090Y-76853903D01*
X149248730Y-77247229D01*
X149456612Y-77333549D01*
X149250797Y-77418590D01*
X148857471Y-77811230D01*
X148644343Y-78324500D01*
X148643858Y-78880261D01*
X148856090Y-79393903D01*
X149248730Y-79787229D01*
X149456612Y-79873549D01*
X149250797Y-79958590D01*
X148857471Y-80351230D01*
X148644343Y-80864500D01*
X148643858Y-81420261D01*
X148856090Y-81933903D01*
X149248730Y-82327229D01*
X149456612Y-82413549D01*
X149250797Y-82498590D01*
X148857471Y-82891230D01*
X148644343Y-83404500D01*
X148643858Y-83960261D01*
X148856090Y-84473903D01*
X149248730Y-84867229D01*
X149456612Y-84953549D01*
X149250797Y-85038590D01*
X148857471Y-85431230D01*
X148644343Y-85944500D01*
X148643858Y-86500261D01*
X148856090Y-87013903D01*
X149248730Y-87407229D01*
X149456612Y-87493549D01*
X149250797Y-87578590D01*
X148857471Y-87971230D01*
X148644343Y-88484500D01*
X148643858Y-89040261D01*
X148856090Y-89553903D01*
X149248730Y-89947229D01*
X149456612Y-90033549D01*
X149250797Y-90118590D01*
X148857471Y-90511230D01*
X148644343Y-91024500D01*
X148643858Y-91580261D01*
X148856090Y-92093903D01*
X149248730Y-92487229D01*
X149456612Y-92573549D01*
X149250797Y-92658590D01*
X148857471Y-93051230D01*
X148644343Y-93564500D01*
X148643858Y-94120261D01*
X148856090Y-94633903D01*
X149248730Y-95027229D01*
X149456612Y-95113549D01*
X149250797Y-95198590D01*
X148857471Y-95591230D01*
X148644343Y-96104500D01*
X148643858Y-96660261D01*
X148856090Y-97173903D01*
X149248730Y-97567229D01*
X149762000Y-97780357D01*
X150317761Y-97780842D01*
X150831403Y-97568610D01*
X151224729Y-97175970D01*
X151437857Y-96662700D01*
X151438342Y-96106939D01*
X151226110Y-95593297D01*
X150833470Y-95199971D01*
X150625588Y-95113651D01*
X150831403Y-95028610D01*
X151224729Y-94635970D01*
X151437857Y-94122700D01*
X151438342Y-93566939D01*
X151226110Y-93053297D01*
X150833470Y-92659971D01*
X150625588Y-92573651D01*
X150831403Y-92488610D01*
X151224729Y-92095970D01*
X151437857Y-91582700D01*
X151438342Y-91026939D01*
X151226110Y-90513297D01*
X150833470Y-90119971D01*
X150625588Y-90033651D01*
X150831403Y-89948610D01*
X151224729Y-89555970D01*
X151437857Y-89042700D01*
X151438342Y-88486939D01*
X151226110Y-87973297D01*
X150833470Y-87579971D01*
X150625588Y-87493651D01*
X150831403Y-87408610D01*
X151224729Y-87015970D01*
X151437857Y-86502700D01*
X151438342Y-85946939D01*
X151226110Y-85433297D01*
X150833470Y-85039971D01*
X150625588Y-84953651D01*
X150831403Y-84868610D01*
X151224729Y-84475970D01*
X151437857Y-83962700D01*
X151438342Y-83406939D01*
X151226110Y-82893297D01*
X150833470Y-82499971D01*
X150625588Y-82413651D01*
X150831403Y-82328610D01*
X151224729Y-81935970D01*
X151437857Y-81422700D01*
X151438342Y-80866939D01*
X151226110Y-80353297D01*
X150833470Y-79959971D01*
X150625588Y-79873651D01*
X150831403Y-79788610D01*
X151224729Y-79395970D01*
X151437857Y-78882700D01*
X151438342Y-78326939D01*
X151346639Y-78105000D01*
X152790907Y-78105000D01*
X152903946Y-78673285D01*
X153225853Y-79155054D01*
X153267452Y-79182850D01*
X153219683Y-79191838D01*
X153003559Y-79330910D01*
X152858569Y-79543110D01*
X152807560Y-79795000D01*
X152807560Y-81495000D01*
X152851838Y-81730317D01*
X152990910Y-81946441D01*
X153203110Y-82091431D01*
X153455000Y-82142440D01*
X155155000Y-82142440D01*
X155390317Y-82098162D01*
X155606441Y-81959090D01*
X155751431Y-81746890D01*
X155802440Y-81495000D01*
X155802440Y-79795000D01*
X155758162Y-79559683D01*
X155619090Y-79343559D01*
X155406890Y-79198569D01*
X155339459Y-79184914D01*
X155384147Y-79155054D01*
X155706054Y-78673285D01*
X155819093Y-78105000D01*
X155706054Y-77536715D01*
X155384147Y-77054946D01*
X155043447Y-76827298D01*
X155186358Y-76760183D01*
X155407871Y-76517118D01*
X156773833Y-76517118D01*
X156919677Y-76870086D01*
X157189493Y-77140374D01*
X157542206Y-77286833D01*
X157924118Y-77287167D01*
X158277086Y-77141323D01*
X158306460Y-77112000D01*
X178579208Y-77112000D01*
X178636677Y-77251086D01*
X178906493Y-77521374D01*
X179259206Y-77667833D01*
X179641118Y-77668167D01*
X179994086Y-77522323D01*
X180264374Y-77252507D01*
X180410833Y-76899794D01*
X180411167Y-76517882D01*
X180265323Y-76164914D01*
X179995507Y-75894626D01*
X179642794Y-75748167D01*
X179589459Y-75748120D01*
X179370407Y-75601755D01*
X179070000Y-75542000D01*
X158306831Y-75542000D01*
X158278507Y-75513626D01*
X157925794Y-75367167D01*
X157543882Y-75366833D01*
X157190914Y-75512677D01*
X156920626Y-75782493D01*
X156774167Y-76135206D01*
X156773833Y-76517118D01*
X155407871Y-76517118D01*
X155576645Y-76331924D01*
X155746476Y-75921890D01*
X155625155Y-75692000D01*
X154432000Y-75692000D01*
X154432000Y-75712000D01*
X154178000Y-75712000D01*
X154178000Y-75692000D01*
X152984845Y-75692000D01*
X152863524Y-75921890D01*
X153033355Y-76331924D01*
X153423642Y-76760183D01*
X153566553Y-76827298D01*
X153225853Y-77054946D01*
X152903946Y-77536715D01*
X152790907Y-78105000D01*
X151346639Y-78105000D01*
X151226110Y-77813297D01*
X150833470Y-77419971D01*
X150625588Y-77333651D01*
X150831403Y-77248610D01*
X151224729Y-76855970D01*
X151437857Y-76342700D01*
X151438342Y-75786939D01*
X151226110Y-75273297D01*
X151161037Y-75208110D01*
X152863524Y-75208110D01*
X152984845Y-75438000D01*
X154178000Y-75438000D01*
X154178000Y-74244181D01*
X154432000Y-74244181D01*
X154432000Y-75438000D01*
X155625155Y-75438000D01*
X155746476Y-75208110D01*
X155576645Y-74798076D01*
X155186358Y-74369817D01*
X154661892Y-74123514D01*
X154432000Y-74244181D01*
X154178000Y-74244181D01*
X153948108Y-74123514D01*
X153423642Y-74369817D01*
X153033355Y-74798076D01*
X152863524Y-75208110D01*
X151161037Y-75208110D01*
X150833470Y-74879971D01*
X150625588Y-74793651D01*
X150831403Y-74708610D01*
X151224729Y-74315970D01*
X151437857Y-73802700D01*
X151438342Y-73246939D01*
X151226110Y-72733297D01*
X150833470Y-72339971D01*
X150625588Y-72253651D01*
X150831403Y-72168610D01*
X151224729Y-71775970D01*
X151437857Y-71262700D01*
X151438342Y-70706939D01*
X151226110Y-70193297D01*
X150833470Y-69799971D01*
X150641373Y-69720205D01*
X150772243Y-69665997D01*
X150841708Y-69423813D01*
X150041100Y-68623205D01*
X149240492Y-69423813D01*
X149309957Y-69665997D01*
X149450418Y-69716109D01*
X149250797Y-69798590D01*
X148857471Y-70191230D01*
X148644343Y-70704500D01*
X148643858Y-71260261D01*
X148552336Y-71260261D01*
X148560337Y-68235902D01*
X148631956Y-68235902D01*
X148659738Y-68790968D01*
X148818703Y-69174743D01*
X149060887Y-69244208D01*
X149861495Y-68443600D01*
X150220705Y-68443600D01*
X151021313Y-69244208D01*
X151263497Y-69174743D01*
X151450244Y-68651298D01*
X151422462Y-68096232D01*
X151263497Y-67712457D01*
X151021313Y-67642992D01*
X150220705Y-68443600D01*
X149861495Y-68443600D01*
X149060887Y-67642992D01*
X148818703Y-67712457D01*
X148631956Y-68235902D01*
X148560337Y-68235902D01*
X148565775Y-66180261D01*
X148643858Y-66180261D01*
X148856090Y-66693903D01*
X149248730Y-67087229D01*
X149440827Y-67166995D01*
X149309957Y-67221203D01*
X149240492Y-67463387D01*
X150041100Y-68263995D01*
X150841708Y-67463387D01*
X150772243Y-67221203D01*
X150631782Y-67171091D01*
X150831403Y-67088610D01*
X151224729Y-66695970D01*
X151437857Y-66182700D01*
X151438342Y-65626939D01*
X151226110Y-65113297D01*
X150833470Y-64719971D01*
X150320200Y-64506843D01*
X149764439Y-64506358D01*
X149250797Y-64718590D01*
X148857471Y-65111230D01*
X148644343Y-65624500D01*
X148643858Y-66180261D01*
X148565775Y-66180261D01*
X148580735Y-60525434D01*
X148865643Y-60525434D01*
X149265953Y-61494258D01*
X150006543Y-62236142D01*
X150974667Y-62638142D01*
X152022934Y-62639057D01*
X152991758Y-62238747D01*
X153733642Y-61498157D01*
X154135642Y-60530033D01*
X154136557Y-59481766D01*
X153736247Y-58512942D01*
X153428843Y-58205000D01*
X155347560Y-58205000D01*
X155347560Y-59905000D01*
X155391838Y-60140317D01*
X155530910Y-60356441D01*
X155743110Y-60501431D01*
X155995000Y-60552440D01*
X156523402Y-60552440D01*
X155781921Y-61293921D01*
X155611755Y-61548593D01*
X155596676Y-61624401D01*
X155552000Y-61849000D01*
X155552000Y-73341169D01*
X155523626Y-73369493D01*
X155377167Y-73722206D01*
X155376833Y-74104118D01*
X155522677Y-74457086D01*
X155792493Y-74727374D01*
X156145206Y-74873833D01*
X156527118Y-74874167D01*
X156880086Y-74728323D01*
X157150374Y-74458507D01*
X157296833Y-74105794D01*
X157297167Y-73723882D01*
X157151323Y-73370914D01*
X157122000Y-73341540D01*
X157122000Y-71921000D01*
X157379560Y-71921000D01*
X157379560Y-73621000D01*
X157423838Y-73856317D01*
X157562910Y-74072441D01*
X157775110Y-74217431D01*
X158027000Y-74268440D01*
X159727000Y-74268440D01*
X159962317Y-74224162D01*
X160178441Y-74085090D01*
X160323431Y-73872890D01*
X160374440Y-73621000D01*
X160374440Y-73303110D01*
X185883524Y-73303110D01*
X186004845Y-73533000D01*
X187198000Y-73533000D01*
X187198000Y-72339181D01*
X186968108Y-72218514D01*
X186443642Y-72464817D01*
X186053355Y-72893076D01*
X185883524Y-73303110D01*
X160374440Y-73303110D01*
X160374440Y-71921000D01*
X160330162Y-71685683D01*
X160191090Y-71469559D01*
X160136365Y-71432167D01*
X164037838Y-71432167D01*
X164179883Y-71775943D01*
X164442673Y-72039192D01*
X164786201Y-72181838D01*
X165158167Y-72182162D01*
X165501943Y-72040117D01*
X165765192Y-71777327D01*
X165775294Y-71753000D01*
X178634537Y-71753000D01*
X178666673Y-71785192D01*
X179010201Y-71927838D01*
X179382167Y-71928162D01*
X179725943Y-71786117D01*
X179989192Y-71523327D01*
X180131838Y-71179799D01*
X180132162Y-70807833D01*
X180084000Y-70691272D01*
X180084000Y-67872463D01*
X180116192Y-67840327D01*
X180258838Y-67496799D01*
X180259162Y-67124833D01*
X180117117Y-66781057D01*
X179854327Y-66517808D01*
X179510799Y-66375162D01*
X179138833Y-66374838D01*
X178795057Y-66516883D01*
X178531808Y-66779673D01*
X178389162Y-67123201D01*
X178388838Y-67495167D01*
X178530883Y-67838943D01*
X178564000Y-67872118D01*
X178564000Y-70233000D01*
X165227000Y-70233000D01*
X164936160Y-70290852D01*
X164904600Y-70311940D01*
X164787833Y-70311838D01*
X164444057Y-70453883D01*
X164180808Y-70716673D01*
X164038162Y-71060201D01*
X164037838Y-71432167D01*
X160136365Y-71432167D01*
X159978890Y-71324569D01*
X159727000Y-71273560D01*
X158027000Y-71273560D01*
X157791683Y-71317838D01*
X157575559Y-71456910D01*
X157430569Y-71669110D01*
X157379560Y-71921000D01*
X157122000Y-71921000D01*
X157122000Y-62174158D01*
X158658991Y-60637167D01*
X166196838Y-60637167D01*
X166338883Y-60980943D01*
X166601673Y-61244192D01*
X166945201Y-61386838D01*
X166992077Y-61386879D01*
X167007000Y-61401802D01*
X167007000Y-65604537D01*
X166974808Y-65636673D01*
X166832162Y-65980201D01*
X166831838Y-66352167D01*
X166973883Y-66695943D01*
X167143099Y-66865454D01*
X167101808Y-66906673D01*
X166959162Y-67250201D01*
X166958838Y-67622167D01*
X167100883Y-67965943D01*
X167363673Y-68229192D01*
X167707201Y-68371838D01*
X168079167Y-68372162D01*
X168422943Y-68230117D01*
X168686192Y-67967327D01*
X168828838Y-67623799D01*
X168828879Y-67576923D01*
X168939401Y-67466401D01*
X169042071Y-67312744D01*
X169089897Y-67241167D01*
X173054838Y-67241167D01*
X173196883Y-67584943D01*
X173243771Y-67631913D01*
X173264755Y-67737407D01*
X173434921Y-67992079D01*
X174197847Y-68755005D01*
X174197838Y-68765167D01*
X174339883Y-69108943D01*
X174602673Y-69372192D01*
X174946201Y-69514838D01*
X175318167Y-69515162D01*
X175661943Y-69373117D01*
X175925192Y-69110327D01*
X176067838Y-68766799D01*
X176068162Y-68394833D01*
X175926117Y-68051057D01*
X175663327Y-67787808D01*
X175319799Y-67645162D01*
X175308310Y-67645152D01*
X174919298Y-67256140D01*
X174924838Y-67242799D01*
X174925162Y-66870833D01*
X174783117Y-66527057D01*
X174520327Y-66263808D01*
X174176799Y-66121162D01*
X173804833Y-66120838D01*
X173461057Y-66262883D01*
X173197808Y-66525673D01*
X173055162Y-66869201D01*
X173054838Y-67241167D01*
X169089897Y-67241167D01*
X169104148Y-67219839D01*
X169162000Y-66929000D01*
X169162000Y-63371000D01*
X176403000Y-63371000D01*
X176693839Y-63313148D01*
X176940401Y-63148401D01*
X177431680Y-62657122D01*
X177477167Y-62657162D01*
X177820943Y-62515117D01*
X178084192Y-62252327D01*
X178226838Y-61908799D01*
X178227162Y-61536833D01*
X178085117Y-61193057D01*
X177822327Y-60929808D01*
X177478799Y-60787162D01*
X177106833Y-60786838D01*
X176763057Y-60928883D01*
X176499808Y-61191673D01*
X176357162Y-61535201D01*
X176357121Y-61582077D01*
X176088198Y-61851000D01*
X168529000Y-61851000D01*
X168527000Y-61851398D01*
X168527000Y-61087000D01*
X168469148Y-60796161D01*
X168304401Y-60549599D01*
X168067122Y-60312320D01*
X168067162Y-60266833D01*
X168062755Y-60256167D01*
X171784838Y-60256167D01*
X171926883Y-60599943D01*
X172189673Y-60863192D01*
X172533201Y-61005838D01*
X172905167Y-61006162D01*
X173248943Y-60864117D01*
X173409340Y-60704000D01*
X179898198Y-60704000D01*
X180547878Y-61353680D01*
X180547838Y-61399167D01*
X180689883Y-61742943D01*
X180952673Y-62006192D01*
X181296201Y-62148838D01*
X181668167Y-62149162D01*
X181689709Y-62140261D01*
X183663858Y-62140261D01*
X183876090Y-62653903D01*
X184268730Y-63047229D01*
X184476612Y-63133549D01*
X184270797Y-63218590D01*
X183877471Y-63611230D01*
X183664343Y-64124500D01*
X183663858Y-64680261D01*
X183876090Y-65193903D01*
X184268730Y-65587229D01*
X184782000Y-65800357D01*
X185337761Y-65800842D01*
X185851403Y-65588610D01*
X186244729Y-65195970D01*
X186457857Y-64682700D01*
X186458342Y-64126939D01*
X186246110Y-63613297D01*
X185853470Y-63219971D01*
X185645588Y-63133651D01*
X185851403Y-63048610D01*
X186244729Y-62655970D01*
X186457857Y-62142700D01*
X186458342Y-61586939D01*
X186246110Y-61073297D01*
X185853470Y-60679971D01*
X185661373Y-60600205D01*
X185792243Y-60545997D01*
X185798141Y-60525434D01*
X188865643Y-60525434D01*
X189265953Y-61494258D01*
X190006543Y-62236142D01*
X190974667Y-62638142D01*
X192022934Y-62639057D01*
X192991758Y-62238747D01*
X193733642Y-61498157D01*
X194135642Y-60530033D01*
X194136557Y-59481766D01*
X193736247Y-58512942D01*
X192995657Y-57771058D01*
X192027533Y-57369058D01*
X190979266Y-57368143D01*
X190010442Y-57768453D01*
X189268558Y-58509043D01*
X188866558Y-59477167D01*
X188865643Y-60525434D01*
X185798141Y-60525434D01*
X185861708Y-60303813D01*
X185061100Y-59503205D01*
X184260492Y-60303813D01*
X184329957Y-60545997D01*
X184470418Y-60596109D01*
X184270797Y-60678590D01*
X183877471Y-61071230D01*
X183664343Y-61584500D01*
X183663858Y-62140261D01*
X181689709Y-62140261D01*
X182011943Y-62007117D01*
X182275192Y-61744327D01*
X182417838Y-61400799D01*
X182418162Y-61028833D01*
X182276117Y-60685057D01*
X182013327Y-60421808D01*
X181669799Y-60279162D01*
X181622923Y-60279121D01*
X180750401Y-59406599D01*
X180503839Y-59241852D01*
X180213000Y-59184000D01*
X173022005Y-59184000D01*
X172906799Y-59136162D01*
X172534833Y-59135838D01*
X172191057Y-59277883D01*
X171927808Y-59540673D01*
X171785162Y-59884201D01*
X171784838Y-60256167D01*
X168062755Y-60256167D01*
X167925117Y-59923057D01*
X167662327Y-59659808D01*
X167318799Y-59517162D01*
X166946833Y-59516838D01*
X166603057Y-59658883D01*
X166339808Y-59921673D01*
X166197162Y-60265201D01*
X166196838Y-60637167D01*
X158658991Y-60637167D01*
X158836224Y-60459934D01*
X159385000Y-60569093D01*
X159953285Y-60456054D01*
X160435054Y-60134147D01*
X160662702Y-59793447D01*
X160729817Y-59936358D01*
X161158076Y-60326645D01*
X161568110Y-60496476D01*
X161798000Y-60375155D01*
X161798000Y-59182000D01*
X162052000Y-59182000D01*
X162052000Y-60375155D01*
X162281890Y-60496476D01*
X162691924Y-60326645D01*
X163120183Y-59936358D01*
X163366486Y-59411892D01*
X163245819Y-59182000D01*
X162052000Y-59182000D01*
X161798000Y-59182000D01*
X161778000Y-59182000D01*
X161778000Y-59115902D01*
X183651956Y-59115902D01*
X183679738Y-59670968D01*
X183838703Y-60054743D01*
X184080887Y-60124208D01*
X184881495Y-59323600D01*
X185240705Y-59323600D01*
X186041313Y-60124208D01*
X186283497Y-60054743D01*
X186470244Y-59531298D01*
X186442462Y-58976232D01*
X186283497Y-58592457D01*
X186041313Y-58522992D01*
X185240705Y-59323600D01*
X184881495Y-59323600D01*
X184080887Y-58522992D01*
X183838703Y-58592457D01*
X183651956Y-59115902D01*
X161778000Y-59115902D01*
X161778000Y-58928000D01*
X161798000Y-58928000D01*
X161798000Y-57734845D01*
X162052000Y-57734845D01*
X162052000Y-58928000D01*
X163245819Y-58928000D01*
X163366486Y-58698108D01*
X163199900Y-58343387D01*
X184260492Y-58343387D01*
X185061100Y-59143995D01*
X185861708Y-58343387D01*
X185792243Y-58101203D01*
X185268798Y-57914456D01*
X184713732Y-57942238D01*
X184329957Y-58101203D01*
X184260492Y-58343387D01*
X163199900Y-58343387D01*
X163120183Y-58173642D01*
X162691924Y-57783355D01*
X162281890Y-57613524D01*
X162052000Y-57734845D01*
X161798000Y-57734845D01*
X161568110Y-57613524D01*
X161158076Y-57783355D01*
X160729817Y-58173642D01*
X160662702Y-58316553D01*
X160435054Y-57975853D01*
X159953285Y-57653946D01*
X159385000Y-57540907D01*
X158816715Y-57653946D01*
X158334946Y-57975853D01*
X158307150Y-58017452D01*
X158298162Y-57969683D01*
X158159090Y-57753559D01*
X157946890Y-57608569D01*
X157695000Y-57557560D01*
X155995000Y-57557560D01*
X155759683Y-57601838D01*
X155543559Y-57740910D01*
X155398569Y-57953110D01*
X155347560Y-58205000D01*
X153428843Y-58205000D01*
X152995657Y-57771058D01*
X152027533Y-57369058D01*
X150979266Y-57368143D01*
X150010442Y-57768453D01*
X149268558Y-58509043D01*
X148866558Y-59477167D01*
X148865643Y-60525434D01*
X148580735Y-60525434D01*
X148590000Y-57023352D01*
X194310000Y-57149650D01*
X194310000Y-57149650D01*
G37*
X194310000Y-57149650D02*
X194310000Y-65134166D01*
X194201313Y-65102992D01*
X193400705Y-65903600D01*
X194201313Y-66704208D01*
X194310000Y-66673034D01*
X194310000Y-67557019D01*
X194013470Y-67259971D01*
X193821373Y-67180205D01*
X193952243Y-67125997D01*
X194021708Y-66883813D01*
X193221100Y-66083205D01*
X192420492Y-66883813D01*
X192489957Y-67125997D01*
X192630418Y-67176109D01*
X192430797Y-67258590D01*
X192037471Y-67651230D01*
X191951151Y-67859112D01*
X191866110Y-67653297D01*
X191473470Y-67259971D01*
X191265588Y-67173651D01*
X191471403Y-67088610D01*
X191864729Y-66695970D01*
X191944495Y-66503873D01*
X191998703Y-66634743D01*
X192240887Y-66704208D01*
X193041495Y-65903600D01*
X192240887Y-65102992D01*
X191998703Y-65172457D01*
X191948591Y-65312918D01*
X191866110Y-65113297D01*
X191676532Y-64923387D01*
X192420492Y-64923387D01*
X193221100Y-65723995D01*
X194021708Y-64923387D01*
X193952243Y-64681203D01*
X193428798Y-64494456D01*
X192873732Y-64522238D01*
X192489957Y-64681203D01*
X192420492Y-64923387D01*
X191676532Y-64923387D01*
X191473470Y-64719971D01*
X190960200Y-64506843D01*
X190404439Y-64506358D01*
X189890797Y-64718590D01*
X189497471Y-65111230D01*
X189284343Y-65624500D01*
X189283858Y-66180261D01*
X189496090Y-66693903D01*
X189888730Y-67087229D01*
X190096612Y-67173549D01*
X189890797Y-67258590D01*
X189497471Y-67651230D01*
X189284343Y-68164500D01*
X189283858Y-68720261D01*
X189496090Y-69233903D01*
X189888730Y-69627229D01*
X190096612Y-69713549D01*
X189890797Y-69798590D01*
X189497471Y-70191230D01*
X189284343Y-70704500D01*
X189284242Y-70820047D01*
X189044833Y-70819838D01*
X188701057Y-70961883D01*
X188437808Y-71224673D01*
X188295162Y-71568201D01*
X188294838Y-71940167D01*
X188436883Y-72283943D01*
X188470000Y-72317118D01*
X188470000Y-72754109D01*
X188206358Y-72464817D01*
X187681892Y-72218514D01*
X187452000Y-72339181D01*
X187452000Y-73533000D01*
X187472000Y-73533000D01*
X187472000Y-73787000D01*
X187452000Y-73787000D01*
X187452000Y-73807000D01*
X187198000Y-73807000D01*
X187198000Y-73787000D01*
X186004845Y-73787000D01*
X185883524Y-74016890D01*
X186053355Y-74426924D01*
X186443642Y-74855183D01*
X186586553Y-74922298D01*
X186245853Y-75149946D01*
X185923946Y-75631715D01*
X185865089Y-75927609D01*
X185738794Y-75875167D01*
X185622307Y-75875065D01*
X185593407Y-75855755D01*
X185293000Y-75796000D01*
X182817831Y-75796000D01*
X182789507Y-75767626D01*
X182436794Y-75621167D01*
X182054882Y-75620833D01*
X181701914Y-75766677D01*
X181431626Y-76036493D01*
X181285167Y-76389206D01*
X181284833Y-76771118D01*
X181430677Y-77124086D01*
X181700493Y-77394374D01*
X182053206Y-77540833D01*
X182435118Y-77541167D01*
X182788086Y-77395323D01*
X182817460Y-77366000D01*
X184727683Y-77366000D01*
X184732677Y-77378086D01*
X185002493Y-77648374D01*
X185355206Y-77794833D01*
X185737118Y-77795167D01*
X186090086Y-77649323D01*
X186360374Y-77379507D01*
X186377580Y-77338071D01*
X186575026Y-77470000D01*
X186245853Y-77689946D01*
X185923946Y-78171715D01*
X185810907Y-78740000D01*
X185923946Y-79308285D01*
X186245853Y-79790054D01*
X186287452Y-79817850D01*
X186239683Y-79826838D01*
X186023559Y-79965910D01*
X185878569Y-80178110D01*
X185827560Y-80430000D01*
X185827560Y-82130000D01*
X185871838Y-82365317D01*
X186010910Y-82581441D01*
X186209836Y-82717362D01*
X185613198Y-83314000D01*
X184077463Y-83314000D01*
X184045327Y-83281808D01*
X183701799Y-83139162D01*
X183654923Y-83139121D01*
X181512401Y-80996599D01*
X181265839Y-80831852D01*
X181042957Y-80787518D01*
X180997327Y-80741808D01*
X180653799Y-80599162D01*
X180281833Y-80598838D01*
X179972467Y-80726665D01*
X179878122Y-80632320D01*
X179878162Y-80586833D01*
X179743944Y-80262000D01*
X181803198Y-80262000D01*
X182452878Y-80911680D01*
X182452838Y-80957167D01*
X182594883Y-81300943D01*
X182857673Y-81564192D01*
X183201201Y-81706838D01*
X183573167Y-81707162D01*
X183916943Y-81565117D01*
X184180192Y-81302327D01*
X184322838Y-80958799D01*
X184323162Y-80586833D01*
X184181117Y-80243057D01*
X183918327Y-79979808D01*
X183574799Y-79837162D01*
X183527923Y-79837121D01*
X182655401Y-78964599D01*
X182408839Y-78799852D01*
X182118000Y-78742000D01*
X161344463Y-78742000D01*
X161312327Y-78709808D01*
X160968799Y-78567162D01*
X160596833Y-78566838D01*
X160253057Y-78708883D01*
X159989808Y-78971673D01*
X159847162Y-79315201D01*
X159846838Y-79687167D01*
X159988883Y-80030943D01*
X160251673Y-80294192D01*
X160595201Y-80436838D01*
X160967167Y-80437162D01*
X161310943Y-80295117D01*
X161344118Y-80262000D01*
X178142367Y-80262000D01*
X178008162Y-80585201D01*
X178007864Y-80927669D01*
X177822327Y-80741808D01*
X177478799Y-80599162D01*
X177106833Y-80598838D01*
X176763057Y-80740883D01*
X176729882Y-80774000D01*
X173790463Y-80774000D01*
X173758327Y-80741808D01*
X173414799Y-80599162D01*
X173042833Y-80598838D01*
X172699057Y-80740883D01*
X172435808Y-81003673D01*
X172293162Y-81347201D01*
X172292838Y-81719167D01*
X172374581Y-81917000D01*
X170748802Y-81917000D01*
X170353122Y-81521320D01*
X170353162Y-81475833D01*
X170211117Y-81132057D01*
X169948327Y-80868808D01*
X169604799Y-80726162D01*
X169232833Y-80725838D01*
X168889057Y-80867883D01*
X168625808Y-81130673D01*
X168483162Y-81474201D01*
X168482838Y-81846167D01*
X168624883Y-82189943D01*
X168887673Y-82453192D01*
X169231201Y-82595838D01*
X169278077Y-82595879D01*
X169896599Y-83214401D01*
X170143161Y-83379148D01*
X170434000Y-83437000D01*
X178643112Y-83437000D01*
X178642838Y-83751167D01*
X178784883Y-84094943D01*
X178818000Y-84128118D01*
X178818000Y-84394198D01*
X178120198Y-85092000D01*
X167784103Y-85092000D01*
X167812838Y-85022799D01*
X167813162Y-84650833D01*
X167671117Y-84307057D01*
X167638000Y-84273882D01*
X167638000Y-81842463D01*
X167670192Y-81810327D01*
X167812838Y-81466799D01*
X167813162Y-81094833D01*
X167671117Y-80751057D01*
X167408327Y-80487808D01*
X167064799Y-80345162D01*
X166692833Y-80344838D01*
X166349057Y-80486883D01*
X166085808Y-80749673D01*
X165943162Y-81093201D01*
X165942838Y-81465167D01*
X166084883Y-81808943D01*
X166118000Y-81842118D01*
X166118000Y-84273537D01*
X166085808Y-84305673D01*
X165943162Y-84649201D01*
X165942929Y-84916849D01*
X165930833Y-84916838D01*
X165587057Y-85058883D01*
X165323808Y-85321673D01*
X165181162Y-85665201D01*
X165180838Y-86037167D01*
X165322883Y-86380943D01*
X165585673Y-86644192D01*
X165929201Y-86786838D01*
X166006515Y-86786905D01*
X166006338Y-86989667D01*
X166148383Y-87333443D01*
X166411173Y-87596692D01*
X166754701Y-87739338D01*
X166801577Y-87739379D01*
X167102599Y-88040401D01*
X167349161Y-88205148D01*
X167640000Y-88263000D01*
X180793537Y-88263000D01*
X180825673Y-88295192D01*
X181169201Y-88437838D01*
X181541167Y-88438162D01*
X181739000Y-88356419D01*
X181739000Y-89734537D01*
X181706808Y-89766673D01*
X181564162Y-90110201D01*
X181563838Y-90482167D01*
X181705883Y-90825943D01*
X181968673Y-91089192D01*
X182312201Y-91231838D01*
X182684167Y-91232162D01*
X182755000Y-91202894D01*
X182755000Y-91893537D01*
X182722808Y-91925673D01*
X182580162Y-92269201D01*
X182579838Y-92641167D01*
X182721883Y-92984943D01*
X182755000Y-93018118D01*
X182755000Y-94701403D01*
X182732057Y-94710883D01*
X182468808Y-94973673D01*
X182326162Y-95317201D01*
X182325838Y-95689167D01*
X182467883Y-96032943D01*
X182730673Y-96296192D01*
X183074201Y-96438838D01*
X183121077Y-96438879D01*
X183603199Y-96921001D01*
X183849760Y-97085748D01*
X184140600Y-97143600D01*
X189483569Y-97143600D01*
X189496090Y-97173903D01*
X189888730Y-97567229D01*
X190402000Y-97780357D01*
X190957761Y-97780842D01*
X191471403Y-97568610D01*
X191864729Y-97175970D01*
X191951049Y-96968088D01*
X192036090Y-97173903D01*
X192428730Y-97567229D01*
X192942000Y-97780357D01*
X193497761Y-97780842D01*
X194011403Y-97568610D01*
X194310000Y-97270534D01*
X194310000Y-104902000D01*
X185218084Y-104902000D01*
X185295000Y-104716309D01*
X185295000Y-102525434D01*
X188865643Y-102525434D01*
X189265953Y-103494258D01*
X190006543Y-104236142D01*
X190974667Y-104638142D01*
X192022934Y-104639057D01*
X192991758Y-104238747D01*
X193733642Y-103498157D01*
X194135642Y-102530033D01*
X194136557Y-101481766D01*
X193736247Y-100512942D01*
X192995657Y-99771058D01*
X192027533Y-99369058D01*
X190979266Y-99368143D01*
X190010442Y-99768453D01*
X189268558Y-100509043D01*
X188866558Y-101477167D01*
X188865643Y-102525434D01*
X185295000Y-102525434D01*
X185295000Y-102335750D01*
X185136250Y-102177000D01*
X183577000Y-102177000D01*
X183577000Y-102197000D01*
X183323000Y-102197000D01*
X183323000Y-102177000D01*
X181763750Y-102177000D01*
X181605000Y-102335750D01*
X181605000Y-104716309D01*
X181681916Y-104902000D01*
X176458084Y-104902000D01*
X176535000Y-104716309D01*
X176535000Y-102335750D01*
X176376250Y-102177000D01*
X174817000Y-102177000D01*
X174817000Y-102197000D01*
X174563000Y-102197000D01*
X174563000Y-102177000D01*
X173003750Y-102177000D01*
X172845000Y-102335750D01*
X172845000Y-104716309D01*
X172921916Y-104902000D01*
X148463337Y-104902000D01*
X148469624Y-102525434D01*
X148865643Y-102525434D01*
X149265953Y-103494258D01*
X150006543Y-104236142D01*
X150974667Y-104638142D01*
X152022934Y-104639057D01*
X152991758Y-104238747D01*
X153733642Y-103498157D01*
X154135642Y-102530033D01*
X154136557Y-101481766D01*
X153736247Y-100512942D01*
X152995657Y-99771058D01*
X152062774Y-99383691D01*
X172845000Y-99383691D01*
X172845000Y-101764250D01*
X173003750Y-101923000D01*
X174563000Y-101923000D01*
X174563000Y-101903000D01*
X174817000Y-101903000D01*
X174817000Y-101923000D01*
X176376250Y-101923000D01*
X176535000Y-101764250D01*
X176535000Y-99383691D01*
X181605000Y-99383691D01*
X181605000Y-101764250D01*
X181763750Y-101923000D01*
X183323000Y-101923000D01*
X183323000Y-101903000D01*
X183577000Y-101903000D01*
X183577000Y-101923000D01*
X185136250Y-101923000D01*
X185295000Y-101764250D01*
X185295000Y-99383691D01*
X185198327Y-99150302D01*
X185019699Y-98971673D01*
X184786310Y-98875000D01*
X184542129Y-98875000D01*
X184583149Y-98751436D01*
X184551018Y-98307032D01*
X184442768Y-98045692D01*
X184229200Y-98010405D01*
X184101315Y-98138290D01*
X184039699Y-98076673D01*
X183872838Y-98007557D01*
X184049595Y-97830800D01*
X184014308Y-97617232D01*
X183591436Y-97476851D01*
X183147032Y-97508982D01*
X182885692Y-97617232D01*
X182850405Y-97830800D01*
X183027162Y-98007557D01*
X182860301Y-98076673D01*
X182798685Y-98138290D01*
X182670800Y-98010405D01*
X182457232Y-98045692D01*
X182316851Y-98468564D01*
X182346237Y-98875000D01*
X182113690Y-98875000D01*
X181880301Y-98971673D01*
X181701673Y-99150302D01*
X181605000Y-99383691D01*
X176535000Y-99383691D01*
X176438327Y-99150302D01*
X176259699Y-98971673D01*
X176026310Y-98875000D01*
X175782129Y-98875000D01*
X175823149Y-98751436D01*
X175791018Y-98307032D01*
X175682768Y-98045692D01*
X175469200Y-98010405D01*
X175341315Y-98138290D01*
X175279699Y-98076673D01*
X175112838Y-98007557D01*
X175289595Y-97830800D01*
X175254308Y-97617232D01*
X174831436Y-97476851D01*
X174387032Y-97508982D01*
X174125692Y-97617232D01*
X174090405Y-97830800D01*
X174267162Y-98007557D01*
X174100301Y-98076673D01*
X174038685Y-98138290D01*
X173910800Y-98010405D01*
X173697232Y-98045692D01*
X173556851Y-98468564D01*
X173586237Y-98875000D01*
X173353690Y-98875000D01*
X173120301Y-98971673D01*
X172941673Y-99150302D01*
X172845000Y-99383691D01*
X152062774Y-99383691D01*
X152027533Y-99369058D01*
X150979266Y-99368143D01*
X150010442Y-99768453D01*
X149268558Y-100509043D01*
X148866558Y-101477167D01*
X148865643Y-102525434D01*
X148469624Y-102525434D01*
X148552336Y-71260261D01*
X148643858Y-71260261D01*
X148856090Y-71773903D01*
X149248730Y-72167229D01*
X149456612Y-72253549D01*
X149250797Y-72338590D01*
X148857471Y-72731230D01*
X148644343Y-73244500D01*
X148643858Y-73800261D01*
X148856090Y-74313903D01*
X149248730Y-74707229D01*
X149456612Y-74793549D01*
X149250797Y-74878590D01*
X148857471Y-75271230D01*
X148644343Y-75784500D01*
X148643858Y-76340261D01*
X148856090Y-76853903D01*
X149248730Y-77247229D01*
X149456612Y-77333549D01*
X149250797Y-77418590D01*
X148857471Y-77811230D01*
X148644343Y-78324500D01*
X148643858Y-78880261D01*
X148856090Y-79393903D01*
X149248730Y-79787229D01*
X149456612Y-79873549D01*
X149250797Y-79958590D01*
X148857471Y-80351230D01*
X148644343Y-80864500D01*
X148643858Y-81420261D01*
X148856090Y-81933903D01*
X149248730Y-82327229D01*
X149456612Y-82413549D01*
X149250797Y-82498590D01*
X148857471Y-82891230D01*
X148644343Y-83404500D01*
X148643858Y-83960261D01*
X148856090Y-84473903D01*
X149248730Y-84867229D01*
X149456612Y-84953549D01*
X149250797Y-85038590D01*
X148857471Y-85431230D01*
X148644343Y-85944500D01*
X148643858Y-86500261D01*
X148856090Y-87013903D01*
X149248730Y-87407229D01*
X149456612Y-87493549D01*
X149250797Y-87578590D01*
X148857471Y-87971230D01*
X148644343Y-88484500D01*
X148643858Y-89040261D01*
X148856090Y-89553903D01*
X149248730Y-89947229D01*
X149456612Y-90033549D01*
X149250797Y-90118590D01*
X148857471Y-90511230D01*
X148644343Y-91024500D01*
X148643858Y-91580261D01*
X148856090Y-92093903D01*
X149248730Y-92487229D01*
X149456612Y-92573549D01*
X149250797Y-92658590D01*
X148857471Y-93051230D01*
X148644343Y-93564500D01*
X148643858Y-94120261D01*
X148856090Y-94633903D01*
X149248730Y-95027229D01*
X149456612Y-95113549D01*
X149250797Y-95198590D01*
X148857471Y-95591230D01*
X148644343Y-96104500D01*
X148643858Y-96660261D01*
X148856090Y-97173903D01*
X149248730Y-97567229D01*
X149762000Y-97780357D01*
X150317761Y-97780842D01*
X150831403Y-97568610D01*
X151224729Y-97175970D01*
X151437857Y-96662700D01*
X151438342Y-96106939D01*
X151226110Y-95593297D01*
X150833470Y-95199971D01*
X150625588Y-95113651D01*
X150831403Y-95028610D01*
X151224729Y-94635970D01*
X151437857Y-94122700D01*
X151438342Y-93566939D01*
X151226110Y-93053297D01*
X150833470Y-92659971D01*
X150625588Y-92573651D01*
X150831403Y-92488610D01*
X151224729Y-92095970D01*
X151437857Y-91582700D01*
X151438342Y-91026939D01*
X151226110Y-90513297D01*
X150833470Y-90119971D01*
X150625588Y-90033651D01*
X150831403Y-89948610D01*
X151224729Y-89555970D01*
X151437857Y-89042700D01*
X151438342Y-88486939D01*
X151226110Y-87973297D01*
X150833470Y-87579971D01*
X150625588Y-87493651D01*
X150831403Y-87408610D01*
X151224729Y-87015970D01*
X151437857Y-86502700D01*
X151438342Y-85946939D01*
X151226110Y-85433297D01*
X150833470Y-85039971D01*
X150625588Y-84953651D01*
X150831403Y-84868610D01*
X151224729Y-84475970D01*
X151437857Y-83962700D01*
X151438342Y-83406939D01*
X151226110Y-82893297D01*
X150833470Y-82499971D01*
X150625588Y-82413651D01*
X150831403Y-82328610D01*
X151224729Y-81935970D01*
X151437857Y-81422700D01*
X151438342Y-80866939D01*
X151226110Y-80353297D01*
X150833470Y-79959971D01*
X150625588Y-79873651D01*
X150831403Y-79788610D01*
X151224729Y-79395970D01*
X151437857Y-78882700D01*
X151438342Y-78326939D01*
X151346639Y-78105000D01*
X152790907Y-78105000D01*
X152903946Y-78673285D01*
X153225853Y-79155054D01*
X153267452Y-79182850D01*
X153219683Y-79191838D01*
X153003559Y-79330910D01*
X152858569Y-79543110D01*
X152807560Y-79795000D01*
X152807560Y-81495000D01*
X152851838Y-81730317D01*
X152990910Y-81946441D01*
X153203110Y-82091431D01*
X153455000Y-82142440D01*
X155155000Y-82142440D01*
X155390317Y-82098162D01*
X155606441Y-81959090D01*
X155751431Y-81746890D01*
X155802440Y-81495000D01*
X155802440Y-79795000D01*
X155758162Y-79559683D01*
X155619090Y-79343559D01*
X155406890Y-79198569D01*
X155339459Y-79184914D01*
X155384147Y-79155054D01*
X155706054Y-78673285D01*
X155819093Y-78105000D01*
X155706054Y-77536715D01*
X155384147Y-77054946D01*
X155043447Y-76827298D01*
X155186358Y-76760183D01*
X155407871Y-76517118D01*
X156773833Y-76517118D01*
X156919677Y-76870086D01*
X157189493Y-77140374D01*
X157542206Y-77286833D01*
X157924118Y-77287167D01*
X158277086Y-77141323D01*
X158306460Y-77112000D01*
X178579208Y-77112000D01*
X178636677Y-77251086D01*
X178906493Y-77521374D01*
X179259206Y-77667833D01*
X179641118Y-77668167D01*
X179994086Y-77522323D01*
X180264374Y-77252507D01*
X180410833Y-76899794D01*
X180411167Y-76517882D01*
X180265323Y-76164914D01*
X179995507Y-75894626D01*
X179642794Y-75748167D01*
X179589459Y-75748120D01*
X179370407Y-75601755D01*
X179070000Y-75542000D01*
X158306831Y-75542000D01*
X158278507Y-75513626D01*
X157925794Y-75367167D01*
X157543882Y-75366833D01*
X157190914Y-75512677D01*
X156920626Y-75782493D01*
X156774167Y-76135206D01*
X156773833Y-76517118D01*
X155407871Y-76517118D01*
X155576645Y-76331924D01*
X155746476Y-75921890D01*
X155625155Y-75692000D01*
X154432000Y-75692000D01*
X154432000Y-75712000D01*
X154178000Y-75712000D01*
X154178000Y-75692000D01*
X152984845Y-75692000D01*
X152863524Y-75921890D01*
X153033355Y-76331924D01*
X153423642Y-76760183D01*
X153566553Y-76827298D01*
X153225853Y-77054946D01*
X152903946Y-77536715D01*
X152790907Y-78105000D01*
X151346639Y-78105000D01*
X151226110Y-77813297D01*
X150833470Y-77419971D01*
X150625588Y-77333651D01*
X150831403Y-77248610D01*
X151224729Y-76855970D01*
X151437857Y-76342700D01*
X151438342Y-75786939D01*
X151226110Y-75273297D01*
X151161037Y-75208110D01*
X152863524Y-75208110D01*
X152984845Y-75438000D01*
X154178000Y-75438000D01*
X154178000Y-74244181D01*
X154432000Y-74244181D01*
X154432000Y-75438000D01*
X155625155Y-75438000D01*
X155746476Y-75208110D01*
X155576645Y-74798076D01*
X155186358Y-74369817D01*
X154661892Y-74123514D01*
X154432000Y-74244181D01*
X154178000Y-74244181D01*
X153948108Y-74123514D01*
X153423642Y-74369817D01*
X153033355Y-74798076D01*
X152863524Y-75208110D01*
X151161037Y-75208110D01*
X150833470Y-74879971D01*
X150625588Y-74793651D01*
X150831403Y-74708610D01*
X151224729Y-74315970D01*
X151437857Y-73802700D01*
X151438342Y-73246939D01*
X151226110Y-72733297D01*
X150833470Y-72339971D01*
X150625588Y-72253651D01*
X150831403Y-72168610D01*
X151224729Y-71775970D01*
X151437857Y-71262700D01*
X151438342Y-70706939D01*
X151226110Y-70193297D01*
X150833470Y-69799971D01*
X150641373Y-69720205D01*
X150772243Y-69665997D01*
X150841708Y-69423813D01*
X150041100Y-68623205D01*
X149240492Y-69423813D01*
X149309957Y-69665997D01*
X149450418Y-69716109D01*
X149250797Y-69798590D01*
X148857471Y-70191230D01*
X148644343Y-70704500D01*
X148643858Y-71260261D01*
X148552336Y-71260261D01*
X148560337Y-68235902D01*
X148631956Y-68235902D01*
X148659738Y-68790968D01*
X148818703Y-69174743D01*
X149060887Y-69244208D01*
X149861495Y-68443600D01*
X150220705Y-68443600D01*
X151021313Y-69244208D01*
X151263497Y-69174743D01*
X151450244Y-68651298D01*
X151422462Y-68096232D01*
X151263497Y-67712457D01*
X151021313Y-67642992D01*
X150220705Y-68443600D01*
X149861495Y-68443600D01*
X149060887Y-67642992D01*
X148818703Y-67712457D01*
X148631956Y-68235902D01*
X148560337Y-68235902D01*
X148565775Y-66180261D01*
X148643858Y-66180261D01*
X148856090Y-66693903D01*
X149248730Y-67087229D01*
X149440827Y-67166995D01*
X149309957Y-67221203D01*
X149240492Y-67463387D01*
X150041100Y-68263995D01*
X150841708Y-67463387D01*
X150772243Y-67221203D01*
X150631782Y-67171091D01*
X150831403Y-67088610D01*
X151224729Y-66695970D01*
X151437857Y-66182700D01*
X151438342Y-65626939D01*
X151226110Y-65113297D01*
X150833470Y-64719971D01*
X150320200Y-64506843D01*
X149764439Y-64506358D01*
X149250797Y-64718590D01*
X148857471Y-65111230D01*
X148644343Y-65624500D01*
X148643858Y-66180261D01*
X148565775Y-66180261D01*
X148580735Y-60525434D01*
X148865643Y-60525434D01*
X149265953Y-61494258D01*
X150006543Y-62236142D01*
X150974667Y-62638142D01*
X152022934Y-62639057D01*
X152991758Y-62238747D01*
X153733642Y-61498157D01*
X154135642Y-60530033D01*
X154136557Y-59481766D01*
X153736247Y-58512942D01*
X153428843Y-58205000D01*
X155347560Y-58205000D01*
X155347560Y-59905000D01*
X155391838Y-60140317D01*
X155530910Y-60356441D01*
X155743110Y-60501431D01*
X155995000Y-60552440D01*
X156523402Y-60552440D01*
X155781921Y-61293921D01*
X155611755Y-61548593D01*
X155596676Y-61624401D01*
X155552000Y-61849000D01*
X155552000Y-73341169D01*
X155523626Y-73369493D01*
X155377167Y-73722206D01*
X155376833Y-74104118D01*
X155522677Y-74457086D01*
X155792493Y-74727374D01*
X156145206Y-74873833D01*
X156527118Y-74874167D01*
X156880086Y-74728323D01*
X157150374Y-74458507D01*
X157296833Y-74105794D01*
X157297167Y-73723882D01*
X157151323Y-73370914D01*
X157122000Y-73341540D01*
X157122000Y-71921000D01*
X157379560Y-71921000D01*
X157379560Y-73621000D01*
X157423838Y-73856317D01*
X157562910Y-74072441D01*
X157775110Y-74217431D01*
X158027000Y-74268440D01*
X159727000Y-74268440D01*
X159962317Y-74224162D01*
X160178441Y-74085090D01*
X160323431Y-73872890D01*
X160374440Y-73621000D01*
X160374440Y-73303110D01*
X185883524Y-73303110D01*
X186004845Y-73533000D01*
X187198000Y-73533000D01*
X187198000Y-72339181D01*
X186968108Y-72218514D01*
X186443642Y-72464817D01*
X186053355Y-72893076D01*
X185883524Y-73303110D01*
X160374440Y-73303110D01*
X160374440Y-71921000D01*
X160330162Y-71685683D01*
X160191090Y-71469559D01*
X160136365Y-71432167D01*
X164037838Y-71432167D01*
X164179883Y-71775943D01*
X164442673Y-72039192D01*
X164786201Y-72181838D01*
X165158167Y-72182162D01*
X165501943Y-72040117D01*
X165765192Y-71777327D01*
X165775294Y-71753000D01*
X178634537Y-71753000D01*
X178666673Y-71785192D01*
X179010201Y-71927838D01*
X179382167Y-71928162D01*
X179725943Y-71786117D01*
X179989192Y-71523327D01*
X180131838Y-71179799D01*
X180132162Y-70807833D01*
X180084000Y-70691272D01*
X180084000Y-67872463D01*
X180116192Y-67840327D01*
X180258838Y-67496799D01*
X180259162Y-67124833D01*
X180117117Y-66781057D01*
X179854327Y-66517808D01*
X179510799Y-66375162D01*
X179138833Y-66374838D01*
X178795057Y-66516883D01*
X178531808Y-66779673D01*
X178389162Y-67123201D01*
X178388838Y-67495167D01*
X178530883Y-67838943D01*
X178564000Y-67872118D01*
X178564000Y-70233000D01*
X165227000Y-70233000D01*
X164936160Y-70290852D01*
X164904600Y-70311940D01*
X164787833Y-70311838D01*
X164444057Y-70453883D01*
X164180808Y-70716673D01*
X164038162Y-71060201D01*
X164037838Y-71432167D01*
X160136365Y-71432167D01*
X159978890Y-71324569D01*
X159727000Y-71273560D01*
X158027000Y-71273560D01*
X157791683Y-71317838D01*
X157575559Y-71456910D01*
X157430569Y-71669110D01*
X157379560Y-71921000D01*
X157122000Y-71921000D01*
X157122000Y-62174158D01*
X158658991Y-60637167D01*
X166196838Y-60637167D01*
X166338883Y-60980943D01*
X166601673Y-61244192D01*
X166945201Y-61386838D01*
X166992077Y-61386879D01*
X167007000Y-61401802D01*
X167007000Y-65604537D01*
X166974808Y-65636673D01*
X166832162Y-65980201D01*
X166831838Y-66352167D01*
X166973883Y-66695943D01*
X167143099Y-66865454D01*
X167101808Y-66906673D01*
X166959162Y-67250201D01*
X166958838Y-67622167D01*
X167100883Y-67965943D01*
X167363673Y-68229192D01*
X167707201Y-68371838D01*
X168079167Y-68372162D01*
X168422943Y-68230117D01*
X168686192Y-67967327D01*
X168828838Y-67623799D01*
X168828879Y-67576923D01*
X168939401Y-67466401D01*
X169042071Y-67312744D01*
X169089897Y-67241167D01*
X173054838Y-67241167D01*
X173196883Y-67584943D01*
X173243771Y-67631913D01*
X173264755Y-67737407D01*
X173434921Y-67992079D01*
X174197847Y-68755005D01*
X174197838Y-68765167D01*
X174339883Y-69108943D01*
X174602673Y-69372192D01*
X174946201Y-69514838D01*
X175318167Y-69515162D01*
X175661943Y-69373117D01*
X175925192Y-69110327D01*
X176067838Y-68766799D01*
X176068162Y-68394833D01*
X175926117Y-68051057D01*
X175663327Y-67787808D01*
X175319799Y-67645162D01*
X175308310Y-67645152D01*
X174919298Y-67256140D01*
X174924838Y-67242799D01*
X174925162Y-66870833D01*
X174783117Y-66527057D01*
X174520327Y-66263808D01*
X174176799Y-66121162D01*
X173804833Y-66120838D01*
X173461057Y-66262883D01*
X173197808Y-66525673D01*
X173055162Y-66869201D01*
X173054838Y-67241167D01*
X169089897Y-67241167D01*
X169104148Y-67219839D01*
X169162000Y-66929000D01*
X169162000Y-63371000D01*
X176403000Y-63371000D01*
X176693839Y-63313148D01*
X176940401Y-63148401D01*
X177431680Y-62657122D01*
X177477167Y-62657162D01*
X177820943Y-62515117D01*
X178084192Y-62252327D01*
X178226838Y-61908799D01*
X178227162Y-61536833D01*
X178085117Y-61193057D01*
X177822327Y-60929808D01*
X177478799Y-60787162D01*
X177106833Y-60786838D01*
X176763057Y-60928883D01*
X176499808Y-61191673D01*
X176357162Y-61535201D01*
X176357121Y-61582077D01*
X176088198Y-61851000D01*
X168529000Y-61851000D01*
X168527000Y-61851398D01*
X168527000Y-61087000D01*
X168469148Y-60796161D01*
X168304401Y-60549599D01*
X168067122Y-60312320D01*
X168067162Y-60266833D01*
X168062755Y-60256167D01*
X171784838Y-60256167D01*
X171926883Y-60599943D01*
X172189673Y-60863192D01*
X172533201Y-61005838D01*
X172905167Y-61006162D01*
X173248943Y-60864117D01*
X173409340Y-60704000D01*
X179898198Y-60704000D01*
X180547878Y-61353680D01*
X180547838Y-61399167D01*
X180689883Y-61742943D01*
X180952673Y-62006192D01*
X181296201Y-62148838D01*
X181668167Y-62149162D01*
X181689709Y-62140261D01*
X183663858Y-62140261D01*
X183876090Y-62653903D01*
X184268730Y-63047229D01*
X184476612Y-63133549D01*
X184270797Y-63218590D01*
X183877471Y-63611230D01*
X183664343Y-64124500D01*
X183663858Y-64680261D01*
X183876090Y-65193903D01*
X184268730Y-65587229D01*
X184782000Y-65800357D01*
X185337761Y-65800842D01*
X185851403Y-65588610D01*
X186244729Y-65195970D01*
X186457857Y-64682700D01*
X186458342Y-64126939D01*
X186246110Y-63613297D01*
X185853470Y-63219971D01*
X185645588Y-63133651D01*
X185851403Y-63048610D01*
X186244729Y-62655970D01*
X186457857Y-62142700D01*
X186458342Y-61586939D01*
X186246110Y-61073297D01*
X185853470Y-60679971D01*
X185661373Y-60600205D01*
X185792243Y-60545997D01*
X185798141Y-60525434D01*
X188865643Y-60525434D01*
X189265953Y-61494258D01*
X190006543Y-62236142D01*
X190974667Y-62638142D01*
X192022934Y-62639057D01*
X192991758Y-62238747D01*
X193733642Y-61498157D01*
X194135642Y-60530033D01*
X194136557Y-59481766D01*
X193736247Y-58512942D01*
X192995657Y-57771058D01*
X192027533Y-57369058D01*
X190979266Y-57368143D01*
X190010442Y-57768453D01*
X189268558Y-58509043D01*
X188866558Y-59477167D01*
X188865643Y-60525434D01*
X185798141Y-60525434D01*
X185861708Y-60303813D01*
X185061100Y-59503205D01*
X184260492Y-60303813D01*
X184329957Y-60545997D01*
X184470418Y-60596109D01*
X184270797Y-60678590D01*
X183877471Y-61071230D01*
X183664343Y-61584500D01*
X183663858Y-62140261D01*
X181689709Y-62140261D01*
X182011943Y-62007117D01*
X182275192Y-61744327D01*
X182417838Y-61400799D01*
X182418162Y-61028833D01*
X182276117Y-60685057D01*
X182013327Y-60421808D01*
X181669799Y-60279162D01*
X181622923Y-60279121D01*
X180750401Y-59406599D01*
X180503839Y-59241852D01*
X180213000Y-59184000D01*
X173022005Y-59184000D01*
X172906799Y-59136162D01*
X172534833Y-59135838D01*
X172191057Y-59277883D01*
X171927808Y-59540673D01*
X171785162Y-59884201D01*
X171784838Y-60256167D01*
X168062755Y-60256167D01*
X167925117Y-59923057D01*
X167662327Y-59659808D01*
X167318799Y-59517162D01*
X166946833Y-59516838D01*
X166603057Y-59658883D01*
X166339808Y-59921673D01*
X166197162Y-60265201D01*
X166196838Y-60637167D01*
X158658991Y-60637167D01*
X158836224Y-60459934D01*
X159385000Y-60569093D01*
X159953285Y-60456054D01*
X160435054Y-60134147D01*
X160662702Y-59793447D01*
X160729817Y-59936358D01*
X161158076Y-60326645D01*
X161568110Y-60496476D01*
X161798000Y-60375155D01*
X161798000Y-59182000D01*
X162052000Y-59182000D01*
X162052000Y-60375155D01*
X162281890Y-60496476D01*
X162691924Y-60326645D01*
X163120183Y-59936358D01*
X163366486Y-59411892D01*
X163245819Y-59182000D01*
X162052000Y-59182000D01*
X161798000Y-59182000D01*
X161778000Y-59182000D01*
X161778000Y-59115902D01*
X183651956Y-59115902D01*
X183679738Y-59670968D01*
X183838703Y-60054743D01*
X184080887Y-60124208D01*
X184881495Y-59323600D01*
X185240705Y-59323600D01*
X186041313Y-60124208D01*
X186283497Y-60054743D01*
X186470244Y-59531298D01*
X186442462Y-58976232D01*
X186283497Y-58592457D01*
X186041313Y-58522992D01*
X185240705Y-59323600D01*
X184881495Y-59323600D01*
X184080887Y-58522992D01*
X183838703Y-58592457D01*
X183651956Y-59115902D01*
X161778000Y-59115902D01*
X161778000Y-58928000D01*
X161798000Y-58928000D01*
X161798000Y-57734845D01*
X162052000Y-57734845D01*
X162052000Y-58928000D01*
X163245819Y-58928000D01*
X163366486Y-58698108D01*
X163199900Y-58343387D01*
X184260492Y-58343387D01*
X185061100Y-59143995D01*
X185861708Y-58343387D01*
X185792243Y-58101203D01*
X185268798Y-57914456D01*
X184713732Y-57942238D01*
X184329957Y-58101203D01*
X184260492Y-58343387D01*
X163199900Y-58343387D01*
X163120183Y-58173642D01*
X162691924Y-57783355D01*
X162281890Y-57613524D01*
X162052000Y-57734845D01*
X161798000Y-57734845D01*
X161568110Y-57613524D01*
X161158076Y-57783355D01*
X160729817Y-58173642D01*
X160662702Y-58316553D01*
X160435054Y-57975853D01*
X159953285Y-57653946D01*
X159385000Y-57540907D01*
X158816715Y-57653946D01*
X158334946Y-57975853D01*
X158307150Y-58017452D01*
X158298162Y-57969683D01*
X158159090Y-57753559D01*
X157946890Y-57608569D01*
X157695000Y-57557560D01*
X155995000Y-57557560D01*
X155759683Y-57601838D01*
X155543559Y-57740910D01*
X155398569Y-57953110D01*
X155347560Y-58205000D01*
X153428843Y-58205000D01*
X152995657Y-57771058D01*
X152027533Y-57369058D01*
X150979266Y-57368143D01*
X150010442Y-57768453D01*
X149268558Y-58509043D01*
X148866558Y-59477167D01*
X148865643Y-60525434D01*
X148580735Y-60525434D01*
X148590000Y-57023352D01*
X194310000Y-57149650D01*
G36*
X189284343Y-85944500D02*
X189283858Y-86500261D01*
X189496090Y-87013903D01*
X189888730Y-87407229D01*
X190096612Y-87493549D01*
X189890797Y-87578590D01*
X189497471Y-87971230D01*
X189284343Y-88484500D01*
X189283858Y-89040261D01*
X189496090Y-89553903D01*
X189888730Y-89947229D01*
X190080827Y-90026995D01*
X189949957Y-90081203D01*
X189880492Y-90323387D01*
X190681100Y-91123995D01*
X191481708Y-90323387D01*
X191412243Y-90081203D01*
X191271782Y-90031091D01*
X191471403Y-89948610D01*
X191864729Y-89555970D01*
X191951049Y-89348088D01*
X192036090Y-89553903D01*
X192428730Y-89947229D01*
X192636612Y-90033549D01*
X192430797Y-90118590D01*
X192037471Y-90511230D01*
X191957705Y-90703327D01*
X191903497Y-90572457D01*
X191661313Y-90502992D01*
X190860705Y-91303600D01*
X190874848Y-91317743D01*
X190695243Y-91497348D01*
X190681100Y-91483205D01*
X190666958Y-91497348D01*
X190487353Y-91317743D01*
X190501495Y-91303600D01*
X189700887Y-90502992D01*
X189458703Y-90572457D01*
X189271956Y-91095902D01*
X189299738Y-91650968D01*
X189370996Y-91823000D01*
X188274802Y-91823000D01*
X186562122Y-90110320D01*
X186562162Y-90064833D01*
X186420117Y-89721057D01*
X186157327Y-89457808D01*
X185911903Y-89355899D01*
X186338401Y-88929401D01*
X186503148Y-88682839D01*
X186561000Y-88392000D01*
X186561000Y-86039802D01*
X186877802Y-85723000D01*
X189376318Y-85723000D01*
X189284343Y-85944500D01*
X189284343Y-85944500D01*
G37*
X189284343Y-85944500D02*
X189283858Y-86500261D01*
X189496090Y-87013903D01*
X189888730Y-87407229D01*
X190096612Y-87493549D01*
X189890797Y-87578590D01*
X189497471Y-87971230D01*
X189284343Y-88484500D01*
X189283858Y-89040261D01*
X189496090Y-89553903D01*
X189888730Y-89947229D01*
X190080827Y-90026995D01*
X189949957Y-90081203D01*
X189880492Y-90323387D01*
X190681100Y-91123995D01*
X191481708Y-90323387D01*
X191412243Y-90081203D01*
X191271782Y-90031091D01*
X191471403Y-89948610D01*
X191864729Y-89555970D01*
X191951049Y-89348088D01*
X192036090Y-89553903D01*
X192428730Y-89947229D01*
X192636612Y-90033549D01*
X192430797Y-90118590D01*
X192037471Y-90511230D01*
X191957705Y-90703327D01*
X191903497Y-90572457D01*
X191661313Y-90502992D01*
X190860705Y-91303600D01*
X190874848Y-91317743D01*
X190695243Y-91497348D01*
X190681100Y-91483205D01*
X190666958Y-91497348D01*
X190487353Y-91317743D01*
X190501495Y-91303600D01*
X189700887Y-90502992D01*
X189458703Y-90572457D01*
X189271956Y-91095902D01*
X189299738Y-91650968D01*
X189370996Y-91823000D01*
X188274802Y-91823000D01*
X186562122Y-90110320D01*
X186562162Y-90064833D01*
X186420117Y-89721057D01*
X186157327Y-89457808D01*
X185911903Y-89355899D01*
X186338401Y-88929401D01*
X186503148Y-88682839D01*
X186561000Y-88392000D01*
X186561000Y-86039802D01*
X186877802Y-85723000D01*
X189376318Y-85723000D01*
X189284343Y-85944500D01*
G36*
X194310000Y-85454166D02*
X194201313Y-85422992D01*
X193400705Y-86223600D01*
X194201313Y-87024208D01*
X194310000Y-86993034D01*
X194310000Y-87877019D01*
X194013470Y-87579971D01*
X193821373Y-87500205D01*
X193952243Y-87445997D01*
X194021708Y-87203813D01*
X193221100Y-86403205D01*
X192420492Y-87203813D01*
X192489957Y-87445997D01*
X192630418Y-87496109D01*
X192430797Y-87578590D01*
X192037471Y-87971230D01*
X191951151Y-88179112D01*
X191866110Y-87973297D01*
X191473470Y-87579971D01*
X191265588Y-87493651D01*
X191471403Y-87408610D01*
X191864729Y-87015970D01*
X191944495Y-86823873D01*
X191998703Y-86954743D01*
X192240887Y-87024208D01*
X193041495Y-86223600D01*
X193027353Y-86209458D01*
X193206958Y-86029853D01*
X193221100Y-86043995D01*
X194021708Y-85243387D01*
X193952243Y-85001203D01*
X193811782Y-84951091D01*
X194011403Y-84868610D01*
X194310000Y-84570534D01*
X194310000Y-85454166D01*
X194310000Y-85454166D01*
G37*
X194310000Y-85454166D02*
X194201313Y-85422992D01*
X193400705Y-86223600D01*
X194201313Y-87024208D01*
X194310000Y-86993034D01*
X194310000Y-87877019D01*
X194013470Y-87579971D01*
X193821373Y-87500205D01*
X193952243Y-87445997D01*
X194021708Y-87203813D01*
X193221100Y-86403205D01*
X192420492Y-87203813D01*
X192489957Y-87445997D01*
X192630418Y-87496109D01*
X192430797Y-87578590D01*
X192037471Y-87971230D01*
X191951151Y-88179112D01*
X191866110Y-87973297D01*
X191473470Y-87579971D01*
X191265588Y-87493651D01*
X191471403Y-87408610D01*
X191864729Y-87015970D01*
X191944495Y-86823873D01*
X191998703Y-86954743D01*
X192240887Y-87024208D01*
X193041495Y-86223600D01*
X193027353Y-86209458D01*
X193206958Y-86029853D01*
X193221100Y-86043995D01*
X194021708Y-85243387D01*
X193952243Y-85001203D01*
X193811782Y-84951091D01*
X194011403Y-84868610D01*
X194310000Y-84570534D01*
X194310000Y-85454166D01*
G36*
X192036090Y-79393903D02*
X192428730Y-79787229D01*
X192636612Y-79873549D01*
X192430797Y-79958590D01*
X192037471Y-80351230D01*
X191957705Y-80543327D01*
X191903497Y-80412457D01*
X191661313Y-80342992D01*
X190860705Y-81143600D01*
X191661313Y-81944208D01*
X191903497Y-81874743D01*
X191953609Y-81734282D01*
X192036090Y-81933903D01*
X192428730Y-82327229D01*
X192636612Y-82413549D01*
X192430797Y-82498590D01*
X192037471Y-82891230D01*
X191951151Y-83099112D01*
X191866110Y-82893297D01*
X191473470Y-82499971D01*
X191281373Y-82420205D01*
X191412243Y-82365997D01*
X191481708Y-82123813D01*
X190681100Y-81323205D01*
X190666958Y-81337348D01*
X190487353Y-81157743D01*
X190501495Y-81143600D01*
X190487353Y-81129458D01*
X190666958Y-80949853D01*
X190681100Y-80963995D01*
X191481708Y-80163387D01*
X191412243Y-79921203D01*
X191271782Y-79871091D01*
X191471403Y-79788610D01*
X191864729Y-79395970D01*
X191951049Y-79188088D01*
X192036090Y-79393903D01*
X192036090Y-79393903D01*
G37*
X192036090Y-79393903D02*
X192428730Y-79787229D01*
X192636612Y-79873549D01*
X192430797Y-79958590D01*
X192037471Y-80351230D01*
X191957705Y-80543327D01*
X191903497Y-80412457D01*
X191661313Y-80342992D01*
X190860705Y-81143600D01*
X191661313Y-81944208D01*
X191903497Y-81874743D01*
X191953609Y-81734282D01*
X192036090Y-81933903D01*
X192428730Y-82327229D01*
X192636612Y-82413549D01*
X192430797Y-82498590D01*
X192037471Y-82891230D01*
X191951151Y-83099112D01*
X191866110Y-82893297D01*
X191473470Y-82499971D01*
X191281373Y-82420205D01*
X191412243Y-82365997D01*
X191481708Y-82123813D01*
X190681100Y-81323205D01*
X190666958Y-81337348D01*
X190487353Y-81157743D01*
X190501495Y-81143600D01*
X190487353Y-81129458D01*
X190666958Y-80949853D01*
X190681100Y-80963995D01*
X191481708Y-80163387D01*
X191412243Y-79921203D01*
X191271782Y-79871091D01*
X191471403Y-79788610D01*
X191864729Y-79395970D01*
X191951049Y-79188088D01*
X192036090Y-79393903D01*
G36*
X192036090Y-71773903D02*
X192428730Y-72167229D01*
X192636612Y-72253549D01*
X192430797Y-72338590D01*
X192037471Y-72731230D01*
X191957705Y-72923327D01*
X191903497Y-72792457D01*
X191661313Y-72722992D01*
X190860705Y-73523600D01*
X191661313Y-74324208D01*
X191903497Y-74254743D01*
X191953609Y-74114282D01*
X192036090Y-74313903D01*
X192428730Y-74707229D01*
X192636612Y-74793549D01*
X192430797Y-74878590D01*
X192037471Y-75271230D01*
X191951151Y-75479112D01*
X191866110Y-75273297D01*
X191473470Y-74879971D01*
X191281373Y-74800205D01*
X191412243Y-74745997D01*
X191481708Y-74503813D01*
X190681100Y-73703205D01*
X190666958Y-73717348D01*
X190487353Y-73537743D01*
X190501495Y-73523600D01*
X190487353Y-73509458D01*
X190666958Y-73329853D01*
X190681100Y-73343995D01*
X191481708Y-72543387D01*
X191412243Y-72301203D01*
X191271782Y-72251091D01*
X191471403Y-72168610D01*
X191864729Y-71775970D01*
X191951049Y-71568088D01*
X192036090Y-71773903D01*
X192036090Y-71773903D01*
G37*
X192036090Y-71773903D02*
X192428730Y-72167229D01*
X192636612Y-72253549D01*
X192430797Y-72338590D01*
X192037471Y-72731230D01*
X191957705Y-72923327D01*
X191903497Y-72792457D01*
X191661313Y-72722992D01*
X190860705Y-73523600D01*
X191661313Y-74324208D01*
X191903497Y-74254743D01*
X191953609Y-74114282D01*
X192036090Y-74313903D01*
X192428730Y-74707229D01*
X192636612Y-74793549D01*
X192430797Y-74878590D01*
X192037471Y-75271230D01*
X191951151Y-75479112D01*
X191866110Y-75273297D01*
X191473470Y-74879971D01*
X191281373Y-74800205D01*
X191412243Y-74745997D01*
X191481708Y-74503813D01*
X190681100Y-73703205D01*
X190666958Y-73717348D01*
X190487353Y-73537743D01*
X190501495Y-73523600D01*
X190487353Y-73509458D01*
X190666958Y-73329853D01*
X190681100Y-73343995D01*
X191481708Y-72543387D01*
X191412243Y-72301203D01*
X191271782Y-72251091D01*
X191471403Y-72168610D01*
X191864729Y-71775970D01*
X191951049Y-71568088D01*
X192036090Y-71773903D01*
M02*
