G04 #@! TF.FileFunction,Copper,L1,Top,Signal*
%FSLAX46Y46*%
G04 Gerber Fmt 4.6, Leading zero omitted, Abs format (unit mm)*
G04 Created by KiCad (PCBNEW 4.0.7-e2-6376~61~ubuntu18.04.1) date Fri Jul  6 09:43:53 2018*
%MOMM*%
%LPD*%
G01*
G04 APERTURE LIST*
%ADD10C,0.100000*%
%ADD11C,0.300000*%
%ADD12R,1.800000X1.550000*%
%ADD13R,1.500000X1.250000*%
%ADD14R,1.250000X1.500000*%
%ADD15R,1.550000X1.800000*%
%ADD16R,1.700000X1.700000*%
%ADD17O,1.700000X1.700000*%
%ADD18R,2.290000X5.080000*%
%ADD19R,2.420000X5.080000*%
%ADD20C,0.970000*%
%ADD21R,0.460000X0.890000*%
%ADD22R,1.500000X1.300000*%
%ADD23R,1.300000X1.500000*%
%ADD24R,0.900000X0.800000*%
%ADD25R,0.800000X0.900000*%
%ADD26R,1.300000X1.300000*%
%ADD27R,1.300000X2.000000*%
%ADD28R,0.813000X0.305000*%
%ADD29R,0.305000X0.813000*%
%ADD30R,0.250000X0.700000*%
%ADD31R,0.700000X0.250000*%
%ADD32R,1.650000X1.650000*%
%ADD33R,1.700000X3.150000*%
%ADD34R,2.500000X1.300000*%
%ADD35R,2.550000X1.300000*%
%ADD36C,4.000000*%
%ADD37C,1.524000*%
%ADD38R,0.650000X1.560000*%
%ADD39C,0.600000*%
%ADD40C,0.650000*%
%ADD41C,0.250000*%
%ADD42C,0.360000*%
%ADD43C,0.254000*%
G04 APERTURE END LIST*
D10*
D11*
X155628332Y-102678000D02*
X155494998Y-102611333D01*
X155294998Y-102611333D01*
X155094998Y-102678000D01*
X154961665Y-102811333D01*
X154894998Y-102944667D01*
X154828332Y-103211333D01*
X154828332Y-103411333D01*
X154894998Y-103678000D01*
X154961665Y-103811333D01*
X155094998Y-103944667D01*
X155294998Y-104011333D01*
X155428332Y-104011333D01*
X155628332Y-103944667D01*
X155694998Y-103878000D01*
X155694998Y-103411333D01*
X155428332Y-103411333D01*
X156294998Y-104011333D02*
X156294998Y-103078000D01*
X156294998Y-102611333D02*
X156228332Y-102678000D01*
X156294998Y-102744667D01*
X156361665Y-102678000D01*
X156294998Y-102611333D01*
X156294998Y-102744667D01*
X157561665Y-103078000D02*
X157561665Y-104211333D01*
X157494999Y-104344667D01*
X157428332Y-104411333D01*
X157294999Y-104478000D01*
X157094999Y-104478000D01*
X156961665Y-104411333D01*
X157561665Y-103944667D02*
X157428332Y-104011333D01*
X157161665Y-104011333D01*
X157028332Y-103944667D01*
X156961665Y-103878000D01*
X156894999Y-103744667D01*
X156894999Y-103344667D01*
X156961665Y-103211333D01*
X157028332Y-103144667D01*
X157161665Y-103078000D01*
X157428332Y-103078000D01*
X157561665Y-103144667D01*
X158828332Y-104011333D02*
X158828332Y-103278000D01*
X158761666Y-103144667D01*
X158628332Y-103078000D01*
X158361666Y-103078000D01*
X158228332Y-103144667D01*
X158828332Y-103944667D02*
X158694999Y-104011333D01*
X158361666Y-104011333D01*
X158228332Y-103944667D01*
X158161666Y-103811333D01*
X158161666Y-103678000D01*
X158228332Y-103544667D01*
X158361666Y-103478000D01*
X158694999Y-103478000D01*
X158828332Y-103411333D01*
X160361666Y-102611333D02*
X161161666Y-102611333D01*
X160761666Y-104011333D02*
X160761666Y-102611333D01*
X162161667Y-103944667D02*
X162028333Y-104011333D01*
X161761667Y-104011333D01*
X161628333Y-103944667D01*
X161561667Y-103811333D01*
X161561667Y-103278000D01*
X161628333Y-103144667D01*
X161761667Y-103078000D01*
X162028333Y-103078000D01*
X162161667Y-103144667D01*
X162228333Y-103278000D01*
X162228333Y-103411333D01*
X161561667Y-103544667D01*
X163428333Y-103944667D02*
X163295000Y-104011333D01*
X163028333Y-104011333D01*
X162895000Y-103944667D01*
X162828333Y-103878000D01*
X162761667Y-103744667D01*
X162761667Y-103344667D01*
X162828333Y-103211333D01*
X162895000Y-103144667D01*
X163028333Y-103078000D01*
X163295000Y-103078000D01*
X163428333Y-103144667D01*
X164028333Y-104011333D02*
X164028333Y-102611333D01*
X164628333Y-104011333D02*
X164628333Y-103278000D01*
X164561667Y-103144667D01*
X164428333Y-103078000D01*
X164228333Y-103078000D01*
X164095000Y-103144667D01*
X164028333Y-103211333D01*
X165295000Y-103078000D02*
X165295000Y-104011333D01*
X165295000Y-103211333D02*
X165361667Y-103144667D01*
X165495000Y-103078000D01*
X165695000Y-103078000D01*
X165828334Y-103144667D01*
X165895000Y-103278000D01*
X165895000Y-104011333D01*
X166761667Y-104011333D02*
X166628334Y-103944667D01*
X166561667Y-103878000D01*
X166495001Y-103744667D01*
X166495001Y-103344667D01*
X166561667Y-103211333D01*
X166628334Y-103144667D01*
X166761667Y-103078000D01*
X166961667Y-103078000D01*
X167095001Y-103144667D01*
X167161667Y-103211333D01*
X167228334Y-103344667D01*
X167228334Y-103744667D01*
X167161667Y-103878000D01*
X167095001Y-103944667D01*
X166961667Y-104011333D01*
X166761667Y-104011333D01*
X168028334Y-104011333D02*
X167895001Y-103944667D01*
X167828334Y-103811333D01*
X167828334Y-102611333D01*
X168761667Y-104011333D02*
X168628334Y-103944667D01*
X168561667Y-103878000D01*
X168495001Y-103744667D01*
X168495001Y-103344667D01*
X168561667Y-103211333D01*
X168628334Y-103144667D01*
X168761667Y-103078000D01*
X168961667Y-103078000D01*
X169095001Y-103144667D01*
X169161667Y-103211333D01*
X169228334Y-103344667D01*
X169228334Y-103744667D01*
X169161667Y-103878000D01*
X169095001Y-103944667D01*
X168961667Y-104011333D01*
X168761667Y-104011333D01*
X170428334Y-103078000D02*
X170428334Y-104211333D01*
X170361668Y-104344667D01*
X170295001Y-104411333D01*
X170161668Y-104478000D01*
X169961668Y-104478000D01*
X169828334Y-104411333D01*
X170428334Y-103944667D02*
X170295001Y-104011333D01*
X170028334Y-104011333D01*
X169895001Y-103944667D01*
X169828334Y-103878000D01*
X169761668Y-103744667D01*
X169761668Y-103344667D01*
X169828334Y-103211333D01*
X169895001Y-103144667D01*
X170028334Y-103078000D01*
X170295001Y-103078000D01*
X170428334Y-103144667D01*
X170961668Y-103078000D02*
X171295001Y-104011333D01*
X171628335Y-103078000D02*
X171295001Y-104011333D01*
X171161668Y-104344667D01*
X171095001Y-104411333D01*
X170961668Y-104478000D01*
D12*
X177419000Y-91980000D03*
X177419000Y-89630000D03*
X176530000Y-72295000D03*
X176530000Y-69945000D03*
X174498000Y-61119000D03*
X174498000Y-58769000D03*
D13*
X178034000Y-83312000D03*
X175534000Y-83312000D03*
D14*
X156210000Y-67330000D03*
X156210000Y-69830000D03*
X161290000Y-67330000D03*
X161290000Y-69830000D03*
D13*
X156190000Y-72263000D03*
X153690000Y-72263000D03*
D14*
X156210000Y-64750000D03*
X156210000Y-62250000D03*
D13*
X175875000Y-85344000D03*
X173375000Y-85344000D03*
X173375000Y-87249000D03*
X175875000Y-87249000D03*
D14*
X161290000Y-64750000D03*
X161290000Y-62250000D03*
X165735000Y-64790000D03*
X165735000Y-67290000D03*
D15*
X176689000Y-74930000D03*
X174339000Y-74930000D03*
D14*
X180340000Y-64790000D03*
X180340000Y-67290000D03*
D12*
X177800000Y-67215000D03*
X177800000Y-64865000D03*
D14*
X172466000Y-89428000D03*
X172466000Y-91928000D03*
D15*
X181324000Y-74676000D03*
X183674000Y-74676000D03*
D13*
X169184000Y-74930000D03*
X171684000Y-74930000D03*
D14*
X170434000Y-88499000D03*
X170434000Y-85999000D03*
D15*
X164243000Y-73025000D03*
X161893000Y-73025000D03*
D14*
X168148000Y-83038000D03*
X168148000Y-80538000D03*
X160528000Y-91293000D03*
X160528000Y-88793000D03*
X153035000Y-83459000D03*
X153035000Y-85959000D03*
X175260000Y-64790000D03*
X175260000Y-67290000D03*
X155448000Y-83586000D03*
X155448000Y-86086000D03*
D13*
X155722000Y-88519000D03*
X158222000Y-88519000D03*
D14*
X187960000Y-89555000D03*
X187960000Y-92055000D03*
X180340000Y-92055000D03*
X180340000Y-89555000D03*
X155575000Y-98405000D03*
X155575000Y-95905000D03*
X163195000Y-98405000D03*
X163195000Y-95905000D03*
X171450000Y-98405000D03*
X171450000Y-95905000D03*
D16*
X156845000Y-59055000D03*
D17*
X159385000Y-59055000D03*
X161925000Y-59055000D03*
D16*
X158877000Y-72771000D03*
X154305000Y-80645000D03*
D17*
X154305000Y-78105000D03*
X154305000Y-75565000D03*
D16*
X187325000Y-81280000D03*
D17*
X187325000Y-78740000D03*
X187325000Y-76200000D03*
X187325000Y-73660000D03*
D18*
X179070000Y-102050000D03*
D19*
X174690000Y-102050000D03*
X183450000Y-102050000D03*
D20*
X174690000Y-98610000D03*
X183450000Y-98610000D03*
D21*
X174690000Y-99060000D03*
X183450000Y-99060000D03*
D13*
X178034000Y-81407000D03*
X175534000Y-81407000D03*
D22*
X173181000Y-83058000D03*
X170481000Y-83058000D03*
D14*
X173990000Y-72370000D03*
X173990000Y-69870000D03*
D22*
X165688000Y-88646000D03*
X162988000Y-88646000D03*
D14*
X168148000Y-88499000D03*
X168148000Y-85999000D03*
D23*
X155448000Y-93425000D03*
X155448000Y-90725000D03*
D22*
X160735000Y-95885000D03*
X158035000Y-95885000D03*
X168355000Y-95885000D03*
X165655000Y-95885000D03*
X177245000Y-95885000D03*
X174545000Y-95885000D03*
D24*
X179816000Y-86929000D03*
X179816000Y-85029000D03*
X177816000Y-85979000D03*
X184642000Y-79944000D03*
X184642000Y-78044000D03*
X182642000Y-78994000D03*
D25*
X182941000Y-69993000D03*
X181041000Y-69993000D03*
X181991000Y-71993000D03*
D23*
X174625000Y-89455000D03*
X174625000Y-92155000D03*
X158750000Y-67230000D03*
X158750000Y-69930000D03*
X163830000Y-69930000D03*
X163830000Y-67230000D03*
D22*
X175434000Y-79375000D03*
X178134000Y-79375000D03*
D23*
X158750000Y-64850000D03*
X158750000Y-62150000D03*
X163830000Y-62150000D03*
X163830000Y-64850000D03*
X180721000Y-79709000D03*
X180721000Y-77009000D03*
X187960000Y-87075000D03*
X187960000Y-84375000D03*
X170942000Y-69770000D03*
X170942000Y-72470000D03*
D22*
X175434000Y-77343000D03*
X178134000Y-77343000D03*
D23*
X168656000Y-69770000D03*
X168656000Y-72470000D03*
X166497000Y-69770000D03*
X166497000Y-72470000D03*
X182880000Y-64690000D03*
X182880000Y-67390000D03*
D22*
X187913000Y-70231000D03*
X185213000Y-70231000D03*
X182927000Y-91694000D03*
X185627000Y-91694000D03*
X181403000Y-82296000D03*
X184103000Y-82296000D03*
D26*
X182836000Y-61221000D03*
D27*
X177336000Y-60071000D03*
D26*
X182836000Y-58921000D03*
X171533000Y-61348000D03*
D27*
X166033000Y-60198000D03*
D26*
X171533000Y-59048000D03*
D28*
X169159000Y-65540000D03*
D29*
X171434000Y-64765000D03*
D28*
X171709000Y-66540000D03*
D29*
X169434000Y-67315000D03*
X169934000Y-67315000D03*
X170434000Y-67315000D03*
X170934000Y-67315000D03*
X171434000Y-67315000D03*
D28*
X171709000Y-66040000D03*
X171709000Y-65540000D03*
D29*
X170934000Y-64765000D03*
X170434000Y-64765000D03*
X169934000Y-64765000D03*
X169434000Y-64765000D03*
D28*
X169159000Y-66040000D03*
X169159000Y-66540000D03*
D30*
X172204000Y-77213000D03*
X171704000Y-77213000D03*
X171204000Y-77213000D03*
D31*
X170304000Y-78113000D03*
X170304000Y-78613000D03*
X170304000Y-79113000D03*
D30*
X171204000Y-80013000D03*
X171704000Y-80013000D03*
X172204000Y-80013000D03*
D31*
X173104000Y-79113000D03*
X173104000Y-78613000D03*
X173104000Y-78113000D03*
D32*
X171704000Y-78613000D03*
D33*
X159552000Y-82229000D03*
X162052000Y-82229000D03*
X164552000Y-82229000D03*
X164552000Y-77029000D03*
X162052000Y-77029000D03*
X159552000Y-77029000D03*
D34*
X158702000Y-79629000D03*
D35*
X165402000Y-79629000D03*
D36*
X191501100Y-60003600D03*
D37*
X150041100Y-65903600D03*
X150041100Y-68443600D03*
X150041100Y-70983600D03*
X150041100Y-73523600D03*
X150041100Y-76063600D03*
X150041100Y-78603600D03*
X150041100Y-81143600D03*
X150041100Y-83683600D03*
X150041100Y-86223600D03*
X150041100Y-88763600D03*
X150041100Y-91303600D03*
X150041100Y-93843600D03*
X150041100Y-96383600D03*
X193221100Y-96383600D03*
X190681100Y-96383600D03*
X193221100Y-93843600D03*
X190681100Y-93843600D03*
X193221100Y-91303600D03*
X190681100Y-91303600D03*
X193221100Y-88763600D03*
X190681100Y-88763600D03*
X193221100Y-86223600D03*
X190681100Y-86223600D03*
X193221100Y-83683600D03*
X190681100Y-83683600D03*
X193221100Y-81143600D03*
X190681100Y-81143600D03*
X193221100Y-78603600D03*
X190681100Y-78603600D03*
X193221100Y-76063600D03*
X190681100Y-76063600D03*
X193221100Y-73523600D03*
X190681100Y-73523600D03*
X193221100Y-70983600D03*
X190681100Y-70983600D03*
X193221100Y-68443600D03*
X190681100Y-68443600D03*
X193221100Y-65903600D03*
X190681100Y-65903600D03*
X185061100Y-59323600D03*
X185061100Y-61863600D03*
X185061100Y-64403600D03*
D36*
X151501100Y-60003600D03*
X151501100Y-102003600D03*
X191501100Y-102003600D03*
D38*
X182565000Y-88980000D03*
X183515000Y-88980000D03*
X184465000Y-88980000D03*
X184465000Y-86280000D03*
X182565000Y-86280000D03*
X183515000Y-86280000D03*
D22*
X182927000Y-93726000D03*
X185627000Y-93726000D03*
D39*
X178943000Y-73406000D03*
X178943000Y-75057000D03*
X166878000Y-77597000D03*
X168783000Y-77597000D03*
X157099000Y-86741000D03*
X165608000Y-86868000D03*
X163703000Y-86868000D03*
X160147000Y-86741000D03*
X180467000Y-81534000D03*
X183515000Y-92456000D03*
X164973000Y-71247000D03*
X177292000Y-81534000D03*
X173228000Y-81534000D03*
X179324000Y-67310000D03*
X179197000Y-70993000D03*
X183261000Y-95504000D03*
X178943000Y-80772000D03*
X183515000Y-84074000D03*
X181483000Y-61214000D03*
X172720000Y-60071000D03*
X172466000Y-69977000D03*
X162433000Y-90551000D03*
X158877000Y-90424000D03*
X157353000Y-90424000D03*
X157353000Y-93853000D03*
X160401000Y-93853000D03*
X162433000Y-93853000D03*
X165227000Y-93853000D03*
X168021000Y-93853000D03*
X170561000Y-93726000D03*
X170561000Y-90551000D03*
X168021000Y-90551000D03*
X165100000Y-90551000D03*
X153162000Y-92202000D03*
X153162000Y-95250000D03*
X153162000Y-98425000D03*
X157861000Y-98425000D03*
X160718500Y-98234500D03*
X165735000Y-98425000D03*
X169311000Y-98405000D03*
X179070000Y-89555000D03*
X170307000Y-63246000D03*
X171704000Y-63246000D03*
X191897000Y-93218000D03*
X173355000Y-74803000D03*
X165735000Y-66167000D03*
X171704000Y-68326000D03*
X172847000Y-64765000D03*
X169418000Y-68326000D03*
X167767000Y-74803000D03*
X165735000Y-74803000D03*
X162052000Y-74676000D03*
X153543000Y-68961000D03*
D40*
X157734000Y-76327000D03*
X179451000Y-76708000D03*
X156337000Y-73914000D03*
X185547000Y-76835000D03*
X182245000Y-76581000D03*
D39*
X169418000Y-81661000D03*
X182499000Y-90297000D03*
X185674000Y-95123000D03*
X179578000Y-83566000D03*
X166116000Y-85852000D03*
X173990000Y-67056000D03*
X175133000Y-68580000D03*
X189230000Y-71755000D03*
X166941500Y-86804500D03*
X166878000Y-81280000D03*
X166878000Y-84836000D03*
X181356000Y-87503000D03*
X185627000Y-90250000D03*
X160782000Y-79502000D03*
X183388000Y-80772000D03*
X167894000Y-67437000D03*
X177292000Y-61722000D03*
X167767000Y-66167000D03*
X167132000Y-60452000D03*
D11*
X178943000Y-73406000D02*
X178943000Y-75057000D01*
X166878000Y-77597000D02*
X168783000Y-77597000D01*
X165608000Y-86868000D02*
X163703000Y-86868000D01*
X160147000Y-86741000D02*
X157099000Y-86741000D01*
D41*
X180467000Y-81534000D02*
X181229000Y-82296000D01*
X181229000Y-82296000D02*
X181403000Y-82296000D01*
X183515000Y-92456000D02*
X182927000Y-91868000D01*
X182927000Y-91868000D02*
X182927000Y-91694000D01*
X164243000Y-73025000D02*
X164243000Y-71977000D01*
X164243000Y-71977000D02*
X164973000Y-71247000D01*
X173181000Y-83058000D02*
X173181000Y-81581000D01*
X177292000Y-81534000D02*
X177419000Y-81407000D01*
X173181000Y-81581000D02*
X173228000Y-81534000D01*
X177419000Y-81407000D02*
X178034000Y-81407000D01*
X176530000Y-72295000D02*
X177895000Y-72295000D01*
X179229000Y-67215000D02*
X177800000Y-67215000D01*
X179324000Y-67310000D02*
X179229000Y-67215000D01*
X177895000Y-72295000D02*
X179197000Y-70993000D01*
X172466000Y-91928000D02*
X172466000Y-93091000D01*
X173228000Y-93853000D02*
X180594000Y-93853000D01*
X172466000Y-93091000D02*
X173228000Y-93853000D01*
X182245000Y-95504000D02*
X183261000Y-95504000D01*
X180594000Y-93853000D02*
X182245000Y-95504000D01*
X178943000Y-80772000D02*
X178308000Y-81407000D01*
X178308000Y-81407000D02*
X178034000Y-81407000D01*
X183515000Y-84074000D02*
X181737000Y-82296000D01*
X181737000Y-82296000D02*
X181403000Y-82296000D01*
X171704000Y-77213000D02*
X171704000Y-76454000D01*
X176276000Y-76200000D02*
X176689000Y-75787000D01*
X171958000Y-76200000D02*
X176276000Y-76200000D01*
X171704000Y-76454000D02*
X171958000Y-76200000D01*
X176689000Y-75787000D02*
X176689000Y-74930000D01*
X174498000Y-61119000D02*
X173768000Y-61119000D01*
X173768000Y-61119000D02*
X172720000Y-60071000D01*
X181490000Y-61221000D02*
X182836000Y-61221000D01*
X181483000Y-61214000D02*
X181490000Y-61221000D01*
X180340000Y-67290000D02*
X180340000Y-67230000D01*
X180340000Y-67230000D02*
X182880000Y-64690000D01*
X180340000Y-67290000D02*
X177875000Y-67290000D01*
X177875000Y-67290000D02*
X177800000Y-67215000D01*
X171533000Y-61348000D02*
X171533000Y-62147000D01*
X170934000Y-62746000D02*
X170934000Y-64765000D01*
X171533000Y-62147000D02*
X170934000Y-62746000D01*
X187960000Y-92055000D02*
X188892500Y-92055000D01*
X188892500Y-92055000D02*
X190681100Y-93843600D01*
X173181000Y-83058000D02*
X173181000Y-85150000D01*
X173181000Y-85150000D02*
X173375000Y-85344000D01*
X173375000Y-85344000D02*
X173375000Y-87249000D01*
X172466000Y-91928000D02*
X174398000Y-91928000D01*
X174398000Y-91928000D02*
X174625000Y-92155000D01*
X174625000Y-92155000D02*
X177244000Y-92155000D01*
X177244000Y-92155000D02*
X177419000Y-91980000D01*
X177419000Y-91980000D02*
X180265000Y-91980000D01*
X180265000Y-91980000D02*
X180340000Y-92055000D01*
X178134000Y-79375000D02*
X178134000Y-81307000D01*
X178134000Y-81307000D02*
X178034000Y-81407000D01*
X176530000Y-72295000D02*
X176530000Y-74771000D01*
X176530000Y-74771000D02*
X176689000Y-74930000D01*
X176689000Y-74930000D02*
X176689000Y-75898000D01*
X176689000Y-75898000D02*
X178134000Y-77343000D01*
X178134000Y-77343000D02*
X178134000Y-79375000D01*
X181403000Y-82296000D02*
X181737000Y-82296000D01*
X181737000Y-82296000D02*
X183515000Y-84074000D01*
X183515000Y-84074000D02*
X183515000Y-86280000D01*
X158115000Y-57658000D02*
X158115000Y-57785000D01*
X170822000Y-61348000D02*
X167132000Y-57658000D01*
X167132000Y-57658000D02*
X158115000Y-57658000D01*
X171533000Y-61348000D02*
X170822000Y-61348000D01*
X158115000Y-57785000D02*
X156845000Y-59055000D01*
X150041100Y-65903600D02*
X150041100Y-65858900D01*
X150041100Y-65858900D02*
X156845000Y-59055000D01*
X170934000Y-64765000D02*
X170934000Y-66540000D01*
X170934000Y-66540000D02*
X171709000Y-66540000D01*
X171533000Y-61348000D02*
X174269000Y-61348000D01*
X174269000Y-61348000D02*
X174498000Y-61119000D01*
X182836000Y-61221000D02*
X182836000Y-64646000D01*
X182836000Y-64646000D02*
X182880000Y-64690000D01*
D11*
X172466000Y-69977000D02*
X172466000Y-70104000D01*
X158877000Y-90424000D02*
X157353000Y-90424000D01*
X160401000Y-93853000D02*
X157353000Y-93853000D01*
X165227000Y-93853000D02*
X162433000Y-93853000D01*
X170434000Y-93853000D02*
X168021000Y-93853000D01*
X170561000Y-93726000D02*
X170434000Y-93853000D01*
X168021000Y-90551000D02*
X170561000Y-90551000D01*
X165100000Y-90551000D02*
X162433000Y-90551000D01*
X171450000Y-98405000D02*
X169311000Y-98405000D01*
X153162000Y-95250000D02*
X153162000Y-92202000D01*
X157861000Y-98425000D02*
X153162000Y-98425000D01*
X165544500Y-98234500D02*
X160718500Y-98234500D01*
X165735000Y-98425000D02*
X165544500Y-98234500D01*
X170434000Y-64765000D02*
X170434000Y-65532000D01*
X170434000Y-65532000D02*
X169934000Y-66032000D01*
X169934000Y-64765000D02*
X169934000Y-66032000D01*
X169934000Y-66032000D02*
X169934000Y-67315000D01*
X172847000Y-64765000D02*
X172847000Y-63754000D01*
X170434000Y-63373000D02*
X170434000Y-64765000D01*
X170307000Y-63246000D02*
X170434000Y-63373000D01*
X172339000Y-63246000D02*
X171704000Y-63246000D01*
X172847000Y-63754000D02*
X172339000Y-63246000D01*
X190681100Y-91303600D02*
X190681100Y-91748100D01*
X190681100Y-91748100D02*
X191897000Y-92964000D01*
X191897000Y-92964000D02*
X191897000Y-93218000D01*
X179816000Y-85029000D02*
X179816000Y-85360000D01*
X179816000Y-85360000D02*
X178816000Y-86360000D01*
X178816000Y-86360000D02*
X178816000Y-89555000D01*
X173482000Y-74930000D02*
X174339000Y-74930000D01*
X173355000Y-74803000D02*
X173482000Y-74930000D01*
X175875000Y-85344000D02*
X176002000Y-85344000D01*
X176002000Y-85344000D02*
X178034000Y-83312000D01*
X190681100Y-81143600D02*
X190681100Y-81461100D01*
X190681100Y-81461100D02*
X192024000Y-82804000D01*
X192024000Y-82804000D02*
X192024000Y-85026500D01*
X192024000Y-85026500D02*
X193221100Y-86223600D01*
X165735000Y-67290000D02*
X165735000Y-66167000D01*
X171434000Y-67315000D02*
X171434000Y-68056000D01*
X171434000Y-68056000D02*
X171704000Y-68326000D01*
X169418000Y-68326000D02*
X169434000Y-68310000D01*
X169434000Y-68310000D02*
X169434000Y-67315000D01*
X193221100Y-65903600D02*
X193176400Y-65903600D01*
X193176400Y-65903600D02*
X191897000Y-67183000D01*
X191897000Y-72307700D02*
X190681100Y-73523600D01*
X191897000Y-67183000D02*
X191897000Y-72307700D01*
X185061100Y-59323600D02*
X186196600Y-59323600D01*
X193221100Y-64824100D02*
X193221100Y-65903600D01*
X192659000Y-64262000D02*
X193221100Y-64824100D01*
X191135000Y-64262000D02*
X192659000Y-64262000D01*
X186196600Y-59323600D02*
X191135000Y-64262000D01*
X161893000Y-73025000D02*
X161893000Y-73120000D01*
X161893000Y-73120000D02*
X163576000Y-74803000D01*
X167894000Y-74930000D02*
X169184000Y-74930000D01*
X167767000Y-74803000D02*
X167894000Y-74930000D01*
X163576000Y-74803000D02*
X165735000Y-74803000D01*
X165735000Y-67290000D02*
X165735000Y-67564000D01*
X165735000Y-67564000D02*
X164592000Y-68707000D01*
X164592000Y-68707000D02*
X162413000Y-68707000D01*
X162413000Y-68707000D02*
X161290000Y-69830000D01*
X164552000Y-82229000D02*
X167339000Y-82229000D01*
X167339000Y-82229000D02*
X168148000Y-83038000D01*
X161893000Y-74517000D02*
X161893000Y-73025000D01*
X162052000Y-74676000D02*
X161893000Y-74517000D01*
X153690000Y-69108000D02*
X153690000Y-72263000D01*
X153543000Y-68961000D02*
X153690000Y-69108000D01*
X174498000Y-58769000D02*
X174847000Y-58769000D01*
X174847000Y-58769000D02*
X176149000Y-60071000D01*
X176149000Y-63901000D02*
X175260000Y-64790000D01*
X176149000Y-60071000D02*
X176149000Y-63901000D01*
X160528000Y-91293000D02*
X160528000Y-93726000D01*
X159385000Y-96901000D02*
X160889000Y-98405000D01*
X159385000Y-94869000D02*
X159385000Y-96901000D01*
X160528000Y-93726000D02*
X159385000Y-94869000D01*
X163195000Y-98405000D02*
X160889000Y-98405000D01*
X160889000Y-98405000D02*
X155575000Y-98405000D01*
X171450000Y-98405000D02*
X163195000Y-98405000D01*
X174690000Y-98610000D02*
X171655000Y-98610000D01*
X171655000Y-98610000D02*
X171450000Y-98405000D01*
X187960000Y-89555000D02*
X188932500Y-89555000D01*
X188932500Y-89555000D02*
X190681100Y-91303600D01*
X172466000Y-89428000D02*
X172466000Y-88646000D01*
X169037000Y-87376000D02*
X168148000Y-86487000D01*
X171196000Y-87376000D02*
X169037000Y-87376000D01*
X172466000Y-88646000D02*
X171196000Y-87376000D01*
X168148000Y-86487000D02*
X168148000Y-85999000D01*
X183515000Y-88980000D02*
X183515000Y-90043000D01*
X184150000Y-97910000D02*
X183450000Y-98610000D01*
X184150000Y-90678000D02*
X184150000Y-97910000D01*
X183515000Y-90043000D02*
X184150000Y-90678000D01*
X187325000Y-73660000D02*
X190544700Y-73660000D01*
X190544700Y-73660000D02*
X190681100Y-73523600D01*
X183674000Y-74676000D02*
X184277000Y-74676000D01*
X184277000Y-74676000D02*
X185293000Y-73660000D01*
X185293000Y-73660000D02*
X187325000Y-73660000D01*
X183674000Y-74676000D02*
X183674000Y-74962000D01*
X183674000Y-74962000D02*
X184642000Y-75930000D01*
X184642000Y-75930000D02*
X184642000Y-78044000D01*
X154305000Y-75565000D02*
X154305000Y-74422000D01*
X153690000Y-73807000D02*
X153690000Y-72263000D01*
X154305000Y-74422000D02*
X153690000Y-73807000D01*
X161290000Y-62250000D02*
X161290000Y-59690000D01*
X161290000Y-59690000D02*
X161925000Y-59055000D01*
X168148000Y-83038000D02*
X168148000Y-85999000D01*
X172466000Y-89428000D02*
X172466000Y-89535000D01*
X172466000Y-89535000D02*
X173736000Y-90805000D01*
X173736000Y-90805000D02*
X176244000Y-90805000D01*
X176244000Y-90805000D02*
X177419000Y-89630000D01*
X180340000Y-89555000D02*
X179070000Y-89555000D01*
X179070000Y-89555000D02*
X178816000Y-89555000D01*
X178816000Y-89555000D02*
X177494000Y-89555000D01*
X177494000Y-89555000D02*
X177419000Y-89630000D01*
X175875000Y-85344000D02*
X175875000Y-87249000D01*
X179816000Y-85029000D02*
X182057000Y-85029000D01*
X182057000Y-85029000D02*
X182565000Y-85537000D01*
X182565000Y-85537000D02*
X182565000Y-86280000D01*
X179816000Y-85029000D02*
X179136000Y-85029000D01*
X179136000Y-85029000D02*
X178034000Y-83927000D01*
X178034000Y-83927000D02*
X178034000Y-83312000D01*
X175260000Y-64790000D02*
X177725000Y-64790000D01*
X177725000Y-64790000D02*
X177800000Y-64865000D01*
X180340000Y-64790000D02*
X177875000Y-64790000D01*
X177875000Y-64790000D02*
X177800000Y-64865000D01*
X170434000Y-67315000D02*
X170434000Y-68072000D01*
X170434000Y-68072000D02*
X168736000Y-69770000D01*
X168736000Y-69770000D02*
X168656000Y-69770000D01*
X169934000Y-67315000D02*
X169934000Y-67810000D01*
X169418000Y-68326000D02*
X169434000Y-68326000D01*
X169434000Y-68310000D02*
X169418000Y-68326000D01*
X169934000Y-67810000D02*
X169434000Y-68310000D01*
X169434000Y-67315000D02*
X169434000Y-68326000D01*
X169434000Y-68326000D02*
X169434000Y-68992000D01*
X169434000Y-68992000D02*
X168656000Y-69770000D01*
X183674000Y-74676000D02*
X183674000Y-74073000D01*
X183674000Y-74073000D02*
X182626000Y-73025000D01*
X182626000Y-73025000D02*
X181483000Y-73025000D01*
X181483000Y-73025000D02*
X181041000Y-72583000D01*
X181041000Y-72583000D02*
X181041000Y-69993000D01*
X176530000Y-69945000D02*
X180993000Y-69945000D01*
X180993000Y-69945000D02*
X181041000Y-69993000D01*
X171434000Y-64765000D02*
X172847000Y-64765000D01*
X172847000Y-64765000D02*
X175235000Y-64765000D01*
X175235000Y-64765000D02*
X175260000Y-64790000D01*
X171533000Y-59048000D02*
X174219000Y-59048000D01*
X174219000Y-59048000D02*
X174498000Y-58769000D01*
X181483000Y-58801000D02*
X182716000Y-58801000D01*
X182716000Y-58801000D02*
X182836000Y-58921000D01*
X180340000Y-64790000D02*
X180340000Y-59944000D01*
X180340000Y-59944000D02*
X181483000Y-58801000D01*
X181483000Y-58801000D02*
X181356000Y-58928000D01*
X182836000Y-58921000D02*
X184658500Y-58921000D01*
X184658500Y-58921000D02*
X185061100Y-59323600D01*
D41*
X175534000Y-81407000D02*
X175534000Y-83312000D01*
X173104000Y-78613000D02*
X173990000Y-78613000D01*
X174117000Y-79990000D02*
X175534000Y-81407000D01*
X174117000Y-78740000D02*
X174117000Y-79990000D01*
X173990000Y-78613000D02*
X174117000Y-78740000D01*
X156210000Y-67330000D02*
X152634000Y-67330000D01*
X152146000Y-81578700D02*
X150041100Y-83683600D01*
X152146000Y-67818000D02*
X152146000Y-81578700D01*
X152634000Y-67330000D02*
X152146000Y-67818000D01*
X156210000Y-69830000D02*
X158650000Y-69830000D01*
X158650000Y-69830000D02*
X158750000Y-69930000D01*
X161290000Y-67330000D02*
X163730000Y-67330000D01*
X163730000Y-67330000D02*
X163830000Y-67230000D01*
X158750000Y-67230000D02*
X161190000Y-67230000D01*
X161190000Y-67230000D02*
X161290000Y-67330000D01*
X167005000Y-68580000D02*
X165735000Y-68580000D01*
X169159000Y-65540000D02*
X167505000Y-65540000D01*
X167132000Y-65913000D02*
X167505000Y-65540000D01*
X167132000Y-68453000D02*
X167132000Y-65913000D01*
X167005000Y-68580000D02*
X167132000Y-68453000D01*
X165735000Y-68580000D02*
X164385000Y-69930000D01*
X164385000Y-69930000D02*
X163830000Y-69930000D01*
X163830000Y-69930000D02*
X163830000Y-70104000D01*
X163830000Y-70104000D02*
X162814000Y-71120000D01*
X157333000Y-71120000D02*
X156190000Y-72263000D01*
X162814000Y-71120000D02*
X157333000Y-71120000D01*
X163830000Y-69930000D02*
X163830000Y-69215000D01*
X150041100Y-81143600D02*
X150041100Y-80717900D01*
X150041100Y-80717900D02*
X151638000Y-79121000D01*
X151638000Y-79121000D02*
X151638000Y-65659000D01*
X151638000Y-65659000D02*
X152547000Y-64750000D01*
X152547000Y-64750000D02*
X156210000Y-64750000D01*
X156210000Y-62250000D02*
X158650000Y-62250000D01*
X158650000Y-62250000D02*
X158750000Y-62150000D01*
X161290000Y-64750000D02*
X163730000Y-64750000D01*
X163730000Y-64750000D02*
X163830000Y-64850000D01*
X158750000Y-64850000D02*
X161190000Y-64850000D01*
X161190000Y-64850000D02*
X161290000Y-64750000D01*
X169434000Y-64765000D02*
X169434000Y-64151000D01*
X165735000Y-63881000D02*
X165735000Y-64790000D01*
X166116000Y-63500000D02*
X165735000Y-63881000D01*
X168783000Y-63500000D02*
X166116000Y-63500000D01*
X169434000Y-64151000D02*
X168783000Y-63500000D01*
X163830000Y-62150000D02*
X163830000Y-62885000D01*
X163830000Y-62885000D02*
X165735000Y-64790000D01*
D11*
X193221100Y-96383600D02*
X193557400Y-96383600D01*
X193557400Y-96383600D02*
X194437000Y-95504000D01*
X194437000Y-95504000D02*
X194437000Y-77279500D01*
X194437000Y-77279500D02*
X193221100Y-76063600D01*
X180721000Y-77009000D02*
X179752000Y-77009000D01*
X158436000Y-77029000D02*
X159552000Y-77029000D01*
X157734000Y-76327000D02*
X158436000Y-77029000D01*
X179752000Y-77009000D02*
X179451000Y-76708000D01*
X156337000Y-73914000D02*
X159452000Y-77029000D01*
X159452000Y-77029000D02*
X159552000Y-77029000D01*
X193221100Y-76063600D02*
X193176400Y-76063600D01*
X193176400Y-76063600D02*
X191897000Y-77343000D01*
X191897000Y-77343000D02*
X188087000Y-77343000D01*
X188087000Y-77343000D02*
X187960000Y-77470000D01*
X187960000Y-77470000D02*
X186182000Y-77470000D01*
X186182000Y-77470000D02*
X185547000Y-76835000D01*
X182245000Y-76581000D02*
X181324000Y-75660000D01*
X181324000Y-75660000D02*
X181324000Y-74676000D01*
X180721000Y-77009000D02*
X180721000Y-75279000D01*
X180721000Y-75279000D02*
X181324000Y-74676000D01*
D42*
X171684000Y-74930000D02*
X171684000Y-74676000D01*
X171684000Y-74676000D02*
X173990000Y-72370000D01*
X171204000Y-77213000D02*
X171204000Y-75410000D01*
X171204000Y-75410000D02*
X171684000Y-74930000D01*
D41*
X168148000Y-88499000D02*
X170434000Y-88499000D01*
X165688000Y-88646000D02*
X168001000Y-88646000D01*
X168001000Y-88646000D02*
X168148000Y-88499000D01*
D42*
X171704000Y-80013000D02*
X172204000Y-80013000D01*
X172204000Y-80013000D02*
X171204000Y-80013000D01*
X171204000Y-80013000D02*
X171204000Y-80510000D01*
X170481000Y-81233000D02*
X170481000Y-83058000D01*
X171204000Y-80510000D02*
X170481000Y-81233000D01*
X170434000Y-85999000D02*
X170434000Y-83105000D01*
X170434000Y-83105000D02*
X170481000Y-83058000D01*
D41*
X182565000Y-88980000D02*
X182565000Y-90231000D01*
X169418000Y-81661000D02*
X168295000Y-80538000D01*
X182565000Y-90231000D02*
X182499000Y-90297000D01*
X168295000Y-80538000D02*
X168148000Y-80538000D01*
X168148000Y-80538000D02*
X168148000Y-79629000D01*
X168664000Y-79113000D02*
X170304000Y-79113000D01*
X168148000Y-79629000D02*
X168664000Y-79113000D01*
X160528000Y-88793000D02*
X162841000Y-88793000D01*
X162841000Y-88793000D02*
X162988000Y-88646000D01*
X158222000Y-88519000D02*
X160254000Y-88519000D01*
X160254000Y-88519000D02*
X160528000Y-88793000D01*
X153035000Y-83459000D02*
X153035000Y-82677000D01*
X152654000Y-79756000D02*
X154305000Y-78105000D01*
X152654000Y-82296000D02*
X152654000Y-79756000D01*
X153035000Y-82677000D02*
X152654000Y-82296000D01*
X150041100Y-91303600D02*
X150041100Y-91258900D01*
X150041100Y-91258900D02*
X153035000Y-88265000D01*
X153035000Y-88265000D02*
X153035000Y-85959000D01*
D11*
X171709000Y-65540000D02*
X173510000Y-65540000D01*
X173510000Y-65540000D02*
X175260000Y-67290000D01*
X173990000Y-69870000D02*
X173990000Y-68560000D01*
X173990000Y-68560000D02*
X175260000Y-67290000D01*
D41*
X155448000Y-83586000D02*
X155448000Y-81788000D01*
X155448000Y-81788000D02*
X154305000Y-80645000D01*
X150041100Y-93843600D02*
X150041100Y-93671900D01*
X150041100Y-93671900D02*
X153924000Y-89789000D01*
X153924000Y-89789000D02*
X153924000Y-87610000D01*
X153924000Y-87610000D02*
X155448000Y-86086000D01*
X155448000Y-90725000D02*
X155448000Y-88793000D01*
X155448000Y-88793000D02*
X155722000Y-88519000D01*
D42*
X155575000Y-95905000D02*
X155575000Y-93552000D01*
X155575000Y-93552000D02*
X155448000Y-93425000D01*
X158035000Y-95885000D02*
X155595000Y-95885000D01*
X155595000Y-95885000D02*
X155575000Y-95905000D01*
X163195000Y-95905000D02*
X160755000Y-95905000D01*
X160755000Y-95905000D02*
X160735000Y-95885000D01*
X165655000Y-95885000D02*
X163215000Y-95885000D01*
X163215000Y-95885000D02*
X163195000Y-95905000D01*
X171450000Y-95905000D02*
X168375000Y-95905000D01*
X168375000Y-95905000D02*
X168355000Y-95885000D01*
X174545000Y-95885000D02*
X171470000Y-95885000D01*
X171470000Y-95885000D02*
X171450000Y-95905000D01*
D41*
X162052000Y-77029000D02*
X162052000Y-75946000D01*
X162052000Y-75946000D02*
X158877000Y-72771000D01*
X187325000Y-78740000D02*
X190544700Y-78740000D01*
X190544700Y-78740000D02*
X190681100Y-78603600D01*
X187325000Y-76200000D02*
X190544700Y-76200000D01*
X190544700Y-76200000D02*
X190681100Y-76063600D01*
D42*
X177245000Y-95885000D02*
X178308000Y-95885000D01*
X179070000Y-96647000D02*
X179070000Y-102050000D01*
X178308000Y-95885000D02*
X179070000Y-96647000D01*
D41*
X185674000Y-95123000D02*
X185627000Y-95076000D01*
X185627000Y-95076000D02*
X185627000Y-93726000D01*
X174625000Y-89455000D02*
X174625000Y-84455000D01*
X173104000Y-79886000D02*
X173104000Y-79113000D01*
X174371000Y-81153000D02*
X173104000Y-79886000D01*
X174371000Y-84201000D02*
X174371000Y-81153000D01*
X174625000Y-84455000D02*
X174371000Y-84201000D01*
X174625000Y-89455000D02*
X174705000Y-89455000D01*
X174705000Y-89455000D02*
X175768000Y-88392000D01*
X175768000Y-88392000D02*
X177038000Y-88392000D01*
X177038000Y-88392000D02*
X177816000Y-87614000D01*
X177816000Y-87614000D02*
X177816000Y-85979000D01*
X184642000Y-79944000D02*
X184642000Y-81057000D01*
X184642000Y-81057000D02*
X187960000Y-84375000D01*
X162052000Y-82229000D02*
X162052000Y-84582000D01*
X179705000Y-80725000D02*
X180721000Y-79709000D01*
X179705000Y-83439000D02*
X179705000Y-80725000D01*
X179578000Y-83566000D02*
X179705000Y-83439000D01*
X163322000Y-85852000D02*
X166116000Y-85852000D01*
X162052000Y-84582000D02*
X163322000Y-85852000D01*
X182642000Y-78994000D02*
X181436000Y-78994000D01*
X181436000Y-78994000D02*
X180721000Y-79709000D01*
X182941000Y-69993000D02*
X184975000Y-69993000D01*
X184975000Y-69993000D02*
X185213000Y-70231000D01*
D11*
X182880000Y-67390000D02*
X182880000Y-67564000D01*
X182880000Y-67564000D02*
X181864000Y-68580000D01*
X172974000Y-66040000D02*
X171709000Y-66040000D01*
X173990000Y-67056000D02*
X172974000Y-66040000D01*
X181864000Y-68580000D02*
X175133000Y-68580000D01*
X181991000Y-71993000D02*
X181991000Y-68279000D01*
X181991000Y-68279000D02*
X182880000Y-67390000D01*
D41*
X173104000Y-78113000D02*
X174172000Y-78113000D01*
X174172000Y-78113000D02*
X175434000Y-79375000D01*
X193221100Y-88763600D02*
X193221100Y-88573100D01*
X193221100Y-88573100D02*
X192151000Y-87503000D01*
X192151000Y-87503000D02*
X188388000Y-87503000D01*
X188388000Y-87503000D02*
X187960000Y-87075000D01*
D11*
X170934000Y-67315000D02*
X170934000Y-69762000D01*
X170934000Y-69762000D02*
X170942000Y-69770000D01*
D42*
X168656000Y-72470000D02*
X168656000Y-71929000D01*
X168656000Y-71929000D02*
X166497000Y-69770000D01*
X170942000Y-72470000D02*
X168656000Y-72470000D01*
D41*
X172204000Y-77213000D02*
X175304000Y-77213000D01*
X175304000Y-77213000D02*
X175434000Y-77343000D01*
D42*
X166497000Y-72470000D02*
X166497000Y-75084000D01*
X166497000Y-75084000D02*
X164552000Y-77029000D01*
D41*
X189230000Y-71755000D02*
X187913000Y-70438000D01*
X187913000Y-70438000D02*
X187913000Y-70231000D01*
X166878000Y-80010000D02*
X166497000Y-79629000D01*
X166878000Y-81280000D02*
X166878000Y-80010000D01*
X166878000Y-86741000D02*
X166878000Y-84836000D01*
X166941500Y-86804500D02*
X166878000Y-86741000D01*
X166497000Y-79629000D02*
X165402000Y-79629000D01*
X181356000Y-87503000D02*
X181483000Y-87630000D01*
X181483000Y-87630000D02*
X184150000Y-87630000D01*
X184150000Y-87630000D02*
X184465000Y-87945000D01*
X184465000Y-88980000D02*
X184465000Y-87945000D01*
X185627000Y-91694000D02*
X185627000Y-90250000D01*
X184465000Y-88980000D02*
X184465000Y-89088000D01*
X184465000Y-89088000D02*
X185627000Y-90250000D01*
X184103000Y-82296000D02*
X184103000Y-81487000D01*
X160655000Y-79629000D02*
X158702000Y-79629000D01*
X160782000Y-79502000D02*
X160655000Y-79629000D01*
X184103000Y-81487000D02*
X183388000Y-80772000D01*
X193221100Y-93843600D02*
X193176400Y-93843600D01*
X193176400Y-93843600D02*
X191897000Y-95123000D01*
X186610000Y-86280000D02*
X184465000Y-86280000D01*
X186817000Y-86487000D02*
X186610000Y-86280000D01*
X186817000Y-93726000D02*
X186817000Y-86487000D01*
X188214000Y-95123000D02*
X186817000Y-93726000D01*
X191897000Y-95123000D02*
X188214000Y-95123000D01*
X184465000Y-86280000D02*
X184465000Y-82658000D01*
X184465000Y-82658000D02*
X184103000Y-82296000D01*
X168791000Y-66540000D02*
X167894000Y-67437000D01*
X177336000Y-61678000D02*
X177336000Y-60071000D01*
X177292000Y-61722000D02*
X177336000Y-61678000D01*
X177228500Y-60178500D02*
X177336000Y-60071000D01*
X168791000Y-66540000D02*
X169159000Y-66540000D01*
X166033000Y-60198000D02*
X166878000Y-60198000D01*
X167894000Y-66040000D02*
X169159000Y-66040000D01*
X167767000Y-66167000D02*
X167894000Y-66040000D01*
X166878000Y-60198000D02*
X167132000Y-60452000D01*
X182927000Y-93726000D02*
X182372000Y-93726000D01*
X182372000Y-93726000D02*
X181483000Y-92837000D01*
X181483000Y-92837000D02*
X181483000Y-88773000D01*
X181483000Y-88773000D02*
X179816000Y-87106000D01*
X179816000Y-87106000D02*
X179816000Y-86929000D01*
D43*
G36*
X181707599Y-96041401D02*
X181954161Y-96206148D01*
X182245000Y-96264000D01*
X182698537Y-96264000D01*
X182730673Y-96296192D01*
X183074201Y-96438838D01*
X183446167Y-96439162D01*
X183789943Y-96297117D01*
X184053192Y-96034327D01*
X184195838Y-95690799D01*
X184196162Y-95318833D01*
X184054117Y-94975057D01*
X184001151Y-94921999D01*
X184128441Y-94840090D01*
X184273431Y-94627890D01*
X184276081Y-94614803D01*
X184412910Y-94827441D01*
X184625110Y-94972431D01*
X184739110Y-94995517D01*
X184738838Y-95308167D01*
X184880883Y-95651943D01*
X185143673Y-95915192D01*
X185487201Y-96057838D01*
X185859167Y-96058162D01*
X186202943Y-95916117D01*
X186466192Y-95653327D01*
X186608838Y-95309799D01*
X186609125Y-94979763D01*
X186612317Y-94979162D01*
X186828441Y-94840090D01*
X186839745Y-94823547D01*
X187676599Y-95660401D01*
X187923160Y-95825148D01*
X188214000Y-95883000D01*
X189376318Y-95883000D01*
X189284343Y-96104500D01*
X189283858Y-96660261D01*
X189496090Y-97173903D01*
X189888730Y-97567229D01*
X190402000Y-97780357D01*
X190957761Y-97780842D01*
X191471403Y-97568610D01*
X191864729Y-97175970D01*
X191951049Y-96968088D01*
X192036090Y-97173903D01*
X192428730Y-97567229D01*
X192942000Y-97780357D01*
X193497761Y-97780842D01*
X194011403Y-97568610D01*
X194310000Y-97270534D01*
X194310000Y-104902000D01*
X185218084Y-104902000D01*
X185295000Y-104716309D01*
X185295000Y-102525434D01*
X188865643Y-102525434D01*
X189265953Y-103494258D01*
X190006543Y-104236142D01*
X190974667Y-104638142D01*
X192022934Y-104639057D01*
X192991758Y-104238747D01*
X193733642Y-103498157D01*
X194135642Y-102530033D01*
X194136557Y-101481766D01*
X193736247Y-100512942D01*
X192995657Y-99771058D01*
X192027533Y-99369058D01*
X190979266Y-99368143D01*
X190010442Y-99768453D01*
X189268558Y-100509043D01*
X188866558Y-101477167D01*
X188865643Y-102525434D01*
X185295000Y-102525434D01*
X185295000Y-102335750D01*
X185136250Y-102177000D01*
X183577000Y-102177000D01*
X183577000Y-102197000D01*
X183323000Y-102197000D01*
X183323000Y-102177000D01*
X181763750Y-102177000D01*
X181605000Y-102335750D01*
X181605000Y-104716309D01*
X181681916Y-104902000D01*
X180770360Y-104902000D01*
X180811431Y-104841890D01*
X180862440Y-104590000D01*
X180862440Y-99510000D01*
X180838674Y-99383691D01*
X181605000Y-99383691D01*
X181605000Y-101764250D01*
X181763750Y-101923000D01*
X183323000Y-101923000D01*
X183323000Y-101903000D01*
X183577000Y-101903000D01*
X183577000Y-101923000D01*
X185136250Y-101923000D01*
X185295000Y-101764250D01*
X185295000Y-99383691D01*
X185198327Y-99150302D01*
X185019699Y-98971673D01*
X184786310Y-98875000D01*
X184542129Y-98875000D01*
X184583149Y-98751436D01*
X184551018Y-98307032D01*
X184442768Y-98045692D01*
X184229200Y-98010405D01*
X184101315Y-98138290D01*
X184039699Y-98076673D01*
X183872838Y-98007557D01*
X184049595Y-97830800D01*
X184014308Y-97617232D01*
X183591436Y-97476851D01*
X183147032Y-97508982D01*
X182885692Y-97617232D01*
X182850405Y-97830800D01*
X183027162Y-98007557D01*
X182860301Y-98076673D01*
X182798685Y-98138290D01*
X182670800Y-98010405D01*
X182457232Y-98045692D01*
X182316851Y-98468564D01*
X182346237Y-98875000D01*
X182113690Y-98875000D01*
X181880301Y-98971673D01*
X181701673Y-99150302D01*
X181605000Y-99383691D01*
X180838674Y-99383691D01*
X180818162Y-99274683D01*
X180679090Y-99058559D01*
X180466890Y-98913569D01*
X180215000Y-98862560D01*
X179885000Y-98862560D01*
X179885000Y-96647000D01*
X179822962Y-96335113D01*
X179646292Y-96070708D01*
X178884292Y-95308708D01*
X178623524Y-95134468D01*
X178598162Y-94999683D01*
X178459090Y-94783559D01*
X178246890Y-94638569D01*
X178120626Y-94613000D01*
X180279198Y-94613000D01*
X181707599Y-96041401D01*
X181707599Y-96041401D01*
G37*
X181707599Y-96041401D02*
X181954161Y-96206148D01*
X182245000Y-96264000D01*
X182698537Y-96264000D01*
X182730673Y-96296192D01*
X183074201Y-96438838D01*
X183446167Y-96439162D01*
X183789943Y-96297117D01*
X184053192Y-96034327D01*
X184195838Y-95690799D01*
X184196162Y-95318833D01*
X184054117Y-94975057D01*
X184001151Y-94921999D01*
X184128441Y-94840090D01*
X184273431Y-94627890D01*
X184276081Y-94614803D01*
X184412910Y-94827441D01*
X184625110Y-94972431D01*
X184739110Y-94995517D01*
X184738838Y-95308167D01*
X184880883Y-95651943D01*
X185143673Y-95915192D01*
X185487201Y-96057838D01*
X185859167Y-96058162D01*
X186202943Y-95916117D01*
X186466192Y-95653327D01*
X186608838Y-95309799D01*
X186609125Y-94979763D01*
X186612317Y-94979162D01*
X186828441Y-94840090D01*
X186839745Y-94823547D01*
X187676599Y-95660401D01*
X187923160Y-95825148D01*
X188214000Y-95883000D01*
X189376318Y-95883000D01*
X189284343Y-96104500D01*
X189283858Y-96660261D01*
X189496090Y-97173903D01*
X189888730Y-97567229D01*
X190402000Y-97780357D01*
X190957761Y-97780842D01*
X191471403Y-97568610D01*
X191864729Y-97175970D01*
X191951049Y-96968088D01*
X192036090Y-97173903D01*
X192428730Y-97567229D01*
X192942000Y-97780357D01*
X193497761Y-97780842D01*
X194011403Y-97568610D01*
X194310000Y-97270534D01*
X194310000Y-104902000D01*
X185218084Y-104902000D01*
X185295000Y-104716309D01*
X185295000Y-102525434D01*
X188865643Y-102525434D01*
X189265953Y-103494258D01*
X190006543Y-104236142D01*
X190974667Y-104638142D01*
X192022934Y-104639057D01*
X192991758Y-104238747D01*
X193733642Y-103498157D01*
X194135642Y-102530033D01*
X194136557Y-101481766D01*
X193736247Y-100512942D01*
X192995657Y-99771058D01*
X192027533Y-99369058D01*
X190979266Y-99368143D01*
X190010442Y-99768453D01*
X189268558Y-100509043D01*
X188866558Y-101477167D01*
X188865643Y-102525434D01*
X185295000Y-102525434D01*
X185295000Y-102335750D01*
X185136250Y-102177000D01*
X183577000Y-102177000D01*
X183577000Y-102197000D01*
X183323000Y-102197000D01*
X183323000Y-102177000D01*
X181763750Y-102177000D01*
X181605000Y-102335750D01*
X181605000Y-104716309D01*
X181681916Y-104902000D01*
X180770360Y-104902000D01*
X180811431Y-104841890D01*
X180862440Y-104590000D01*
X180862440Y-99510000D01*
X180838674Y-99383691D01*
X181605000Y-99383691D01*
X181605000Y-101764250D01*
X181763750Y-101923000D01*
X183323000Y-101923000D01*
X183323000Y-101903000D01*
X183577000Y-101903000D01*
X183577000Y-101923000D01*
X185136250Y-101923000D01*
X185295000Y-101764250D01*
X185295000Y-99383691D01*
X185198327Y-99150302D01*
X185019699Y-98971673D01*
X184786310Y-98875000D01*
X184542129Y-98875000D01*
X184583149Y-98751436D01*
X184551018Y-98307032D01*
X184442768Y-98045692D01*
X184229200Y-98010405D01*
X184101315Y-98138290D01*
X184039699Y-98076673D01*
X183872838Y-98007557D01*
X184049595Y-97830800D01*
X184014308Y-97617232D01*
X183591436Y-97476851D01*
X183147032Y-97508982D01*
X182885692Y-97617232D01*
X182850405Y-97830800D01*
X183027162Y-98007557D01*
X182860301Y-98076673D01*
X182798685Y-98138290D01*
X182670800Y-98010405D01*
X182457232Y-98045692D01*
X182316851Y-98468564D01*
X182346237Y-98875000D01*
X182113690Y-98875000D01*
X181880301Y-98971673D01*
X181701673Y-99150302D01*
X181605000Y-99383691D01*
X180838674Y-99383691D01*
X180818162Y-99274683D01*
X180679090Y-99058559D01*
X180466890Y-98913569D01*
X180215000Y-98862560D01*
X179885000Y-98862560D01*
X179885000Y-96647000D01*
X179822962Y-96335113D01*
X179646292Y-96070708D01*
X178884292Y-95308708D01*
X178623524Y-95134468D01*
X178598162Y-94999683D01*
X178459090Y-94783559D01*
X178246890Y-94638569D01*
X178120626Y-94613000D01*
X180279198Y-94613000D01*
X181707599Y-96041401D01*
G36*
X157685536Y-57048478D02*
X157577599Y-57120599D01*
X157412852Y-57367161D01*
X157401632Y-57423566D01*
X157267638Y-57557560D01*
X155995000Y-57557560D01*
X155759683Y-57601838D01*
X155543559Y-57740910D01*
X155398569Y-57953110D01*
X155347560Y-58205000D01*
X155347560Y-59477638D01*
X154022366Y-60802832D01*
X154135642Y-60530033D01*
X154136557Y-59481766D01*
X153736247Y-58512942D01*
X152995657Y-57771058D01*
X152027533Y-57369058D01*
X150979266Y-57368143D01*
X150010442Y-57768453D01*
X149268558Y-58509043D01*
X148866558Y-59477167D01*
X148865643Y-60525434D01*
X149265953Y-61494258D01*
X150006543Y-62236142D01*
X150974667Y-62638142D01*
X152022934Y-62639057D01*
X152301061Y-62524137D01*
X150318357Y-64506841D01*
X149764439Y-64506358D01*
X149250797Y-64718590D01*
X148857471Y-65111230D01*
X148644343Y-65624500D01*
X148643858Y-66180261D01*
X148856090Y-66693903D01*
X149248730Y-67087229D01*
X149440827Y-67166995D01*
X149309957Y-67221203D01*
X149240492Y-67463387D01*
X150041100Y-68263995D01*
X150055243Y-68249853D01*
X150234848Y-68429458D01*
X150220705Y-68443600D01*
X150234848Y-68457743D01*
X150055243Y-68637348D01*
X150041100Y-68623205D01*
X149240492Y-69423813D01*
X149309957Y-69665997D01*
X149450418Y-69716109D01*
X149250797Y-69798590D01*
X148857471Y-70191230D01*
X148644343Y-70704500D01*
X148643858Y-71260261D01*
X148856090Y-71773903D01*
X149248730Y-72167229D01*
X149456612Y-72253549D01*
X149250797Y-72338590D01*
X148857471Y-72731230D01*
X148644343Y-73244500D01*
X148643858Y-73800261D01*
X148856090Y-74313903D01*
X149248730Y-74707229D01*
X149456612Y-74793549D01*
X149250797Y-74878590D01*
X148857471Y-75271230D01*
X148644343Y-75784500D01*
X148643858Y-76340261D01*
X148856090Y-76853903D01*
X149248730Y-77247229D01*
X149456612Y-77333549D01*
X149250797Y-77418590D01*
X148857471Y-77811230D01*
X148644343Y-78324500D01*
X148643858Y-78880261D01*
X148856090Y-79393903D01*
X149248730Y-79787229D01*
X149456612Y-79873549D01*
X149250797Y-79958590D01*
X148857471Y-80351230D01*
X148644343Y-80864500D01*
X148643858Y-81420261D01*
X148856090Y-81933903D01*
X149248730Y-82327229D01*
X149456612Y-82413549D01*
X149250797Y-82498590D01*
X148857471Y-82891230D01*
X148644343Y-83404500D01*
X148643858Y-83960261D01*
X148856090Y-84473903D01*
X149248730Y-84867229D01*
X149456612Y-84953549D01*
X149250797Y-85038590D01*
X148857471Y-85431230D01*
X148644343Y-85944500D01*
X148643858Y-86500261D01*
X148856090Y-87013903D01*
X149248730Y-87407229D01*
X149456612Y-87493549D01*
X149250797Y-87578590D01*
X148857471Y-87971230D01*
X148644343Y-88484500D01*
X148643858Y-89040261D01*
X148856090Y-89553903D01*
X149248730Y-89947229D01*
X149456612Y-90033549D01*
X149250797Y-90118590D01*
X148857471Y-90511230D01*
X148644343Y-91024500D01*
X148643858Y-91580261D01*
X148856090Y-92093903D01*
X149248730Y-92487229D01*
X149456612Y-92573549D01*
X149250797Y-92658590D01*
X148857471Y-93051230D01*
X148644343Y-93564500D01*
X148643858Y-94120261D01*
X148856090Y-94633903D01*
X149248730Y-95027229D01*
X149456612Y-95113549D01*
X149250797Y-95198590D01*
X148857471Y-95591230D01*
X148644343Y-96104500D01*
X148643858Y-96660261D01*
X148856090Y-97173903D01*
X149248730Y-97567229D01*
X149762000Y-97780357D01*
X150317761Y-97780842D01*
X150831403Y-97568610D01*
X151224729Y-97175970D01*
X151437857Y-96662700D01*
X151438342Y-96106939D01*
X151226110Y-95593297D01*
X150833470Y-95199971D01*
X150625588Y-95113651D01*
X150831403Y-95028610D01*
X151224729Y-94635970D01*
X151437857Y-94122700D01*
X151438342Y-93566939D01*
X151374755Y-93413047D01*
X154150560Y-90637242D01*
X154150560Y-91475000D01*
X154194838Y-91710317D01*
X154333910Y-91926441D01*
X154546110Y-92071431D01*
X154559197Y-92074081D01*
X154346559Y-92210910D01*
X154201569Y-92423110D01*
X154150560Y-92675000D01*
X154150560Y-94175000D01*
X154194838Y-94410317D01*
X154333910Y-94626441D01*
X154476186Y-94723654D01*
X154353569Y-94903110D01*
X154302560Y-95155000D01*
X154302560Y-96655000D01*
X154346838Y-96890317D01*
X154485910Y-97106441D01*
X154554006Y-97152969D01*
X154411673Y-97295302D01*
X154315000Y-97528691D01*
X154315000Y-98119250D01*
X154473750Y-98278000D01*
X155448000Y-98278000D01*
X155448000Y-98258000D01*
X155702000Y-98258000D01*
X155702000Y-98278000D01*
X156676250Y-98278000D01*
X156835000Y-98119250D01*
X156835000Y-97528691D01*
X156738327Y-97295302D01*
X156597090Y-97154064D01*
X156651441Y-97119090D01*
X156782675Y-96927022D01*
X156820910Y-96986441D01*
X157033110Y-97131431D01*
X157285000Y-97182440D01*
X158785000Y-97182440D01*
X159020317Y-97138162D01*
X159236441Y-96999090D01*
X159381431Y-96786890D01*
X159384081Y-96773803D01*
X159520910Y-96986441D01*
X159733110Y-97131431D01*
X159985000Y-97182440D01*
X161485000Y-97182440D01*
X161720317Y-97138162D01*
X161936441Y-96999090D01*
X161988142Y-96923424D01*
X162105910Y-97106441D01*
X162174006Y-97152969D01*
X162031673Y-97295302D01*
X161935000Y-97528691D01*
X161935000Y-98119250D01*
X162093750Y-98278000D01*
X163068000Y-98278000D01*
X163068000Y-98258000D01*
X163322000Y-98258000D01*
X163322000Y-98278000D01*
X164296250Y-98278000D01*
X164455000Y-98119250D01*
X164455000Y-97528691D01*
X164358327Y-97295302D01*
X164217090Y-97154064D01*
X164271441Y-97119090D01*
X164402675Y-96927022D01*
X164440910Y-96986441D01*
X164653110Y-97131431D01*
X164905000Y-97182440D01*
X166405000Y-97182440D01*
X166640317Y-97138162D01*
X166856441Y-96999090D01*
X167001431Y-96786890D01*
X167004081Y-96773803D01*
X167140910Y-96986441D01*
X167353110Y-97131431D01*
X167605000Y-97182440D01*
X169105000Y-97182440D01*
X169340317Y-97138162D01*
X169556441Y-96999090D01*
X169701431Y-96786890D01*
X169714977Y-96720000D01*
X170189791Y-96720000D01*
X170221838Y-96890317D01*
X170360910Y-97106441D01*
X170429006Y-97152969D01*
X170286673Y-97295302D01*
X170190000Y-97528691D01*
X170190000Y-98119250D01*
X170348750Y-98278000D01*
X171323000Y-98278000D01*
X171323000Y-98258000D01*
X171577000Y-98258000D01*
X171577000Y-98278000D01*
X172551250Y-98278000D01*
X172710000Y-98119250D01*
X172710000Y-97528691D01*
X172613327Y-97295302D01*
X172472090Y-97154064D01*
X172526441Y-97119090D01*
X172671431Y-96906890D01*
X172713327Y-96700000D01*
X173178607Y-96700000D01*
X173191838Y-96770317D01*
X173330910Y-96986441D01*
X173543110Y-97131431D01*
X173795000Y-97182440D01*
X175295000Y-97182440D01*
X175530317Y-97138162D01*
X175746441Y-96999090D01*
X175891431Y-96786890D01*
X175894081Y-96773803D01*
X176030910Y-96986441D01*
X176243110Y-97131431D01*
X176495000Y-97182440D01*
X177995000Y-97182440D01*
X178230317Y-97138162D01*
X178255000Y-97122279D01*
X178255000Y-98862560D01*
X177925000Y-98862560D01*
X177689683Y-98906838D01*
X177473559Y-99045910D01*
X177328569Y-99258110D01*
X177277560Y-99510000D01*
X177277560Y-104590000D01*
X177321838Y-104825317D01*
X177371182Y-104902000D01*
X176458084Y-104902000D01*
X176535000Y-104716309D01*
X176535000Y-102335750D01*
X176376250Y-102177000D01*
X174817000Y-102177000D01*
X174817000Y-102197000D01*
X174563000Y-102197000D01*
X174563000Y-102177000D01*
X173003750Y-102177000D01*
X172845000Y-102335750D01*
X172845000Y-104716309D01*
X172921916Y-104902000D01*
X172463335Y-104902000D01*
X172463335Y-101613000D01*
X154136442Y-101613000D01*
X154136557Y-101481766D01*
X153736247Y-100512942D01*
X152995657Y-99771058D01*
X152027533Y-99369058D01*
X150979266Y-99368143D01*
X150010442Y-99768453D01*
X149268558Y-100509043D01*
X148866558Y-101477167D01*
X148865643Y-102525434D01*
X149265953Y-103494258D01*
X150006543Y-104236142D01*
X150974667Y-104638142D01*
X152022934Y-104639057D01*
X152991758Y-104238747D01*
X153733642Y-103498157D01*
X153926665Y-103033306D01*
X153926665Y-104902000D01*
X148463337Y-104902000D01*
X148479768Y-98690750D01*
X154315000Y-98690750D01*
X154315000Y-99281309D01*
X154411673Y-99514698D01*
X154590301Y-99693327D01*
X154823690Y-99790000D01*
X155289250Y-99790000D01*
X155448000Y-99631250D01*
X155448000Y-98532000D01*
X155702000Y-98532000D01*
X155702000Y-99631250D01*
X155860750Y-99790000D01*
X156326310Y-99790000D01*
X156559699Y-99693327D01*
X156738327Y-99514698D01*
X156835000Y-99281309D01*
X156835000Y-98690750D01*
X161935000Y-98690750D01*
X161935000Y-99281309D01*
X162031673Y-99514698D01*
X162210301Y-99693327D01*
X162443690Y-99790000D01*
X162909250Y-99790000D01*
X163068000Y-99631250D01*
X163068000Y-98532000D01*
X163322000Y-98532000D01*
X163322000Y-99631250D01*
X163480750Y-99790000D01*
X163946310Y-99790000D01*
X164179699Y-99693327D01*
X164358327Y-99514698D01*
X164455000Y-99281309D01*
X164455000Y-98690750D01*
X170190000Y-98690750D01*
X170190000Y-99281309D01*
X170286673Y-99514698D01*
X170465301Y-99693327D01*
X170698690Y-99790000D01*
X171164250Y-99790000D01*
X171323000Y-99631250D01*
X171323000Y-98532000D01*
X171577000Y-98532000D01*
X171577000Y-99631250D01*
X171735750Y-99790000D01*
X172201310Y-99790000D01*
X172434699Y-99693327D01*
X172613327Y-99514698D01*
X172667591Y-99383691D01*
X172845000Y-99383691D01*
X172845000Y-101764250D01*
X173003750Y-101923000D01*
X174563000Y-101923000D01*
X174563000Y-101903000D01*
X174817000Y-101903000D01*
X174817000Y-101923000D01*
X176376250Y-101923000D01*
X176535000Y-101764250D01*
X176535000Y-99383691D01*
X176438327Y-99150302D01*
X176259699Y-98971673D01*
X176026310Y-98875000D01*
X175782129Y-98875000D01*
X175823149Y-98751436D01*
X175791018Y-98307032D01*
X175682768Y-98045692D01*
X175469200Y-98010405D01*
X175341315Y-98138290D01*
X175279699Y-98076673D01*
X175112838Y-98007557D01*
X175289595Y-97830800D01*
X175254308Y-97617232D01*
X174831436Y-97476851D01*
X174387032Y-97508982D01*
X174125692Y-97617232D01*
X174090405Y-97830800D01*
X174267162Y-98007557D01*
X174100301Y-98076673D01*
X174038685Y-98138290D01*
X173910800Y-98010405D01*
X173697232Y-98045692D01*
X173556851Y-98468564D01*
X173586237Y-98875000D01*
X173353690Y-98875000D01*
X173120301Y-98971673D01*
X172941673Y-99150302D01*
X172845000Y-99383691D01*
X172667591Y-99383691D01*
X172710000Y-99281309D01*
X172710000Y-98690750D01*
X172551250Y-98532000D01*
X171577000Y-98532000D01*
X171323000Y-98532000D01*
X170348750Y-98532000D01*
X170190000Y-98690750D01*
X164455000Y-98690750D01*
X164296250Y-98532000D01*
X163322000Y-98532000D01*
X163068000Y-98532000D01*
X162093750Y-98532000D01*
X161935000Y-98690750D01*
X156835000Y-98690750D01*
X156676250Y-98532000D01*
X155702000Y-98532000D01*
X155448000Y-98532000D01*
X154473750Y-98532000D01*
X154315000Y-98690750D01*
X148479768Y-98690750D01*
X148560337Y-68235902D01*
X148631956Y-68235902D01*
X148659738Y-68790968D01*
X148818703Y-69174743D01*
X149060887Y-69244208D01*
X149861495Y-68443600D01*
X149060887Y-67642992D01*
X148818703Y-67712457D01*
X148631956Y-68235902D01*
X148560337Y-68235902D01*
X148590000Y-57023352D01*
X157685536Y-57048478D01*
X157685536Y-57048478D01*
G37*
X157685536Y-57048478D02*
X157577599Y-57120599D01*
X157412852Y-57367161D01*
X157401632Y-57423566D01*
X157267638Y-57557560D01*
X155995000Y-57557560D01*
X155759683Y-57601838D01*
X155543559Y-57740910D01*
X155398569Y-57953110D01*
X155347560Y-58205000D01*
X155347560Y-59477638D01*
X154022366Y-60802832D01*
X154135642Y-60530033D01*
X154136557Y-59481766D01*
X153736247Y-58512942D01*
X152995657Y-57771058D01*
X152027533Y-57369058D01*
X150979266Y-57368143D01*
X150010442Y-57768453D01*
X149268558Y-58509043D01*
X148866558Y-59477167D01*
X148865643Y-60525434D01*
X149265953Y-61494258D01*
X150006543Y-62236142D01*
X150974667Y-62638142D01*
X152022934Y-62639057D01*
X152301061Y-62524137D01*
X150318357Y-64506841D01*
X149764439Y-64506358D01*
X149250797Y-64718590D01*
X148857471Y-65111230D01*
X148644343Y-65624500D01*
X148643858Y-66180261D01*
X148856090Y-66693903D01*
X149248730Y-67087229D01*
X149440827Y-67166995D01*
X149309957Y-67221203D01*
X149240492Y-67463387D01*
X150041100Y-68263995D01*
X150055243Y-68249853D01*
X150234848Y-68429458D01*
X150220705Y-68443600D01*
X150234848Y-68457743D01*
X150055243Y-68637348D01*
X150041100Y-68623205D01*
X149240492Y-69423813D01*
X149309957Y-69665997D01*
X149450418Y-69716109D01*
X149250797Y-69798590D01*
X148857471Y-70191230D01*
X148644343Y-70704500D01*
X148643858Y-71260261D01*
X148856090Y-71773903D01*
X149248730Y-72167229D01*
X149456612Y-72253549D01*
X149250797Y-72338590D01*
X148857471Y-72731230D01*
X148644343Y-73244500D01*
X148643858Y-73800261D01*
X148856090Y-74313903D01*
X149248730Y-74707229D01*
X149456612Y-74793549D01*
X149250797Y-74878590D01*
X148857471Y-75271230D01*
X148644343Y-75784500D01*
X148643858Y-76340261D01*
X148856090Y-76853903D01*
X149248730Y-77247229D01*
X149456612Y-77333549D01*
X149250797Y-77418590D01*
X148857471Y-77811230D01*
X148644343Y-78324500D01*
X148643858Y-78880261D01*
X148856090Y-79393903D01*
X149248730Y-79787229D01*
X149456612Y-79873549D01*
X149250797Y-79958590D01*
X148857471Y-80351230D01*
X148644343Y-80864500D01*
X148643858Y-81420261D01*
X148856090Y-81933903D01*
X149248730Y-82327229D01*
X149456612Y-82413549D01*
X149250797Y-82498590D01*
X148857471Y-82891230D01*
X148644343Y-83404500D01*
X148643858Y-83960261D01*
X148856090Y-84473903D01*
X149248730Y-84867229D01*
X149456612Y-84953549D01*
X149250797Y-85038590D01*
X148857471Y-85431230D01*
X148644343Y-85944500D01*
X148643858Y-86500261D01*
X148856090Y-87013903D01*
X149248730Y-87407229D01*
X149456612Y-87493549D01*
X149250797Y-87578590D01*
X148857471Y-87971230D01*
X148644343Y-88484500D01*
X148643858Y-89040261D01*
X148856090Y-89553903D01*
X149248730Y-89947229D01*
X149456612Y-90033549D01*
X149250797Y-90118590D01*
X148857471Y-90511230D01*
X148644343Y-91024500D01*
X148643858Y-91580261D01*
X148856090Y-92093903D01*
X149248730Y-92487229D01*
X149456612Y-92573549D01*
X149250797Y-92658590D01*
X148857471Y-93051230D01*
X148644343Y-93564500D01*
X148643858Y-94120261D01*
X148856090Y-94633903D01*
X149248730Y-95027229D01*
X149456612Y-95113549D01*
X149250797Y-95198590D01*
X148857471Y-95591230D01*
X148644343Y-96104500D01*
X148643858Y-96660261D01*
X148856090Y-97173903D01*
X149248730Y-97567229D01*
X149762000Y-97780357D01*
X150317761Y-97780842D01*
X150831403Y-97568610D01*
X151224729Y-97175970D01*
X151437857Y-96662700D01*
X151438342Y-96106939D01*
X151226110Y-95593297D01*
X150833470Y-95199971D01*
X150625588Y-95113651D01*
X150831403Y-95028610D01*
X151224729Y-94635970D01*
X151437857Y-94122700D01*
X151438342Y-93566939D01*
X151374755Y-93413047D01*
X154150560Y-90637242D01*
X154150560Y-91475000D01*
X154194838Y-91710317D01*
X154333910Y-91926441D01*
X154546110Y-92071431D01*
X154559197Y-92074081D01*
X154346559Y-92210910D01*
X154201569Y-92423110D01*
X154150560Y-92675000D01*
X154150560Y-94175000D01*
X154194838Y-94410317D01*
X154333910Y-94626441D01*
X154476186Y-94723654D01*
X154353569Y-94903110D01*
X154302560Y-95155000D01*
X154302560Y-96655000D01*
X154346838Y-96890317D01*
X154485910Y-97106441D01*
X154554006Y-97152969D01*
X154411673Y-97295302D01*
X154315000Y-97528691D01*
X154315000Y-98119250D01*
X154473750Y-98278000D01*
X155448000Y-98278000D01*
X155448000Y-98258000D01*
X155702000Y-98258000D01*
X155702000Y-98278000D01*
X156676250Y-98278000D01*
X156835000Y-98119250D01*
X156835000Y-97528691D01*
X156738327Y-97295302D01*
X156597090Y-97154064D01*
X156651441Y-97119090D01*
X156782675Y-96927022D01*
X156820910Y-96986441D01*
X157033110Y-97131431D01*
X157285000Y-97182440D01*
X158785000Y-97182440D01*
X159020317Y-97138162D01*
X159236441Y-96999090D01*
X159381431Y-96786890D01*
X159384081Y-96773803D01*
X159520910Y-96986441D01*
X159733110Y-97131431D01*
X159985000Y-97182440D01*
X161485000Y-97182440D01*
X161720317Y-97138162D01*
X161936441Y-96999090D01*
X161988142Y-96923424D01*
X162105910Y-97106441D01*
X162174006Y-97152969D01*
X162031673Y-97295302D01*
X161935000Y-97528691D01*
X161935000Y-98119250D01*
X162093750Y-98278000D01*
X163068000Y-98278000D01*
X163068000Y-98258000D01*
X163322000Y-98258000D01*
X163322000Y-98278000D01*
X164296250Y-98278000D01*
X164455000Y-98119250D01*
X164455000Y-97528691D01*
X164358327Y-97295302D01*
X164217090Y-97154064D01*
X164271441Y-97119090D01*
X164402675Y-96927022D01*
X164440910Y-96986441D01*
X164653110Y-97131431D01*
X164905000Y-97182440D01*
X166405000Y-97182440D01*
X166640317Y-97138162D01*
X166856441Y-96999090D01*
X167001431Y-96786890D01*
X167004081Y-96773803D01*
X167140910Y-96986441D01*
X167353110Y-97131431D01*
X167605000Y-97182440D01*
X169105000Y-97182440D01*
X169340317Y-97138162D01*
X169556441Y-96999090D01*
X169701431Y-96786890D01*
X169714977Y-96720000D01*
X170189791Y-96720000D01*
X170221838Y-96890317D01*
X170360910Y-97106441D01*
X170429006Y-97152969D01*
X170286673Y-97295302D01*
X170190000Y-97528691D01*
X170190000Y-98119250D01*
X170348750Y-98278000D01*
X171323000Y-98278000D01*
X171323000Y-98258000D01*
X171577000Y-98258000D01*
X171577000Y-98278000D01*
X172551250Y-98278000D01*
X172710000Y-98119250D01*
X172710000Y-97528691D01*
X172613327Y-97295302D01*
X172472090Y-97154064D01*
X172526441Y-97119090D01*
X172671431Y-96906890D01*
X172713327Y-96700000D01*
X173178607Y-96700000D01*
X173191838Y-96770317D01*
X173330910Y-96986441D01*
X173543110Y-97131431D01*
X173795000Y-97182440D01*
X175295000Y-97182440D01*
X175530317Y-97138162D01*
X175746441Y-96999090D01*
X175891431Y-96786890D01*
X175894081Y-96773803D01*
X176030910Y-96986441D01*
X176243110Y-97131431D01*
X176495000Y-97182440D01*
X177995000Y-97182440D01*
X178230317Y-97138162D01*
X178255000Y-97122279D01*
X178255000Y-98862560D01*
X177925000Y-98862560D01*
X177689683Y-98906838D01*
X177473559Y-99045910D01*
X177328569Y-99258110D01*
X177277560Y-99510000D01*
X177277560Y-104590000D01*
X177321838Y-104825317D01*
X177371182Y-104902000D01*
X176458084Y-104902000D01*
X176535000Y-104716309D01*
X176535000Y-102335750D01*
X176376250Y-102177000D01*
X174817000Y-102177000D01*
X174817000Y-102197000D01*
X174563000Y-102197000D01*
X174563000Y-102177000D01*
X173003750Y-102177000D01*
X172845000Y-102335750D01*
X172845000Y-104716309D01*
X172921916Y-104902000D01*
X172463335Y-104902000D01*
X172463335Y-101613000D01*
X154136442Y-101613000D01*
X154136557Y-101481766D01*
X153736247Y-100512942D01*
X152995657Y-99771058D01*
X152027533Y-99369058D01*
X150979266Y-99368143D01*
X150010442Y-99768453D01*
X149268558Y-100509043D01*
X148866558Y-101477167D01*
X148865643Y-102525434D01*
X149265953Y-103494258D01*
X150006543Y-104236142D01*
X150974667Y-104638142D01*
X152022934Y-104639057D01*
X152991758Y-104238747D01*
X153733642Y-103498157D01*
X153926665Y-103033306D01*
X153926665Y-104902000D01*
X148463337Y-104902000D01*
X148479768Y-98690750D01*
X154315000Y-98690750D01*
X154315000Y-99281309D01*
X154411673Y-99514698D01*
X154590301Y-99693327D01*
X154823690Y-99790000D01*
X155289250Y-99790000D01*
X155448000Y-99631250D01*
X155448000Y-98532000D01*
X155702000Y-98532000D01*
X155702000Y-99631250D01*
X155860750Y-99790000D01*
X156326310Y-99790000D01*
X156559699Y-99693327D01*
X156738327Y-99514698D01*
X156835000Y-99281309D01*
X156835000Y-98690750D01*
X161935000Y-98690750D01*
X161935000Y-99281309D01*
X162031673Y-99514698D01*
X162210301Y-99693327D01*
X162443690Y-99790000D01*
X162909250Y-99790000D01*
X163068000Y-99631250D01*
X163068000Y-98532000D01*
X163322000Y-98532000D01*
X163322000Y-99631250D01*
X163480750Y-99790000D01*
X163946310Y-99790000D01*
X164179699Y-99693327D01*
X164358327Y-99514698D01*
X164455000Y-99281309D01*
X164455000Y-98690750D01*
X170190000Y-98690750D01*
X170190000Y-99281309D01*
X170286673Y-99514698D01*
X170465301Y-99693327D01*
X170698690Y-99790000D01*
X171164250Y-99790000D01*
X171323000Y-99631250D01*
X171323000Y-98532000D01*
X171577000Y-98532000D01*
X171577000Y-99631250D01*
X171735750Y-99790000D01*
X172201310Y-99790000D01*
X172434699Y-99693327D01*
X172613327Y-99514698D01*
X172667591Y-99383691D01*
X172845000Y-99383691D01*
X172845000Y-101764250D01*
X173003750Y-101923000D01*
X174563000Y-101923000D01*
X174563000Y-101903000D01*
X174817000Y-101903000D01*
X174817000Y-101923000D01*
X176376250Y-101923000D01*
X176535000Y-101764250D01*
X176535000Y-99383691D01*
X176438327Y-99150302D01*
X176259699Y-98971673D01*
X176026310Y-98875000D01*
X175782129Y-98875000D01*
X175823149Y-98751436D01*
X175791018Y-98307032D01*
X175682768Y-98045692D01*
X175469200Y-98010405D01*
X175341315Y-98138290D01*
X175279699Y-98076673D01*
X175112838Y-98007557D01*
X175289595Y-97830800D01*
X175254308Y-97617232D01*
X174831436Y-97476851D01*
X174387032Y-97508982D01*
X174125692Y-97617232D01*
X174090405Y-97830800D01*
X174267162Y-98007557D01*
X174100301Y-98076673D01*
X174038685Y-98138290D01*
X173910800Y-98010405D01*
X173697232Y-98045692D01*
X173556851Y-98468564D01*
X173586237Y-98875000D01*
X173353690Y-98875000D01*
X173120301Y-98971673D01*
X172941673Y-99150302D01*
X172845000Y-99383691D01*
X172667591Y-99383691D01*
X172710000Y-99281309D01*
X172710000Y-98690750D01*
X172551250Y-98532000D01*
X171577000Y-98532000D01*
X171323000Y-98532000D01*
X170348750Y-98532000D01*
X170190000Y-98690750D01*
X164455000Y-98690750D01*
X164296250Y-98532000D01*
X163322000Y-98532000D01*
X163068000Y-98532000D01*
X162093750Y-98532000D01*
X161935000Y-98690750D01*
X156835000Y-98690750D01*
X156676250Y-98532000D01*
X155702000Y-98532000D01*
X155448000Y-98532000D01*
X154473750Y-98532000D01*
X154315000Y-98690750D01*
X148479768Y-98690750D01*
X148560337Y-68235902D01*
X148631956Y-68235902D01*
X148659738Y-68790968D01*
X148818703Y-69174743D01*
X149060887Y-69244208D01*
X149861495Y-68443600D01*
X149060887Y-67642992D01*
X148818703Y-67712457D01*
X148631956Y-68235902D01*
X148560337Y-68235902D01*
X148590000Y-57023352D01*
X157685536Y-57048478D01*
G36*
X164473910Y-89747441D02*
X164686110Y-89892431D01*
X164938000Y-89943440D01*
X166438000Y-89943440D01*
X166673317Y-89899162D01*
X166889441Y-89760090D01*
X166996484Y-89603428D01*
X167058910Y-89700441D01*
X167271110Y-89845431D01*
X167523000Y-89896440D01*
X168773000Y-89896440D01*
X169008317Y-89852162D01*
X169224441Y-89713090D01*
X169290674Y-89616155D01*
X169344910Y-89700441D01*
X169557110Y-89845431D01*
X169809000Y-89896440D01*
X171059000Y-89896440D01*
X171206000Y-89868780D01*
X171206000Y-90304309D01*
X171302673Y-90537698D01*
X171443910Y-90678936D01*
X171389559Y-90713910D01*
X171244569Y-90926110D01*
X171193560Y-91178000D01*
X171193560Y-92678000D01*
X171237838Y-92913317D01*
X171376910Y-93129441D01*
X171589110Y-93274431D01*
X171748925Y-93306794D01*
X171763852Y-93381839D01*
X171928599Y-93628401D01*
X172690599Y-94390401D01*
X172937161Y-94555148D01*
X173228000Y-94613000D01*
X173659798Y-94613000D01*
X173559683Y-94631838D01*
X173343559Y-94770910D01*
X173198569Y-94983110D01*
X173180973Y-95070000D01*
X172706446Y-95070000D01*
X172678162Y-94919683D01*
X172539090Y-94703559D01*
X172326890Y-94558569D01*
X172075000Y-94507560D01*
X170825000Y-94507560D01*
X170589683Y-94551838D01*
X170373559Y-94690910D01*
X170228569Y-94903110D01*
X170190723Y-95090000D01*
X169725156Y-95090000D01*
X169708162Y-94999683D01*
X169569090Y-94783559D01*
X169356890Y-94638569D01*
X169105000Y-94587560D01*
X167605000Y-94587560D01*
X167369683Y-94631838D01*
X167153559Y-94770910D01*
X167008569Y-94983110D01*
X167005919Y-94996197D01*
X166869090Y-94783559D01*
X166656890Y-94638569D01*
X166405000Y-94587560D01*
X164905000Y-94587560D01*
X164669683Y-94631838D01*
X164453559Y-94770910D01*
X164388603Y-94865977D01*
X164284090Y-94703559D01*
X164071890Y-94558569D01*
X163820000Y-94507560D01*
X162570000Y-94507560D01*
X162334683Y-94551838D01*
X162118559Y-94690910D01*
X162000580Y-94863577D01*
X161949090Y-94783559D01*
X161736890Y-94638569D01*
X161485000Y-94587560D01*
X159985000Y-94587560D01*
X159749683Y-94631838D01*
X159533559Y-94770910D01*
X159388569Y-94983110D01*
X159385919Y-94996197D01*
X159249090Y-94783559D01*
X159036890Y-94638569D01*
X158785000Y-94587560D01*
X157285000Y-94587560D01*
X157049683Y-94631838D01*
X156833559Y-94770910D01*
X156768603Y-94865977D01*
X156664090Y-94703559D01*
X156555900Y-94629636D01*
X156694431Y-94426890D01*
X156745440Y-94175000D01*
X156745440Y-92675000D01*
X156701162Y-92439683D01*
X156562090Y-92223559D01*
X156349890Y-92078569D01*
X156336803Y-92075919D01*
X156549441Y-91939090D01*
X156694431Y-91726890D01*
X156724430Y-91578750D01*
X159268000Y-91578750D01*
X159268000Y-92169309D01*
X159364673Y-92402698D01*
X159543301Y-92581327D01*
X159776690Y-92678000D01*
X160242250Y-92678000D01*
X160401000Y-92519250D01*
X160401000Y-91420000D01*
X160655000Y-91420000D01*
X160655000Y-92519250D01*
X160813750Y-92678000D01*
X161279310Y-92678000D01*
X161512699Y-92581327D01*
X161691327Y-92402698D01*
X161788000Y-92169309D01*
X161788000Y-91578750D01*
X161629250Y-91420000D01*
X160655000Y-91420000D01*
X160401000Y-91420000D01*
X159426750Y-91420000D01*
X159268000Y-91578750D01*
X156724430Y-91578750D01*
X156745440Y-91475000D01*
X156745440Y-89975000D01*
X156702732Y-89748025D01*
X156707317Y-89747162D01*
X156923441Y-89608090D01*
X156971134Y-89538289D01*
X157007910Y-89595441D01*
X157220110Y-89740431D01*
X157472000Y-89791440D01*
X158972000Y-89791440D01*
X159207317Y-89747162D01*
X159284616Y-89697421D01*
X159299838Y-89778317D01*
X159438910Y-89994441D01*
X159507006Y-90040969D01*
X159364673Y-90183302D01*
X159268000Y-90416691D01*
X159268000Y-91007250D01*
X159426750Y-91166000D01*
X160401000Y-91166000D01*
X160401000Y-91146000D01*
X160655000Y-91146000D01*
X160655000Y-91166000D01*
X161629250Y-91166000D01*
X161788000Y-91007250D01*
X161788000Y-90416691D01*
X161691327Y-90183302D01*
X161550090Y-90042064D01*
X161604441Y-90007090D01*
X161749431Y-89794890D01*
X161762599Y-89729864D01*
X161773910Y-89747441D01*
X161986110Y-89892431D01*
X162238000Y-89943440D01*
X163738000Y-89943440D01*
X163973317Y-89899162D01*
X164189441Y-89760090D01*
X164334431Y-89547890D01*
X164337081Y-89534803D01*
X164473910Y-89747441D01*
X164473910Y-89747441D01*
G37*
X164473910Y-89747441D02*
X164686110Y-89892431D01*
X164938000Y-89943440D01*
X166438000Y-89943440D01*
X166673317Y-89899162D01*
X166889441Y-89760090D01*
X166996484Y-89603428D01*
X167058910Y-89700441D01*
X167271110Y-89845431D01*
X167523000Y-89896440D01*
X168773000Y-89896440D01*
X169008317Y-89852162D01*
X169224441Y-89713090D01*
X169290674Y-89616155D01*
X169344910Y-89700441D01*
X169557110Y-89845431D01*
X169809000Y-89896440D01*
X171059000Y-89896440D01*
X171206000Y-89868780D01*
X171206000Y-90304309D01*
X171302673Y-90537698D01*
X171443910Y-90678936D01*
X171389559Y-90713910D01*
X171244569Y-90926110D01*
X171193560Y-91178000D01*
X171193560Y-92678000D01*
X171237838Y-92913317D01*
X171376910Y-93129441D01*
X171589110Y-93274431D01*
X171748925Y-93306794D01*
X171763852Y-93381839D01*
X171928599Y-93628401D01*
X172690599Y-94390401D01*
X172937161Y-94555148D01*
X173228000Y-94613000D01*
X173659798Y-94613000D01*
X173559683Y-94631838D01*
X173343559Y-94770910D01*
X173198569Y-94983110D01*
X173180973Y-95070000D01*
X172706446Y-95070000D01*
X172678162Y-94919683D01*
X172539090Y-94703559D01*
X172326890Y-94558569D01*
X172075000Y-94507560D01*
X170825000Y-94507560D01*
X170589683Y-94551838D01*
X170373559Y-94690910D01*
X170228569Y-94903110D01*
X170190723Y-95090000D01*
X169725156Y-95090000D01*
X169708162Y-94999683D01*
X169569090Y-94783559D01*
X169356890Y-94638569D01*
X169105000Y-94587560D01*
X167605000Y-94587560D01*
X167369683Y-94631838D01*
X167153559Y-94770910D01*
X167008569Y-94983110D01*
X167005919Y-94996197D01*
X166869090Y-94783559D01*
X166656890Y-94638569D01*
X166405000Y-94587560D01*
X164905000Y-94587560D01*
X164669683Y-94631838D01*
X164453559Y-94770910D01*
X164388603Y-94865977D01*
X164284090Y-94703559D01*
X164071890Y-94558569D01*
X163820000Y-94507560D01*
X162570000Y-94507560D01*
X162334683Y-94551838D01*
X162118559Y-94690910D01*
X162000580Y-94863577D01*
X161949090Y-94783559D01*
X161736890Y-94638569D01*
X161485000Y-94587560D01*
X159985000Y-94587560D01*
X159749683Y-94631838D01*
X159533559Y-94770910D01*
X159388569Y-94983110D01*
X159385919Y-94996197D01*
X159249090Y-94783559D01*
X159036890Y-94638569D01*
X158785000Y-94587560D01*
X157285000Y-94587560D01*
X157049683Y-94631838D01*
X156833559Y-94770910D01*
X156768603Y-94865977D01*
X156664090Y-94703559D01*
X156555900Y-94629636D01*
X156694431Y-94426890D01*
X156745440Y-94175000D01*
X156745440Y-92675000D01*
X156701162Y-92439683D01*
X156562090Y-92223559D01*
X156349890Y-92078569D01*
X156336803Y-92075919D01*
X156549441Y-91939090D01*
X156694431Y-91726890D01*
X156724430Y-91578750D01*
X159268000Y-91578750D01*
X159268000Y-92169309D01*
X159364673Y-92402698D01*
X159543301Y-92581327D01*
X159776690Y-92678000D01*
X160242250Y-92678000D01*
X160401000Y-92519250D01*
X160401000Y-91420000D01*
X160655000Y-91420000D01*
X160655000Y-92519250D01*
X160813750Y-92678000D01*
X161279310Y-92678000D01*
X161512699Y-92581327D01*
X161691327Y-92402698D01*
X161788000Y-92169309D01*
X161788000Y-91578750D01*
X161629250Y-91420000D01*
X160655000Y-91420000D01*
X160401000Y-91420000D01*
X159426750Y-91420000D01*
X159268000Y-91578750D01*
X156724430Y-91578750D01*
X156745440Y-91475000D01*
X156745440Y-89975000D01*
X156702732Y-89748025D01*
X156707317Y-89747162D01*
X156923441Y-89608090D01*
X156971134Y-89538289D01*
X157007910Y-89595441D01*
X157220110Y-89740431D01*
X157472000Y-89791440D01*
X158972000Y-89791440D01*
X159207317Y-89747162D01*
X159284616Y-89697421D01*
X159299838Y-89778317D01*
X159438910Y-89994441D01*
X159507006Y-90040969D01*
X159364673Y-90183302D01*
X159268000Y-90416691D01*
X159268000Y-91007250D01*
X159426750Y-91166000D01*
X160401000Y-91166000D01*
X160401000Y-91146000D01*
X160655000Y-91146000D01*
X160655000Y-91166000D01*
X161629250Y-91166000D01*
X161788000Y-91007250D01*
X161788000Y-90416691D01*
X161691327Y-90183302D01*
X161550090Y-90042064D01*
X161604441Y-90007090D01*
X161749431Y-89794890D01*
X161762599Y-89729864D01*
X161773910Y-89747441D01*
X161986110Y-89892431D01*
X162238000Y-89943440D01*
X163738000Y-89943440D01*
X163973317Y-89899162D01*
X164189441Y-89760090D01*
X164334431Y-89547890D01*
X164337081Y-89534803D01*
X164473910Y-89747441D01*
G36*
X189284343Y-88484500D02*
X189283858Y-89040261D01*
X189496090Y-89553903D01*
X189888730Y-89947229D01*
X190080827Y-90026995D01*
X189949957Y-90081203D01*
X189880492Y-90323387D01*
X190681100Y-91123995D01*
X191481708Y-90323387D01*
X191412243Y-90081203D01*
X191271782Y-90031091D01*
X191471403Y-89948610D01*
X191864729Y-89555970D01*
X191951049Y-89348088D01*
X192036090Y-89553903D01*
X192428730Y-89947229D01*
X192636612Y-90033549D01*
X192430797Y-90118590D01*
X192037471Y-90511230D01*
X191957705Y-90703327D01*
X191903497Y-90572457D01*
X191661313Y-90502992D01*
X190860705Y-91303600D01*
X191661313Y-92104208D01*
X191903497Y-92034743D01*
X191953609Y-91894282D01*
X192036090Y-92093903D01*
X192428730Y-92487229D01*
X192636612Y-92573549D01*
X192430797Y-92658590D01*
X192037471Y-93051230D01*
X191951151Y-93259112D01*
X191866110Y-93053297D01*
X191473470Y-92659971D01*
X191281373Y-92580205D01*
X191412243Y-92525997D01*
X191481708Y-92283813D01*
X190681100Y-91483205D01*
X190666958Y-91497348D01*
X190487353Y-91317743D01*
X190501495Y-91303600D01*
X189700887Y-90502992D01*
X189458703Y-90572457D01*
X189271956Y-91095902D01*
X189288328Y-91423003D01*
X189232440Y-91385660D01*
X189232440Y-91305000D01*
X189188162Y-91069683D01*
X189049090Y-90853559D01*
X188980994Y-90807031D01*
X189123327Y-90664698D01*
X189220000Y-90431309D01*
X189220000Y-89840750D01*
X189061250Y-89682000D01*
X188087000Y-89682000D01*
X188087000Y-89702000D01*
X187833000Y-89702000D01*
X187833000Y-89682000D01*
X187813000Y-89682000D01*
X187813000Y-89428000D01*
X187833000Y-89428000D01*
X187833000Y-89408000D01*
X188087000Y-89408000D01*
X188087000Y-89428000D01*
X189061250Y-89428000D01*
X189220000Y-89269250D01*
X189220000Y-88678691D01*
X189123327Y-88445302D01*
X189004047Y-88326022D01*
X189061441Y-88289090D01*
X189079268Y-88263000D01*
X189376318Y-88263000D01*
X189284343Y-88484500D01*
X189284343Y-88484500D01*
G37*
X189284343Y-88484500D02*
X189283858Y-89040261D01*
X189496090Y-89553903D01*
X189888730Y-89947229D01*
X190080827Y-90026995D01*
X189949957Y-90081203D01*
X189880492Y-90323387D01*
X190681100Y-91123995D01*
X191481708Y-90323387D01*
X191412243Y-90081203D01*
X191271782Y-90031091D01*
X191471403Y-89948610D01*
X191864729Y-89555970D01*
X191951049Y-89348088D01*
X192036090Y-89553903D01*
X192428730Y-89947229D01*
X192636612Y-90033549D01*
X192430797Y-90118590D01*
X192037471Y-90511230D01*
X191957705Y-90703327D01*
X191903497Y-90572457D01*
X191661313Y-90502992D01*
X190860705Y-91303600D01*
X191661313Y-92104208D01*
X191903497Y-92034743D01*
X191953609Y-91894282D01*
X192036090Y-92093903D01*
X192428730Y-92487229D01*
X192636612Y-92573549D01*
X192430797Y-92658590D01*
X192037471Y-93051230D01*
X191951151Y-93259112D01*
X191866110Y-93053297D01*
X191473470Y-92659971D01*
X191281373Y-92580205D01*
X191412243Y-92525997D01*
X191481708Y-92283813D01*
X190681100Y-91483205D01*
X190666958Y-91497348D01*
X190487353Y-91317743D01*
X190501495Y-91303600D01*
X189700887Y-90502992D01*
X189458703Y-90572457D01*
X189271956Y-91095902D01*
X189288328Y-91423003D01*
X189232440Y-91385660D01*
X189232440Y-91305000D01*
X189188162Y-91069683D01*
X189049090Y-90853559D01*
X188980994Y-90807031D01*
X189123327Y-90664698D01*
X189220000Y-90431309D01*
X189220000Y-89840750D01*
X189061250Y-89682000D01*
X188087000Y-89682000D01*
X188087000Y-89702000D01*
X187833000Y-89702000D01*
X187833000Y-89682000D01*
X187813000Y-89682000D01*
X187813000Y-89428000D01*
X187833000Y-89428000D01*
X187833000Y-89408000D01*
X188087000Y-89408000D01*
X188087000Y-89428000D01*
X189061250Y-89428000D01*
X189220000Y-89269250D01*
X189220000Y-88678691D01*
X189123327Y-88445302D01*
X189004047Y-88326022D01*
X189061441Y-88289090D01*
X189079268Y-88263000D01*
X189376318Y-88263000D01*
X189284343Y-88484500D01*
G36*
X178718560Y-87329000D02*
X178762838Y-87564317D01*
X178901910Y-87780441D01*
X179114110Y-87925431D01*
X179366000Y-87976440D01*
X179611638Y-87976440D01*
X179805198Y-88170000D01*
X179588690Y-88170000D01*
X179355301Y-88266673D01*
X179176673Y-88445302D01*
X179080000Y-88678691D01*
X179080000Y-89269250D01*
X179238750Y-89428000D01*
X180213000Y-89428000D01*
X180213000Y-89408000D01*
X180467000Y-89408000D01*
X180467000Y-89428000D01*
X180487000Y-89428000D01*
X180487000Y-89682000D01*
X180467000Y-89682000D01*
X180467000Y-89702000D01*
X180213000Y-89702000D01*
X180213000Y-89682000D01*
X179238750Y-89682000D01*
X179080000Y-89840750D01*
X179080000Y-90431309D01*
X179176673Y-90664698D01*
X179317910Y-90805936D01*
X179263559Y-90840910D01*
X179118569Y-91053110D01*
X179084773Y-91220000D01*
X178966440Y-91220000D01*
X178966440Y-91205000D01*
X178922162Y-90969683D01*
X178816518Y-90805507D01*
X178857327Y-90764698D01*
X178954000Y-90531309D01*
X178954000Y-89915750D01*
X178795250Y-89757000D01*
X177546000Y-89757000D01*
X177546000Y-89777000D01*
X177292000Y-89777000D01*
X177292000Y-89757000D01*
X177272000Y-89757000D01*
X177272000Y-89503000D01*
X177292000Y-89503000D01*
X177292000Y-89483000D01*
X177546000Y-89483000D01*
X177546000Y-89503000D01*
X178795250Y-89503000D01*
X178954000Y-89344250D01*
X178954000Y-88728691D01*
X178857327Y-88495302D01*
X178678699Y-88316673D01*
X178445310Y-88220000D01*
X178284802Y-88220000D01*
X178353401Y-88151401D01*
X178518148Y-87904839D01*
X178576000Y-87614000D01*
X178576000Y-86934105D01*
X178717441Y-86843090D01*
X178718560Y-86841452D01*
X178718560Y-87329000D01*
X178718560Y-87329000D01*
G37*
X178718560Y-87329000D02*
X178762838Y-87564317D01*
X178901910Y-87780441D01*
X179114110Y-87925431D01*
X179366000Y-87976440D01*
X179611638Y-87976440D01*
X179805198Y-88170000D01*
X179588690Y-88170000D01*
X179355301Y-88266673D01*
X179176673Y-88445302D01*
X179080000Y-88678691D01*
X179080000Y-89269250D01*
X179238750Y-89428000D01*
X180213000Y-89428000D01*
X180213000Y-89408000D01*
X180467000Y-89408000D01*
X180467000Y-89428000D01*
X180487000Y-89428000D01*
X180487000Y-89682000D01*
X180467000Y-89682000D01*
X180467000Y-89702000D01*
X180213000Y-89702000D01*
X180213000Y-89682000D01*
X179238750Y-89682000D01*
X179080000Y-89840750D01*
X179080000Y-90431309D01*
X179176673Y-90664698D01*
X179317910Y-90805936D01*
X179263559Y-90840910D01*
X179118569Y-91053110D01*
X179084773Y-91220000D01*
X178966440Y-91220000D01*
X178966440Y-91205000D01*
X178922162Y-90969683D01*
X178816518Y-90805507D01*
X178857327Y-90764698D01*
X178954000Y-90531309D01*
X178954000Y-89915750D01*
X178795250Y-89757000D01*
X177546000Y-89757000D01*
X177546000Y-89777000D01*
X177292000Y-89777000D01*
X177292000Y-89757000D01*
X177272000Y-89757000D01*
X177272000Y-89503000D01*
X177292000Y-89503000D01*
X177292000Y-89483000D01*
X177546000Y-89483000D01*
X177546000Y-89503000D01*
X178795250Y-89503000D01*
X178954000Y-89344250D01*
X178954000Y-88728691D01*
X178857327Y-88495302D01*
X178678699Y-88316673D01*
X178445310Y-88220000D01*
X178284802Y-88220000D01*
X178353401Y-88151401D01*
X178518148Y-87904839D01*
X178576000Y-87614000D01*
X178576000Y-86934105D01*
X178717441Y-86843090D01*
X178718560Y-86841452D01*
X178718560Y-87329000D01*
G36*
X183536838Y-89995317D02*
X183642000Y-90158743D01*
X183642000Y-90236250D01*
X183800750Y-90395000D01*
X183966310Y-90395000D01*
X184003171Y-90379732D01*
X184140000Y-90407440D01*
X184691862Y-90407440D01*
X184691841Y-90431400D01*
X184641683Y-90440838D01*
X184425559Y-90579910D01*
X184280569Y-90792110D01*
X184277919Y-90805197D01*
X184141090Y-90592559D01*
X183928890Y-90447569D01*
X183677000Y-90396560D01*
X183433914Y-90396560D01*
X183434162Y-90111833D01*
X183428125Y-90097223D01*
X183486431Y-90011890D01*
X183514176Y-89874880D01*
X183536838Y-89995317D01*
X183536838Y-89995317D01*
G37*
X183536838Y-89995317D02*
X183642000Y-90158743D01*
X183642000Y-90236250D01*
X183800750Y-90395000D01*
X183966310Y-90395000D01*
X184003171Y-90379732D01*
X184140000Y-90407440D01*
X184691862Y-90407440D01*
X184691841Y-90431400D01*
X184641683Y-90440838D01*
X184425559Y-90579910D01*
X184280569Y-90792110D01*
X184277919Y-90805197D01*
X184141090Y-90592559D01*
X183928890Y-90447569D01*
X183677000Y-90396560D01*
X183433914Y-90396560D01*
X183434162Y-90111833D01*
X183428125Y-90097223D01*
X183486431Y-90011890D01*
X183514176Y-89874880D01*
X183536838Y-89995317D01*
G36*
X172593000Y-89301000D02*
X172613000Y-89301000D01*
X172613000Y-89555000D01*
X172593000Y-89555000D01*
X172593000Y-89575000D01*
X172339000Y-89575000D01*
X172339000Y-89555000D01*
X172319000Y-89555000D01*
X172319000Y-89301000D01*
X172339000Y-89301000D01*
X172339000Y-89281000D01*
X172593000Y-89281000D01*
X172593000Y-89301000D01*
X172593000Y-89301000D01*
G37*
X172593000Y-89301000D02*
X172613000Y-89301000D01*
X172613000Y-89555000D01*
X172593000Y-89555000D01*
X172593000Y-89575000D01*
X172339000Y-89575000D01*
X172339000Y-89555000D01*
X172319000Y-89555000D01*
X172319000Y-89301000D01*
X172339000Y-89301000D01*
X172339000Y-89281000D01*
X172593000Y-89281000D01*
X172593000Y-89301000D01*
G36*
X154981838Y-68315317D02*
X155120910Y-68531441D01*
X155190711Y-68579134D01*
X155133559Y-68615910D01*
X154988569Y-68828110D01*
X154937560Y-69080000D01*
X154937560Y-70580000D01*
X154981838Y-70815317D01*
X155120910Y-71031441D01*
X155164101Y-71060952D01*
X154988559Y-71173910D01*
X154942031Y-71242006D01*
X154799698Y-71099673D01*
X154566309Y-71003000D01*
X153975750Y-71003000D01*
X153817000Y-71161750D01*
X153817000Y-72136000D01*
X153837000Y-72136000D01*
X153837000Y-72390000D01*
X153817000Y-72390000D01*
X153817000Y-73364250D01*
X153975750Y-73523000D01*
X154566309Y-73523000D01*
X154799698Y-73426327D01*
X154940936Y-73285090D01*
X154975910Y-73339441D01*
X155188110Y-73484431D01*
X155440000Y-73535440D01*
X155454719Y-73535440D01*
X155377167Y-73722206D01*
X155376833Y-74104118D01*
X155522677Y-74457086D01*
X155792493Y-74727374D01*
X156145206Y-74873833D01*
X156186711Y-74873869D01*
X157008057Y-75695215D01*
X156920626Y-75782493D01*
X156774167Y-76135206D01*
X156773833Y-76517118D01*
X156919677Y-76870086D01*
X157189493Y-77140374D01*
X157542206Y-77286833D01*
X157583711Y-77286869D01*
X157880921Y-77584079D01*
X158054560Y-77700100D01*
X158054560Y-78331560D01*
X157452000Y-78331560D01*
X157216683Y-78375838D01*
X157000559Y-78514910D01*
X156855569Y-78727110D01*
X156804560Y-78979000D01*
X156804560Y-80279000D01*
X156848838Y-80514317D01*
X156987910Y-80730441D01*
X157200110Y-80875431D01*
X157452000Y-80926440D01*
X158054560Y-80926440D01*
X158054560Y-83804000D01*
X158098838Y-84039317D01*
X158237910Y-84255441D01*
X158450110Y-84400431D01*
X158702000Y-84451440D01*
X160402000Y-84451440D01*
X160637317Y-84407162D01*
X160803477Y-84300241D01*
X160950110Y-84400431D01*
X161202000Y-84451440D01*
X161292000Y-84451440D01*
X161292000Y-84582000D01*
X161349852Y-84872839D01*
X161514599Y-85119401D01*
X162784599Y-86389401D01*
X163031160Y-86554148D01*
X163322000Y-86612000D01*
X165553537Y-86612000D01*
X165585673Y-86644192D01*
X165929201Y-86786838D01*
X166006515Y-86786905D01*
X166006338Y-86989667D01*
X166148383Y-87333443D01*
X166163474Y-87348560D01*
X164938000Y-87348560D01*
X164702683Y-87392838D01*
X164486559Y-87531910D01*
X164341569Y-87744110D01*
X164338919Y-87757197D01*
X164202090Y-87544559D01*
X163989890Y-87399569D01*
X163738000Y-87348560D01*
X162238000Y-87348560D01*
X162002683Y-87392838D01*
X161786559Y-87531910D01*
X161679516Y-87688572D01*
X161617090Y-87591559D01*
X161404890Y-87446569D01*
X161153000Y-87395560D01*
X159903000Y-87395560D01*
X159667683Y-87439838D01*
X159502667Y-87546023D01*
X159436090Y-87442559D01*
X159223890Y-87297569D01*
X158972000Y-87246560D01*
X157472000Y-87246560D01*
X157236683Y-87290838D01*
X157020559Y-87429910D01*
X156972866Y-87499711D01*
X156936090Y-87442559D01*
X156723890Y-87297569D01*
X156550197Y-87262395D01*
X156669431Y-87087890D01*
X156720440Y-86836000D01*
X156720440Y-85336000D01*
X156676162Y-85100683D01*
X156537090Y-84884559D01*
X156467289Y-84836866D01*
X156524441Y-84800090D01*
X156669431Y-84587890D01*
X156720440Y-84336000D01*
X156720440Y-82836000D01*
X156676162Y-82600683D01*
X156537090Y-82384559D01*
X156324890Y-82239569D01*
X156208000Y-82215898D01*
X156208000Y-81788000D01*
X156150148Y-81497161D01*
X155985401Y-81250599D01*
X155802440Y-81067638D01*
X155802440Y-79795000D01*
X155758162Y-79559683D01*
X155619090Y-79343559D01*
X155406890Y-79198569D01*
X155339459Y-79184914D01*
X155384147Y-79155054D01*
X155706054Y-78673285D01*
X155819093Y-78105000D01*
X155706054Y-77536715D01*
X155384147Y-77054946D01*
X155043447Y-76827298D01*
X155186358Y-76760183D01*
X155576645Y-76331924D01*
X155746476Y-75921890D01*
X155625155Y-75692000D01*
X154432000Y-75692000D01*
X154432000Y-75712000D01*
X154178000Y-75712000D01*
X154178000Y-75692000D01*
X154158000Y-75692000D01*
X154158000Y-75438000D01*
X154178000Y-75438000D01*
X154178000Y-74244181D01*
X154432000Y-74244181D01*
X154432000Y-75438000D01*
X155625155Y-75438000D01*
X155746476Y-75208110D01*
X155576645Y-74798076D01*
X155186358Y-74369817D01*
X154661892Y-74123514D01*
X154432000Y-74244181D01*
X154178000Y-74244181D01*
X153948108Y-74123514D01*
X153423642Y-74369817D01*
X153033355Y-74798076D01*
X152906000Y-75105557D01*
X152906000Y-73523000D01*
X153404250Y-73523000D01*
X153563000Y-73364250D01*
X153563000Y-72390000D01*
X153543000Y-72390000D01*
X153543000Y-72136000D01*
X153563000Y-72136000D01*
X153563000Y-71161750D01*
X153404250Y-71003000D01*
X152906000Y-71003000D01*
X152906000Y-68132802D01*
X152948802Y-68090000D01*
X154939442Y-68090000D01*
X154981838Y-68315317D01*
X154981838Y-68315317D01*
G37*
X154981838Y-68315317D02*
X155120910Y-68531441D01*
X155190711Y-68579134D01*
X155133559Y-68615910D01*
X154988569Y-68828110D01*
X154937560Y-69080000D01*
X154937560Y-70580000D01*
X154981838Y-70815317D01*
X155120910Y-71031441D01*
X155164101Y-71060952D01*
X154988559Y-71173910D01*
X154942031Y-71242006D01*
X154799698Y-71099673D01*
X154566309Y-71003000D01*
X153975750Y-71003000D01*
X153817000Y-71161750D01*
X153817000Y-72136000D01*
X153837000Y-72136000D01*
X153837000Y-72390000D01*
X153817000Y-72390000D01*
X153817000Y-73364250D01*
X153975750Y-73523000D01*
X154566309Y-73523000D01*
X154799698Y-73426327D01*
X154940936Y-73285090D01*
X154975910Y-73339441D01*
X155188110Y-73484431D01*
X155440000Y-73535440D01*
X155454719Y-73535440D01*
X155377167Y-73722206D01*
X155376833Y-74104118D01*
X155522677Y-74457086D01*
X155792493Y-74727374D01*
X156145206Y-74873833D01*
X156186711Y-74873869D01*
X157008057Y-75695215D01*
X156920626Y-75782493D01*
X156774167Y-76135206D01*
X156773833Y-76517118D01*
X156919677Y-76870086D01*
X157189493Y-77140374D01*
X157542206Y-77286833D01*
X157583711Y-77286869D01*
X157880921Y-77584079D01*
X158054560Y-77700100D01*
X158054560Y-78331560D01*
X157452000Y-78331560D01*
X157216683Y-78375838D01*
X157000559Y-78514910D01*
X156855569Y-78727110D01*
X156804560Y-78979000D01*
X156804560Y-80279000D01*
X156848838Y-80514317D01*
X156987910Y-80730441D01*
X157200110Y-80875431D01*
X157452000Y-80926440D01*
X158054560Y-80926440D01*
X158054560Y-83804000D01*
X158098838Y-84039317D01*
X158237910Y-84255441D01*
X158450110Y-84400431D01*
X158702000Y-84451440D01*
X160402000Y-84451440D01*
X160637317Y-84407162D01*
X160803477Y-84300241D01*
X160950110Y-84400431D01*
X161202000Y-84451440D01*
X161292000Y-84451440D01*
X161292000Y-84582000D01*
X161349852Y-84872839D01*
X161514599Y-85119401D01*
X162784599Y-86389401D01*
X163031160Y-86554148D01*
X163322000Y-86612000D01*
X165553537Y-86612000D01*
X165585673Y-86644192D01*
X165929201Y-86786838D01*
X166006515Y-86786905D01*
X166006338Y-86989667D01*
X166148383Y-87333443D01*
X166163474Y-87348560D01*
X164938000Y-87348560D01*
X164702683Y-87392838D01*
X164486559Y-87531910D01*
X164341569Y-87744110D01*
X164338919Y-87757197D01*
X164202090Y-87544559D01*
X163989890Y-87399569D01*
X163738000Y-87348560D01*
X162238000Y-87348560D01*
X162002683Y-87392838D01*
X161786559Y-87531910D01*
X161679516Y-87688572D01*
X161617090Y-87591559D01*
X161404890Y-87446569D01*
X161153000Y-87395560D01*
X159903000Y-87395560D01*
X159667683Y-87439838D01*
X159502667Y-87546023D01*
X159436090Y-87442559D01*
X159223890Y-87297569D01*
X158972000Y-87246560D01*
X157472000Y-87246560D01*
X157236683Y-87290838D01*
X157020559Y-87429910D01*
X156972866Y-87499711D01*
X156936090Y-87442559D01*
X156723890Y-87297569D01*
X156550197Y-87262395D01*
X156669431Y-87087890D01*
X156720440Y-86836000D01*
X156720440Y-85336000D01*
X156676162Y-85100683D01*
X156537090Y-84884559D01*
X156467289Y-84836866D01*
X156524441Y-84800090D01*
X156669431Y-84587890D01*
X156720440Y-84336000D01*
X156720440Y-82836000D01*
X156676162Y-82600683D01*
X156537090Y-82384559D01*
X156324890Y-82239569D01*
X156208000Y-82215898D01*
X156208000Y-81788000D01*
X156150148Y-81497161D01*
X155985401Y-81250599D01*
X155802440Y-81067638D01*
X155802440Y-79795000D01*
X155758162Y-79559683D01*
X155619090Y-79343559D01*
X155406890Y-79198569D01*
X155339459Y-79184914D01*
X155384147Y-79155054D01*
X155706054Y-78673285D01*
X155819093Y-78105000D01*
X155706054Y-77536715D01*
X155384147Y-77054946D01*
X155043447Y-76827298D01*
X155186358Y-76760183D01*
X155576645Y-76331924D01*
X155746476Y-75921890D01*
X155625155Y-75692000D01*
X154432000Y-75692000D01*
X154432000Y-75712000D01*
X154178000Y-75712000D01*
X154178000Y-75692000D01*
X154158000Y-75692000D01*
X154158000Y-75438000D01*
X154178000Y-75438000D01*
X154178000Y-74244181D01*
X154432000Y-74244181D01*
X154432000Y-75438000D01*
X155625155Y-75438000D01*
X155746476Y-75208110D01*
X155576645Y-74798076D01*
X155186358Y-74369817D01*
X154661892Y-74123514D01*
X154432000Y-74244181D01*
X154178000Y-74244181D01*
X153948108Y-74123514D01*
X153423642Y-74369817D01*
X153033355Y-74798076D01*
X152906000Y-75105557D01*
X152906000Y-73523000D01*
X153404250Y-73523000D01*
X153563000Y-73364250D01*
X153563000Y-72390000D01*
X153543000Y-72390000D01*
X153543000Y-72136000D01*
X153563000Y-72136000D01*
X153563000Y-71161750D01*
X153404250Y-71003000D01*
X152906000Y-71003000D01*
X152906000Y-68132802D01*
X152948802Y-68090000D01*
X154939442Y-68090000D01*
X154981838Y-68315317D01*
G36*
X176002000Y-85217000D02*
X176022000Y-85217000D01*
X176022000Y-85471000D01*
X176002000Y-85471000D01*
X176002000Y-87122000D01*
X176022000Y-87122000D01*
X176022000Y-87376000D01*
X176002000Y-87376000D01*
X176002000Y-87396000D01*
X175748000Y-87396000D01*
X175748000Y-87376000D01*
X175728000Y-87376000D01*
X175728000Y-87122000D01*
X175748000Y-87122000D01*
X175748000Y-85471000D01*
X175728000Y-85471000D01*
X175728000Y-85217000D01*
X175748000Y-85217000D01*
X175748000Y-85197000D01*
X176002000Y-85197000D01*
X176002000Y-85217000D01*
X176002000Y-85217000D01*
G37*
X176002000Y-85217000D02*
X176022000Y-85217000D01*
X176022000Y-85471000D01*
X176002000Y-85471000D01*
X176002000Y-87122000D01*
X176022000Y-87122000D01*
X176022000Y-87376000D01*
X176002000Y-87376000D01*
X176002000Y-87396000D01*
X175748000Y-87396000D01*
X175748000Y-87376000D01*
X175728000Y-87376000D01*
X175728000Y-87122000D01*
X175748000Y-87122000D01*
X175748000Y-85471000D01*
X175728000Y-85471000D01*
X175728000Y-85217000D01*
X175748000Y-85217000D01*
X175748000Y-85197000D01*
X176002000Y-85197000D01*
X176002000Y-85217000D01*
G36*
X192036090Y-79393903D02*
X192428730Y-79787229D01*
X192636612Y-79873549D01*
X192430797Y-79958590D01*
X192037471Y-80351230D01*
X191957705Y-80543327D01*
X191903497Y-80412457D01*
X191661313Y-80342992D01*
X190860705Y-81143600D01*
X191661313Y-81944208D01*
X191903497Y-81874743D01*
X191953609Y-81734282D01*
X192036090Y-81933903D01*
X192428730Y-82327229D01*
X192636612Y-82413549D01*
X192430797Y-82498590D01*
X192037471Y-82891230D01*
X191951151Y-83099112D01*
X191866110Y-82893297D01*
X191473470Y-82499971D01*
X191281373Y-82420205D01*
X191412243Y-82365997D01*
X191481708Y-82123813D01*
X190681100Y-81323205D01*
X189880492Y-82123813D01*
X189949957Y-82365997D01*
X190090418Y-82416109D01*
X189890797Y-82498590D01*
X189497471Y-82891230D01*
X189284343Y-83404500D01*
X189283858Y-83960261D01*
X189496090Y-84473903D01*
X189888730Y-84867229D01*
X190096612Y-84953549D01*
X189890797Y-85038590D01*
X189497471Y-85431230D01*
X189284343Y-85944500D01*
X189283858Y-86500261D01*
X189384155Y-86743000D01*
X189257440Y-86743000D01*
X189257440Y-86325000D01*
X189213162Y-86089683D01*
X189074090Y-85873559D01*
X188861890Y-85728569D01*
X188848803Y-85725919D01*
X189061441Y-85589090D01*
X189206431Y-85376890D01*
X189257440Y-85125000D01*
X189257440Y-83625000D01*
X189213162Y-83389683D01*
X189074090Y-83173559D01*
X188861890Y-83028569D01*
X188610000Y-82977560D01*
X187637362Y-82977560D01*
X187437242Y-82777440D01*
X188175000Y-82777440D01*
X188410317Y-82733162D01*
X188626441Y-82594090D01*
X188771431Y-82381890D01*
X188822440Y-82130000D01*
X188822440Y-80935902D01*
X189271956Y-80935902D01*
X189299738Y-81490968D01*
X189458703Y-81874743D01*
X189700887Y-81944208D01*
X190501495Y-81143600D01*
X189700887Y-80342992D01*
X189458703Y-80412457D01*
X189271956Y-80935902D01*
X188822440Y-80935902D01*
X188822440Y-80430000D01*
X188778162Y-80194683D01*
X188639090Y-79978559D01*
X188426890Y-79833569D01*
X188359459Y-79819914D01*
X188404147Y-79790054D01*
X188597954Y-79500000D01*
X189602002Y-79500000D01*
X189888730Y-79787229D01*
X190080827Y-79866995D01*
X189949957Y-79921203D01*
X189880492Y-80163387D01*
X190681100Y-80963995D01*
X191481708Y-80163387D01*
X191412243Y-79921203D01*
X191271782Y-79871091D01*
X191471403Y-79788610D01*
X191864729Y-79395970D01*
X191951049Y-79188088D01*
X192036090Y-79393903D01*
X192036090Y-79393903D01*
G37*
X192036090Y-79393903D02*
X192428730Y-79787229D01*
X192636612Y-79873549D01*
X192430797Y-79958590D01*
X192037471Y-80351230D01*
X191957705Y-80543327D01*
X191903497Y-80412457D01*
X191661313Y-80342992D01*
X190860705Y-81143600D01*
X191661313Y-81944208D01*
X191903497Y-81874743D01*
X191953609Y-81734282D01*
X192036090Y-81933903D01*
X192428730Y-82327229D01*
X192636612Y-82413549D01*
X192430797Y-82498590D01*
X192037471Y-82891230D01*
X191951151Y-83099112D01*
X191866110Y-82893297D01*
X191473470Y-82499971D01*
X191281373Y-82420205D01*
X191412243Y-82365997D01*
X191481708Y-82123813D01*
X190681100Y-81323205D01*
X189880492Y-82123813D01*
X189949957Y-82365997D01*
X190090418Y-82416109D01*
X189890797Y-82498590D01*
X189497471Y-82891230D01*
X189284343Y-83404500D01*
X189283858Y-83960261D01*
X189496090Y-84473903D01*
X189888730Y-84867229D01*
X190096612Y-84953549D01*
X189890797Y-85038590D01*
X189497471Y-85431230D01*
X189284343Y-85944500D01*
X189283858Y-86500261D01*
X189384155Y-86743000D01*
X189257440Y-86743000D01*
X189257440Y-86325000D01*
X189213162Y-86089683D01*
X189074090Y-85873559D01*
X188861890Y-85728569D01*
X188848803Y-85725919D01*
X189061441Y-85589090D01*
X189206431Y-85376890D01*
X189257440Y-85125000D01*
X189257440Y-83625000D01*
X189213162Y-83389683D01*
X189074090Y-83173559D01*
X188861890Y-83028569D01*
X188610000Y-82977560D01*
X187637362Y-82977560D01*
X187437242Y-82777440D01*
X188175000Y-82777440D01*
X188410317Y-82733162D01*
X188626441Y-82594090D01*
X188771431Y-82381890D01*
X188822440Y-82130000D01*
X188822440Y-80935902D01*
X189271956Y-80935902D01*
X189299738Y-81490968D01*
X189458703Y-81874743D01*
X189700887Y-81944208D01*
X190501495Y-81143600D01*
X189700887Y-80342992D01*
X189458703Y-80412457D01*
X189271956Y-80935902D01*
X188822440Y-80935902D01*
X188822440Y-80430000D01*
X188778162Y-80194683D01*
X188639090Y-79978559D01*
X188426890Y-79833569D01*
X188359459Y-79819914D01*
X188404147Y-79790054D01*
X188597954Y-79500000D01*
X189602002Y-79500000D01*
X189888730Y-79787229D01*
X190080827Y-79866995D01*
X189949957Y-79921203D01*
X189880492Y-80163387D01*
X190681100Y-80963995D01*
X191481708Y-80163387D01*
X191412243Y-79921203D01*
X191271782Y-79871091D01*
X191471403Y-79788610D01*
X191864729Y-79395970D01*
X191951049Y-79188088D01*
X192036090Y-79393903D01*
G36*
X178161000Y-83185000D02*
X178181000Y-83185000D01*
X178181000Y-83439000D01*
X178161000Y-83439000D01*
X178161000Y-84413250D01*
X178319750Y-84572000D01*
X178731000Y-84572000D01*
X178731000Y-84743250D01*
X178889750Y-84902000D01*
X179689000Y-84902000D01*
X179689000Y-84882000D01*
X179943000Y-84882000D01*
X179943000Y-84902000D01*
X180742250Y-84902000D01*
X180901000Y-84743250D01*
X180901000Y-84502690D01*
X180804327Y-84269301D01*
X180625698Y-84090673D01*
X180409692Y-84001200D01*
X180512838Y-83752799D01*
X180513002Y-83565090D01*
X180653000Y-83593440D01*
X181959638Y-83593440D01*
X182579878Y-84213680D01*
X182579838Y-84259167D01*
X182721883Y-84602943D01*
X182755000Y-84636118D01*
X182755000Y-84960750D01*
X182692000Y-85023750D01*
X182692000Y-85104051D01*
X182593569Y-85248110D01*
X182542560Y-85500000D01*
X182542560Y-86427000D01*
X182438000Y-86427000D01*
X182438000Y-86407000D01*
X181763750Y-86407000D01*
X181605000Y-86565750D01*
X181605000Y-86593990D01*
X181542799Y-86568162D01*
X181170833Y-86567838D01*
X180913440Y-86674190D01*
X180913440Y-86529000D01*
X180869162Y-86293683D01*
X180730090Y-86077559D01*
X180590250Y-85982010D01*
X180625698Y-85967327D01*
X180804327Y-85788699D01*
X180901000Y-85555310D01*
X180901000Y-85373691D01*
X181605000Y-85373691D01*
X181605000Y-85994250D01*
X181763750Y-86153000D01*
X182438000Y-86153000D01*
X182438000Y-85023750D01*
X182279250Y-84865000D01*
X182113690Y-84865000D01*
X181880301Y-84961673D01*
X181701673Y-85140302D01*
X181605000Y-85373691D01*
X180901000Y-85373691D01*
X180901000Y-85314750D01*
X180742250Y-85156000D01*
X179943000Y-85156000D01*
X179943000Y-85176000D01*
X179689000Y-85176000D01*
X179689000Y-85156000D01*
X178889750Y-85156000D01*
X178803738Y-85242012D01*
X178730090Y-85127559D01*
X178517890Y-84982569D01*
X178266000Y-84931560D01*
X177366000Y-84931560D01*
X177260000Y-84951505D01*
X177260000Y-84592690D01*
X177251430Y-84572000D01*
X177748250Y-84572000D01*
X177907000Y-84413250D01*
X177907000Y-83439000D01*
X177887000Y-83439000D01*
X177887000Y-83185000D01*
X177907000Y-83185000D01*
X177907000Y-83165000D01*
X178161000Y-83165000D01*
X178161000Y-83185000D01*
X178161000Y-83185000D01*
G37*
X178161000Y-83185000D02*
X178181000Y-83185000D01*
X178181000Y-83439000D01*
X178161000Y-83439000D01*
X178161000Y-84413250D01*
X178319750Y-84572000D01*
X178731000Y-84572000D01*
X178731000Y-84743250D01*
X178889750Y-84902000D01*
X179689000Y-84902000D01*
X179689000Y-84882000D01*
X179943000Y-84882000D01*
X179943000Y-84902000D01*
X180742250Y-84902000D01*
X180901000Y-84743250D01*
X180901000Y-84502690D01*
X180804327Y-84269301D01*
X180625698Y-84090673D01*
X180409692Y-84001200D01*
X180512838Y-83752799D01*
X180513002Y-83565090D01*
X180653000Y-83593440D01*
X181959638Y-83593440D01*
X182579878Y-84213680D01*
X182579838Y-84259167D01*
X182721883Y-84602943D01*
X182755000Y-84636118D01*
X182755000Y-84960750D01*
X182692000Y-85023750D01*
X182692000Y-85104051D01*
X182593569Y-85248110D01*
X182542560Y-85500000D01*
X182542560Y-86427000D01*
X182438000Y-86427000D01*
X182438000Y-86407000D01*
X181763750Y-86407000D01*
X181605000Y-86565750D01*
X181605000Y-86593990D01*
X181542799Y-86568162D01*
X181170833Y-86567838D01*
X180913440Y-86674190D01*
X180913440Y-86529000D01*
X180869162Y-86293683D01*
X180730090Y-86077559D01*
X180590250Y-85982010D01*
X180625698Y-85967327D01*
X180804327Y-85788699D01*
X180901000Y-85555310D01*
X180901000Y-85373691D01*
X181605000Y-85373691D01*
X181605000Y-85994250D01*
X181763750Y-86153000D01*
X182438000Y-86153000D01*
X182438000Y-85023750D01*
X182279250Y-84865000D01*
X182113690Y-84865000D01*
X181880301Y-84961673D01*
X181701673Y-85140302D01*
X181605000Y-85373691D01*
X180901000Y-85373691D01*
X180901000Y-85314750D01*
X180742250Y-85156000D01*
X179943000Y-85156000D01*
X179943000Y-85176000D01*
X179689000Y-85176000D01*
X179689000Y-85156000D01*
X178889750Y-85156000D01*
X178803738Y-85242012D01*
X178730090Y-85127559D01*
X178517890Y-84982569D01*
X178266000Y-84931560D01*
X177366000Y-84931560D01*
X177260000Y-84951505D01*
X177260000Y-84592690D01*
X177251430Y-84572000D01*
X177748250Y-84572000D01*
X177907000Y-84413250D01*
X177907000Y-83439000D01*
X177887000Y-83439000D01*
X177887000Y-83185000D01*
X177907000Y-83185000D01*
X177907000Y-83165000D01*
X178161000Y-83165000D01*
X178161000Y-83185000D01*
G36*
X192036090Y-84473903D02*
X192428730Y-84867229D01*
X192620827Y-84946995D01*
X192489957Y-85001203D01*
X192420492Y-85243387D01*
X193221100Y-86043995D01*
X193235243Y-86029853D01*
X193414848Y-86209458D01*
X193400705Y-86223600D01*
X193414848Y-86237743D01*
X193235243Y-86417348D01*
X193221100Y-86403205D01*
X193206958Y-86417348D01*
X193027353Y-86237743D01*
X193041495Y-86223600D01*
X192240887Y-85422992D01*
X191998703Y-85492457D01*
X191948591Y-85632918D01*
X191866110Y-85433297D01*
X191473470Y-85039971D01*
X191265588Y-84953651D01*
X191471403Y-84868610D01*
X191864729Y-84475970D01*
X191951049Y-84268088D01*
X192036090Y-84473903D01*
X192036090Y-84473903D01*
G37*
X192036090Y-84473903D02*
X192428730Y-84867229D01*
X192620827Y-84946995D01*
X192489957Y-85001203D01*
X192420492Y-85243387D01*
X193221100Y-86043995D01*
X193235243Y-86029853D01*
X193414848Y-86209458D01*
X193400705Y-86223600D01*
X193414848Y-86237743D01*
X193235243Y-86417348D01*
X193221100Y-86403205D01*
X193206958Y-86417348D01*
X193027353Y-86237743D01*
X193041495Y-86223600D01*
X192240887Y-85422992D01*
X191998703Y-85492457D01*
X191948591Y-85632918D01*
X191866110Y-85433297D01*
X191473470Y-85039971D01*
X191265588Y-84953651D01*
X191471403Y-84868610D01*
X191864729Y-84475970D01*
X191951049Y-84268088D01*
X192036090Y-84473903D01*
G36*
X166084883Y-81808943D02*
X166347673Y-82072192D01*
X166691201Y-82214838D01*
X166888000Y-82215009D01*
X166888000Y-82752250D01*
X167046750Y-82911000D01*
X168021000Y-82911000D01*
X168021000Y-82891000D01*
X168275000Y-82891000D01*
X168275000Y-82911000D01*
X168295000Y-82911000D01*
X168295000Y-83165000D01*
X168275000Y-83165000D01*
X168275000Y-84264250D01*
X168433750Y-84423000D01*
X168899310Y-84423000D01*
X169132699Y-84326327D01*
X169286321Y-84172704D01*
X169479110Y-84304431D01*
X169619000Y-84332759D01*
X169619000Y-84637311D01*
X169573683Y-84645838D01*
X169357559Y-84784910D01*
X169296418Y-84874393D01*
X169132699Y-84710673D01*
X168899310Y-84614000D01*
X168433750Y-84614000D01*
X168275000Y-84772750D01*
X168275000Y-85872000D01*
X168295000Y-85872000D01*
X168295000Y-86126000D01*
X168275000Y-86126000D01*
X168275000Y-86146000D01*
X168021000Y-86146000D01*
X168021000Y-86126000D01*
X168001000Y-86126000D01*
X168001000Y-85872000D01*
X168021000Y-85872000D01*
X168021000Y-84772750D01*
X167862250Y-84614000D01*
X167797943Y-84614000D01*
X167719024Y-84423000D01*
X167862250Y-84423000D01*
X168021000Y-84264250D01*
X168021000Y-83165000D01*
X167046750Y-83165000D01*
X166888000Y-83323750D01*
X166888000Y-83901008D01*
X166692833Y-83900838D01*
X166349057Y-84042883D01*
X166085808Y-84305673D01*
X165943162Y-84649201D01*
X165942929Y-84916849D01*
X165930833Y-84916838D01*
X165587057Y-85058883D01*
X165553882Y-85092000D01*
X163636802Y-85092000D01*
X162981317Y-84436515D01*
X163137317Y-84407162D01*
X163301493Y-84301518D01*
X163342302Y-84342327D01*
X163575691Y-84439000D01*
X164266250Y-84439000D01*
X164425000Y-84280250D01*
X164425000Y-82356000D01*
X164679000Y-82356000D01*
X164679000Y-84280250D01*
X164837750Y-84439000D01*
X165528309Y-84439000D01*
X165761698Y-84342327D01*
X165940327Y-84163699D01*
X166037000Y-83930310D01*
X166037000Y-82514750D01*
X165878250Y-82356000D01*
X164679000Y-82356000D01*
X164425000Y-82356000D01*
X164405000Y-82356000D01*
X164405000Y-82102000D01*
X164425000Y-82102000D01*
X164425000Y-82082000D01*
X164679000Y-82082000D01*
X164679000Y-82102000D01*
X165878250Y-82102000D01*
X166037000Y-81943250D01*
X166037000Y-81693057D01*
X166084883Y-81808943D01*
X166084883Y-81808943D01*
G37*
X166084883Y-81808943D02*
X166347673Y-82072192D01*
X166691201Y-82214838D01*
X166888000Y-82215009D01*
X166888000Y-82752250D01*
X167046750Y-82911000D01*
X168021000Y-82911000D01*
X168021000Y-82891000D01*
X168275000Y-82891000D01*
X168275000Y-82911000D01*
X168295000Y-82911000D01*
X168295000Y-83165000D01*
X168275000Y-83165000D01*
X168275000Y-84264250D01*
X168433750Y-84423000D01*
X168899310Y-84423000D01*
X169132699Y-84326327D01*
X169286321Y-84172704D01*
X169479110Y-84304431D01*
X169619000Y-84332759D01*
X169619000Y-84637311D01*
X169573683Y-84645838D01*
X169357559Y-84784910D01*
X169296418Y-84874393D01*
X169132699Y-84710673D01*
X168899310Y-84614000D01*
X168433750Y-84614000D01*
X168275000Y-84772750D01*
X168275000Y-85872000D01*
X168295000Y-85872000D01*
X168295000Y-86126000D01*
X168275000Y-86126000D01*
X168275000Y-86146000D01*
X168021000Y-86146000D01*
X168021000Y-86126000D01*
X168001000Y-86126000D01*
X168001000Y-85872000D01*
X168021000Y-85872000D01*
X168021000Y-84772750D01*
X167862250Y-84614000D01*
X167797943Y-84614000D01*
X167719024Y-84423000D01*
X167862250Y-84423000D01*
X168021000Y-84264250D01*
X168021000Y-83165000D01*
X167046750Y-83165000D01*
X166888000Y-83323750D01*
X166888000Y-83901008D01*
X166692833Y-83900838D01*
X166349057Y-84042883D01*
X166085808Y-84305673D01*
X165943162Y-84649201D01*
X165942929Y-84916849D01*
X165930833Y-84916838D01*
X165587057Y-85058883D01*
X165553882Y-85092000D01*
X163636802Y-85092000D01*
X162981317Y-84436515D01*
X163137317Y-84407162D01*
X163301493Y-84301518D01*
X163342302Y-84342327D01*
X163575691Y-84439000D01*
X164266250Y-84439000D01*
X164425000Y-84280250D01*
X164425000Y-82356000D01*
X164679000Y-82356000D01*
X164679000Y-84280250D01*
X164837750Y-84439000D01*
X165528309Y-84439000D01*
X165761698Y-84342327D01*
X165940327Y-84163699D01*
X166037000Y-83930310D01*
X166037000Y-82514750D01*
X165878250Y-82356000D01*
X164679000Y-82356000D01*
X164425000Y-82356000D01*
X164405000Y-82356000D01*
X164405000Y-82102000D01*
X164425000Y-82102000D01*
X164425000Y-82082000D01*
X164679000Y-82082000D01*
X164679000Y-82102000D01*
X165878250Y-82102000D01*
X166037000Y-81943250D01*
X166037000Y-81693057D01*
X166084883Y-81808943D01*
G36*
X167754110Y-73816431D02*
X167979002Y-73861973D01*
X167895673Y-73945301D01*
X167799000Y-74178690D01*
X167799000Y-74644250D01*
X167957750Y-74803000D01*
X169057000Y-74803000D01*
X169057000Y-74783000D01*
X169311000Y-74783000D01*
X169311000Y-74803000D01*
X169331000Y-74803000D01*
X169331000Y-75057000D01*
X169311000Y-75057000D01*
X169311000Y-76031250D01*
X169469750Y-76190000D01*
X170060309Y-76190000D01*
X170293698Y-76093327D01*
X170389000Y-75998026D01*
X170389000Y-77213000D01*
X170414373Y-77340560D01*
X169954000Y-77340560D01*
X169718683Y-77384838D01*
X169502559Y-77523910D01*
X169357569Y-77736110D01*
X169306560Y-77988000D01*
X169306560Y-78238000D01*
X169328199Y-78353000D01*
X168664000Y-78353000D01*
X168373160Y-78410852D01*
X168126599Y-78575599D01*
X167610599Y-79091599D01*
X167577884Y-79140560D01*
X167523000Y-79140560D01*
X167324440Y-79177922D01*
X167324440Y-78979000D01*
X167280162Y-78743683D01*
X167141090Y-78527559D01*
X166928890Y-78382569D01*
X166677000Y-78331560D01*
X166049440Y-78331560D01*
X166049440Y-76684144D01*
X167073292Y-75660292D01*
X167249962Y-75395887D01*
X167285793Y-75215750D01*
X167799000Y-75215750D01*
X167799000Y-75681310D01*
X167895673Y-75914699D01*
X168074302Y-76093327D01*
X168307691Y-76190000D01*
X168898250Y-76190000D01*
X169057000Y-76031250D01*
X169057000Y-75057000D01*
X167957750Y-75057000D01*
X167799000Y-75215750D01*
X167285793Y-75215750D01*
X167312000Y-75084000D01*
X167312000Y-73836393D01*
X167382317Y-73823162D01*
X167578862Y-73696689D01*
X167754110Y-73816431D01*
X167754110Y-73816431D01*
G37*
X167754110Y-73816431D02*
X167979002Y-73861973D01*
X167895673Y-73945301D01*
X167799000Y-74178690D01*
X167799000Y-74644250D01*
X167957750Y-74803000D01*
X169057000Y-74803000D01*
X169057000Y-74783000D01*
X169311000Y-74783000D01*
X169311000Y-74803000D01*
X169331000Y-74803000D01*
X169331000Y-75057000D01*
X169311000Y-75057000D01*
X169311000Y-76031250D01*
X169469750Y-76190000D01*
X170060309Y-76190000D01*
X170293698Y-76093327D01*
X170389000Y-75998026D01*
X170389000Y-77213000D01*
X170414373Y-77340560D01*
X169954000Y-77340560D01*
X169718683Y-77384838D01*
X169502559Y-77523910D01*
X169357569Y-77736110D01*
X169306560Y-77988000D01*
X169306560Y-78238000D01*
X169328199Y-78353000D01*
X168664000Y-78353000D01*
X168373160Y-78410852D01*
X168126599Y-78575599D01*
X167610599Y-79091599D01*
X167577884Y-79140560D01*
X167523000Y-79140560D01*
X167324440Y-79177922D01*
X167324440Y-78979000D01*
X167280162Y-78743683D01*
X167141090Y-78527559D01*
X166928890Y-78382569D01*
X166677000Y-78331560D01*
X166049440Y-78331560D01*
X166049440Y-76684144D01*
X167073292Y-75660292D01*
X167249962Y-75395887D01*
X167285793Y-75215750D01*
X167799000Y-75215750D01*
X167799000Y-75681310D01*
X167895673Y-75914699D01*
X168074302Y-76093327D01*
X168307691Y-76190000D01*
X168898250Y-76190000D01*
X169057000Y-76031250D01*
X169057000Y-75057000D01*
X167957750Y-75057000D01*
X167799000Y-75215750D01*
X167285793Y-75215750D01*
X167312000Y-75084000D01*
X167312000Y-73836393D01*
X167382317Y-73823162D01*
X167578862Y-73696689D01*
X167754110Y-73816431D01*
G36*
X180006000Y-69416691D02*
X180006000Y-69707250D01*
X180164750Y-69866000D01*
X180914000Y-69866000D01*
X180914000Y-69846000D01*
X181168000Y-69846000D01*
X181168000Y-69866000D01*
X181188000Y-69866000D01*
X181188000Y-70120000D01*
X181168000Y-70120000D01*
X181168000Y-70919250D01*
X181206000Y-70957250D01*
X181206000Y-71036156D01*
X181139559Y-71078910D01*
X180994569Y-71291110D01*
X180943560Y-71543000D01*
X180943560Y-72443000D01*
X180987838Y-72678317D01*
X181126910Y-72894441D01*
X181339110Y-73039431D01*
X181591000Y-73090440D01*
X182391000Y-73090440D01*
X182626317Y-73046162D01*
X182842441Y-72907090D01*
X182987431Y-72694890D01*
X183038440Y-72443000D01*
X183038440Y-71543000D01*
X182994162Y-71307683D01*
X182855090Y-71091559D01*
X182853452Y-71090440D01*
X183341000Y-71090440D01*
X183576317Y-71046162D01*
X183792441Y-70907090D01*
X183815560Y-70873254D01*
X183815560Y-70881000D01*
X183859838Y-71116317D01*
X183998910Y-71332441D01*
X184211110Y-71477431D01*
X184463000Y-71528440D01*
X185963000Y-71528440D01*
X186198317Y-71484162D01*
X186414441Y-71345090D01*
X186559431Y-71132890D01*
X186562081Y-71119803D01*
X186698910Y-71332441D01*
X186911110Y-71477431D01*
X187163000Y-71528440D01*
X187928638Y-71528440D01*
X188294878Y-71894680D01*
X188294838Y-71940167D01*
X188436883Y-72283943D01*
X188699673Y-72547192D01*
X189043201Y-72689838D01*
X189415167Y-72690162D01*
X189594115Y-72616223D01*
X189700885Y-72722993D01*
X189458703Y-72792457D01*
X189271956Y-73315902D01*
X189299738Y-73870968D01*
X189458703Y-74254743D01*
X189700887Y-74324208D01*
X190501495Y-73523600D01*
X190487353Y-73509458D01*
X190666958Y-73329853D01*
X190681100Y-73343995D01*
X191481708Y-72543387D01*
X191412243Y-72301203D01*
X191271782Y-72251091D01*
X191471403Y-72168610D01*
X191864729Y-71775970D01*
X191951049Y-71568088D01*
X192036090Y-71773903D01*
X192428730Y-72167229D01*
X192636612Y-72253549D01*
X192430797Y-72338590D01*
X192037471Y-72731230D01*
X191957705Y-72923327D01*
X191903497Y-72792457D01*
X191661313Y-72722992D01*
X190860705Y-73523600D01*
X191661313Y-74324208D01*
X191903497Y-74254743D01*
X191953609Y-74114282D01*
X192036090Y-74313903D01*
X192428730Y-74707229D01*
X192636612Y-74793549D01*
X192430797Y-74878590D01*
X192037471Y-75271230D01*
X191951151Y-75479112D01*
X191866110Y-75273297D01*
X191473470Y-74879971D01*
X191281373Y-74800205D01*
X191412243Y-74745997D01*
X191481708Y-74503813D01*
X190681100Y-73703205D01*
X189880492Y-74503813D01*
X189949957Y-74745997D01*
X190090418Y-74796109D01*
X189890797Y-74878590D01*
X189497471Y-75271230D01*
X189427392Y-75440000D01*
X188597954Y-75440000D01*
X188404147Y-75149946D01*
X188063447Y-74922298D01*
X188206358Y-74855183D01*
X188596645Y-74426924D01*
X188766476Y-74016890D01*
X188645155Y-73787000D01*
X187452000Y-73787000D01*
X187452000Y-73807000D01*
X187198000Y-73807000D01*
X187198000Y-73787000D01*
X186004845Y-73787000D01*
X185883524Y-74016890D01*
X186053355Y-74426924D01*
X186443642Y-74855183D01*
X186586553Y-74922298D01*
X186245853Y-75149946D01*
X185923946Y-75631715D01*
X185865089Y-75927609D01*
X185738794Y-75875167D01*
X185356882Y-75874833D01*
X185003914Y-76020677D01*
X184733626Y-76290493D01*
X184587167Y-76643206D01*
X184586847Y-77009000D01*
X184514998Y-77009000D01*
X184514998Y-77167748D01*
X184356250Y-77009000D01*
X184065691Y-77009000D01*
X183832302Y-77105673D01*
X183653673Y-77284301D01*
X183557000Y-77517690D01*
X183557000Y-77758250D01*
X183715750Y-77917000D01*
X184515000Y-77917000D01*
X184515000Y-77897000D01*
X184769000Y-77897000D01*
X184769000Y-77917000D01*
X184789000Y-77917000D01*
X184789000Y-78171000D01*
X184769000Y-78171000D01*
X184769000Y-78191000D01*
X184515000Y-78191000D01*
X184515000Y-78171000D01*
X183715750Y-78171000D01*
X183629738Y-78257012D01*
X183556090Y-78142559D01*
X183343890Y-77997569D01*
X183092000Y-77946560D01*
X182192000Y-77946560D01*
X181972078Y-77987941D01*
X182018440Y-77759000D01*
X182018440Y-77526397D01*
X182053206Y-77540833D01*
X182435118Y-77541167D01*
X182788086Y-77395323D01*
X183058374Y-77125507D01*
X183204833Y-76772794D01*
X183205167Y-76390882D01*
X183130841Y-76211000D01*
X183388250Y-76211000D01*
X183547000Y-76052250D01*
X183547000Y-74803000D01*
X183801000Y-74803000D01*
X183801000Y-76052250D01*
X183959750Y-76211000D01*
X184575309Y-76211000D01*
X184808698Y-76114327D01*
X184987327Y-75935699D01*
X185084000Y-75702310D01*
X185084000Y-74961750D01*
X184925250Y-74803000D01*
X183801000Y-74803000D01*
X183547000Y-74803000D01*
X183527000Y-74803000D01*
X183527000Y-74549000D01*
X183547000Y-74549000D01*
X183547000Y-73299750D01*
X183801000Y-73299750D01*
X183801000Y-74549000D01*
X184925250Y-74549000D01*
X185084000Y-74390250D01*
X185084000Y-73649690D01*
X184987327Y-73416301D01*
X184874136Y-73303110D01*
X185883524Y-73303110D01*
X186004845Y-73533000D01*
X187198000Y-73533000D01*
X187198000Y-72339181D01*
X187452000Y-72339181D01*
X187452000Y-73533000D01*
X188645155Y-73533000D01*
X188766476Y-73303110D01*
X188596645Y-72893076D01*
X188206358Y-72464817D01*
X187681892Y-72218514D01*
X187452000Y-72339181D01*
X187198000Y-72339181D01*
X186968108Y-72218514D01*
X186443642Y-72464817D01*
X186053355Y-72893076D01*
X185883524Y-73303110D01*
X184874136Y-73303110D01*
X184808698Y-73237673D01*
X184575309Y-73141000D01*
X183959750Y-73141000D01*
X183801000Y-73299750D01*
X183547000Y-73299750D01*
X183388250Y-73141000D01*
X182772691Y-73141000D01*
X182539302Y-73237673D01*
X182497340Y-73279634D01*
X182350890Y-73179569D01*
X182099000Y-73128560D01*
X180549000Y-73128560D01*
X180313683Y-73172838D01*
X180097559Y-73311910D01*
X179952569Y-73524110D01*
X179901560Y-73776000D01*
X179901560Y-75576000D01*
X179913816Y-75641136D01*
X179835683Y-75655838D01*
X179672822Y-75760636D01*
X179642794Y-75748167D01*
X179260882Y-75747833D01*
X178907914Y-75893677D01*
X178755765Y-76045560D01*
X178067788Y-76045560D01*
X178111440Y-75830000D01*
X178111440Y-74030000D01*
X178067162Y-73794683D01*
X177928090Y-73578559D01*
X177871948Y-73540199D01*
X177881441Y-73534090D01*
X178026431Y-73321890D01*
X178077440Y-73070000D01*
X178077440Y-73018710D01*
X178185839Y-72997148D01*
X178432401Y-72832401D01*
X179336680Y-71928122D01*
X179382167Y-71928162D01*
X179725943Y-71786117D01*
X179989192Y-71523327D01*
X180131838Y-71179799D01*
X180132141Y-70832166D01*
X180281301Y-70981327D01*
X180514690Y-71078000D01*
X180755250Y-71078000D01*
X180914000Y-70919250D01*
X180914000Y-70120000D01*
X180164750Y-70120000D01*
X180006000Y-70278750D01*
X180006000Y-70502497D01*
X179990117Y-70464057D01*
X179727327Y-70200808D01*
X179383799Y-70058162D01*
X179011833Y-70057838D01*
X178668057Y-70199883D01*
X178404808Y-70462673D01*
X178262162Y-70806201D01*
X178262121Y-70853077D01*
X177953818Y-71161380D01*
X177927518Y-71120507D01*
X177968327Y-71079698D01*
X178065000Y-70846309D01*
X178065000Y-70230750D01*
X177906250Y-70072000D01*
X176657000Y-70072000D01*
X176657000Y-70092000D01*
X176403000Y-70092000D01*
X176403000Y-70072000D01*
X176383000Y-70072000D01*
X176383000Y-69818000D01*
X176403000Y-69818000D01*
X176403000Y-69798000D01*
X176657000Y-69798000D01*
X176657000Y-69818000D01*
X177906250Y-69818000D01*
X178065000Y-69659250D01*
X178065000Y-69365000D01*
X180027411Y-69365000D01*
X180006000Y-69416691D01*
X180006000Y-69416691D01*
G37*
X180006000Y-69416691D02*
X180006000Y-69707250D01*
X180164750Y-69866000D01*
X180914000Y-69866000D01*
X180914000Y-69846000D01*
X181168000Y-69846000D01*
X181168000Y-69866000D01*
X181188000Y-69866000D01*
X181188000Y-70120000D01*
X181168000Y-70120000D01*
X181168000Y-70919250D01*
X181206000Y-70957250D01*
X181206000Y-71036156D01*
X181139559Y-71078910D01*
X180994569Y-71291110D01*
X180943560Y-71543000D01*
X180943560Y-72443000D01*
X180987838Y-72678317D01*
X181126910Y-72894441D01*
X181339110Y-73039431D01*
X181591000Y-73090440D01*
X182391000Y-73090440D01*
X182626317Y-73046162D01*
X182842441Y-72907090D01*
X182987431Y-72694890D01*
X183038440Y-72443000D01*
X183038440Y-71543000D01*
X182994162Y-71307683D01*
X182855090Y-71091559D01*
X182853452Y-71090440D01*
X183341000Y-71090440D01*
X183576317Y-71046162D01*
X183792441Y-70907090D01*
X183815560Y-70873254D01*
X183815560Y-70881000D01*
X183859838Y-71116317D01*
X183998910Y-71332441D01*
X184211110Y-71477431D01*
X184463000Y-71528440D01*
X185963000Y-71528440D01*
X186198317Y-71484162D01*
X186414441Y-71345090D01*
X186559431Y-71132890D01*
X186562081Y-71119803D01*
X186698910Y-71332441D01*
X186911110Y-71477431D01*
X187163000Y-71528440D01*
X187928638Y-71528440D01*
X188294878Y-71894680D01*
X188294838Y-71940167D01*
X188436883Y-72283943D01*
X188699673Y-72547192D01*
X189043201Y-72689838D01*
X189415167Y-72690162D01*
X189594115Y-72616223D01*
X189700885Y-72722993D01*
X189458703Y-72792457D01*
X189271956Y-73315902D01*
X189299738Y-73870968D01*
X189458703Y-74254743D01*
X189700887Y-74324208D01*
X190501495Y-73523600D01*
X190487353Y-73509458D01*
X190666958Y-73329853D01*
X190681100Y-73343995D01*
X191481708Y-72543387D01*
X191412243Y-72301203D01*
X191271782Y-72251091D01*
X191471403Y-72168610D01*
X191864729Y-71775970D01*
X191951049Y-71568088D01*
X192036090Y-71773903D01*
X192428730Y-72167229D01*
X192636612Y-72253549D01*
X192430797Y-72338590D01*
X192037471Y-72731230D01*
X191957705Y-72923327D01*
X191903497Y-72792457D01*
X191661313Y-72722992D01*
X190860705Y-73523600D01*
X191661313Y-74324208D01*
X191903497Y-74254743D01*
X191953609Y-74114282D01*
X192036090Y-74313903D01*
X192428730Y-74707229D01*
X192636612Y-74793549D01*
X192430797Y-74878590D01*
X192037471Y-75271230D01*
X191951151Y-75479112D01*
X191866110Y-75273297D01*
X191473470Y-74879971D01*
X191281373Y-74800205D01*
X191412243Y-74745997D01*
X191481708Y-74503813D01*
X190681100Y-73703205D01*
X189880492Y-74503813D01*
X189949957Y-74745997D01*
X190090418Y-74796109D01*
X189890797Y-74878590D01*
X189497471Y-75271230D01*
X189427392Y-75440000D01*
X188597954Y-75440000D01*
X188404147Y-75149946D01*
X188063447Y-74922298D01*
X188206358Y-74855183D01*
X188596645Y-74426924D01*
X188766476Y-74016890D01*
X188645155Y-73787000D01*
X187452000Y-73787000D01*
X187452000Y-73807000D01*
X187198000Y-73807000D01*
X187198000Y-73787000D01*
X186004845Y-73787000D01*
X185883524Y-74016890D01*
X186053355Y-74426924D01*
X186443642Y-74855183D01*
X186586553Y-74922298D01*
X186245853Y-75149946D01*
X185923946Y-75631715D01*
X185865089Y-75927609D01*
X185738794Y-75875167D01*
X185356882Y-75874833D01*
X185003914Y-76020677D01*
X184733626Y-76290493D01*
X184587167Y-76643206D01*
X184586847Y-77009000D01*
X184514998Y-77009000D01*
X184514998Y-77167748D01*
X184356250Y-77009000D01*
X184065691Y-77009000D01*
X183832302Y-77105673D01*
X183653673Y-77284301D01*
X183557000Y-77517690D01*
X183557000Y-77758250D01*
X183715750Y-77917000D01*
X184515000Y-77917000D01*
X184515000Y-77897000D01*
X184769000Y-77897000D01*
X184769000Y-77917000D01*
X184789000Y-77917000D01*
X184789000Y-78171000D01*
X184769000Y-78171000D01*
X184769000Y-78191000D01*
X184515000Y-78191000D01*
X184515000Y-78171000D01*
X183715750Y-78171000D01*
X183629738Y-78257012D01*
X183556090Y-78142559D01*
X183343890Y-77997569D01*
X183092000Y-77946560D01*
X182192000Y-77946560D01*
X181972078Y-77987941D01*
X182018440Y-77759000D01*
X182018440Y-77526397D01*
X182053206Y-77540833D01*
X182435118Y-77541167D01*
X182788086Y-77395323D01*
X183058374Y-77125507D01*
X183204833Y-76772794D01*
X183205167Y-76390882D01*
X183130841Y-76211000D01*
X183388250Y-76211000D01*
X183547000Y-76052250D01*
X183547000Y-74803000D01*
X183801000Y-74803000D01*
X183801000Y-76052250D01*
X183959750Y-76211000D01*
X184575309Y-76211000D01*
X184808698Y-76114327D01*
X184987327Y-75935699D01*
X185084000Y-75702310D01*
X185084000Y-74961750D01*
X184925250Y-74803000D01*
X183801000Y-74803000D01*
X183547000Y-74803000D01*
X183527000Y-74803000D01*
X183527000Y-74549000D01*
X183547000Y-74549000D01*
X183547000Y-73299750D01*
X183801000Y-73299750D01*
X183801000Y-74549000D01*
X184925250Y-74549000D01*
X185084000Y-74390250D01*
X185084000Y-73649690D01*
X184987327Y-73416301D01*
X184874136Y-73303110D01*
X185883524Y-73303110D01*
X186004845Y-73533000D01*
X187198000Y-73533000D01*
X187198000Y-72339181D01*
X187452000Y-72339181D01*
X187452000Y-73533000D01*
X188645155Y-73533000D01*
X188766476Y-73303110D01*
X188596645Y-72893076D01*
X188206358Y-72464817D01*
X187681892Y-72218514D01*
X187452000Y-72339181D01*
X187198000Y-72339181D01*
X186968108Y-72218514D01*
X186443642Y-72464817D01*
X186053355Y-72893076D01*
X185883524Y-73303110D01*
X184874136Y-73303110D01*
X184808698Y-73237673D01*
X184575309Y-73141000D01*
X183959750Y-73141000D01*
X183801000Y-73299750D01*
X183547000Y-73299750D01*
X183388250Y-73141000D01*
X182772691Y-73141000D01*
X182539302Y-73237673D01*
X182497340Y-73279634D01*
X182350890Y-73179569D01*
X182099000Y-73128560D01*
X180549000Y-73128560D01*
X180313683Y-73172838D01*
X180097559Y-73311910D01*
X179952569Y-73524110D01*
X179901560Y-73776000D01*
X179901560Y-75576000D01*
X179913816Y-75641136D01*
X179835683Y-75655838D01*
X179672822Y-75760636D01*
X179642794Y-75748167D01*
X179260882Y-75747833D01*
X178907914Y-75893677D01*
X178755765Y-76045560D01*
X178067788Y-76045560D01*
X178111440Y-75830000D01*
X178111440Y-74030000D01*
X178067162Y-73794683D01*
X177928090Y-73578559D01*
X177871948Y-73540199D01*
X177881441Y-73534090D01*
X178026431Y-73321890D01*
X178077440Y-73070000D01*
X178077440Y-73018710D01*
X178185839Y-72997148D01*
X178432401Y-72832401D01*
X179336680Y-71928122D01*
X179382167Y-71928162D01*
X179725943Y-71786117D01*
X179989192Y-71523327D01*
X180131838Y-71179799D01*
X180132141Y-70832166D01*
X180281301Y-70981327D01*
X180514690Y-71078000D01*
X180755250Y-71078000D01*
X180914000Y-70919250D01*
X180914000Y-70120000D01*
X180164750Y-70120000D01*
X180006000Y-70278750D01*
X180006000Y-70502497D01*
X179990117Y-70464057D01*
X179727327Y-70200808D01*
X179383799Y-70058162D01*
X179011833Y-70057838D01*
X178668057Y-70199883D01*
X178404808Y-70462673D01*
X178262162Y-70806201D01*
X178262121Y-70853077D01*
X177953818Y-71161380D01*
X177927518Y-71120507D01*
X177968327Y-71079698D01*
X178065000Y-70846309D01*
X178065000Y-70230750D01*
X177906250Y-70072000D01*
X176657000Y-70072000D01*
X176657000Y-70092000D01*
X176403000Y-70092000D01*
X176403000Y-70072000D01*
X176383000Y-70072000D01*
X176383000Y-69818000D01*
X176403000Y-69818000D01*
X176403000Y-69798000D01*
X176657000Y-69798000D01*
X176657000Y-69818000D01*
X177906250Y-69818000D01*
X178065000Y-69659250D01*
X178065000Y-69365000D01*
X180027411Y-69365000D01*
X180006000Y-69416691D01*
G36*
X174466000Y-74803000D02*
X174486000Y-74803000D01*
X174486000Y-75057000D01*
X174466000Y-75057000D01*
X174466000Y-75077000D01*
X174212000Y-75077000D01*
X174212000Y-75057000D01*
X174192000Y-75057000D01*
X174192000Y-74803000D01*
X174212000Y-74803000D01*
X174212000Y-74783000D01*
X174466000Y-74783000D01*
X174466000Y-74803000D01*
X174466000Y-74803000D01*
G37*
X174466000Y-74803000D02*
X174486000Y-74803000D01*
X174486000Y-75057000D01*
X174466000Y-75057000D01*
X174466000Y-75077000D01*
X174212000Y-75077000D01*
X174212000Y-75057000D01*
X174192000Y-75057000D01*
X174192000Y-74803000D01*
X174212000Y-74803000D01*
X174212000Y-74783000D01*
X174466000Y-74783000D01*
X174466000Y-74803000D01*
G36*
X160483000Y-71998690D02*
X160483000Y-72739250D01*
X160641750Y-72898000D01*
X161766000Y-72898000D01*
X161766000Y-72878000D01*
X162020000Y-72878000D01*
X162020000Y-72898000D01*
X162040000Y-72898000D01*
X162040000Y-73152000D01*
X162020000Y-73152000D01*
X162020000Y-74401250D01*
X162178750Y-74560000D01*
X162794309Y-74560000D01*
X163027698Y-74463327D01*
X163069660Y-74421366D01*
X163216110Y-74521431D01*
X163468000Y-74572440D01*
X165018000Y-74572440D01*
X165253317Y-74528162D01*
X165469441Y-74389090D01*
X165614431Y-74176890D01*
X165665440Y-73925000D01*
X165665440Y-73830673D01*
X165682000Y-73834027D01*
X165682000Y-74746416D01*
X165584832Y-74843584D01*
X165402000Y-74806560D01*
X163702000Y-74806560D01*
X163466683Y-74850838D01*
X163300523Y-74957759D01*
X163153890Y-74857569D01*
X162902000Y-74806560D01*
X161987362Y-74806560D01*
X161674026Y-74493224D01*
X161766000Y-74401250D01*
X161766000Y-73152000D01*
X160641750Y-73152000D01*
X160487276Y-73306474D01*
X160374440Y-73193638D01*
X160374440Y-71921000D01*
X160366725Y-71880000D01*
X160532163Y-71880000D01*
X160483000Y-71998690D01*
X160483000Y-71998690D01*
G37*
X160483000Y-71998690D02*
X160483000Y-72739250D01*
X160641750Y-72898000D01*
X161766000Y-72898000D01*
X161766000Y-72878000D01*
X162020000Y-72878000D01*
X162020000Y-72898000D01*
X162040000Y-72898000D01*
X162040000Y-73152000D01*
X162020000Y-73152000D01*
X162020000Y-74401250D01*
X162178750Y-74560000D01*
X162794309Y-74560000D01*
X163027698Y-74463327D01*
X163069660Y-74421366D01*
X163216110Y-74521431D01*
X163468000Y-74572440D01*
X165018000Y-74572440D01*
X165253317Y-74528162D01*
X165469441Y-74389090D01*
X165614431Y-74176890D01*
X165665440Y-73925000D01*
X165665440Y-73830673D01*
X165682000Y-73834027D01*
X165682000Y-74746416D01*
X165584832Y-74843584D01*
X165402000Y-74806560D01*
X163702000Y-74806560D01*
X163466683Y-74850838D01*
X163300523Y-74957759D01*
X163153890Y-74857569D01*
X162902000Y-74806560D01*
X161987362Y-74806560D01*
X161674026Y-74493224D01*
X161766000Y-74401250D01*
X161766000Y-73152000D01*
X160641750Y-73152000D01*
X160487276Y-73306474D01*
X160374440Y-73193638D01*
X160374440Y-71921000D01*
X160366725Y-71880000D01*
X160532163Y-71880000D01*
X160483000Y-71998690D01*
G36*
X194310000Y-57149650D02*
X194310000Y-65134166D01*
X194201313Y-65102992D01*
X193400705Y-65903600D01*
X194201313Y-66704208D01*
X194310000Y-66673034D01*
X194310000Y-67557019D01*
X194013470Y-67259971D01*
X193821373Y-67180205D01*
X193952243Y-67125997D01*
X194021708Y-66883813D01*
X193221100Y-66083205D01*
X192420492Y-66883813D01*
X192489957Y-67125997D01*
X192630418Y-67176109D01*
X192430797Y-67258590D01*
X192037471Y-67651230D01*
X191951151Y-67859112D01*
X191866110Y-67653297D01*
X191473470Y-67259971D01*
X191265588Y-67173651D01*
X191471403Y-67088610D01*
X191864729Y-66695970D01*
X191944495Y-66503873D01*
X191998703Y-66634743D01*
X192240887Y-66704208D01*
X193041495Y-65903600D01*
X192240887Y-65102992D01*
X191998703Y-65172457D01*
X191948591Y-65312918D01*
X191866110Y-65113297D01*
X191676532Y-64923387D01*
X192420492Y-64923387D01*
X193221100Y-65723995D01*
X194021708Y-64923387D01*
X193952243Y-64681203D01*
X193428798Y-64494456D01*
X192873732Y-64522238D01*
X192489957Y-64681203D01*
X192420492Y-64923387D01*
X191676532Y-64923387D01*
X191473470Y-64719971D01*
X190960200Y-64506843D01*
X190404439Y-64506358D01*
X189890797Y-64718590D01*
X189497471Y-65111230D01*
X189284343Y-65624500D01*
X189283858Y-66180261D01*
X189496090Y-66693903D01*
X189888730Y-67087229D01*
X190096612Y-67173549D01*
X189890797Y-67258590D01*
X189497471Y-67651230D01*
X189284343Y-68164500D01*
X189283858Y-68720261D01*
X189496090Y-69233903D01*
X189888730Y-69627229D01*
X190096612Y-69713549D01*
X189890797Y-69798590D01*
X189497471Y-70191230D01*
X189310440Y-70641651D01*
X189310440Y-69581000D01*
X189266162Y-69345683D01*
X189127090Y-69129559D01*
X188914890Y-68984569D01*
X188663000Y-68933560D01*
X187163000Y-68933560D01*
X186927683Y-68977838D01*
X186711559Y-69116910D01*
X186566569Y-69329110D01*
X186563919Y-69342197D01*
X186427090Y-69129559D01*
X186214890Y-68984569D01*
X185963000Y-68933560D01*
X184463000Y-68933560D01*
X184227683Y-68977838D01*
X184011559Y-69116910D01*
X183932238Y-69233000D01*
X183896105Y-69233000D01*
X183805090Y-69091559D01*
X183592890Y-68946569D01*
X183341000Y-68895560D01*
X182776000Y-68895560D01*
X182776000Y-68787440D01*
X183530000Y-68787440D01*
X183765317Y-68743162D01*
X183981441Y-68604090D01*
X184126431Y-68391890D01*
X184177440Y-68140000D01*
X184177440Y-66640000D01*
X184133162Y-66404683D01*
X183994090Y-66188559D01*
X183781890Y-66043569D01*
X183768803Y-66040919D01*
X183981441Y-65904090D01*
X184126431Y-65691890D01*
X184168049Y-65486372D01*
X184268730Y-65587229D01*
X184782000Y-65800357D01*
X185337761Y-65800842D01*
X185851403Y-65588610D01*
X186244729Y-65195970D01*
X186457857Y-64682700D01*
X186458342Y-64126939D01*
X186246110Y-63613297D01*
X185853470Y-63219971D01*
X185645588Y-63133651D01*
X185851403Y-63048610D01*
X186244729Y-62655970D01*
X186457857Y-62142700D01*
X186458342Y-61586939D01*
X186246110Y-61073297D01*
X185853470Y-60679971D01*
X185661373Y-60600205D01*
X185792243Y-60545997D01*
X185798141Y-60525434D01*
X188865643Y-60525434D01*
X189265953Y-61494258D01*
X190006543Y-62236142D01*
X190974667Y-62638142D01*
X192022934Y-62639057D01*
X192991758Y-62238747D01*
X193733642Y-61498157D01*
X194135642Y-60530033D01*
X194136557Y-59481766D01*
X193736247Y-58512942D01*
X192995657Y-57771058D01*
X192027533Y-57369058D01*
X190979266Y-57368143D01*
X190010442Y-57768453D01*
X189268558Y-58509043D01*
X188866558Y-59477167D01*
X188865643Y-60525434D01*
X185798141Y-60525434D01*
X185861708Y-60303813D01*
X185061100Y-59503205D01*
X185046958Y-59517348D01*
X184867353Y-59337743D01*
X184881495Y-59323600D01*
X185240705Y-59323600D01*
X186041313Y-60124208D01*
X186283497Y-60054743D01*
X186470244Y-59531298D01*
X186442462Y-58976232D01*
X186283497Y-58592457D01*
X186041313Y-58522992D01*
X185240705Y-59323600D01*
X184881495Y-59323600D01*
X184867353Y-59309458D01*
X185046958Y-59129853D01*
X185061100Y-59143995D01*
X185861708Y-58343387D01*
X185792243Y-58101203D01*
X185268798Y-57914456D01*
X184713732Y-57942238D01*
X184329957Y-58101203D01*
X184260493Y-58343385D01*
X184145482Y-58228374D01*
X184121000Y-58252856D01*
X184121000Y-58144691D01*
X184024327Y-57911302D01*
X183845699Y-57732673D01*
X183612310Y-57636000D01*
X183121750Y-57636000D01*
X182963000Y-57794750D01*
X182963000Y-58794000D01*
X182983000Y-58794000D01*
X182983000Y-59048000D01*
X182963000Y-59048000D01*
X182963000Y-59068000D01*
X182709000Y-59068000D01*
X182709000Y-59048000D01*
X181709750Y-59048000D01*
X181551000Y-59206750D01*
X181551000Y-59697309D01*
X181647673Y-59930698D01*
X181788910Y-60071936D01*
X181734559Y-60106910D01*
X181616896Y-60279116D01*
X181297833Y-60278838D01*
X180954057Y-60420883D01*
X180690808Y-60683673D01*
X180548162Y-61027201D01*
X180547838Y-61399167D01*
X180689883Y-61742943D01*
X180952673Y-62006192D01*
X181296201Y-62148838D01*
X181610376Y-62149112D01*
X181721910Y-62322441D01*
X181934110Y-62467431D01*
X182076000Y-62496164D01*
X182076000Y-63321537D01*
X181994683Y-63336838D01*
X181778559Y-63475910D01*
X181633569Y-63688110D01*
X181591865Y-63894051D01*
X181503327Y-63680302D01*
X181324699Y-63501673D01*
X181091310Y-63405000D01*
X180625750Y-63405000D01*
X180467000Y-63563750D01*
X180467000Y-64663000D01*
X180487000Y-64663000D01*
X180487000Y-64917000D01*
X180467000Y-64917000D01*
X180467000Y-64937000D01*
X180213000Y-64937000D01*
X180213000Y-64917000D01*
X179238750Y-64917000D01*
X179163750Y-64992000D01*
X177927000Y-64992000D01*
X177927000Y-65012000D01*
X177673000Y-65012000D01*
X177673000Y-64992000D01*
X176436250Y-64992000D01*
X176361250Y-64917000D01*
X175387000Y-64917000D01*
X175387000Y-64937000D01*
X175133000Y-64937000D01*
X175133000Y-64917000D01*
X174158750Y-64917000D01*
X174077954Y-64997796D01*
X174065079Y-64984921D01*
X173810407Y-64814755D01*
X173510000Y-64755000D01*
X172221500Y-64755000D01*
X172221500Y-64637998D01*
X172062752Y-64637998D01*
X172221500Y-64479250D01*
X172221500Y-64232191D01*
X172124827Y-63998802D01*
X172039717Y-63913691D01*
X174000000Y-63913691D01*
X174000000Y-64504250D01*
X174158750Y-64663000D01*
X175133000Y-64663000D01*
X175133000Y-63563750D01*
X175387000Y-63563750D01*
X175387000Y-64663000D01*
X176348750Y-64663000D01*
X176423750Y-64738000D01*
X177673000Y-64738000D01*
X177673000Y-63613750D01*
X177927000Y-63613750D01*
X177927000Y-64738000D01*
X179176250Y-64738000D01*
X179251250Y-64663000D01*
X180213000Y-64663000D01*
X180213000Y-63563750D01*
X180054250Y-63405000D01*
X179588690Y-63405000D01*
X179355301Y-63501673D01*
X179182500Y-63674475D01*
X179059699Y-63551673D01*
X178826310Y-63455000D01*
X178085750Y-63455000D01*
X177927000Y-63613750D01*
X177673000Y-63613750D01*
X177514250Y-63455000D01*
X176773690Y-63455000D01*
X176540301Y-63551673D01*
X176417500Y-63674475D01*
X176244699Y-63501673D01*
X176011310Y-63405000D01*
X175545750Y-63405000D01*
X175387000Y-63563750D01*
X175133000Y-63563750D01*
X174974250Y-63405000D01*
X174508690Y-63405000D01*
X174275301Y-63501673D01*
X174096673Y-63680302D01*
X174000000Y-63913691D01*
X172039717Y-63913691D01*
X171946199Y-63820173D01*
X171712810Y-63723500D01*
X171694000Y-63723500D01*
X171694000Y-63060802D01*
X172070401Y-62684401D01*
X172096434Y-62645440D01*
X172183000Y-62645440D01*
X172418317Y-62601162D01*
X172634441Y-62462090D01*
X172779431Y-62249890D01*
X172808164Y-62108000D01*
X172990827Y-62108000D01*
X172994838Y-62129317D01*
X173133910Y-62345441D01*
X173346110Y-62490431D01*
X173598000Y-62541440D01*
X175398000Y-62541440D01*
X175633317Y-62497162D01*
X175849441Y-62358090D01*
X175994431Y-62145890D01*
X176045440Y-61894000D01*
X176045440Y-61107564D01*
X176082838Y-61306317D01*
X176221910Y-61522441D01*
X176357093Y-61614807D01*
X176356838Y-61907167D01*
X176498883Y-62250943D01*
X176761673Y-62514192D01*
X177105201Y-62656838D01*
X177477167Y-62657162D01*
X177820943Y-62515117D01*
X178084192Y-62252327D01*
X178226838Y-61908799D01*
X178227046Y-61670476D01*
X178437441Y-61535090D01*
X178582431Y-61322890D01*
X178633440Y-61071000D01*
X178633440Y-59071000D01*
X178589162Y-58835683D01*
X178450090Y-58619559D01*
X178237890Y-58474569D01*
X177986000Y-58423560D01*
X176686000Y-58423560D01*
X176450683Y-58467838D01*
X176234559Y-58606910D01*
X176089569Y-58819110D01*
X176038560Y-59071000D01*
X176038560Y-60307436D01*
X176001162Y-60108683D01*
X175895518Y-59944507D01*
X175936327Y-59903698D01*
X176033000Y-59670309D01*
X176033000Y-59054750D01*
X175874250Y-58896000D01*
X174625000Y-58896000D01*
X174625000Y-58916000D01*
X174371000Y-58916000D01*
X174371000Y-58896000D01*
X173121750Y-58896000D01*
X172963000Y-59054750D01*
X172963000Y-59159499D01*
X172906799Y-59136162D01*
X172534833Y-59135838D01*
X172440053Y-59175000D01*
X171660000Y-59175000D01*
X171660000Y-59195000D01*
X171406000Y-59195000D01*
X171406000Y-59175000D01*
X170406750Y-59175000D01*
X170248000Y-59333750D01*
X170248000Y-59699198D01*
X168820493Y-58271691D01*
X170248000Y-58271691D01*
X170248000Y-58762250D01*
X170406750Y-58921000D01*
X171406000Y-58921000D01*
X171406000Y-57921750D01*
X171660000Y-57921750D01*
X171660000Y-58921000D01*
X172659250Y-58921000D01*
X172818000Y-58762250D01*
X172818000Y-58271691D01*
X172721327Y-58038302D01*
X172550717Y-57867691D01*
X172963000Y-57867691D01*
X172963000Y-58483250D01*
X173121750Y-58642000D01*
X174371000Y-58642000D01*
X174371000Y-57517750D01*
X174625000Y-57517750D01*
X174625000Y-58642000D01*
X175874250Y-58642000D01*
X176033000Y-58483250D01*
X176033000Y-58144691D01*
X181551000Y-58144691D01*
X181551000Y-58635250D01*
X181709750Y-58794000D01*
X182709000Y-58794000D01*
X182709000Y-57794750D01*
X182550250Y-57636000D01*
X182059690Y-57636000D01*
X181826301Y-57732673D01*
X181647673Y-57911302D01*
X181551000Y-58144691D01*
X176033000Y-58144691D01*
X176033000Y-57867691D01*
X175936327Y-57634302D01*
X175757699Y-57455673D01*
X175524310Y-57359000D01*
X174783750Y-57359000D01*
X174625000Y-57517750D01*
X174371000Y-57517750D01*
X174212250Y-57359000D01*
X173471690Y-57359000D01*
X173238301Y-57455673D01*
X173059673Y-57634302D01*
X172963000Y-57867691D01*
X172550717Y-57867691D01*
X172542699Y-57859673D01*
X172309310Y-57763000D01*
X171818750Y-57763000D01*
X171660000Y-57921750D01*
X171406000Y-57921750D01*
X171247250Y-57763000D01*
X170756690Y-57763000D01*
X170523301Y-57859673D01*
X170344673Y-58038302D01*
X170248000Y-58271691D01*
X168820493Y-58271691D01*
X167669401Y-57120599D01*
X167602463Y-57075872D01*
X194310000Y-57149650D01*
X194310000Y-57149650D01*
G37*
X194310000Y-57149650D02*
X194310000Y-65134166D01*
X194201313Y-65102992D01*
X193400705Y-65903600D01*
X194201313Y-66704208D01*
X194310000Y-66673034D01*
X194310000Y-67557019D01*
X194013470Y-67259971D01*
X193821373Y-67180205D01*
X193952243Y-67125997D01*
X194021708Y-66883813D01*
X193221100Y-66083205D01*
X192420492Y-66883813D01*
X192489957Y-67125997D01*
X192630418Y-67176109D01*
X192430797Y-67258590D01*
X192037471Y-67651230D01*
X191951151Y-67859112D01*
X191866110Y-67653297D01*
X191473470Y-67259971D01*
X191265588Y-67173651D01*
X191471403Y-67088610D01*
X191864729Y-66695970D01*
X191944495Y-66503873D01*
X191998703Y-66634743D01*
X192240887Y-66704208D01*
X193041495Y-65903600D01*
X192240887Y-65102992D01*
X191998703Y-65172457D01*
X191948591Y-65312918D01*
X191866110Y-65113297D01*
X191676532Y-64923387D01*
X192420492Y-64923387D01*
X193221100Y-65723995D01*
X194021708Y-64923387D01*
X193952243Y-64681203D01*
X193428798Y-64494456D01*
X192873732Y-64522238D01*
X192489957Y-64681203D01*
X192420492Y-64923387D01*
X191676532Y-64923387D01*
X191473470Y-64719971D01*
X190960200Y-64506843D01*
X190404439Y-64506358D01*
X189890797Y-64718590D01*
X189497471Y-65111230D01*
X189284343Y-65624500D01*
X189283858Y-66180261D01*
X189496090Y-66693903D01*
X189888730Y-67087229D01*
X190096612Y-67173549D01*
X189890797Y-67258590D01*
X189497471Y-67651230D01*
X189284343Y-68164500D01*
X189283858Y-68720261D01*
X189496090Y-69233903D01*
X189888730Y-69627229D01*
X190096612Y-69713549D01*
X189890797Y-69798590D01*
X189497471Y-70191230D01*
X189310440Y-70641651D01*
X189310440Y-69581000D01*
X189266162Y-69345683D01*
X189127090Y-69129559D01*
X188914890Y-68984569D01*
X188663000Y-68933560D01*
X187163000Y-68933560D01*
X186927683Y-68977838D01*
X186711559Y-69116910D01*
X186566569Y-69329110D01*
X186563919Y-69342197D01*
X186427090Y-69129559D01*
X186214890Y-68984569D01*
X185963000Y-68933560D01*
X184463000Y-68933560D01*
X184227683Y-68977838D01*
X184011559Y-69116910D01*
X183932238Y-69233000D01*
X183896105Y-69233000D01*
X183805090Y-69091559D01*
X183592890Y-68946569D01*
X183341000Y-68895560D01*
X182776000Y-68895560D01*
X182776000Y-68787440D01*
X183530000Y-68787440D01*
X183765317Y-68743162D01*
X183981441Y-68604090D01*
X184126431Y-68391890D01*
X184177440Y-68140000D01*
X184177440Y-66640000D01*
X184133162Y-66404683D01*
X183994090Y-66188559D01*
X183781890Y-66043569D01*
X183768803Y-66040919D01*
X183981441Y-65904090D01*
X184126431Y-65691890D01*
X184168049Y-65486372D01*
X184268730Y-65587229D01*
X184782000Y-65800357D01*
X185337761Y-65800842D01*
X185851403Y-65588610D01*
X186244729Y-65195970D01*
X186457857Y-64682700D01*
X186458342Y-64126939D01*
X186246110Y-63613297D01*
X185853470Y-63219971D01*
X185645588Y-63133651D01*
X185851403Y-63048610D01*
X186244729Y-62655970D01*
X186457857Y-62142700D01*
X186458342Y-61586939D01*
X186246110Y-61073297D01*
X185853470Y-60679971D01*
X185661373Y-60600205D01*
X185792243Y-60545997D01*
X185798141Y-60525434D01*
X188865643Y-60525434D01*
X189265953Y-61494258D01*
X190006543Y-62236142D01*
X190974667Y-62638142D01*
X192022934Y-62639057D01*
X192991758Y-62238747D01*
X193733642Y-61498157D01*
X194135642Y-60530033D01*
X194136557Y-59481766D01*
X193736247Y-58512942D01*
X192995657Y-57771058D01*
X192027533Y-57369058D01*
X190979266Y-57368143D01*
X190010442Y-57768453D01*
X189268558Y-58509043D01*
X188866558Y-59477167D01*
X188865643Y-60525434D01*
X185798141Y-60525434D01*
X185861708Y-60303813D01*
X185061100Y-59503205D01*
X185046958Y-59517348D01*
X184867353Y-59337743D01*
X184881495Y-59323600D01*
X185240705Y-59323600D01*
X186041313Y-60124208D01*
X186283497Y-60054743D01*
X186470244Y-59531298D01*
X186442462Y-58976232D01*
X186283497Y-58592457D01*
X186041313Y-58522992D01*
X185240705Y-59323600D01*
X184881495Y-59323600D01*
X184867353Y-59309458D01*
X185046958Y-59129853D01*
X185061100Y-59143995D01*
X185861708Y-58343387D01*
X185792243Y-58101203D01*
X185268798Y-57914456D01*
X184713732Y-57942238D01*
X184329957Y-58101203D01*
X184260493Y-58343385D01*
X184145482Y-58228374D01*
X184121000Y-58252856D01*
X184121000Y-58144691D01*
X184024327Y-57911302D01*
X183845699Y-57732673D01*
X183612310Y-57636000D01*
X183121750Y-57636000D01*
X182963000Y-57794750D01*
X182963000Y-58794000D01*
X182983000Y-58794000D01*
X182983000Y-59048000D01*
X182963000Y-59048000D01*
X182963000Y-59068000D01*
X182709000Y-59068000D01*
X182709000Y-59048000D01*
X181709750Y-59048000D01*
X181551000Y-59206750D01*
X181551000Y-59697309D01*
X181647673Y-59930698D01*
X181788910Y-60071936D01*
X181734559Y-60106910D01*
X181616896Y-60279116D01*
X181297833Y-60278838D01*
X180954057Y-60420883D01*
X180690808Y-60683673D01*
X180548162Y-61027201D01*
X180547838Y-61399167D01*
X180689883Y-61742943D01*
X180952673Y-62006192D01*
X181296201Y-62148838D01*
X181610376Y-62149112D01*
X181721910Y-62322441D01*
X181934110Y-62467431D01*
X182076000Y-62496164D01*
X182076000Y-63321537D01*
X181994683Y-63336838D01*
X181778559Y-63475910D01*
X181633569Y-63688110D01*
X181591865Y-63894051D01*
X181503327Y-63680302D01*
X181324699Y-63501673D01*
X181091310Y-63405000D01*
X180625750Y-63405000D01*
X180467000Y-63563750D01*
X180467000Y-64663000D01*
X180487000Y-64663000D01*
X180487000Y-64917000D01*
X180467000Y-64917000D01*
X180467000Y-64937000D01*
X180213000Y-64937000D01*
X180213000Y-64917000D01*
X179238750Y-64917000D01*
X179163750Y-64992000D01*
X177927000Y-64992000D01*
X177927000Y-65012000D01*
X177673000Y-65012000D01*
X177673000Y-64992000D01*
X176436250Y-64992000D01*
X176361250Y-64917000D01*
X175387000Y-64917000D01*
X175387000Y-64937000D01*
X175133000Y-64937000D01*
X175133000Y-64917000D01*
X174158750Y-64917000D01*
X174077954Y-64997796D01*
X174065079Y-64984921D01*
X173810407Y-64814755D01*
X173510000Y-64755000D01*
X172221500Y-64755000D01*
X172221500Y-64637998D01*
X172062752Y-64637998D01*
X172221500Y-64479250D01*
X172221500Y-64232191D01*
X172124827Y-63998802D01*
X172039717Y-63913691D01*
X174000000Y-63913691D01*
X174000000Y-64504250D01*
X174158750Y-64663000D01*
X175133000Y-64663000D01*
X175133000Y-63563750D01*
X175387000Y-63563750D01*
X175387000Y-64663000D01*
X176348750Y-64663000D01*
X176423750Y-64738000D01*
X177673000Y-64738000D01*
X177673000Y-63613750D01*
X177927000Y-63613750D01*
X177927000Y-64738000D01*
X179176250Y-64738000D01*
X179251250Y-64663000D01*
X180213000Y-64663000D01*
X180213000Y-63563750D01*
X180054250Y-63405000D01*
X179588690Y-63405000D01*
X179355301Y-63501673D01*
X179182500Y-63674475D01*
X179059699Y-63551673D01*
X178826310Y-63455000D01*
X178085750Y-63455000D01*
X177927000Y-63613750D01*
X177673000Y-63613750D01*
X177514250Y-63455000D01*
X176773690Y-63455000D01*
X176540301Y-63551673D01*
X176417500Y-63674475D01*
X176244699Y-63501673D01*
X176011310Y-63405000D01*
X175545750Y-63405000D01*
X175387000Y-63563750D01*
X175133000Y-63563750D01*
X174974250Y-63405000D01*
X174508690Y-63405000D01*
X174275301Y-63501673D01*
X174096673Y-63680302D01*
X174000000Y-63913691D01*
X172039717Y-63913691D01*
X171946199Y-63820173D01*
X171712810Y-63723500D01*
X171694000Y-63723500D01*
X171694000Y-63060802D01*
X172070401Y-62684401D01*
X172096434Y-62645440D01*
X172183000Y-62645440D01*
X172418317Y-62601162D01*
X172634441Y-62462090D01*
X172779431Y-62249890D01*
X172808164Y-62108000D01*
X172990827Y-62108000D01*
X172994838Y-62129317D01*
X173133910Y-62345441D01*
X173346110Y-62490431D01*
X173598000Y-62541440D01*
X175398000Y-62541440D01*
X175633317Y-62497162D01*
X175849441Y-62358090D01*
X175994431Y-62145890D01*
X176045440Y-61894000D01*
X176045440Y-61107564D01*
X176082838Y-61306317D01*
X176221910Y-61522441D01*
X176357093Y-61614807D01*
X176356838Y-61907167D01*
X176498883Y-62250943D01*
X176761673Y-62514192D01*
X177105201Y-62656838D01*
X177477167Y-62657162D01*
X177820943Y-62515117D01*
X178084192Y-62252327D01*
X178226838Y-61908799D01*
X178227046Y-61670476D01*
X178437441Y-61535090D01*
X178582431Y-61322890D01*
X178633440Y-61071000D01*
X178633440Y-59071000D01*
X178589162Y-58835683D01*
X178450090Y-58619559D01*
X178237890Y-58474569D01*
X177986000Y-58423560D01*
X176686000Y-58423560D01*
X176450683Y-58467838D01*
X176234559Y-58606910D01*
X176089569Y-58819110D01*
X176038560Y-59071000D01*
X176038560Y-60307436D01*
X176001162Y-60108683D01*
X175895518Y-59944507D01*
X175936327Y-59903698D01*
X176033000Y-59670309D01*
X176033000Y-59054750D01*
X175874250Y-58896000D01*
X174625000Y-58896000D01*
X174625000Y-58916000D01*
X174371000Y-58916000D01*
X174371000Y-58896000D01*
X173121750Y-58896000D01*
X172963000Y-59054750D01*
X172963000Y-59159499D01*
X172906799Y-59136162D01*
X172534833Y-59135838D01*
X172440053Y-59175000D01*
X171660000Y-59175000D01*
X171660000Y-59195000D01*
X171406000Y-59195000D01*
X171406000Y-59175000D01*
X170406750Y-59175000D01*
X170248000Y-59333750D01*
X170248000Y-59699198D01*
X168820493Y-58271691D01*
X170248000Y-58271691D01*
X170248000Y-58762250D01*
X170406750Y-58921000D01*
X171406000Y-58921000D01*
X171406000Y-57921750D01*
X171660000Y-57921750D01*
X171660000Y-58921000D01*
X172659250Y-58921000D01*
X172818000Y-58762250D01*
X172818000Y-58271691D01*
X172721327Y-58038302D01*
X172550717Y-57867691D01*
X172963000Y-57867691D01*
X172963000Y-58483250D01*
X173121750Y-58642000D01*
X174371000Y-58642000D01*
X174371000Y-57517750D01*
X174625000Y-57517750D01*
X174625000Y-58642000D01*
X175874250Y-58642000D01*
X176033000Y-58483250D01*
X176033000Y-58144691D01*
X181551000Y-58144691D01*
X181551000Y-58635250D01*
X181709750Y-58794000D01*
X182709000Y-58794000D01*
X182709000Y-57794750D01*
X182550250Y-57636000D01*
X182059690Y-57636000D01*
X181826301Y-57732673D01*
X181647673Y-57911302D01*
X181551000Y-58144691D01*
X176033000Y-58144691D01*
X176033000Y-57867691D01*
X175936327Y-57634302D01*
X175757699Y-57455673D01*
X175524310Y-57359000D01*
X174783750Y-57359000D01*
X174625000Y-57517750D01*
X174371000Y-57517750D01*
X174212250Y-57359000D01*
X173471690Y-57359000D01*
X173238301Y-57455673D01*
X173059673Y-57634302D01*
X172963000Y-57867691D01*
X172550717Y-57867691D01*
X172542699Y-57859673D01*
X172309310Y-57763000D01*
X171818750Y-57763000D01*
X171660000Y-57921750D01*
X171406000Y-57921750D01*
X171247250Y-57763000D01*
X170756690Y-57763000D01*
X170523301Y-57859673D01*
X170344673Y-58038302D01*
X170248000Y-58271691D01*
X168820493Y-58271691D01*
X167669401Y-57120599D01*
X167602463Y-57075872D01*
X194310000Y-57149650D01*
G36*
X161417000Y-69703000D02*
X161437000Y-69703000D01*
X161437000Y-69957000D01*
X161417000Y-69957000D01*
X161417000Y-69977000D01*
X161163000Y-69977000D01*
X161163000Y-69957000D01*
X161143000Y-69957000D01*
X161143000Y-69703000D01*
X161163000Y-69703000D01*
X161163000Y-69683000D01*
X161417000Y-69683000D01*
X161417000Y-69703000D01*
X161417000Y-69703000D01*
G37*
X161417000Y-69703000D02*
X161437000Y-69703000D01*
X161437000Y-69957000D01*
X161417000Y-69957000D01*
X161417000Y-69977000D01*
X161163000Y-69977000D01*
X161163000Y-69957000D01*
X161143000Y-69957000D01*
X161143000Y-69703000D01*
X161163000Y-69703000D01*
X161163000Y-69683000D01*
X161417000Y-69683000D01*
X161417000Y-69703000D01*
G36*
X168743173Y-68081198D02*
X168921801Y-68259827D01*
X169155190Y-68356500D01*
X169199000Y-68356500D01*
X169357750Y-68197750D01*
X169357750Y-68195776D01*
X169421801Y-68259827D01*
X169655190Y-68356500D01*
X169712810Y-68356500D01*
X169934000Y-68264880D01*
X170149000Y-68353936D01*
X170149000Y-68399467D01*
X170056683Y-68416838D01*
X169840559Y-68555910D01*
X169799714Y-68615689D01*
X169665699Y-68481673D01*
X169432310Y-68385000D01*
X168941750Y-68385000D01*
X168783000Y-68543750D01*
X168783000Y-69643000D01*
X168803000Y-69643000D01*
X168803000Y-69897000D01*
X168783000Y-69897000D01*
X168783000Y-69917000D01*
X168529000Y-69917000D01*
X168529000Y-69897000D01*
X168509000Y-69897000D01*
X168509000Y-69643000D01*
X168529000Y-69643000D01*
X168529000Y-68543750D01*
X168370250Y-68385000D01*
X167892000Y-68385000D01*
X167892000Y-68371999D01*
X168079167Y-68372162D01*
X168422943Y-68230117D01*
X168686192Y-67967327D01*
X168691105Y-67955495D01*
X168743173Y-68081198D01*
X168743173Y-68081198D01*
G37*
X168743173Y-68081198D02*
X168921801Y-68259827D01*
X169155190Y-68356500D01*
X169199000Y-68356500D01*
X169357750Y-68197750D01*
X169357750Y-68195776D01*
X169421801Y-68259827D01*
X169655190Y-68356500D01*
X169712810Y-68356500D01*
X169934000Y-68264880D01*
X170149000Y-68353936D01*
X170149000Y-68399467D01*
X170056683Y-68416838D01*
X169840559Y-68555910D01*
X169799714Y-68615689D01*
X169665699Y-68481673D01*
X169432310Y-68385000D01*
X168941750Y-68385000D01*
X168783000Y-68543750D01*
X168783000Y-69643000D01*
X168803000Y-69643000D01*
X168803000Y-69897000D01*
X168783000Y-69897000D01*
X168783000Y-69917000D01*
X168529000Y-69917000D01*
X168529000Y-69897000D01*
X168509000Y-69897000D01*
X168509000Y-69643000D01*
X168529000Y-69643000D01*
X168529000Y-68543750D01*
X168370250Y-68385000D01*
X167892000Y-68385000D01*
X167892000Y-68371999D01*
X168079167Y-68372162D01*
X168422943Y-68230117D01*
X168686192Y-67967327D01*
X168691105Y-67955495D01*
X168743173Y-68081198D01*
G36*
X165862000Y-67163000D02*
X165882000Y-67163000D01*
X165882000Y-67417000D01*
X165862000Y-67417000D01*
X165862000Y-67437000D01*
X165608000Y-67437000D01*
X165608000Y-67417000D01*
X165588000Y-67417000D01*
X165588000Y-67163000D01*
X165608000Y-67163000D01*
X165608000Y-67143000D01*
X165862000Y-67143000D01*
X165862000Y-67163000D01*
X165862000Y-67163000D01*
G37*
X165862000Y-67163000D02*
X165882000Y-67163000D01*
X165882000Y-67417000D01*
X165862000Y-67417000D01*
X165862000Y-67437000D01*
X165608000Y-67437000D01*
X165608000Y-67417000D01*
X165588000Y-67417000D01*
X165588000Y-67163000D01*
X165608000Y-67163000D01*
X165608000Y-67143000D01*
X165862000Y-67143000D01*
X165862000Y-67163000D01*
G36*
X167142881Y-58743683D02*
X166934890Y-58601569D01*
X166683000Y-58550560D01*
X165383000Y-58550560D01*
X165147683Y-58594838D01*
X164931559Y-58733910D01*
X164786569Y-58946110D01*
X164735560Y-59198000D01*
X164735560Y-60806077D01*
X164731890Y-60803569D01*
X164480000Y-60752560D01*
X163180000Y-60752560D01*
X162944683Y-60796838D01*
X162728559Y-60935910D01*
X162583569Y-61148110D01*
X162541865Y-61354051D01*
X162453327Y-61140302D01*
X162274699Y-60961673D01*
X162041310Y-60865000D01*
X161575750Y-60865000D01*
X161417000Y-61023750D01*
X161417000Y-62123000D01*
X161437000Y-62123000D01*
X161437000Y-62377000D01*
X161417000Y-62377000D01*
X161417000Y-62397000D01*
X161163000Y-62397000D01*
X161163000Y-62377000D01*
X161143000Y-62377000D01*
X161143000Y-62123000D01*
X161163000Y-62123000D01*
X161163000Y-61023750D01*
X161004250Y-60865000D01*
X160538690Y-60865000D01*
X160305301Y-60961673D01*
X160126673Y-61140302D01*
X160038588Y-61352957D01*
X160003162Y-61164683D01*
X159864090Y-60948559D01*
X159651890Y-60803569D01*
X159400000Y-60752560D01*
X158100000Y-60752560D01*
X157864683Y-60796838D01*
X157648559Y-60935910D01*
X157503569Y-61148110D01*
X157458295Y-61371680D01*
X157438162Y-61264683D01*
X157299090Y-61048559D01*
X157086890Y-60903569D01*
X156835000Y-60852560D01*
X156122242Y-60852560D01*
X156422362Y-60552440D01*
X157695000Y-60552440D01*
X157930317Y-60508162D01*
X158146441Y-60369090D01*
X158291431Y-60156890D01*
X158305086Y-60089459D01*
X158334946Y-60134147D01*
X158816715Y-60456054D01*
X159385000Y-60569093D01*
X159953285Y-60456054D01*
X160435054Y-60134147D01*
X160662702Y-59793447D01*
X160729817Y-59936358D01*
X161158076Y-60326645D01*
X161568110Y-60496476D01*
X161798000Y-60375155D01*
X161798000Y-59182000D01*
X162052000Y-59182000D01*
X162052000Y-60375155D01*
X162281890Y-60496476D01*
X162691924Y-60326645D01*
X163120183Y-59936358D01*
X163366486Y-59411892D01*
X163245819Y-59182000D01*
X162052000Y-59182000D01*
X161798000Y-59182000D01*
X161778000Y-59182000D01*
X161778000Y-58928000D01*
X161798000Y-58928000D01*
X161798000Y-58908000D01*
X162052000Y-58908000D01*
X162052000Y-58928000D01*
X163245819Y-58928000D01*
X163366486Y-58698108D01*
X163234940Y-58418000D01*
X166817198Y-58418000D01*
X167142881Y-58743683D01*
X167142881Y-58743683D01*
G37*
X167142881Y-58743683D02*
X166934890Y-58601569D01*
X166683000Y-58550560D01*
X165383000Y-58550560D01*
X165147683Y-58594838D01*
X164931559Y-58733910D01*
X164786569Y-58946110D01*
X164735560Y-59198000D01*
X164735560Y-60806077D01*
X164731890Y-60803569D01*
X164480000Y-60752560D01*
X163180000Y-60752560D01*
X162944683Y-60796838D01*
X162728559Y-60935910D01*
X162583569Y-61148110D01*
X162541865Y-61354051D01*
X162453327Y-61140302D01*
X162274699Y-60961673D01*
X162041310Y-60865000D01*
X161575750Y-60865000D01*
X161417000Y-61023750D01*
X161417000Y-62123000D01*
X161437000Y-62123000D01*
X161437000Y-62377000D01*
X161417000Y-62377000D01*
X161417000Y-62397000D01*
X161163000Y-62397000D01*
X161163000Y-62377000D01*
X161143000Y-62377000D01*
X161143000Y-62123000D01*
X161163000Y-62123000D01*
X161163000Y-61023750D01*
X161004250Y-60865000D01*
X160538690Y-60865000D01*
X160305301Y-60961673D01*
X160126673Y-61140302D01*
X160038588Y-61352957D01*
X160003162Y-61164683D01*
X159864090Y-60948559D01*
X159651890Y-60803569D01*
X159400000Y-60752560D01*
X158100000Y-60752560D01*
X157864683Y-60796838D01*
X157648559Y-60935910D01*
X157503569Y-61148110D01*
X157458295Y-61371680D01*
X157438162Y-61264683D01*
X157299090Y-61048559D01*
X157086890Y-60903569D01*
X156835000Y-60852560D01*
X156122242Y-60852560D01*
X156422362Y-60552440D01*
X157695000Y-60552440D01*
X157930317Y-60508162D01*
X158146441Y-60369090D01*
X158291431Y-60156890D01*
X158305086Y-60089459D01*
X158334946Y-60134147D01*
X158816715Y-60456054D01*
X159385000Y-60569093D01*
X159953285Y-60456054D01*
X160435054Y-60134147D01*
X160662702Y-59793447D01*
X160729817Y-59936358D01*
X161158076Y-60326645D01*
X161568110Y-60496476D01*
X161798000Y-60375155D01*
X161798000Y-59182000D01*
X162052000Y-59182000D01*
X162052000Y-60375155D01*
X162281890Y-60496476D01*
X162691924Y-60326645D01*
X163120183Y-59936358D01*
X163366486Y-59411892D01*
X163245819Y-59182000D01*
X162052000Y-59182000D01*
X161798000Y-59182000D01*
X161778000Y-59182000D01*
X161778000Y-58928000D01*
X161798000Y-58928000D01*
X161798000Y-58908000D01*
X162052000Y-58908000D01*
X162052000Y-58928000D01*
X163245819Y-58928000D01*
X163366486Y-58698108D01*
X163234940Y-58418000D01*
X166817198Y-58418000D01*
X167142881Y-58743683D01*
M02*
