G04 #@! TF.FileFunction,Legend,Top*
%FSLAX46Y46*%
G04 Gerber Fmt 4.6, Leading zero omitted, Abs format (unit mm)*
G04 Created by KiCad (PCBNEW 4.0.7-e2-6376~61~ubuntu18.04.1) date Fri Jul  6 09:43:53 2018*
%MOMM*%
%LPD*%
G01*
G04 APERTURE LIST*
%ADD10C,0.100000*%
%ADD11C,0.300000*%
%ADD12C,0.275000*%
%ADD13C,0.120000*%
%ADD14C,0.150000*%
G04 APERTURE END LIST*
D10*
D11*
X166045055Y-50058865D02*
X166041881Y-51058860D01*
X165689728Y-49486306D02*
X165329185Y-50556595D01*
X166257753Y-50559543D01*
X167118065Y-49562269D02*
X167260921Y-49562723D01*
X167403551Y-49634605D01*
X167474753Y-49706260D01*
X167545728Y-49849343D01*
X167616248Y-50135283D01*
X167615115Y-50492424D01*
X167542780Y-50777910D01*
X167470898Y-50920539D01*
X167399242Y-50991741D01*
X167256159Y-51062715D01*
X167113303Y-51062262D01*
X166970674Y-50990381D01*
X166899472Y-50918725D01*
X166828498Y-50775642D01*
X166757976Y-50489703D01*
X166759110Y-50132562D01*
X166831445Y-49847076D01*
X166903327Y-49704446D01*
X166974982Y-49633244D01*
X167118065Y-49562269D01*
X168256608Y-50923034D02*
X168327809Y-50994689D01*
X168256154Y-51065890D01*
X168184952Y-50994235D01*
X168256608Y-50923034D01*
X168256154Y-51065890D01*
X169260911Y-49569072D02*
X169403767Y-49569525D01*
X169546397Y-49641408D01*
X169617599Y-49713063D01*
X169688574Y-49856146D01*
X169759095Y-50142085D01*
X169757961Y-50499227D01*
X169685626Y-50784712D01*
X169613744Y-50927342D01*
X169542089Y-50998544D01*
X169399006Y-51069518D01*
X169256149Y-51069064D01*
X169113520Y-50997183D01*
X169042318Y-50925528D01*
X168971344Y-50782445D01*
X168900822Y-50496505D01*
X168901956Y-50139364D01*
X168974292Y-49853878D01*
X169046173Y-49711249D01*
X169117828Y-49640047D01*
X169260911Y-49569072D01*
X170689475Y-49573607D02*
X170832331Y-49574061D01*
X170974961Y-49645943D01*
X171046163Y-49717598D01*
X171117138Y-49860681D01*
X171187658Y-50146620D01*
X171186525Y-50503762D01*
X171114190Y-50789247D01*
X171042308Y-50931877D01*
X170970652Y-51003079D01*
X170827569Y-51074053D01*
X170684713Y-51073600D01*
X170542084Y-51001718D01*
X170470882Y-50930063D01*
X170399908Y-50786980D01*
X170329386Y-50501041D01*
X170330520Y-50143899D01*
X170402855Y-49858414D01*
X170474737Y-49715784D01*
X170546392Y-49644582D01*
X170689475Y-49573607D01*
X172546609Y-49579503D02*
X171832326Y-49577235D01*
X171758630Y-50291291D01*
X171830285Y-50220090D01*
X171973368Y-50149115D01*
X172330510Y-50150249D01*
X172473139Y-50222131D01*
X172544341Y-50293785D01*
X172615315Y-50436868D01*
X172614181Y-50794009D01*
X172542300Y-50936639D01*
X172470645Y-51007841D01*
X172327562Y-51078815D01*
X171970421Y-51077681D01*
X171827791Y-51005800D01*
X171756589Y-50934145D01*
X174398979Y-51085391D02*
X174402154Y-50085396D01*
X174401700Y-50228253D02*
X174473355Y-50157051D01*
X174616439Y-50086076D01*
X174830723Y-50086756D01*
X174973352Y-50158639D01*
X175044327Y-50301722D01*
X175041833Y-51087432D01*
X175044327Y-50301722D02*
X175116210Y-50159092D01*
X175259293Y-50088117D01*
X175473577Y-50088797D01*
X175616207Y-50160679D01*
X175687181Y-50303762D01*
X175684687Y-51089472D01*
X176398969Y-51091740D02*
X176402144Y-50091745D01*
X176401690Y-50234602D02*
X176473345Y-50163400D01*
X176616429Y-50092425D01*
X176830713Y-50093106D01*
X176973342Y-50164988D01*
X177044317Y-50308071D01*
X177041823Y-51093781D01*
X177044317Y-50308071D02*
X177116200Y-50165441D01*
X177259283Y-50094466D01*
X177473567Y-50095146D01*
X177616197Y-50167029D01*
X177687171Y-50310112D01*
X177684677Y-51095822D01*
X151537221Y-51684246D02*
X191542221Y-51811246D01*
X151511000Y-59944000D02*
X151545792Y-48984260D01*
X191516000Y-60071000D02*
X191550792Y-49111260D01*
X191542221Y-51811246D02*
X190413861Y-52394088D01*
X191542221Y-51811246D02*
X190417585Y-51221252D01*
X151537221Y-51684246D02*
X152661857Y-52274240D01*
X151537221Y-51684246D02*
X152665581Y-51101404D01*
X204236429Y-75526001D02*
X203236429Y-75526001D01*
X204807857Y-75168858D02*
X203736429Y-74811715D01*
X203736429Y-75740287D01*
X203236429Y-77097429D02*
X203236429Y-76240286D01*
X203236429Y-76668858D02*
X204736429Y-76668858D01*
X204522143Y-76526001D01*
X204379286Y-76383143D01*
X204307857Y-76240286D01*
X203379286Y-77740286D02*
X203307857Y-77811714D01*
X203236429Y-77740286D01*
X203307857Y-77668857D01*
X203379286Y-77740286D01*
X203236429Y-77740286D01*
X203236429Y-78526000D02*
X203236429Y-78811715D01*
X203307857Y-78954572D01*
X203379286Y-79026000D01*
X203593571Y-79168858D01*
X203879286Y-79240286D01*
X204450714Y-79240286D01*
X204593571Y-79168858D01*
X204665000Y-79097429D01*
X204736429Y-78954572D01*
X204736429Y-78668858D01*
X204665000Y-78526000D01*
X204593571Y-78454572D01*
X204450714Y-78383143D01*
X204093571Y-78383143D01*
X203950714Y-78454572D01*
X203879286Y-78526000D01*
X203807857Y-78668858D01*
X203807857Y-78954572D01*
X203879286Y-79097429D01*
X203950714Y-79168858D01*
X204093571Y-79240286D01*
X203236429Y-80668857D02*
X203236429Y-79811714D01*
X203236429Y-80240286D02*
X204736429Y-80240286D01*
X204522143Y-80097429D01*
X204379286Y-79954571D01*
X204307857Y-79811714D01*
X204736429Y-81597428D02*
X204736429Y-81740285D01*
X204665000Y-81883142D01*
X204593571Y-81954571D01*
X204450714Y-82026000D01*
X204165000Y-82097428D01*
X203807857Y-82097428D01*
X203522143Y-82026000D01*
X203379286Y-81954571D01*
X203307857Y-81883142D01*
X203236429Y-81740285D01*
X203236429Y-81597428D01*
X203307857Y-81454571D01*
X203379286Y-81383142D01*
X203522143Y-81311714D01*
X203807857Y-81240285D01*
X204165000Y-81240285D01*
X204450714Y-81311714D01*
X204593571Y-81383142D01*
X204665000Y-81454571D01*
X204736429Y-81597428D01*
X203236429Y-83883142D02*
X204236429Y-83883142D01*
X204093571Y-83883142D02*
X204165000Y-83954570D01*
X204236429Y-84097428D01*
X204236429Y-84311713D01*
X204165000Y-84454570D01*
X204022143Y-84525999D01*
X203236429Y-84525999D01*
X204022143Y-84525999D02*
X204165000Y-84597428D01*
X204236429Y-84740285D01*
X204236429Y-84954570D01*
X204165000Y-85097428D01*
X204022143Y-85168856D01*
X203236429Y-85168856D01*
X203236429Y-85883142D02*
X204236429Y-85883142D01*
X204093571Y-85883142D02*
X204165000Y-85954570D01*
X204236429Y-86097428D01*
X204236429Y-86311713D01*
X204165000Y-86454570D01*
X204022143Y-86525999D01*
X203236429Y-86525999D01*
X204022143Y-86525999D02*
X204165000Y-86597428D01*
X204236429Y-86740285D01*
X204236429Y-86954570D01*
X204165000Y-87097428D01*
X204022143Y-87168856D01*
X203236429Y-87168856D01*
X202565000Y-60071000D02*
X202565000Y-101981000D01*
X191516000Y-60071000D02*
X205265000Y-60071000D01*
X191516000Y-101981000D02*
X205265000Y-101981000D01*
X202565000Y-101981000D02*
X201978579Y-100854496D01*
X202565000Y-101981000D02*
X203151421Y-100854496D01*
X202565000Y-60071000D02*
X201978579Y-61197504D01*
X202565000Y-60071000D02*
X203151421Y-61197504D01*
X181459858Y-120773571D02*
X180602715Y-120773571D01*
X181031287Y-120773571D02*
X181031287Y-119273571D01*
X180888430Y-119487857D01*
X180745572Y-119630714D01*
X180602715Y-119702143D01*
X182817001Y-119273571D02*
X182102715Y-119273571D01*
X182031286Y-119987857D01*
X182102715Y-119916429D01*
X182245572Y-119845000D01*
X182602715Y-119845000D01*
X182745572Y-119916429D01*
X182817001Y-119987857D01*
X182888429Y-120130714D01*
X182888429Y-120487857D01*
X182817001Y-120630714D01*
X182745572Y-120702143D01*
X182602715Y-120773571D01*
X182245572Y-120773571D01*
X182102715Y-120702143D01*
X182031286Y-120630714D01*
X183531286Y-120630714D02*
X183602714Y-120702143D01*
X183531286Y-120773571D01*
X183459857Y-120702143D01*
X183531286Y-120630714D01*
X183531286Y-120773571D01*
X184888429Y-119773571D02*
X184888429Y-120773571D01*
X184531286Y-119202143D02*
X184174143Y-120273571D01*
X185102715Y-120273571D01*
X185745571Y-120773571D02*
X186031286Y-120773571D01*
X186174143Y-120702143D01*
X186245571Y-120630714D01*
X186388429Y-120416429D01*
X186459857Y-120130714D01*
X186459857Y-119559286D01*
X186388429Y-119416429D01*
X186317000Y-119345000D01*
X186174143Y-119273571D01*
X185888429Y-119273571D01*
X185745571Y-119345000D01*
X185674143Y-119416429D01*
X185602714Y-119559286D01*
X185602714Y-119916429D01*
X185674143Y-120059286D01*
X185745571Y-120130714D01*
X185888429Y-120202143D01*
X186174143Y-120202143D01*
X186317000Y-120130714D01*
X186388429Y-120059286D01*
X186459857Y-119916429D01*
X187745571Y-119773571D02*
X187745571Y-120773571D01*
X187388428Y-119202143D02*
X187031285Y-120273571D01*
X187959857Y-120273571D01*
X189674142Y-120773571D02*
X189674142Y-119773571D01*
X189674142Y-119916429D02*
X189745570Y-119845000D01*
X189888428Y-119773571D01*
X190102713Y-119773571D01*
X190245570Y-119845000D01*
X190316999Y-119987857D01*
X190316999Y-120773571D01*
X190316999Y-119987857D02*
X190388428Y-119845000D01*
X190531285Y-119773571D01*
X190745570Y-119773571D01*
X190888428Y-119845000D01*
X190959856Y-119987857D01*
X190959856Y-120773571D01*
X191674142Y-120773571D02*
X191674142Y-119773571D01*
X191674142Y-119916429D02*
X191745570Y-119845000D01*
X191888428Y-119773571D01*
X192102713Y-119773571D01*
X192245570Y-119845000D01*
X192316999Y-119987857D01*
X192316999Y-120773571D01*
X192316999Y-119987857D02*
X192388428Y-119845000D01*
X192531285Y-119773571D01*
X192745570Y-119773571D01*
X192888428Y-119845000D01*
X192959856Y-119987857D01*
X192959856Y-120773571D01*
X194564000Y-118745000D02*
X179070000Y-118745000D01*
X194564000Y-105918000D02*
X194564000Y-121445000D01*
X179070000Y-105918000D02*
X179070000Y-121445000D01*
X179070000Y-118745000D02*
X180196504Y-118158579D01*
X179070000Y-118745000D02*
X180196504Y-119331421D01*
X194564000Y-118745000D02*
X193437496Y-118158579D01*
X194564000Y-118745000D02*
X193437496Y-119331421D01*
X200045429Y-75526001D02*
X199045429Y-75526001D01*
X200616857Y-75168858D02*
X199545429Y-74811715D01*
X199545429Y-75740287D01*
X199902571Y-76526001D02*
X199974000Y-76383143D01*
X200045429Y-76311715D01*
X200188286Y-76240286D01*
X200259714Y-76240286D01*
X200402571Y-76311715D01*
X200474000Y-76383143D01*
X200545429Y-76526001D01*
X200545429Y-76811715D01*
X200474000Y-76954572D01*
X200402571Y-77026001D01*
X200259714Y-77097429D01*
X200188286Y-77097429D01*
X200045429Y-77026001D01*
X199974000Y-76954572D01*
X199902571Y-76811715D01*
X199902571Y-76526001D01*
X199831143Y-76383143D01*
X199759714Y-76311715D01*
X199616857Y-76240286D01*
X199331143Y-76240286D01*
X199188286Y-76311715D01*
X199116857Y-76383143D01*
X199045429Y-76526001D01*
X199045429Y-76811715D01*
X199116857Y-76954572D01*
X199188286Y-77026001D01*
X199331143Y-77097429D01*
X199616857Y-77097429D01*
X199759714Y-77026001D01*
X199831143Y-76954572D01*
X199902571Y-76811715D01*
X199188286Y-77740286D02*
X199116857Y-77811714D01*
X199045429Y-77740286D01*
X199116857Y-77668857D01*
X199188286Y-77740286D01*
X199045429Y-77740286D01*
X200545429Y-78740286D02*
X200545429Y-78883143D01*
X200474000Y-79026000D01*
X200402571Y-79097429D01*
X200259714Y-79168858D01*
X199974000Y-79240286D01*
X199616857Y-79240286D01*
X199331143Y-79168858D01*
X199188286Y-79097429D01*
X199116857Y-79026000D01*
X199045429Y-78883143D01*
X199045429Y-78740286D01*
X199116857Y-78597429D01*
X199188286Y-78526000D01*
X199331143Y-78454572D01*
X199616857Y-78383143D01*
X199974000Y-78383143D01*
X200259714Y-78454572D01*
X200402571Y-78526000D01*
X200474000Y-78597429D01*
X200545429Y-78740286D01*
X200545429Y-80168857D02*
X200545429Y-80311714D01*
X200474000Y-80454571D01*
X200402571Y-80526000D01*
X200259714Y-80597429D01*
X199974000Y-80668857D01*
X199616857Y-80668857D01*
X199331143Y-80597429D01*
X199188286Y-80526000D01*
X199116857Y-80454571D01*
X199045429Y-80311714D01*
X199045429Y-80168857D01*
X199116857Y-80026000D01*
X199188286Y-79954571D01*
X199331143Y-79883143D01*
X199616857Y-79811714D01*
X199974000Y-79811714D01*
X200259714Y-79883143D01*
X200402571Y-79954571D01*
X200474000Y-80026000D01*
X200545429Y-80168857D01*
X200545429Y-81954571D02*
X200545429Y-81668857D01*
X200474000Y-81526000D01*
X200402571Y-81454571D01*
X200188286Y-81311714D01*
X199902571Y-81240285D01*
X199331143Y-81240285D01*
X199188286Y-81311714D01*
X199116857Y-81383142D01*
X199045429Y-81526000D01*
X199045429Y-81811714D01*
X199116857Y-81954571D01*
X199188286Y-82026000D01*
X199331143Y-82097428D01*
X199688286Y-82097428D01*
X199831143Y-82026000D01*
X199902571Y-81954571D01*
X199974000Y-81811714D01*
X199974000Y-81526000D01*
X199902571Y-81383142D01*
X199831143Y-81311714D01*
X199688286Y-81240285D01*
X199045429Y-83883142D02*
X200045429Y-83883142D01*
X199902571Y-83883142D02*
X199974000Y-83954570D01*
X200045429Y-84097428D01*
X200045429Y-84311713D01*
X199974000Y-84454570D01*
X199831143Y-84525999D01*
X199045429Y-84525999D01*
X199831143Y-84525999D02*
X199974000Y-84597428D01*
X200045429Y-84740285D01*
X200045429Y-84954570D01*
X199974000Y-85097428D01*
X199831143Y-85168856D01*
X199045429Y-85168856D01*
X199045429Y-85883142D02*
X200045429Y-85883142D01*
X199902571Y-85883142D02*
X199974000Y-85954570D01*
X200045429Y-86097428D01*
X200045429Y-86311713D01*
X199974000Y-86454570D01*
X199831143Y-86525999D01*
X199045429Y-86525999D01*
X199831143Y-86525999D02*
X199974000Y-86597428D01*
X200045429Y-86740285D01*
X200045429Y-86954570D01*
X199974000Y-87097428D01*
X199831143Y-87168856D01*
X199045429Y-87168856D01*
X198374000Y-57023000D02*
X198374000Y-105029000D01*
X195199000Y-57023000D02*
X201074000Y-57023000D01*
X195199000Y-105029000D02*
X201074000Y-105029000D01*
X198374000Y-105029000D02*
X197787579Y-103902496D01*
X198374000Y-105029000D02*
X198960421Y-103902496D01*
X198374000Y-57023000D02*
X197787579Y-58149504D01*
X198374000Y-57023000D02*
X198960421Y-58149504D01*
X166013501Y-53319571D02*
X166013501Y-54319571D01*
X165656358Y-52748143D02*
X165299215Y-53819571D01*
X166227787Y-53819571D01*
X167442072Y-52819571D02*
X167156358Y-52819571D01*
X167013501Y-52891000D01*
X166942072Y-52962429D01*
X166799215Y-53176714D01*
X166727786Y-53462429D01*
X166727786Y-54033857D01*
X166799215Y-54176714D01*
X166870643Y-54248143D01*
X167013501Y-54319571D01*
X167299215Y-54319571D01*
X167442072Y-54248143D01*
X167513501Y-54176714D01*
X167584929Y-54033857D01*
X167584929Y-53676714D01*
X167513501Y-53533857D01*
X167442072Y-53462429D01*
X167299215Y-53391000D01*
X167013501Y-53391000D01*
X166870643Y-53462429D01*
X166799215Y-53533857D01*
X166727786Y-53676714D01*
X168227786Y-54176714D02*
X168299214Y-54248143D01*
X168227786Y-54319571D01*
X168156357Y-54248143D01*
X168227786Y-54176714D01*
X168227786Y-54319571D01*
X169727786Y-54319571D02*
X168870643Y-54319571D01*
X169299215Y-54319571D02*
X169299215Y-52819571D01*
X169156358Y-53033857D01*
X169013500Y-53176714D01*
X168870643Y-53248143D01*
X170656357Y-52819571D02*
X170799214Y-52819571D01*
X170942071Y-52891000D01*
X171013500Y-52962429D01*
X171084929Y-53105286D01*
X171156357Y-53391000D01*
X171156357Y-53748143D01*
X171084929Y-54033857D01*
X171013500Y-54176714D01*
X170942071Y-54248143D01*
X170799214Y-54319571D01*
X170656357Y-54319571D01*
X170513500Y-54248143D01*
X170442071Y-54176714D01*
X170370643Y-54033857D01*
X170299214Y-53748143D01*
X170299214Y-53391000D01*
X170370643Y-53105286D01*
X170442071Y-52962429D01*
X170513500Y-52891000D01*
X170656357Y-52819571D01*
X172584928Y-54319571D02*
X171727785Y-54319571D01*
X172156357Y-54319571D02*
X172156357Y-52819571D01*
X172013500Y-53033857D01*
X171870642Y-53176714D01*
X171727785Y-53248143D01*
X174370642Y-54319571D02*
X174370642Y-53319571D01*
X174370642Y-53462429D02*
X174442070Y-53391000D01*
X174584928Y-53319571D01*
X174799213Y-53319571D01*
X174942070Y-53391000D01*
X175013499Y-53533857D01*
X175013499Y-54319571D01*
X175013499Y-53533857D02*
X175084928Y-53391000D01*
X175227785Y-53319571D01*
X175442070Y-53319571D01*
X175584928Y-53391000D01*
X175656356Y-53533857D01*
X175656356Y-54319571D01*
X176370642Y-54319571D02*
X176370642Y-53319571D01*
X176370642Y-53462429D02*
X176442070Y-53391000D01*
X176584928Y-53319571D01*
X176799213Y-53319571D01*
X176942070Y-53391000D01*
X177013499Y-53533857D01*
X177013499Y-54319571D01*
X177013499Y-53533857D02*
X177084928Y-53391000D01*
X177227785Y-53319571D01*
X177442070Y-53319571D01*
X177584928Y-53391000D01*
X177656356Y-53533857D01*
X177656356Y-54319571D01*
X148463000Y-54991000D02*
X194564000Y-54991000D01*
X148463000Y-56515000D02*
X148463000Y-52291000D01*
X194564000Y-56515000D02*
X194564000Y-52291000D01*
X194564000Y-54991000D02*
X193437496Y-55577421D01*
X194564000Y-54991000D02*
X193437496Y-54404579D01*
X148463000Y-54991000D02*
X149589504Y-55577421D01*
X148463000Y-54991000D02*
X149589504Y-54404579D01*
D12*
X157287810Y-93790238D02*
X157444953Y-93842619D01*
X157706857Y-93842619D01*
X157811619Y-93790238D01*
X157864000Y-93737857D01*
X157916381Y-93633095D01*
X157916381Y-93528333D01*
X157864000Y-93423571D01*
X157811619Y-93371190D01*
X157706857Y-93318810D01*
X157497334Y-93266429D01*
X157392572Y-93214048D01*
X157340191Y-93161667D01*
X157287810Y-93056905D01*
X157287810Y-92952143D01*
X157340191Y-92847381D01*
X157392572Y-92795000D01*
X157497334Y-92742619D01*
X157759238Y-92742619D01*
X157916381Y-92795000D01*
X158387810Y-93842619D02*
X158387810Y-92742619D01*
X158649715Y-92742619D01*
X158806857Y-92795000D01*
X158911619Y-92899762D01*
X158964000Y-93004524D01*
X159016381Y-93214048D01*
X159016381Y-93371190D01*
X158964000Y-93580714D01*
X158911619Y-93685476D01*
X158806857Y-93790238D01*
X158649715Y-93842619D01*
X158387810Y-93842619D01*
X160116381Y-93842619D02*
X159749715Y-93318810D01*
X159487810Y-93842619D02*
X159487810Y-92742619D01*
X159906857Y-92742619D01*
X160011619Y-92795000D01*
X160064000Y-92847381D01*
X160116381Y-92952143D01*
X160116381Y-93109286D01*
X160064000Y-93214048D01*
X160011619Y-93266429D01*
X159906857Y-93318810D01*
X159487810Y-93318810D01*
X160430667Y-92742619D02*
X161059238Y-92742619D01*
X160744953Y-93842619D02*
X160744953Y-92742619D01*
X161321143Y-92742619D02*
X162054476Y-93842619D01*
X162054476Y-92742619D02*
X161321143Y-93842619D01*
X162211619Y-93947381D02*
X163049714Y-93947381D01*
X163521143Y-92742619D02*
X163730666Y-92742619D01*
X163835428Y-92795000D01*
X163940190Y-92899762D01*
X163992571Y-93109286D01*
X163992571Y-93475952D01*
X163940190Y-93685476D01*
X163835428Y-93790238D01*
X163730666Y-93842619D01*
X163521143Y-93842619D01*
X163416381Y-93790238D01*
X163311619Y-93685476D01*
X163259238Y-93475952D01*
X163259238Y-93109286D01*
X163311619Y-92899762D01*
X163416381Y-92795000D01*
X163521143Y-92742619D01*
X164202095Y-93947381D02*
X165040190Y-93947381D01*
X165302095Y-93842619D02*
X165302095Y-92742619D01*
X165721142Y-92742619D01*
X165825904Y-92795000D01*
X165878285Y-92847381D01*
X165930666Y-92952143D01*
X165930666Y-93109286D01*
X165878285Y-93214048D01*
X165825904Y-93266429D01*
X165721142Y-93318810D01*
X165302095Y-93318810D01*
X166402095Y-93842619D02*
X166402095Y-92742619D01*
X166664000Y-93947381D02*
X167502095Y-93947381D01*
X168340190Y-93842619D02*
X167711619Y-93842619D01*
X168025905Y-93842619D02*
X168025905Y-92742619D01*
X167921143Y-92899762D01*
X167816381Y-93004524D01*
X167711619Y-93056905D01*
D11*
X149225286Y-97857571D02*
X149725286Y-99357571D01*
X150225286Y-97857571D01*
X151511000Y-99357571D02*
X150653857Y-99357571D01*
X151082429Y-99357571D02*
X151082429Y-97857571D01*
X150939572Y-98071857D01*
X150796714Y-98214714D01*
X150653857Y-98286143D01*
X152153857Y-99214714D02*
X152225285Y-99286143D01*
X152153857Y-99357571D01*
X152082428Y-99286143D01*
X152153857Y-99214714D01*
X152153857Y-99357571D01*
X153153857Y-97857571D02*
X153296714Y-97857571D01*
X153439571Y-97929000D01*
X153511000Y-98000429D01*
X153582429Y-98143286D01*
X153653857Y-98429000D01*
X153653857Y-98786143D01*
X153582429Y-99071857D01*
X153511000Y-99214714D01*
X153439571Y-99286143D01*
X153296714Y-99357571D01*
X153153857Y-99357571D01*
X153011000Y-99286143D01*
X152939571Y-99214714D01*
X152868143Y-99071857D01*
X152796714Y-98786143D01*
X152796714Y-98429000D01*
X152868143Y-98143286D01*
X152939571Y-98000429D01*
X153011000Y-97929000D01*
X153153857Y-97857571D01*
D13*
X176269000Y-93055000D02*
X176269000Y-89805000D01*
X178569000Y-93055000D02*
X178569000Y-89805000D01*
X176269000Y-93055000D02*
X178569000Y-93055000D01*
X175380000Y-73370000D02*
X175380000Y-70120000D01*
X177680000Y-73370000D02*
X177680000Y-70120000D01*
X175380000Y-73370000D02*
X177680000Y-73370000D01*
X173348000Y-62194000D02*
X173348000Y-58944000D01*
X175648000Y-62194000D02*
X175648000Y-58944000D01*
X173348000Y-62194000D02*
X175648000Y-62194000D01*
X176284000Y-84162000D02*
X177284000Y-84162000D01*
X177284000Y-82462000D02*
X176284000Y-82462000D01*
X157060000Y-69080000D02*
X157060000Y-68080000D01*
X155360000Y-68080000D02*
X155360000Y-69080000D01*
X162140000Y-69080000D02*
X162140000Y-68080000D01*
X160440000Y-68080000D02*
X160440000Y-69080000D01*
X154440000Y-73113000D02*
X155440000Y-73113000D01*
X155440000Y-71413000D02*
X154440000Y-71413000D01*
X155360000Y-63000000D02*
X155360000Y-64000000D01*
X157060000Y-64000000D02*
X157060000Y-63000000D01*
X174125000Y-86194000D02*
X175125000Y-86194000D01*
X175125000Y-84494000D02*
X174125000Y-84494000D01*
X175125000Y-86399000D02*
X174125000Y-86399000D01*
X174125000Y-88099000D02*
X175125000Y-88099000D01*
X160440000Y-63000000D02*
X160440000Y-64000000D01*
X162140000Y-64000000D02*
X162140000Y-63000000D01*
X166585000Y-66540000D02*
X166585000Y-65540000D01*
X164885000Y-65540000D02*
X164885000Y-66540000D01*
X177764000Y-76080000D02*
X174514000Y-76080000D01*
X177764000Y-73780000D02*
X174514000Y-73780000D01*
X177764000Y-76080000D02*
X177764000Y-73780000D01*
X181190000Y-66540000D02*
X181190000Y-65540000D01*
X179490000Y-65540000D02*
X179490000Y-66540000D01*
X176650000Y-68290000D02*
X176650000Y-65040000D01*
X178950000Y-68290000D02*
X178950000Y-65040000D01*
X176650000Y-68290000D02*
X178950000Y-68290000D01*
X173316000Y-91178000D02*
X173316000Y-90178000D01*
X171616000Y-90178000D02*
X171616000Y-91178000D01*
X180249000Y-73526000D02*
X183499000Y-73526000D01*
X180249000Y-75826000D02*
X183499000Y-75826000D01*
X180249000Y-73526000D02*
X180249000Y-75826000D01*
X170934000Y-74080000D02*
X169934000Y-74080000D01*
X169934000Y-75780000D02*
X170934000Y-75780000D01*
X169584000Y-86749000D02*
X169584000Y-87749000D01*
X171284000Y-87749000D02*
X171284000Y-86749000D01*
X165318000Y-74175000D02*
X162068000Y-74175000D01*
X165318000Y-71875000D02*
X162068000Y-71875000D01*
X165318000Y-74175000D02*
X165318000Y-71875000D01*
X167298000Y-81288000D02*
X167298000Y-82288000D01*
X168998000Y-82288000D02*
X168998000Y-81288000D01*
X159678000Y-89543000D02*
X159678000Y-90543000D01*
X161378000Y-90543000D02*
X161378000Y-89543000D01*
X153885000Y-85209000D02*
X153885000Y-84209000D01*
X152185000Y-84209000D02*
X152185000Y-85209000D01*
X176110000Y-66540000D02*
X176110000Y-65540000D01*
X174410000Y-65540000D02*
X174410000Y-66540000D01*
X156298000Y-85336000D02*
X156298000Y-84336000D01*
X154598000Y-84336000D02*
X154598000Y-85336000D01*
X157472000Y-87669000D02*
X156472000Y-87669000D01*
X156472000Y-89369000D02*
X157472000Y-89369000D01*
X188810000Y-91305000D02*
X188810000Y-90305000D01*
X187110000Y-90305000D02*
X187110000Y-91305000D01*
X179490000Y-90305000D02*
X179490000Y-91305000D01*
X181190000Y-91305000D02*
X181190000Y-90305000D01*
X154725000Y-96655000D02*
X154725000Y-97655000D01*
X156425000Y-97655000D02*
X156425000Y-96655000D01*
X162345000Y-96655000D02*
X162345000Y-97655000D01*
X164045000Y-97655000D02*
X164045000Y-96655000D01*
X170600000Y-96655000D02*
X170600000Y-97655000D01*
X172300000Y-97655000D02*
X172300000Y-96655000D01*
X158115000Y-60445000D02*
X163315000Y-60445000D01*
X163315000Y-60445000D02*
X163315000Y-57665000D01*
X163315000Y-57665000D02*
X158115000Y-57665000D01*
X158115000Y-57665000D02*
X158115000Y-60445000D01*
X156845000Y-60445000D02*
X155455000Y-60445000D01*
X155455000Y-60445000D02*
X155455000Y-59055000D01*
X157487000Y-74041000D02*
X157487000Y-74161000D01*
X157487000Y-74161000D02*
X160267000Y-74161000D01*
X160267000Y-74161000D02*
X160267000Y-74041000D01*
X160267000Y-74041000D02*
X157487000Y-74041000D01*
X157487000Y-72771000D02*
X157487000Y-71381000D01*
X157487000Y-71381000D02*
X158877000Y-71381000D01*
X155695000Y-79375000D02*
X155695000Y-74175000D01*
X155695000Y-74175000D02*
X152915000Y-74175000D01*
X152915000Y-74175000D02*
X152915000Y-79375000D01*
X152915000Y-79375000D02*
X155695000Y-79375000D01*
X155695000Y-80645000D02*
X155695000Y-82035000D01*
X155695000Y-82035000D02*
X154305000Y-82035000D01*
X188715000Y-80010000D02*
X188715000Y-72270000D01*
X188715000Y-72270000D02*
X185935000Y-72270000D01*
X185935000Y-72270000D02*
X185935000Y-80010000D01*
X185935000Y-80010000D02*
X188715000Y-80010000D01*
X188715000Y-81280000D02*
X188715000Y-82670000D01*
X188715000Y-82670000D02*
X187325000Y-82670000D01*
X176284000Y-82257000D02*
X177284000Y-82257000D01*
X177284000Y-80557000D02*
X176284000Y-80557000D01*
X171231000Y-82178000D02*
X172431000Y-82178000D01*
X172431000Y-83938000D02*
X171231000Y-83938000D01*
X173140000Y-70620000D02*
X173140000Y-71620000D01*
X174840000Y-71620000D02*
X174840000Y-70620000D01*
X163738000Y-87766000D02*
X164938000Y-87766000D01*
X164938000Y-89526000D02*
X163738000Y-89526000D01*
X167298000Y-86749000D02*
X167298000Y-87749000D01*
X168998000Y-87749000D02*
X168998000Y-86749000D01*
X156328000Y-91475000D02*
X156328000Y-92675000D01*
X154568000Y-92675000D02*
X154568000Y-91475000D01*
X158785000Y-95005000D02*
X159985000Y-95005000D01*
X159985000Y-96765000D02*
X158785000Y-96765000D01*
X166405000Y-95005000D02*
X167605000Y-95005000D01*
X167605000Y-96765000D02*
X166405000Y-96765000D01*
X175295000Y-95005000D02*
X176495000Y-95005000D01*
X176495000Y-96765000D02*
X175295000Y-96765000D01*
X178056000Y-84399000D02*
X178056000Y-85329000D01*
X178056000Y-87559000D02*
X178056000Y-86629000D01*
X178056000Y-87559000D02*
X180216000Y-87559000D01*
X178056000Y-84399000D02*
X179516000Y-84399000D01*
X182882000Y-77414000D02*
X182882000Y-78344000D01*
X182882000Y-80574000D02*
X182882000Y-79644000D01*
X182882000Y-80574000D02*
X185042000Y-80574000D01*
X182882000Y-77414000D02*
X184342000Y-77414000D01*
X180411000Y-71753000D02*
X181341000Y-71753000D01*
X183571000Y-71753000D02*
X182641000Y-71753000D01*
X183571000Y-71753000D02*
X183571000Y-69593000D01*
X180411000Y-71753000D02*
X180411000Y-70293000D01*
X173745000Y-91405000D02*
X173745000Y-90205000D01*
X175505000Y-90205000D02*
X175505000Y-91405000D01*
X157870000Y-69180000D02*
X157870000Y-67980000D01*
X159630000Y-67980000D02*
X159630000Y-69180000D01*
X164710000Y-67980000D02*
X164710000Y-69180000D01*
X162950000Y-69180000D02*
X162950000Y-67980000D01*
X177384000Y-80255000D02*
X176184000Y-80255000D01*
X176184000Y-78495000D02*
X177384000Y-78495000D01*
X159630000Y-62900000D02*
X159630000Y-64100000D01*
X157870000Y-64100000D02*
X157870000Y-62900000D01*
X162950000Y-64100000D02*
X162950000Y-62900000D01*
X164710000Y-62900000D02*
X164710000Y-64100000D01*
X181601000Y-77759000D02*
X181601000Y-78959000D01*
X179841000Y-78959000D02*
X179841000Y-77759000D01*
X188840000Y-85125000D02*
X188840000Y-86325000D01*
X187080000Y-86325000D02*
X187080000Y-85125000D01*
X170062000Y-71720000D02*
X170062000Y-70520000D01*
X171822000Y-70520000D02*
X171822000Y-71720000D01*
X177384000Y-78223000D02*
X176184000Y-78223000D01*
X176184000Y-76463000D02*
X177384000Y-76463000D01*
X167776000Y-71720000D02*
X167776000Y-70520000D01*
X169536000Y-70520000D02*
X169536000Y-71720000D01*
X165617000Y-71720000D02*
X165617000Y-70520000D01*
X167377000Y-70520000D02*
X167377000Y-71720000D01*
X182000000Y-66640000D02*
X182000000Y-65440000D01*
X183760000Y-65440000D02*
X183760000Y-66640000D01*
X185963000Y-69351000D02*
X187163000Y-69351000D01*
X187163000Y-71111000D02*
X185963000Y-71111000D01*
X184877000Y-92574000D02*
X183677000Y-92574000D01*
X183677000Y-90814000D02*
X184877000Y-90814000D01*
X183353000Y-83176000D02*
X182153000Y-83176000D01*
X182153000Y-81416000D02*
X183353000Y-81416000D01*
X182456000Y-62111000D02*
X182456000Y-62441000D01*
X182456000Y-57701000D02*
X182456000Y-58032000D01*
X182456000Y-59812000D02*
X182456000Y-60331000D01*
X177716000Y-57701000D02*
X177716000Y-58831000D01*
X177716000Y-61311000D02*
X177716000Y-62441000D01*
X182456000Y-57701000D02*
X177716000Y-57701000D01*
X182456000Y-62441000D02*
X177716000Y-62441000D01*
X171153000Y-62238000D02*
X171153000Y-62568000D01*
X171153000Y-57828000D02*
X171153000Y-58159000D01*
X171153000Y-59939000D02*
X171153000Y-60458000D01*
X166413000Y-57828000D02*
X166413000Y-58958000D01*
X166413000Y-61438000D02*
X166413000Y-62568000D01*
X171153000Y-57828000D02*
X166413000Y-57828000D01*
X171153000Y-62568000D02*
X166413000Y-62568000D01*
D10*
X169134000Y-67640000D02*
X169134000Y-67840000D01*
X168834000Y-67040000D02*
X168834000Y-67340000D01*
X168834000Y-67340000D02*
X169134000Y-67640000D01*
X168834000Y-64440000D02*
X169134000Y-64440000D01*
X168834000Y-64440000D02*
X168834000Y-64740000D01*
X172034000Y-67640000D02*
X171734000Y-67640000D01*
X172034000Y-67640000D02*
X172034000Y-67340000D01*
X172034000Y-64440000D02*
X172034000Y-64740000D01*
X172034000Y-64440000D02*
X171734000Y-64440000D01*
D14*
X173329000Y-80238000D02*
X172554000Y-80238000D01*
X170079000Y-76988000D02*
X170854000Y-76988000D01*
X170079000Y-80238000D02*
X170854000Y-80238000D01*
X173329000Y-76988000D02*
X173329000Y-77763000D01*
X170079000Y-76988000D02*
X170079000Y-77763000D01*
X170079000Y-80238000D02*
X170079000Y-79463000D01*
X173329000Y-80238000D02*
X173329000Y-79463000D01*
D13*
X158452000Y-82229000D02*
X158552000Y-82229000D01*
X165652000Y-82129000D02*
X165652000Y-82229000D01*
X165652000Y-82229000D02*
X165552000Y-82229000D01*
X165652000Y-77129000D02*
X165652000Y-77029000D01*
X165652000Y-77029000D02*
X165552000Y-77029000D01*
X158452000Y-77129000D02*
X158452000Y-77029000D01*
X158452000Y-77029000D02*
X158552000Y-77029000D01*
X158452000Y-77129000D02*
X158452000Y-78829000D01*
X165652000Y-78829000D02*
X165652000Y-77129000D01*
X165652000Y-82129000D02*
X165652000Y-80429000D01*
X158452000Y-80429000D02*
X158452000Y-82829000D01*
D14*
X148501100Y-57003600D02*
X194501100Y-57003600D01*
X194501100Y-57003600D02*
X194501100Y-105003600D01*
X194501100Y-105003600D02*
X148501100Y-105003600D01*
X148501100Y-105003600D02*
X148501100Y-57003600D01*
D13*
X185125000Y-88530000D02*
X185125000Y-86730000D01*
X181905000Y-86730000D02*
X181905000Y-89680000D01*
X184877000Y-94606000D02*
X183677000Y-94606000D01*
X183677000Y-92846000D02*
X184877000Y-92846000D01*
D14*
X177252334Y-94210143D02*
X177204715Y-94257762D01*
X177061858Y-94305381D01*
X176966620Y-94305381D01*
X176823762Y-94257762D01*
X176728524Y-94162524D01*
X176680905Y-94067286D01*
X176633286Y-93876810D01*
X176633286Y-93733952D01*
X176680905Y-93543476D01*
X176728524Y-93448238D01*
X176823762Y-93353000D01*
X176966620Y-93305381D01*
X177061858Y-93305381D01*
X177204715Y-93353000D01*
X177252334Y-93400619D01*
X178204715Y-94305381D02*
X177633286Y-94305381D01*
X177919000Y-94305381D02*
X177919000Y-93305381D01*
X177823762Y-93448238D01*
X177728524Y-93543476D01*
X177633286Y-93591095D01*
X178792143Y-71159666D02*
X178839762Y-71207285D01*
X178887381Y-71350142D01*
X178887381Y-71445380D01*
X178839762Y-71588238D01*
X178744524Y-71683476D01*
X178649286Y-71731095D01*
X178458810Y-71778714D01*
X178315952Y-71778714D01*
X178125476Y-71731095D01*
X178030238Y-71683476D01*
X177935000Y-71588238D01*
X177887381Y-71445380D01*
X177887381Y-71350142D01*
X177935000Y-71207285D01*
X177982619Y-71159666D01*
X177982619Y-70778714D02*
X177935000Y-70731095D01*
X177887381Y-70635857D01*
X177887381Y-70397761D01*
X177935000Y-70302523D01*
X177982619Y-70254904D01*
X178077857Y-70207285D01*
X178173095Y-70207285D01*
X178315952Y-70254904D01*
X178887381Y-70826333D01*
X178887381Y-70207285D01*
X172934334Y-63349143D02*
X172886715Y-63396762D01*
X172743858Y-63444381D01*
X172648620Y-63444381D01*
X172505762Y-63396762D01*
X172410524Y-63301524D01*
X172362905Y-63206286D01*
X172315286Y-63015810D01*
X172315286Y-62872952D01*
X172362905Y-62682476D01*
X172410524Y-62587238D01*
X172505762Y-62492000D01*
X172648620Y-62444381D01*
X172743858Y-62444381D01*
X172886715Y-62492000D01*
X172934334Y-62539619D01*
X173267667Y-62444381D02*
X173886715Y-62444381D01*
X173553381Y-62825333D01*
X173696239Y-62825333D01*
X173791477Y-62872952D01*
X173839096Y-62920571D01*
X173886715Y-63015810D01*
X173886715Y-63253905D01*
X173839096Y-63349143D01*
X173791477Y-63396762D01*
X173696239Y-63444381D01*
X173410524Y-63444381D01*
X173315286Y-63396762D01*
X173267667Y-63349143D01*
X179665334Y-83796143D02*
X179617715Y-83843762D01*
X179474858Y-83891381D01*
X179379620Y-83891381D01*
X179236762Y-83843762D01*
X179141524Y-83748524D01*
X179093905Y-83653286D01*
X179046286Y-83462810D01*
X179046286Y-83319952D01*
X179093905Y-83129476D01*
X179141524Y-83034238D01*
X179236762Y-82939000D01*
X179379620Y-82891381D01*
X179474858Y-82891381D01*
X179617715Y-82939000D01*
X179665334Y-82986619D01*
X180522477Y-83224714D02*
X180522477Y-83891381D01*
X180284381Y-82843762D02*
X180046286Y-83558048D01*
X180665334Y-83558048D01*
X155043143Y-68619666D02*
X155090762Y-68667285D01*
X155138381Y-68810142D01*
X155138381Y-68905380D01*
X155090762Y-69048238D01*
X154995524Y-69143476D01*
X154900286Y-69191095D01*
X154709810Y-69238714D01*
X154566952Y-69238714D01*
X154376476Y-69191095D01*
X154281238Y-69143476D01*
X154186000Y-69048238D01*
X154138381Y-68905380D01*
X154138381Y-68810142D01*
X154186000Y-68667285D01*
X154233619Y-68619666D01*
X154138381Y-67714904D02*
X154138381Y-68191095D01*
X154614571Y-68238714D01*
X154566952Y-68191095D01*
X154519333Y-68095857D01*
X154519333Y-67857761D01*
X154566952Y-67762523D01*
X154614571Y-67714904D01*
X154709810Y-67667285D01*
X154947905Y-67667285D01*
X155043143Y-67714904D01*
X155090762Y-67762523D01*
X155138381Y-67857761D01*
X155138381Y-68095857D01*
X155090762Y-68191095D01*
X155043143Y-68238714D01*
X162980643Y-68937166D02*
X163028262Y-68984785D01*
X163075881Y-69127642D01*
X163075881Y-69222880D01*
X163028262Y-69365738D01*
X162933024Y-69460976D01*
X162837786Y-69508595D01*
X162647310Y-69556214D01*
X162504452Y-69556214D01*
X162313976Y-69508595D01*
X162218738Y-69460976D01*
X162123500Y-69365738D01*
X162075881Y-69222880D01*
X162075881Y-69127642D01*
X162123500Y-68984785D01*
X162171119Y-68937166D01*
X162075881Y-68080023D02*
X162075881Y-68270500D01*
X162123500Y-68365738D01*
X162171119Y-68413357D01*
X162313976Y-68508595D01*
X162504452Y-68556214D01*
X162885405Y-68556214D01*
X162980643Y-68508595D01*
X163028262Y-68460976D01*
X163075881Y-68365738D01*
X163075881Y-68175261D01*
X163028262Y-68080023D01*
X162980643Y-68032404D01*
X162885405Y-67984785D01*
X162647310Y-67984785D01*
X162552071Y-68032404D01*
X162504452Y-68080023D01*
X162456833Y-68175261D01*
X162456833Y-68365738D01*
X162504452Y-68460976D01*
X162552071Y-68508595D01*
X162647310Y-68556214D01*
X153884334Y-71096143D02*
X153836715Y-71143762D01*
X153693858Y-71191381D01*
X153598620Y-71191381D01*
X153455762Y-71143762D01*
X153360524Y-71048524D01*
X153312905Y-70953286D01*
X153265286Y-70762810D01*
X153265286Y-70619952D01*
X153312905Y-70429476D01*
X153360524Y-70334238D01*
X153455762Y-70239000D01*
X153598620Y-70191381D01*
X153693858Y-70191381D01*
X153836715Y-70239000D01*
X153884334Y-70286619D01*
X154217667Y-70191381D02*
X154884334Y-70191381D01*
X154455762Y-71191381D01*
X154817143Y-63666666D02*
X154864762Y-63714285D01*
X154912381Y-63857142D01*
X154912381Y-63952380D01*
X154864762Y-64095238D01*
X154769524Y-64190476D01*
X154674286Y-64238095D01*
X154483810Y-64285714D01*
X154340952Y-64285714D01*
X154150476Y-64238095D01*
X154055238Y-64190476D01*
X153960000Y-64095238D01*
X153912381Y-63952380D01*
X153912381Y-63857142D01*
X153960000Y-63714285D01*
X154007619Y-63666666D01*
X154340952Y-63095238D02*
X154293333Y-63190476D01*
X154245714Y-63238095D01*
X154150476Y-63285714D01*
X154102857Y-63285714D01*
X154007619Y-63238095D01*
X153960000Y-63190476D01*
X153912381Y-63095238D01*
X153912381Y-62904761D01*
X153960000Y-62809523D01*
X154007619Y-62761904D01*
X154102857Y-62714285D01*
X154150476Y-62714285D01*
X154245714Y-62761904D01*
X154293333Y-62809523D01*
X154340952Y-62904761D01*
X154340952Y-63095238D01*
X154388571Y-63190476D01*
X154436190Y-63238095D01*
X154531429Y-63285714D01*
X154721905Y-63285714D01*
X154817143Y-63238095D01*
X154864762Y-63190476D01*
X154912381Y-63095238D01*
X154912381Y-62904761D01*
X154864762Y-62809523D01*
X154817143Y-62761904D01*
X154721905Y-62714285D01*
X154531429Y-62714285D01*
X154436190Y-62761904D01*
X154388571Y-62809523D01*
X154340952Y-62904761D01*
X171410334Y-84939143D02*
X171362715Y-84986762D01*
X171219858Y-85034381D01*
X171124620Y-85034381D01*
X170981762Y-84986762D01*
X170886524Y-84891524D01*
X170838905Y-84796286D01*
X170791286Y-84605810D01*
X170791286Y-84462952D01*
X170838905Y-84272476D01*
X170886524Y-84177238D01*
X170981762Y-84082000D01*
X171124620Y-84034381D01*
X171219858Y-84034381D01*
X171362715Y-84082000D01*
X171410334Y-84129619D01*
X171886524Y-85034381D02*
X172077000Y-85034381D01*
X172172239Y-84986762D01*
X172219858Y-84939143D01*
X172315096Y-84796286D01*
X172362715Y-84605810D01*
X172362715Y-84224857D01*
X172315096Y-84129619D01*
X172267477Y-84082000D01*
X172172239Y-84034381D01*
X171981762Y-84034381D01*
X171886524Y-84082000D01*
X171838905Y-84129619D01*
X171791286Y-84224857D01*
X171791286Y-84462952D01*
X171838905Y-84558190D01*
X171886524Y-84605810D01*
X171981762Y-84653429D01*
X172172239Y-84653429D01*
X172267477Y-84605810D01*
X172315096Y-84558190D01*
X172362715Y-84462952D01*
X172188143Y-88018857D02*
X172235762Y-88066476D01*
X172283381Y-88209333D01*
X172283381Y-88304571D01*
X172235762Y-88447429D01*
X172140524Y-88542667D01*
X172045286Y-88590286D01*
X171854810Y-88637905D01*
X171711952Y-88637905D01*
X171521476Y-88590286D01*
X171426238Y-88542667D01*
X171331000Y-88447429D01*
X171283381Y-88304571D01*
X171283381Y-88209333D01*
X171331000Y-88066476D01*
X171378619Y-88018857D01*
X172283381Y-87066476D02*
X172283381Y-87637905D01*
X172283381Y-87352191D02*
X171283381Y-87352191D01*
X171426238Y-87447429D01*
X171521476Y-87542667D01*
X171569095Y-87637905D01*
X171283381Y-86447429D02*
X171283381Y-86352190D01*
X171331000Y-86256952D01*
X171378619Y-86209333D01*
X171473857Y-86161714D01*
X171664333Y-86114095D01*
X171902429Y-86114095D01*
X172092905Y-86161714D01*
X172188143Y-86209333D01*
X172235762Y-86256952D01*
X172283381Y-86352190D01*
X172283381Y-86447429D01*
X172235762Y-86542667D01*
X172188143Y-86590286D01*
X172092905Y-86637905D01*
X171902429Y-86685524D01*
X171664333Y-86685524D01*
X171473857Y-86637905D01*
X171378619Y-86590286D01*
X171331000Y-86542667D01*
X171283381Y-86447429D01*
X160377143Y-64269857D02*
X160424762Y-64317476D01*
X160472381Y-64460333D01*
X160472381Y-64555571D01*
X160424762Y-64698429D01*
X160329524Y-64793667D01*
X160234286Y-64841286D01*
X160043810Y-64888905D01*
X159900952Y-64888905D01*
X159710476Y-64841286D01*
X159615238Y-64793667D01*
X159520000Y-64698429D01*
X159472381Y-64555571D01*
X159472381Y-64460333D01*
X159520000Y-64317476D01*
X159567619Y-64269857D01*
X160472381Y-63317476D02*
X160472381Y-63888905D01*
X160472381Y-63603191D02*
X159472381Y-63603191D01*
X159615238Y-63698429D01*
X159710476Y-63793667D01*
X159758095Y-63888905D01*
X160472381Y-62365095D02*
X160472381Y-62936524D01*
X160472381Y-62650810D02*
X159472381Y-62650810D01*
X159615238Y-62746048D01*
X159710476Y-62841286D01*
X159758095Y-62936524D01*
X165346143Y-63476143D02*
X165298524Y-63523762D01*
X165155667Y-63571381D01*
X165060429Y-63571381D01*
X164917571Y-63523762D01*
X164822333Y-63428524D01*
X164774714Y-63333286D01*
X164727095Y-63142810D01*
X164727095Y-62999952D01*
X164774714Y-62809476D01*
X164822333Y-62714238D01*
X164917571Y-62619000D01*
X165060429Y-62571381D01*
X165155667Y-62571381D01*
X165298524Y-62619000D01*
X165346143Y-62666619D01*
X166298524Y-63571381D02*
X165727095Y-63571381D01*
X166012809Y-63571381D02*
X166012809Y-62571381D01*
X165917571Y-62714238D01*
X165822333Y-62809476D01*
X165727095Y-62857095D01*
X166679476Y-62666619D02*
X166727095Y-62619000D01*
X166822333Y-62571381D01*
X167060429Y-62571381D01*
X167155667Y-62619000D01*
X167203286Y-62666619D01*
X167250905Y-62761857D01*
X167250905Y-62857095D01*
X167203286Y-62999952D01*
X166631857Y-63571381D01*
X167250905Y-63571381D01*
X172696143Y-75572857D02*
X172743762Y-75620476D01*
X172791381Y-75763333D01*
X172791381Y-75858571D01*
X172743762Y-76001429D01*
X172648524Y-76096667D01*
X172553286Y-76144286D01*
X172362810Y-76191905D01*
X172219952Y-76191905D01*
X172029476Y-76144286D01*
X171934238Y-76096667D01*
X171839000Y-76001429D01*
X171791381Y-75858571D01*
X171791381Y-75763333D01*
X171839000Y-75620476D01*
X171886619Y-75572857D01*
X172791381Y-74620476D02*
X172791381Y-75191905D01*
X172791381Y-74906191D02*
X171791381Y-74906191D01*
X171934238Y-75001429D01*
X172029476Y-75096667D01*
X172077095Y-75191905D01*
X171791381Y-74287143D02*
X171791381Y-73668095D01*
X172172333Y-74001429D01*
X172172333Y-73858571D01*
X172219952Y-73763333D01*
X172267571Y-73715714D01*
X172362810Y-73668095D01*
X172600905Y-73668095D01*
X172696143Y-73715714D01*
X172743762Y-73763333D01*
X172791381Y-73858571D01*
X172791381Y-74144286D01*
X172743762Y-74239524D01*
X172696143Y-74287143D01*
X179697143Y-63222143D02*
X179649524Y-63269762D01*
X179506667Y-63317381D01*
X179411429Y-63317381D01*
X179268571Y-63269762D01*
X179173333Y-63174524D01*
X179125714Y-63079286D01*
X179078095Y-62888810D01*
X179078095Y-62745952D01*
X179125714Y-62555476D01*
X179173333Y-62460238D01*
X179268571Y-62365000D01*
X179411429Y-62317381D01*
X179506667Y-62317381D01*
X179649524Y-62365000D01*
X179697143Y-62412619D01*
X180649524Y-63317381D02*
X180078095Y-63317381D01*
X180363809Y-63317381D02*
X180363809Y-62317381D01*
X180268571Y-62460238D01*
X180173333Y-62555476D01*
X180078095Y-62603095D01*
X181506667Y-62650714D02*
X181506667Y-63317381D01*
X181268571Y-62269762D02*
X181030476Y-62984048D01*
X181649524Y-62984048D01*
X177030143Y-63857143D02*
X176982524Y-63904762D01*
X176839667Y-63952381D01*
X176744429Y-63952381D01*
X176601571Y-63904762D01*
X176506333Y-63809524D01*
X176458714Y-63714286D01*
X176411095Y-63523810D01*
X176411095Y-63380952D01*
X176458714Y-63190476D01*
X176506333Y-63095238D01*
X176601571Y-63000000D01*
X176744429Y-62952381D01*
X176839667Y-62952381D01*
X176982524Y-63000000D01*
X177030143Y-63047619D01*
X177982524Y-63952381D02*
X177411095Y-63952381D01*
X177696809Y-63952381D02*
X177696809Y-62952381D01*
X177601571Y-63095238D01*
X177506333Y-63190476D01*
X177411095Y-63238095D01*
X178887286Y-62952381D02*
X178411095Y-62952381D01*
X178363476Y-63428571D01*
X178411095Y-63380952D01*
X178506333Y-63333333D01*
X178744429Y-63333333D01*
X178839667Y-63380952D01*
X178887286Y-63428571D01*
X178934905Y-63523810D01*
X178934905Y-63761905D01*
X178887286Y-63857143D01*
X178839667Y-63904762D01*
X178744429Y-63952381D01*
X178506333Y-63952381D01*
X178411095Y-63904762D01*
X178363476Y-63857143D01*
X171315143Y-94210143D02*
X171267524Y-94257762D01*
X171124667Y-94305381D01*
X171029429Y-94305381D01*
X170886571Y-94257762D01*
X170791333Y-94162524D01*
X170743714Y-94067286D01*
X170696095Y-93876810D01*
X170696095Y-93733952D01*
X170743714Y-93543476D01*
X170791333Y-93448238D01*
X170886571Y-93353000D01*
X171029429Y-93305381D01*
X171124667Y-93305381D01*
X171267524Y-93353000D01*
X171315143Y-93400619D01*
X172267524Y-94305381D02*
X171696095Y-94305381D01*
X171981809Y-94305381D02*
X171981809Y-93305381D01*
X171886571Y-93448238D01*
X171791333Y-93543476D01*
X171696095Y-93591095D01*
X173124667Y-93305381D02*
X172934190Y-93305381D01*
X172838952Y-93353000D01*
X172791333Y-93400619D01*
X172696095Y-93543476D01*
X172648476Y-93733952D01*
X172648476Y-94114905D01*
X172696095Y-94210143D01*
X172743714Y-94257762D01*
X172838952Y-94305381D01*
X173029429Y-94305381D01*
X173124667Y-94257762D01*
X173172286Y-94210143D01*
X173219905Y-94114905D01*
X173219905Y-93876810D01*
X173172286Y-93781571D01*
X173124667Y-93733952D01*
X173029429Y-93686333D01*
X172838952Y-93686333D01*
X172743714Y-93733952D01*
X172696095Y-93781571D01*
X172648476Y-93876810D01*
X183888143Y-73128143D02*
X183840524Y-73175762D01*
X183697667Y-73223381D01*
X183602429Y-73223381D01*
X183459571Y-73175762D01*
X183364333Y-73080524D01*
X183316714Y-72985286D01*
X183269095Y-72794810D01*
X183269095Y-72651952D01*
X183316714Y-72461476D01*
X183364333Y-72366238D01*
X183459571Y-72271000D01*
X183602429Y-72223381D01*
X183697667Y-72223381D01*
X183840524Y-72271000D01*
X183888143Y-72318619D01*
X184840524Y-73223381D02*
X184269095Y-73223381D01*
X184554809Y-73223381D02*
X184554809Y-72223381D01*
X184459571Y-72366238D01*
X184364333Y-72461476D01*
X184269095Y-72509095D01*
X185173857Y-72223381D02*
X185840524Y-72223381D01*
X185411952Y-73223381D01*
X168775143Y-76811143D02*
X168727524Y-76858762D01*
X168584667Y-76906381D01*
X168489429Y-76906381D01*
X168346571Y-76858762D01*
X168251333Y-76763524D01*
X168203714Y-76668286D01*
X168156095Y-76477810D01*
X168156095Y-76334952D01*
X168203714Y-76144476D01*
X168251333Y-76049238D01*
X168346571Y-75954000D01*
X168489429Y-75906381D01*
X168584667Y-75906381D01*
X168727524Y-75954000D01*
X168775143Y-76001619D01*
X169727524Y-76906381D02*
X169156095Y-76906381D01*
X169441809Y-76906381D02*
X169441809Y-75906381D01*
X169346571Y-76049238D01*
X169251333Y-76144476D01*
X169156095Y-76192095D01*
X170298952Y-76334952D02*
X170203714Y-76287333D01*
X170156095Y-76239714D01*
X170108476Y-76144476D01*
X170108476Y-76096857D01*
X170156095Y-76001619D01*
X170203714Y-75954000D01*
X170298952Y-75906381D01*
X170489429Y-75906381D01*
X170584667Y-75954000D01*
X170632286Y-76001619D01*
X170679905Y-76096857D01*
X170679905Y-76144476D01*
X170632286Y-76239714D01*
X170584667Y-76287333D01*
X170489429Y-76334952D01*
X170298952Y-76334952D01*
X170203714Y-76382571D01*
X170156095Y-76430190D01*
X170108476Y-76525429D01*
X170108476Y-76715905D01*
X170156095Y-76811143D01*
X170203714Y-76858762D01*
X170298952Y-76906381D01*
X170489429Y-76906381D01*
X170584667Y-76858762D01*
X170632286Y-76811143D01*
X170679905Y-76715905D01*
X170679905Y-76525429D01*
X170632286Y-76430190D01*
X170584667Y-76382571D01*
X170489429Y-76334952D01*
X170664143Y-91828857D02*
X170711762Y-91876476D01*
X170759381Y-92019333D01*
X170759381Y-92114571D01*
X170711762Y-92257429D01*
X170616524Y-92352667D01*
X170521286Y-92400286D01*
X170330810Y-92447905D01*
X170187952Y-92447905D01*
X169997476Y-92400286D01*
X169902238Y-92352667D01*
X169807000Y-92257429D01*
X169759381Y-92114571D01*
X169759381Y-92019333D01*
X169807000Y-91876476D01*
X169854619Y-91828857D01*
X170759381Y-90876476D02*
X170759381Y-91447905D01*
X170759381Y-91162191D02*
X169759381Y-91162191D01*
X169902238Y-91257429D01*
X169997476Y-91352667D01*
X170045095Y-91447905D01*
X170759381Y-90400286D02*
X170759381Y-90209810D01*
X170711762Y-90114571D01*
X170664143Y-90066952D01*
X170521286Y-89971714D01*
X170330810Y-89924095D01*
X169949857Y-89924095D01*
X169854619Y-89971714D01*
X169807000Y-90019333D01*
X169759381Y-90114571D01*
X169759381Y-90305048D01*
X169807000Y-90400286D01*
X169854619Y-90447905D01*
X169949857Y-90495524D01*
X170187952Y-90495524D01*
X170283190Y-90447905D01*
X170330810Y-90400286D01*
X170378429Y-90305048D01*
X170378429Y-90114571D01*
X170330810Y-90019333D01*
X170283190Y-89971714D01*
X170187952Y-89924095D01*
X163695143Y-75287143D02*
X163647524Y-75334762D01*
X163504667Y-75382381D01*
X163409429Y-75382381D01*
X163266571Y-75334762D01*
X163171333Y-75239524D01*
X163123714Y-75144286D01*
X163076095Y-74953810D01*
X163076095Y-74810952D01*
X163123714Y-74620476D01*
X163171333Y-74525238D01*
X163266571Y-74430000D01*
X163409429Y-74382381D01*
X163504667Y-74382381D01*
X163647524Y-74430000D01*
X163695143Y-74477619D01*
X164076095Y-74477619D02*
X164123714Y-74430000D01*
X164218952Y-74382381D01*
X164457048Y-74382381D01*
X164552286Y-74430000D01*
X164599905Y-74477619D01*
X164647524Y-74572857D01*
X164647524Y-74668095D01*
X164599905Y-74810952D01*
X164028476Y-75382381D01*
X164647524Y-75382381D01*
X165266571Y-74382381D02*
X165361810Y-74382381D01*
X165457048Y-74430000D01*
X165504667Y-74477619D01*
X165552286Y-74572857D01*
X165599905Y-74763333D01*
X165599905Y-75001429D01*
X165552286Y-75191905D01*
X165504667Y-75287143D01*
X165457048Y-75334762D01*
X165361810Y-75382381D01*
X165266571Y-75382381D01*
X165171333Y-75334762D01*
X165123714Y-75287143D01*
X165076095Y-75191905D01*
X165028476Y-75001429D01*
X165028476Y-74763333D01*
X165076095Y-74572857D01*
X165123714Y-74477619D01*
X165171333Y-74430000D01*
X165266571Y-74382381D01*
X167632143Y-84939143D02*
X167584524Y-84986762D01*
X167441667Y-85034381D01*
X167346429Y-85034381D01*
X167203571Y-84986762D01*
X167108333Y-84891524D01*
X167060714Y-84796286D01*
X167013095Y-84605810D01*
X167013095Y-84462952D01*
X167060714Y-84272476D01*
X167108333Y-84177238D01*
X167203571Y-84082000D01*
X167346429Y-84034381D01*
X167441667Y-84034381D01*
X167584524Y-84082000D01*
X167632143Y-84129619D01*
X168013095Y-84129619D02*
X168060714Y-84082000D01*
X168155952Y-84034381D01*
X168394048Y-84034381D01*
X168489286Y-84082000D01*
X168536905Y-84129619D01*
X168584524Y-84224857D01*
X168584524Y-84320095D01*
X168536905Y-84462952D01*
X167965476Y-85034381D01*
X168584524Y-85034381D01*
X169536905Y-85034381D02*
X168965476Y-85034381D01*
X169251190Y-85034381D02*
X169251190Y-84034381D01*
X169155952Y-84177238D01*
X169060714Y-84272476D01*
X168965476Y-84320095D01*
X157726143Y-91543143D02*
X157678524Y-91590762D01*
X157535667Y-91638381D01*
X157440429Y-91638381D01*
X157297571Y-91590762D01*
X157202333Y-91495524D01*
X157154714Y-91400286D01*
X157107095Y-91209810D01*
X157107095Y-91066952D01*
X157154714Y-90876476D01*
X157202333Y-90781238D01*
X157297571Y-90686000D01*
X157440429Y-90638381D01*
X157535667Y-90638381D01*
X157678524Y-90686000D01*
X157726143Y-90733619D01*
X158107095Y-90733619D02*
X158154714Y-90686000D01*
X158249952Y-90638381D01*
X158488048Y-90638381D01*
X158583286Y-90686000D01*
X158630905Y-90733619D01*
X158678524Y-90828857D01*
X158678524Y-90924095D01*
X158630905Y-91066952D01*
X158059476Y-91638381D01*
X158678524Y-91638381D01*
X159059476Y-90733619D02*
X159107095Y-90686000D01*
X159202333Y-90638381D01*
X159440429Y-90638381D01*
X159535667Y-90686000D01*
X159583286Y-90733619D01*
X159630905Y-90828857D01*
X159630905Y-90924095D01*
X159583286Y-91066952D01*
X159011857Y-91638381D01*
X159630905Y-91638381D01*
X152122143Y-87256857D02*
X152169762Y-87304476D01*
X152217381Y-87447333D01*
X152217381Y-87542571D01*
X152169762Y-87685429D01*
X152074524Y-87780667D01*
X151979286Y-87828286D01*
X151788810Y-87875905D01*
X151645952Y-87875905D01*
X151455476Y-87828286D01*
X151360238Y-87780667D01*
X151265000Y-87685429D01*
X151217381Y-87542571D01*
X151217381Y-87447333D01*
X151265000Y-87304476D01*
X151312619Y-87256857D01*
X151312619Y-86875905D02*
X151265000Y-86828286D01*
X151217381Y-86733048D01*
X151217381Y-86494952D01*
X151265000Y-86399714D01*
X151312619Y-86352095D01*
X151407857Y-86304476D01*
X151503095Y-86304476D01*
X151645952Y-86352095D01*
X152217381Y-86923524D01*
X152217381Y-86304476D01*
X151217381Y-85971143D02*
X151217381Y-85352095D01*
X151598333Y-85685429D01*
X151598333Y-85542571D01*
X151645952Y-85447333D01*
X151693571Y-85399714D01*
X151788810Y-85352095D01*
X152026905Y-85352095D01*
X152122143Y-85399714D01*
X152169762Y-85447333D01*
X152217381Y-85542571D01*
X152217381Y-85828286D01*
X152169762Y-85923524D01*
X152122143Y-85971143D01*
X174490143Y-63603143D02*
X174442524Y-63650762D01*
X174299667Y-63698381D01*
X174204429Y-63698381D01*
X174061571Y-63650762D01*
X173966333Y-63555524D01*
X173918714Y-63460286D01*
X173871095Y-63269810D01*
X173871095Y-63126952D01*
X173918714Y-62936476D01*
X173966333Y-62841238D01*
X174061571Y-62746000D01*
X174204429Y-62698381D01*
X174299667Y-62698381D01*
X174442524Y-62746000D01*
X174490143Y-62793619D01*
X174871095Y-62793619D02*
X174918714Y-62746000D01*
X175013952Y-62698381D01*
X175252048Y-62698381D01*
X175347286Y-62746000D01*
X175394905Y-62793619D01*
X175442524Y-62888857D01*
X175442524Y-62984095D01*
X175394905Y-63126952D01*
X174823476Y-63698381D01*
X175442524Y-63698381D01*
X176299667Y-63031714D02*
X176299667Y-63698381D01*
X176061571Y-62650762D02*
X175823476Y-63365048D01*
X176442524Y-63365048D01*
X157456143Y-85351857D02*
X157503762Y-85399476D01*
X157551381Y-85542333D01*
X157551381Y-85637571D01*
X157503762Y-85780429D01*
X157408524Y-85875667D01*
X157313286Y-85923286D01*
X157122810Y-85970905D01*
X156979952Y-85970905D01*
X156789476Y-85923286D01*
X156694238Y-85875667D01*
X156599000Y-85780429D01*
X156551381Y-85637571D01*
X156551381Y-85542333D01*
X156599000Y-85399476D01*
X156646619Y-85351857D01*
X156646619Y-84970905D02*
X156599000Y-84923286D01*
X156551381Y-84828048D01*
X156551381Y-84589952D01*
X156599000Y-84494714D01*
X156646619Y-84447095D01*
X156741857Y-84399476D01*
X156837095Y-84399476D01*
X156979952Y-84447095D01*
X157551381Y-85018524D01*
X157551381Y-84399476D01*
X156551381Y-83494714D02*
X156551381Y-83970905D01*
X157027571Y-84018524D01*
X156979952Y-83970905D01*
X156932333Y-83875667D01*
X156932333Y-83637571D01*
X156979952Y-83542333D01*
X157027571Y-83494714D01*
X157122810Y-83447095D01*
X157360905Y-83447095D01*
X157456143Y-83494714D01*
X157503762Y-83542333D01*
X157551381Y-83637571D01*
X157551381Y-83875667D01*
X157503762Y-83970905D01*
X157456143Y-84018524D01*
X157726143Y-87352143D02*
X157678524Y-87399762D01*
X157535667Y-87447381D01*
X157440429Y-87447381D01*
X157297571Y-87399762D01*
X157202333Y-87304524D01*
X157154714Y-87209286D01*
X157107095Y-87018810D01*
X157107095Y-86875952D01*
X157154714Y-86685476D01*
X157202333Y-86590238D01*
X157297571Y-86495000D01*
X157440429Y-86447381D01*
X157535667Y-86447381D01*
X157678524Y-86495000D01*
X157726143Y-86542619D01*
X158107095Y-86542619D02*
X158154714Y-86495000D01*
X158249952Y-86447381D01*
X158488048Y-86447381D01*
X158583286Y-86495000D01*
X158630905Y-86542619D01*
X158678524Y-86637857D01*
X158678524Y-86733095D01*
X158630905Y-86875952D01*
X158059476Y-87447381D01*
X158678524Y-87447381D01*
X159535667Y-86447381D02*
X159345190Y-86447381D01*
X159249952Y-86495000D01*
X159202333Y-86542619D01*
X159107095Y-86685476D01*
X159059476Y-86875952D01*
X159059476Y-87256905D01*
X159107095Y-87352143D01*
X159154714Y-87399762D01*
X159249952Y-87447381D01*
X159440429Y-87447381D01*
X159535667Y-87399762D01*
X159583286Y-87352143D01*
X159630905Y-87256905D01*
X159630905Y-87018810D01*
X159583286Y-86923571D01*
X159535667Y-86875952D01*
X159440429Y-86828333D01*
X159249952Y-86828333D01*
X159154714Y-86875952D01*
X159107095Y-86923571D01*
X159059476Y-87018810D01*
X187317143Y-94337143D02*
X187269524Y-94384762D01*
X187126667Y-94432381D01*
X187031429Y-94432381D01*
X186888571Y-94384762D01*
X186793333Y-94289524D01*
X186745714Y-94194286D01*
X186698095Y-94003810D01*
X186698095Y-93860952D01*
X186745714Y-93670476D01*
X186793333Y-93575238D01*
X186888571Y-93480000D01*
X187031429Y-93432381D01*
X187126667Y-93432381D01*
X187269524Y-93480000D01*
X187317143Y-93527619D01*
X187698095Y-93527619D02*
X187745714Y-93480000D01*
X187840952Y-93432381D01*
X188079048Y-93432381D01*
X188174286Y-93480000D01*
X188221905Y-93527619D01*
X188269524Y-93622857D01*
X188269524Y-93718095D01*
X188221905Y-93860952D01*
X187650476Y-94432381D01*
X188269524Y-94432381D01*
X188602857Y-93432381D02*
X189269524Y-93432381D01*
X188840952Y-94432381D01*
X180332143Y-94337143D02*
X180284524Y-94384762D01*
X180141667Y-94432381D01*
X180046429Y-94432381D01*
X179903571Y-94384762D01*
X179808333Y-94289524D01*
X179760714Y-94194286D01*
X179713095Y-94003810D01*
X179713095Y-93860952D01*
X179760714Y-93670476D01*
X179808333Y-93575238D01*
X179903571Y-93480000D01*
X180046429Y-93432381D01*
X180141667Y-93432381D01*
X180284524Y-93480000D01*
X180332143Y-93527619D01*
X180713095Y-93527619D02*
X180760714Y-93480000D01*
X180855952Y-93432381D01*
X181094048Y-93432381D01*
X181189286Y-93480000D01*
X181236905Y-93527619D01*
X181284524Y-93622857D01*
X181284524Y-93718095D01*
X181236905Y-93860952D01*
X180665476Y-94432381D01*
X181284524Y-94432381D01*
X181855952Y-93860952D02*
X181760714Y-93813333D01*
X181713095Y-93765714D01*
X181665476Y-93670476D01*
X181665476Y-93622857D01*
X181713095Y-93527619D01*
X181760714Y-93480000D01*
X181855952Y-93432381D01*
X182046429Y-93432381D01*
X182141667Y-93480000D01*
X182189286Y-93527619D01*
X182236905Y-93622857D01*
X182236905Y-93670476D01*
X182189286Y-93765714D01*
X182141667Y-93813333D01*
X182046429Y-93860952D01*
X181855952Y-93860952D01*
X181760714Y-93908571D01*
X181713095Y-93956190D01*
X181665476Y-94051429D01*
X181665476Y-94241905D01*
X181713095Y-94337143D01*
X181760714Y-94384762D01*
X181855952Y-94432381D01*
X182046429Y-94432381D01*
X182141667Y-94384762D01*
X182189286Y-94337143D01*
X182236905Y-94241905D01*
X182236905Y-94051429D01*
X182189286Y-93956190D01*
X182141667Y-93908571D01*
X182046429Y-93860952D01*
X154424143Y-100433143D02*
X154376524Y-100480762D01*
X154233667Y-100528381D01*
X154138429Y-100528381D01*
X153995571Y-100480762D01*
X153900333Y-100385524D01*
X153852714Y-100290286D01*
X153805095Y-100099810D01*
X153805095Y-99956952D01*
X153852714Y-99766476D01*
X153900333Y-99671238D01*
X153995571Y-99576000D01*
X154138429Y-99528381D01*
X154233667Y-99528381D01*
X154376524Y-99576000D01*
X154424143Y-99623619D01*
X154805095Y-99623619D02*
X154852714Y-99576000D01*
X154947952Y-99528381D01*
X155186048Y-99528381D01*
X155281286Y-99576000D01*
X155328905Y-99623619D01*
X155376524Y-99718857D01*
X155376524Y-99814095D01*
X155328905Y-99956952D01*
X154757476Y-100528381D01*
X155376524Y-100528381D01*
X155852714Y-100528381D02*
X156043190Y-100528381D01*
X156138429Y-100480762D01*
X156186048Y-100433143D01*
X156281286Y-100290286D01*
X156328905Y-100099810D01*
X156328905Y-99718857D01*
X156281286Y-99623619D01*
X156233667Y-99576000D01*
X156138429Y-99528381D01*
X155947952Y-99528381D01*
X155852714Y-99576000D01*
X155805095Y-99623619D01*
X155757476Y-99718857D01*
X155757476Y-99956952D01*
X155805095Y-100052190D01*
X155852714Y-100099810D01*
X155947952Y-100147429D01*
X156138429Y-100147429D01*
X156233667Y-100099810D01*
X156281286Y-100052190D01*
X156328905Y-99956952D01*
X162552143Y-100433143D02*
X162504524Y-100480762D01*
X162361667Y-100528381D01*
X162266429Y-100528381D01*
X162123571Y-100480762D01*
X162028333Y-100385524D01*
X161980714Y-100290286D01*
X161933095Y-100099810D01*
X161933095Y-99956952D01*
X161980714Y-99766476D01*
X162028333Y-99671238D01*
X162123571Y-99576000D01*
X162266429Y-99528381D01*
X162361667Y-99528381D01*
X162504524Y-99576000D01*
X162552143Y-99623619D01*
X162885476Y-99528381D02*
X163504524Y-99528381D01*
X163171190Y-99909333D01*
X163314048Y-99909333D01*
X163409286Y-99956952D01*
X163456905Y-100004571D01*
X163504524Y-100099810D01*
X163504524Y-100337905D01*
X163456905Y-100433143D01*
X163409286Y-100480762D01*
X163314048Y-100528381D01*
X163028333Y-100528381D01*
X162933095Y-100480762D01*
X162885476Y-100433143D01*
X164123571Y-99528381D02*
X164218810Y-99528381D01*
X164314048Y-99576000D01*
X164361667Y-99623619D01*
X164409286Y-99718857D01*
X164456905Y-99909333D01*
X164456905Y-100147429D01*
X164409286Y-100337905D01*
X164361667Y-100433143D01*
X164314048Y-100480762D01*
X164218810Y-100528381D01*
X164123571Y-100528381D01*
X164028333Y-100480762D01*
X163980714Y-100433143D01*
X163933095Y-100337905D01*
X163885476Y-100147429D01*
X163885476Y-99909333D01*
X163933095Y-99718857D01*
X163980714Y-99623619D01*
X164028333Y-99576000D01*
X164123571Y-99528381D01*
X170807143Y-100687143D02*
X170759524Y-100734762D01*
X170616667Y-100782381D01*
X170521429Y-100782381D01*
X170378571Y-100734762D01*
X170283333Y-100639524D01*
X170235714Y-100544286D01*
X170188095Y-100353810D01*
X170188095Y-100210952D01*
X170235714Y-100020476D01*
X170283333Y-99925238D01*
X170378571Y-99830000D01*
X170521429Y-99782381D01*
X170616667Y-99782381D01*
X170759524Y-99830000D01*
X170807143Y-99877619D01*
X171140476Y-99782381D02*
X171759524Y-99782381D01*
X171426190Y-100163333D01*
X171569048Y-100163333D01*
X171664286Y-100210952D01*
X171711905Y-100258571D01*
X171759524Y-100353810D01*
X171759524Y-100591905D01*
X171711905Y-100687143D01*
X171664286Y-100734762D01*
X171569048Y-100782381D01*
X171283333Y-100782381D01*
X171188095Y-100734762D01*
X171140476Y-100687143D01*
X172711905Y-100782381D02*
X172140476Y-100782381D01*
X172426190Y-100782381D02*
X172426190Y-99782381D01*
X172330952Y-99925238D01*
X172235714Y-100020476D01*
X172140476Y-100068095D01*
X153971667Y-57237381D02*
X153971667Y-57951667D01*
X153924047Y-58094524D01*
X153828809Y-58189762D01*
X153685952Y-58237381D01*
X153590714Y-58237381D01*
X154971667Y-58237381D02*
X154400238Y-58237381D01*
X154685952Y-58237381D02*
X154685952Y-57237381D01*
X154590714Y-57380238D01*
X154495476Y-57475476D01*
X154400238Y-57523095D01*
X156384667Y-73366381D02*
X156384667Y-74080667D01*
X156337047Y-74223524D01*
X156241809Y-74318762D01*
X156098952Y-74366381D01*
X156003714Y-74366381D01*
X156813238Y-73461619D02*
X156860857Y-73414000D01*
X156956095Y-73366381D01*
X157194191Y-73366381D01*
X157289429Y-73414000D01*
X157337048Y-73461619D01*
X157384667Y-73556857D01*
X157384667Y-73652095D01*
X157337048Y-73794952D01*
X156765619Y-74366381D01*
X157384667Y-74366381D01*
X156130667Y-77430381D02*
X156130667Y-78144667D01*
X156083047Y-78287524D01*
X155987809Y-78382762D01*
X155844952Y-78430381D01*
X155749714Y-78430381D01*
X156511619Y-77430381D02*
X157130667Y-77430381D01*
X156797333Y-77811333D01*
X156940191Y-77811333D01*
X157035429Y-77858952D01*
X157083048Y-77906571D01*
X157130667Y-78001810D01*
X157130667Y-78239905D01*
X157083048Y-78335143D01*
X157035429Y-78382762D01*
X156940191Y-78430381D01*
X156654476Y-78430381D01*
X156559238Y-78382762D01*
X156511619Y-78335143D01*
X188896667Y-82065881D02*
X188896667Y-82780167D01*
X188849047Y-82923024D01*
X188753809Y-83018262D01*
X188610952Y-83065881D01*
X188515714Y-83065881D01*
X189801429Y-82399214D02*
X189801429Y-83065881D01*
X189563333Y-82018262D02*
X189325238Y-82732548D01*
X189944286Y-82732548D01*
X185975667Y-101433381D02*
X185975667Y-102147667D01*
X185928047Y-102290524D01*
X185832809Y-102385762D01*
X185689952Y-102433381D01*
X185594714Y-102433381D01*
X186928048Y-101433381D02*
X186451857Y-101433381D01*
X186404238Y-101909571D01*
X186451857Y-101861952D01*
X186547095Y-101814333D01*
X186785191Y-101814333D01*
X186880429Y-101861952D01*
X186928048Y-101909571D01*
X186975667Y-102004810D01*
X186975667Y-102242905D01*
X186928048Y-102338143D01*
X186880429Y-102385762D01*
X186785191Y-102433381D01*
X186547095Y-102433381D01*
X186451857Y-102385762D01*
X186404238Y-102338143D01*
X179411334Y-78938381D02*
X178935143Y-78938381D01*
X178935143Y-77938381D01*
X180268477Y-78938381D02*
X179697048Y-78938381D01*
X179982762Y-78938381D02*
X179982762Y-77938381D01*
X179887524Y-78081238D01*
X179792286Y-78176476D01*
X179697048Y-78224095D01*
X171664334Y-81605381D02*
X171188143Y-81605381D01*
X171188143Y-80605381D01*
X171950048Y-80700619D02*
X171997667Y-80653000D01*
X172092905Y-80605381D01*
X172331001Y-80605381D01*
X172426239Y-80653000D01*
X172473858Y-80700619D01*
X172521477Y-80795857D01*
X172521477Y-80891095D01*
X172473858Y-81033952D01*
X171902429Y-81605381D01*
X172521477Y-81605381D01*
X175712381Y-71286666D02*
X175712381Y-71762857D01*
X174712381Y-71762857D01*
X174712381Y-71048571D02*
X174712381Y-70429523D01*
X175093333Y-70762857D01*
X175093333Y-70619999D01*
X175140952Y-70524761D01*
X175188571Y-70477142D01*
X175283810Y-70429523D01*
X175521905Y-70429523D01*
X175617143Y-70477142D01*
X175664762Y-70524761D01*
X175712381Y-70619999D01*
X175712381Y-70905714D01*
X175664762Y-71000952D01*
X175617143Y-71048571D01*
X164171334Y-87447381D02*
X163695143Y-87447381D01*
X163695143Y-86447381D01*
X164933239Y-86780714D02*
X164933239Y-87447381D01*
X164695143Y-86399762D02*
X164457048Y-87114048D01*
X165076096Y-87114048D01*
X168044834Y-90177881D02*
X167568643Y-90177881D01*
X167568643Y-89177881D01*
X168854358Y-89177881D02*
X168378167Y-89177881D01*
X168330548Y-89654071D01*
X168378167Y-89606452D01*
X168473405Y-89558833D01*
X168711501Y-89558833D01*
X168806739Y-89606452D01*
X168854358Y-89654071D01*
X168901977Y-89749310D01*
X168901977Y-89987405D01*
X168854358Y-90082643D01*
X168806739Y-90130262D01*
X168711501Y-90177881D01*
X168473405Y-90177881D01*
X168378167Y-90130262D01*
X168330548Y-90082643D01*
X153503334Y-92527381D02*
X153027143Y-92527381D01*
X153027143Y-91527381D01*
X154265239Y-91527381D02*
X154074762Y-91527381D01*
X153979524Y-91575000D01*
X153931905Y-91622619D01*
X153836667Y-91765476D01*
X153789048Y-91955952D01*
X153789048Y-92336905D01*
X153836667Y-92432143D01*
X153884286Y-92479762D01*
X153979524Y-92527381D01*
X154170001Y-92527381D01*
X154265239Y-92479762D01*
X154312858Y-92432143D01*
X154360477Y-92336905D01*
X154360477Y-92098810D01*
X154312858Y-92003571D01*
X154265239Y-91955952D01*
X154170001Y-91908333D01*
X153979524Y-91908333D01*
X153884286Y-91955952D01*
X153836667Y-92003571D01*
X153789048Y-92098810D01*
X159472334Y-97734381D02*
X158996143Y-97734381D01*
X158996143Y-96734381D01*
X159710429Y-96734381D02*
X160377096Y-96734381D01*
X159948524Y-97734381D01*
X166774834Y-97924881D02*
X166298643Y-97924881D01*
X166298643Y-96924881D01*
X167251024Y-97353452D02*
X167155786Y-97305833D01*
X167108167Y-97258214D01*
X167060548Y-97162976D01*
X167060548Y-97115357D01*
X167108167Y-97020119D01*
X167155786Y-96972500D01*
X167251024Y-96924881D01*
X167441501Y-96924881D01*
X167536739Y-96972500D01*
X167584358Y-97020119D01*
X167631977Y-97115357D01*
X167631977Y-97162976D01*
X167584358Y-97258214D01*
X167536739Y-97305833D01*
X167441501Y-97353452D01*
X167251024Y-97353452D01*
X167155786Y-97401071D01*
X167108167Y-97448690D01*
X167060548Y-97543929D01*
X167060548Y-97734405D01*
X167108167Y-97829643D01*
X167155786Y-97877262D01*
X167251024Y-97924881D01*
X167441501Y-97924881D01*
X167536739Y-97877262D01*
X167584358Y-97829643D01*
X167631977Y-97734405D01*
X167631977Y-97543929D01*
X167584358Y-97448690D01*
X167536739Y-97401071D01*
X167441501Y-97353452D01*
X179157334Y-96337381D02*
X178681143Y-96337381D01*
X178681143Y-95337381D01*
X179538286Y-96337381D02*
X179728762Y-96337381D01*
X179824001Y-96289762D01*
X179871620Y-96242143D01*
X179966858Y-96099286D01*
X180014477Y-95908810D01*
X180014477Y-95527857D01*
X179966858Y-95432619D01*
X179919239Y-95385000D01*
X179824001Y-95337381D01*
X179633524Y-95337381D01*
X179538286Y-95385000D01*
X179490667Y-95432619D01*
X179443048Y-95527857D01*
X179443048Y-95765952D01*
X179490667Y-95861190D01*
X179538286Y-95908810D01*
X179633524Y-95956429D01*
X179824001Y-95956429D01*
X179919239Y-95908810D01*
X179966858Y-95861190D01*
X180014477Y-95765952D01*
X181260762Y-84621619D02*
X181165524Y-84574000D01*
X181070286Y-84478762D01*
X180927429Y-84335905D01*
X180832190Y-84288286D01*
X180736952Y-84288286D01*
X180784571Y-84526381D02*
X180689333Y-84478762D01*
X180594095Y-84383524D01*
X180546476Y-84193048D01*
X180546476Y-83859714D01*
X180594095Y-83669238D01*
X180689333Y-83574000D01*
X180784571Y-83526381D01*
X180975048Y-83526381D01*
X181070286Y-83574000D01*
X181165524Y-83669238D01*
X181213143Y-83859714D01*
X181213143Y-84193048D01*
X181165524Y-84383524D01*
X181070286Y-84478762D01*
X180975048Y-84526381D01*
X180784571Y-84526381D01*
X182165524Y-84526381D02*
X181594095Y-84526381D01*
X181879809Y-84526381D02*
X181879809Y-83526381D01*
X181784571Y-83669238D01*
X181689333Y-83764476D01*
X181594095Y-83812095D01*
X183546762Y-77001619D02*
X183451524Y-76954000D01*
X183356286Y-76858762D01*
X183213429Y-76715905D01*
X183118190Y-76668286D01*
X183022952Y-76668286D01*
X183070571Y-76906381D02*
X182975333Y-76858762D01*
X182880095Y-76763524D01*
X182832476Y-76573048D01*
X182832476Y-76239714D01*
X182880095Y-76049238D01*
X182975333Y-75954000D01*
X183070571Y-75906381D01*
X183261048Y-75906381D01*
X183356286Y-75954000D01*
X183451524Y-76049238D01*
X183499143Y-76239714D01*
X183499143Y-76573048D01*
X183451524Y-76763524D01*
X183356286Y-76858762D01*
X183261048Y-76906381D01*
X183070571Y-76906381D01*
X183880095Y-76001619D02*
X183927714Y-75954000D01*
X184022952Y-75906381D01*
X184261048Y-75906381D01*
X184356286Y-75954000D01*
X184403905Y-76001619D01*
X184451524Y-76096857D01*
X184451524Y-76192095D01*
X184403905Y-76334952D01*
X183832476Y-76906381D01*
X184451524Y-76906381D01*
X179609762Y-73064619D02*
X179514524Y-73017000D01*
X179419286Y-72921762D01*
X179276429Y-72778905D01*
X179181190Y-72731286D01*
X179085952Y-72731286D01*
X179133571Y-72969381D02*
X179038333Y-72921762D01*
X178943095Y-72826524D01*
X178895476Y-72636048D01*
X178895476Y-72302714D01*
X178943095Y-72112238D01*
X179038333Y-72017000D01*
X179133571Y-71969381D01*
X179324048Y-71969381D01*
X179419286Y-72017000D01*
X179514524Y-72112238D01*
X179562143Y-72302714D01*
X179562143Y-72636048D01*
X179514524Y-72826524D01*
X179419286Y-72921762D01*
X179324048Y-72969381D01*
X179133571Y-72969381D01*
X179895476Y-71969381D02*
X180514524Y-71969381D01*
X180181190Y-72350333D01*
X180324048Y-72350333D01*
X180419286Y-72397952D01*
X180466905Y-72445571D01*
X180514524Y-72540810D01*
X180514524Y-72778905D01*
X180466905Y-72874143D01*
X180419286Y-72921762D01*
X180324048Y-72969381D01*
X180038333Y-72969381D01*
X179943095Y-72921762D01*
X179895476Y-72874143D01*
X174585334Y-94305381D02*
X174252000Y-93829190D01*
X174013905Y-94305381D02*
X174013905Y-93305381D01*
X174394858Y-93305381D01*
X174490096Y-93353000D01*
X174537715Y-93400619D01*
X174585334Y-93495857D01*
X174585334Y-93638714D01*
X174537715Y-93733952D01*
X174490096Y-93781571D01*
X174394858Y-93829190D01*
X174013905Y-93829190D01*
X175537715Y-94305381D02*
X174966286Y-94305381D01*
X175252000Y-94305381D02*
X175252000Y-93305381D01*
X175156762Y-93448238D01*
X175061524Y-93543476D01*
X174966286Y-93591095D01*
X157995881Y-68619666D02*
X157519690Y-68953000D01*
X157995881Y-69191095D02*
X156995881Y-69191095D01*
X156995881Y-68810142D01*
X157043500Y-68714904D01*
X157091119Y-68667285D01*
X157186357Y-68619666D01*
X157329214Y-68619666D01*
X157424452Y-68667285D01*
X157472071Y-68714904D01*
X157519690Y-68810142D01*
X157519690Y-69191095D01*
X157091119Y-68238714D02*
X157043500Y-68191095D01*
X156995881Y-68095857D01*
X156995881Y-67857761D01*
X157043500Y-67762523D01*
X157091119Y-67714904D01*
X157186357Y-67667285D01*
X157281595Y-67667285D01*
X157424452Y-67714904D01*
X157995881Y-68286333D01*
X157995881Y-67667285D01*
X160535881Y-68810166D02*
X160059690Y-69143500D01*
X160535881Y-69381595D02*
X159535881Y-69381595D01*
X159535881Y-69000642D01*
X159583500Y-68905404D01*
X159631119Y-68857785D01*
X159726357Y-68810166D01*
X159869214Y-68810166D01*
X159964452Y-68857785D01*
X160012071Y-68905404D01*
X160059690Y-69000642D01*
X160059690Y-69381595D01*
X159535881Y-68476833D02*
X159535881Y-67857785D01*
X159916833Y-68191119D01*
X159916833Y-68048261D01*
X159964452Y-67953023D01*
X160012071Y-67905404D01*
X160107310Y-67857785D01*
X160345405Y-67857785D01*
X160440643Y-67905404D01*
X160488262Y-67953023D01*
X160535881Y-68048261D01*
X160535881Y-68333976D01*
X160488262Y-68429214D01*
X160440643Y-68476833D01*
X173823334Y-81224381D02*
X173490000Y-80748190D01*
X173251905Y-81224381D02*
X173251905Y-80224381D01*
X173632858Y-80224381D01*
X173728096Y-80272000D01*
X173775715Y-80319619D01*
X173823334Y-80414857D01*
X173823334Y-80557714D01*
X173775715Y-80652952D01*
X173728096Y-80700571D01*
X173632858Y-80748190D01*
X173251905Y-80748190D01*
X174680477Y-80557714D02*
X174680477Y-81224381D01*
X174442381Y-80176762D02*
X174204286Y-80891048D01*
X174823334Y-80891048D01*
X157995881Y-63730166D02*
X157519690Y-64063500D01*
X157995881Y-64301595D02*
X156995881Y-64301595D01*
X156995881Y-63920642D01*
X157043500Y-63825404D01*
X157091119Y-63777785D01*
X157186357Y-63730166D01*
X157329214Y-63730166D01*
X157424452Y-63777785D01*
X157472071Y-63825404D01*
X157519690Y-63920642D01*
X157519690Y-64301595D01*
X156995881Y-62825404D02*
X156995881Y-63301595D01*
X157472071Y-63349214D01*
X157424452Y-63301595D01*
X157376833Y-63206357D01*
X157376833Y-62968261D01*
X157424452Y-62873023D01*
X157472071Y-62825404D01*
X157567310Y-62777785D01*
X157805405Y-62777785D01*
X157900643Y-62825404D01*
X157948262Y-62873023D01*
X157995881Y-62968261D01*
X157995881Y-63206357D01*
X157948262Y-63301595D01*
X157900643Y-63349214D01*
X163139381Y-63666666D02*
X162663190Y-64000000D01*
X163139381Y-64238095D02*
X162139381Y-64238095D01*
X162139381Y-63857142D01*
X162187000Y-63761904D01*
X162234619Y-63714285D01*
X162329857Y-63666666D01*
X162472714Y-63666666D01*
X162567952Y-63714285D01*
X162615571Y-63761904D01*
X162663190Y-63857142D01*
X162663190Y-64238095D01*
X162139381Y-62809523D02*
X162139381Y-63000000D01*
X162187000Y-63095238D01*
X162234619Y-63142857D01*
X162377476Y-63238095D01*
X162567952Y-63285714D01*
X162948905Y-63285714D01*
X163044143Y-63238095D01*
X163091762Y-63190476D01*
X163139381Y-63095238D01*
X163139381Y-62904761D01*
X163091762Y-62809523D01*
X163044143Y-62761904D01*
X162948905Y-62714285D01*
X162710810Y-62714285D01*
X162615571Y-62761904D01*
X162567952Y-62809523D01*
X162520333Y-62904761D01*
X162520333Y-63095238D01*
X162567952Y-63190476D01*
X162615571Y-63238095D01*
X162710810Y-63285714D01*
X181951334Y-78430381D02*
X181618000Y-77954190D01*
X181379905Y-78430381D02*
X181379905Y-77430381D01*
X181760858Y-77430381D01*
X181856096Y-77478000D01*
X181903715Y-77525619D01*
X181951334Y-77620857D01*
X181951334Y-77763714D01*
X181903715Y-77858952D01*
X181856096Y-77906571D01*
X181760858Y-77954190D01*
X181379905Y-77954190D01*
X182284667Y-77430381D02*
X182951334Y-77430381D01*
X182522762Y-78430381D01*
X186712381Y-85891666D02*
X186236190Y-86225000D01*
X186712381Y-86463095D02*
X185712381Y-86463095D01*
X185712381Y-86082142D01*
X185760000Y-85986904D01*
X185807619Y-85939285D01*
X185902857Y-85891666D01*
X186045714Y-85891666D01*
X186140952Y-85939285D01*
X186188571Y-85986904D01*
X186236190Y-86082142D01*
X186236190Y-86463095D01*
X186140952Y-85320238D02*
X186093333Y-85415476D01*
X186045714Y-85463095D01*
X185950476Y-85510714D01*
X185902857Y-85510714D01*
X185807619Y-85463095D01*
X185760000Y-85415476D01*
X185712381Y-85320238D01*
X185712381Y-85129761D01*
X185760000Y-85034523D01*
X185807619Y-84986904D01*
X185902857Y-84939285D01*
X185950476Y-84939285D01*
X186045714Y-84986904D01*
X186093333Y-85034523D01*
X186140952Y-85129761D01*
X186140952Y-85320238D01*
X186188571Y-85415476D01*
X186236190Y-85463095D01*
X186331429Y-85510714D01*
X186521905Y-85510714D01*
X186617143Y-85463095D01*
X186664762Y-85415476D01*
X186712381Y-85320238D01*
X186712381Y-85129761D01*
X186664762Y-85034523D01*
X186617143Y-84986904D01*
X186521905Y-84939285D01*
X186331429Y-84939285D01*
X186236190Y-84986904D01*
X186188571Y-85034523D01*
X186140952Y-85129761D01*
X173094381Y-71286666D02*
X172618190Y-71620000D01*
X173094381Y-71858095D02*
X172094381Y-71858095D01*
X172094381Y-71477142D01*
X172142000Y-71381904D01*
X172189619Y-71334285D01*
X172284857Y-71286666D01*
X172427714Y-71286666D01*
X172522952Y-71334285D01*
X172570571Y-71381904D01*
X172618190Y-71477142D01*
X172618190Y-71858095D01*
X173094381Y-70810476D02*
X173094381Y-70620000D01*
X173046762Y-70524761D01*
X172999143Y-70477142D01*
X172856286Y-70381904D01*
X172665810Y-70334285D01*
X172284857Y-70334285D01*
X172189619Y-70381904D01*
X172142000Y-70429523D01*
X172094381Y-70524761D01*
X172094381Y-70715238D01*
X172142000Y-70810476D01*
X172189619Y-70858095D01*
X172284857Y-70905714D01*
X172522952Y-70905714D01*
X172618190Y-70858095D01*
X172665810Y-70810476D01*
X172713429Y-70715238D01*
X172713429Y-70524761D01*
X172665810Y-70429523D01*
X172618190Y-70381904D01*
X172522952Y-70334285D01*
X178046143Y-76652381D02*
X177712809Y-76176190D01*
X177474714Y-76652381D02*
X177474714Y-75652381D01*
X177855667Y-75652381D01*
X177950905Y-75700000D01*
X177998524Y-75747619D01*
X178046143Y-75842857D01*
X178046143Y-75985714D01*
X177998524Y-76080952D01*
X177950905Y-76128571D01*
X177855667Y-76176190D01*
X177474714Y-76176190D01*
X178998524Y-76652381D02*
X178427095Y-76652381D01*
X178712809Y-76652381D02*
X178712809Y-75652381D01*
X178617571Y-75795238D01*
X178522333Y-75890476D01*
X178427095Y-75938095D01*
X179617571Y-75652381D02*
X179712810Y-75652381D01*
X179808048Y-75700000D01*
X179855667Y-75747619D01*
X179903286Y-75842857D01*
X179950905Y-76033333D01*
X179950905Y-76271429D01*
X179903286Y-76461905D01*
X179855667Y-76557143D01*
X179808048Y-76604762D01*
X179712810Y-76652381D01*
X179617571Y-76652381D01*
X179522333Y-76604762D01*
X179474714Y-76557143D01*
X179427095Y-76461905D01*
X179379476Y-76271429D01*
X179379476Y-76033333D01*
X179427095Y-75842857D01*
X179474714Y-75747619D01*
X179522333Y-75700000D01*
X179617571Y-75652381D01*
X168648143Y-74747381D02*
X168314809Y-74271190D01*
X168076714Y-74747381D02*
X168076714Y-73747381D01*
X168457667Y-73747381D01*
X168552905Y-73795000D01*
X168600524Y-73842619D01*
X168648143Y-73937857D01*
X168648143Y-74080714D01*
X168600524Y-74175952D01*
X168552905Y-74223571D01*
X168457667Y-74271190D01*
X168076714Y-74271190D01*
X169600524Y-74747381D02*
X169029095Y-74747381D01*
X169314809Y-74747381D02*
X169314809Y-73747381D01*
X169219571Y-73890238D01*
X169124333Y-73985476D01*
X169029095Y-74033095D01*
X170552905Y-74747381D02*
X169981476Y-74747381D01*
X170267190Y-74747381D02*
X170267190Y-73747381D01*
X170171952Y-73890238D01*
X170076714Y-73985476D01*
X169981476Y-74033095D01*
X165981143Y-74620381D02*
X165647809Y-74144190D01*
X165409714Y-74620381D02*
X165409714Y-73620381D01*
X165790667Y-73620381D01*
X165885905Y-73668000D01*
X165933524Y-73715619D01*
X165981143Y-73810857D01*
X165981143Y-73953714D01*
X165933524Y-74048952D01*
X165885905Y-74096571D01*
X165790667Y-74144190D01*
X165409714Y-74144190D01*
X166933524Y-74620381D02*
X166362095Y-74620381D01*
X166647809Y-74620381D02*
X166647809Y-73620381D01*
X166552571Y-73763238D01*
X166457333Y-73858476D01*
X166362095Y-73906095D01*
X167314476Y-73715619D02*
X167362095Y-73668000D01*
X167457333Y-73620381D01*
X167695429Y-73620381D01*
X167790667Y-73668000D01*
X167838286Y-73715619D01*
X167885905Y-73810857D01*
X167885905Y-73906095D01*
X167838286Y-74048952D01*
X167266857Y-74620381D01*
X167885905Y-74620381D01*
X184650143Y-66619381D02*
X184316809Y-66143190D01*
X184078714Y-66619381D02*
X184078714Y-65619381D01*
X184459667Y-65619381D01*
X184554905Y-65667000D01*
X184602524Y-65714619D01*
X184650143Y-65809857D01*
X184650143Y-65952714D01*
X184602524Y-66047952D01*
X184554905Y-66095571D01*
X184459667Y-66143190D01*
X184078714Y-66143190D01*
X185602524Y-66619381D02*
X185031095Y-66619381D01*
X185316809Y-66619381D02*
X185316809Y-65619381D01*
X185221571Y-65762238D01*
X185126333Y-65857476D01*
X185031095Y-65905095D01*
X185935857Y-65619381D02*
X186554905Y-65619381D01*
X186221571Y-66000333D01*
X186364429Y-66000333D01*
X186459667Y-66047952D01*
X186507286Y-66095571D01*
X186554905Y-66190810D01*
X186554905Y-66428905D01*
X186507286Y-66524143D01*
X186459667Y-66571762D01*
X186364429Y-66619381D01*
X186078714Y-66619381D01*
X185983476Y-66571762D01*
X185935857Y-66524143D01*
X185793143Y-69286381D02*
X185459809Y-68810190D01*
X185221714Y-69286381D02*
X185221714Y-68286381D01*
X185602667Y-68286381D01*
X185697905Y-68334000D01*
X185745524Y-68381619D01*
X185793143Y-68476857D01*
X185793143Y-68619714D01*
X185745524Y-68714952D01*
X185697905Y-68762571D01*
X185602667Y-68810190D01*
X185221714Y-68810190D01*
X186745524Y-69286381D02*
X186174095Y-69286381D01*
X186459809Y-69286381D02*
X186459809Y-68286381D01*
X186364571Y-68429238D01*
X186269333Y-68524476D01*
X186174095Y-68572095D01*
X187602667Y-68619714D02*
X187602667Y-69286381D01*
X187364571Y-68238762D02*
X187126476Y-68953048D01*
X187745524Y-68953048D01*
X183634143Y-91003381D02*
X183300809Y-90527190D01*
X183062714Y-91003381D02*
X183062714Y-90003381D01*
X183443667Y-90003381D01*
X183538905Y-90051000D01*
X183586524Y-90098619D01*
X183634143Y-90193857D01*
X183634143Y-90336714D01*
X183586524Y-90431952D01*
X183538905Y-90479571D01*
X183443667Y-90527190D01*
X183062714Y-90527190D01*
X184586524Y-91003381D02*
X184015095Y-91003381D01*
X184300809Y-91003381D02*
X184300809Y-90003381D01*
X184205571Y-90146238D01*
X184110333Y-90241476D01*
X184015095Y-90289095D01*
X185491286Y-90003381D02*
X185015095Y-90003381D01*
X184967476Y-90479571D01*
X185015095Y-90431952D01*
X185110333Y-90384333D01*
X185348429Y-90384333D01*
X185443667Y-90431952D01*
X185491286Y-90479571D01*
X185538905Y-90574810D01*
X185538905Y-90812905D01*
X185491286Y-90908143D01*
X185443667Y-90955762D01*
X185348429Y-91003381D01*
X185110333Y-91003381D01*
X185015095Y-90955762D01*
X184967476Y-90908143D01*
X182110143Y-81048381D02*
X181776809Y-80572190D01*
X181538714Y-81048381D02*
X181538714Y-80048381D01*
X181919667Y-80048381D01*
X182014905Y-80096000D01*
X182062524Y-80143619D01*
X182110143Y-80238857D01*
X182110143Y-80381714D01*
X182062524Y-80476952D01*
X182014905Y-80524571D01*
X181919667Y-80572190D01*
X181538714Y-80572190D01*
X183062524Y-81048381D02*
X182491095Y-81048381D01*
X182776809Y-81048381D02*
X182776809Y-80048381D01*
X182681571Y-80191238D01*
X182586333Y-80286476D01*
X182491095Y-80334095D01*
X183919667Y-80048381D02*
X183729190Y-80048381D01*
X183633952Y-80096000D01*
X183586333Y-80143619D01*
X183491095Y-80286476D01*
X183443476Y-80476952D01*
X183443476Y-80857905D01*
X183491095Y-80953143D01*
X183538714Y-81000762D01*
X183633952Y-81048381D01*
X183824429Y-81048381D01*
X183919667Y-81000762D01*
X183967286Y-80953143D01*
X184014905Y-80857905D01*
X184014905Y-80619810D01*
X183967286Y-80524571D01*
X183919667Y-80476952D01*
X183824429Y-80429333D01*
X183633952Y-80429333D01*
X183538714Y-80476952D01*
X183491095Y-80524571D01*
X183443476Y-80619810D01*
X184443762Y-58237381D02*
X184110428Y-57761190D01*
X183872333Y-58237381D02*
X183872333Y-57237381D01*
X184253286Y-57237381D01*
X184348524Y-57285000D01*
X184396143Y-57332619D01*
X184443762Y-57427857D01*
X184443762Y-57570714D01*
X184396143Y-57665952D01*
X184348524Y-57713571D01*
X184253286Y-57761190D01*
X183872333Y-57761190D01*
X184729476Y-57237381D02*
X185062809Y-58237381D01*
X185396143Y-57237381D01*
X186253286Y-58237381D02*
X185681857Y-58237381D01*
X185967571Y-58237381D02*
X185967571Y-57237381D01*
X185872333Y-57380238D01*
X185777095Y-57475476D01*
X185681857Y-57523095D01*
X164377762Y-58618381D02*
X164044428Y-58142190D01*
X163806333Y-58618381D02*
X163806333Y-57618381D01*
X164187286Y-57618381D01*
X164282524Y-57666000D01*
X164330143Y-57713619D01*
X164377762Y-57808857D01*
X164377762Y-57951714D01*
X164330143Y-58046952D01*
X164282524Y-58094571D01*
X164187286Y-58142190D01*
X163806333Y-58142190D01*
X164663476Y-57618381D02*
X164996809Y-58618381D01*
X165330143Y-57618381D01*
X165615857Y-57713619D02*
X165663476Y-57666000D01*
X165758714Y-57618381D01*
X165996810Y-57618381D01*
X166092048Y-57666000D01*
X166139667Y-57713619D01*
X166187286Y-57808857D01*
X166187286Y-57904095D01*
X166139667Y-58046952D01*
X165568238Y-58618381D01*
X166187286Y-58618381D01*
X169672095Y-62952381D02*
X169672095Y-63761905D01*
X169719714Y-63857143D01*
X169767333Y-63904762D01*
X169862571Y-63952381D01*
X170053048Y-63952381D01*
X170148286Y-63904762D01*
X170195905Y-63857143D01*
X170243524Y-63761905D01*
X170243524Y-62952381D01*
X171243524Y-63952381D02*
X170672095Y-63952381D01*
X170957809Y-63952381D02*
X170957809Y-62952381D01*
X170862571Y-63095238D01*
X170767333Y-63190476D01*
X170672095Y-63238095D01*
X168021095Y-77684381D02*
X168021095Y-78493905D01*
X168068714Y-78589143D01*
X168116333Y-78636762D01*
X168211571Y-78684381D01*
X168402048Y-78684381D01*
X168497286Y-78636762D01*
X168544905Y-78589143D01*
X168592524Y-78493905D01*
X168592524Y-77684381D01*
X169021095Y-77779619D02*
X169068714Y-77732000D01*
X169163952Y-77684381D01*
X169402048Y-77684381D01*
X169497286Y-77732000D01*
X169544905Y-77779619D01*
X169592524Y-77874857D01*
X169592524Y-77970095D01*
X169544905Y-78112952D01*
X168973476Y-78684381D01*
X169592524Y-78684381D01*
X160020095Y-84288381D02*
X160020095Y-85097905D01*
X160067714Y-85193143D01*
X160115333Y-85240762D01*
X160210571Y-85288381D01*
X160401048Y-85288381D01*
X160496286Y-85240762D01*
X160543905Y-85193143D01*
X160591524Y-85097905D01*
X160591524Y-84288381D01*
X160972476Y-84288381D02*
X161591524Y-84288381D01*
X161258190Y-84669333D01*
X161401048Y-84669333D01*
X161496286Y-84716952D01*
X161543905Y-84764571D01*
X161591524Y-84859810D01*
X161591524Y-85097905D01*
X161543905Y-85193143D01*
X161496286Y-85240762D01*
X161401048Y-85288381D01*
X161115333Y-85288381D01*
X161020095Y-85240762D01*
X160972476Y-85193143D01*
X162242595Y-71016881D02*
X162242595Y-71826405D01*
X162290214Y-71921643D01*
X162337833Y-71969262D01*
X162433071Y-72016881D01*
X162623548Y-72016881D01*
X162718786Y-71969262D01*
X162766405Y-71921643D01*
X162814024Y-71826405D01*
X162814024Y-71016881D01*
X163718786Y-71350214D02*
X163718786Y-72016881D01*
X163480690Y-70969262D02*
X163242595Y-71683548D01*
X163861643Y-71683548D01*
X187953481Y-63551219D02*
X186953481Y-63551219D01*
X186953481Y-63313124D01*
X187001100Y-63170266D01*
X187096338Y-63075028D01*
X187191576Y-63027409D01*
X187382052Y-62979790D01*
X187524910Y-62979790D01*
X187715386Y-63027409D01*
X187810624Y-63075028D01*
X187905862Y-63170266D01*
X187953481Y-63313124D01*
X187953481Y-63551219D01*
X187905862Y-62170266D02*
X187953481Y-62265504D01*
X187953481Y-62455981D01*
X187905862Y-62551219D01*
X187810624Y-62598838D01*
X187429671Y-62598838D01*
X187334433Y-62551219D01*
X187286814Y-62455981D01*
X187286814Y-62265504D01*
X187334433Y-62170266D01*
X187429671Y-62122647D01*
X187524910Y-62122647D01*
X187620148Y-62598838D01*
X187953481Y-61694076D02*
X186953481Y-61694076D01*
X187334433Y-61694076D02*
X187286814Y-61598838D01*
X187286814Y-61408361D01*
X187334433Y-61313123D01*
X187382052Y-61265504D01*
X187477290Y-61217885D01*
X187763005Y-61217885D01*
X187858243Y-61265504D01*
X187905862Y-61313123D01*
X187953481Y-61408361D01*
X187953481Y-61598838D01*
X187905862Y-61694076D01*
X187286814Y-60360742D02*
X187953481Y-60360742D01*
X187286814Y-60789314D02*
X187810624Y-60789314D01*
X187905862Y-60741695D01*
X187953481Y-60646457D01*
X187953481Y-60503599D01*
X187905862Y-60408361D01*
X187858243Y-60360742D01*
X187286814Y-59455980D02*
X188096338Y-59455980D01*
X188191576Y-59503599D01*
X188239195Y-59551218D01*
X188286814Y-59646457D01*
X188286814Y-59789314D01*
X188239195Y-59884552D01*
X187905862Y-59455980D02*
X187953481Y-59551218D01*
X187953481Y-59741695D01*
X187905862Y-59836933D01*
X187858243Y-59884552D01*
X187763005Y-59932171D01*
X187477290Y-59932171D01*
X187382052Y-59884552D01*
X187334433Y-59836933D01*
X187286814Y-59741695D01*
X187286814Y-59551218D01*
X187334433Y-59455980D01*
X189484286Y-63428619D02*
X189531905Y-63381000D01*
X189627143Y-63333381D01*
X189865239Y-63333381D01*
X189960477Y-63381000D01*
X190008096Y-63428619D01*
X190055715Y-63523857D01*
X190055715Y-63619095D01*
X190008096Y-63761952D01*
X189436667Y-64333381D01*
X190055715Y-64333381D01*
X190912858Y-63333381D02*
X190722381Y-63333381D01*
X190627143Y-63381000D01*
X190579524Y-63428619D01*
X190484286Y-63571476D01*
X190436667Y-63761952D01*
X190436667Y-64142905D01*
X190484286Y-64238143D01*
X190531905Y-64285762D01*
X190627143Y-64333381D01*
X190817620Y-64333381D01*
X190912858Y-64285762D01*
X190960477Y-64238143D01*
X191008096Y-64142905D01*
X191008096Y-63904810D01*
X190960477Y-63809571D01*
X190912858Y-63761952D01*
X190817620Y-63714333D01*
X190627143Y-63714333D01*
X190531905Y-63761952D01*
X190484286Y-63809571D01*
X190436667Y-63904810D01*
X192198572Y-63666714D02*
X192198572Y-64666714D01*
X192198572Y-63714333D02*
X192293810Y-63666714D01*
X192484287Y-63666714D01*
X192579525Y-63714333D01*
X192627144Y-63761952D01*
X192674763Y-63857190D01*
X192674763Y-64142905D01*
X192627144Y-64238143D01*
X192579525Y-64285762D01*
X192484287Y-64333381D01*
X192293810Y-64333381D01*
X192198572Y-64285762D01*
X193103334Y-64333381D02*
X193103334Y-63666714D01*
X193103334Y-63333381D02*
X193055715Y-63381000D01*
X193103334Y-63428619D01*
X193150953Y-63381000D01*
X193103334Y-63333381D01*
X193103334Y-63428619D01*
X193579524Y-63666714D02*
X193579524Y-64333381D01*
X193579524Y-63761952D02*
X193627143Y-63714333D01*
X193722381Y-63666714D01*
X193865239Y-63666714D01*
X193960477Y-63714333D01*
X194008096Y-63809571D01*
X194008096Y-64333381D01*
X152217381Y-94551285D02*
X152217381Y-95122714D01*
X152217381Y-94837000D02*
X151217381Y-94837000D01*
X151360238Y-94932238D01*
X151455476Y-95027476D01*
X151503095Y-95122714D01*
X151217381Y-94217952D02*
X151217381Y-93598904D01*
X151598333Y-93932238D01*
X151598333Y-93789380D01*
X151645952Y-93694142D01*
X151693571Y-93646523D01*
X151788810Y-93598904D01*
X152026905Y-93598904D01*
X152122143Y-93646523D01*
X152169762Y-93694142D01*
X152217381Y-93789380D01*
X152217381Y-94075095D01*
X152169762Y-94170333D01*
X152122143Y-94217952D01*
X151550714Y-92408428D02*
X152550714Y-92408428D01*
X151598333Y-92408428D02*
X151550714Y-92313190D01*
X151550714Y-92122713D01*
X151598333Y-92027475D01*
X151645952Y-91979856D01*
X151741190Y-91932237D01*
X152026905Y-91932237D01*
X152122143Y-91979856D01*
X152169762Y-92027475D01*
X152217381Y-92122713D01*
X152217381Y-92313190D01*
X152169762Y-92408428D01*
X152217381Y-91503666D02*
X151550714Y-91503666D01*
X151217381Y-91503666D02*
X151265000Y-91551285D01*
X151312619Y-91503666D01*
X151265000Y-91456047D01*
X151217381Y-91503666D01*
X151312619Y-91503666D01*
X151550714Y-91027476D02*
X152217381Y-91027476D01*
X151645952Y-91027476D02*
X151598333Y-90979857D01*
X151550714Y-90884619D01*
X151550714Y-90741761D01*
X151598333Y-90646523D01*
X151693571Y-90598904D01*
X152217381Y-90598904D01*
X185507381Y-88518905D02*
X186316905Y-88518905D01*
X186412143Y-88471286D01*
X186459762Y-88423667D01*
X186507381Y-88328429D01*
X186507381Y-88137952D01*
X186459762Y-88042714D01*
X186412143Y-87995095D01*
X186316905Y-87947476D01*
X185507381Y-87947476D01*
X185507381Y-86995095D02*
X185507381Y-87471286D01*
X185983571Y-87518905D01*
X185935952Y-87471286D01*
X185888333Y-87376048D01*
X185888333Y-87137952D01*
X185935952Y-87042714D01*
X185983571Y-86995095D01*
X186078810Y-86947476D01*
X186316905Y-86947476D01*
X186412143Y-86995095D01*
X186459762Y-87042714D01*
X186507381Y-87137952D01*
X186507381Y-87376048D01*
X186459762Y-87471286D01*
X186412143Y-87518905D01*
X184650143Y-95829381D02*
X184316809Y-95353190D01*
X184078714Y-95829381D02*
X184078714Y-94829381D01*
X184459667Y-94829381D01*
X184554905Y-94877000D01*
X184602524Y-94924619D01*
X184650143Y-95019857D01*
X184650143Y-95162714D01*
X184602524Y-95257952D01*
X184554905Y-95305571D01*
X184459667Y-95353190D01*
X184078714Y-95353190D01*
X185602524Y-95829381D02*
X185031095Y-95829381D01*
X185316809Y-95829381D02*
X185316809Y-94829381D01*
X185221571Y-94972238D01*
X185126333Y-95067476D01*
X185031095Y-95115095D01*
X185935857Y-94829381D02*
X186602524Y-94829381D01*
X186173952Y-95829381D01*
M02*
